<?xml version="1.0" encoding="utf-8" standalone="no"?>
<!DOCTYPE svg PUBLIC "-//W3C//DTD SVG 1.1//EN"
  "http://www.w3.org/Graphics/SVG/1.1/DTD/svg11.dtd">
<svg xmlns:xlink="http://www.w3.org/1999/xlink" width="720pt" height="432pt" viewBox="0 0 720 432" xmlns="http://www.w3.org/2000/svg" version="1.1">
 <metadata>
  <rdf:RDF xmlns:dc="http://purl.org/dc/elements/1.1/" xmlns:cc="http://creativecommons.org/ns#" xmlns:rdf="http://www.w3.org/1999/02/22-rdf-syntax-ns#">
   <cc:Work>
    <dc:type rdf:resource="http://purl.org/dc/dcmitype/StillImage"/>
    <dc:date>2024-05-10T00:00:16.542986</dc:date>
    <dc:format>image/svg+xml</dc:format>
    <dc:creator>
     <cc:Agent>
      <dc:title>Matplotlib v3.8.0, https://matplotlib.org/</dc:title>
     </cc:Agent>
    </dc:creator>
   </cc:Work>
  </rdf:RDF>
 </metadata>
 <defs>
  <style type="text/css">*{stroke-linejoin: round; stroke-linecap: butt}</style>
 </defs>
 <g id="figure_1">
  <g id="patch_1">
   <path d="M 0 432 
L 720 432 
L 720 0 
L 0 0 
L 0 432 
z
" style="fill: none; opacity: 0"/>
  </g>
  <g id="axes_1">
   <g id="patch_2">
    <path d="M 90 384.48 
L 648 384.48 
L 648 51.84 
L 90 51.84 
L 90 384.48 
z
" style="fill: none"/>
   </g>
   <g id="patch_3">
    <path d="M 115.363636 384.48 
L 155.029299 384.48 
L 155.029299 206.6688 
L 115.363636 206.6688 
z
" clip-path="url(#pb5b6365e73)" style="fill: #fcf500; fill-opacity: 0.175; stroke: #000000; stroke-linejoin: miter"/>
   </g>
   <g id="patch_4">
    <path d="M 155.029299 384.48 
L 194.694962 384.48 
L 194.694962 325.2096 
L 155.029299 325.2096 
z
" clip-path="url(#pb5b6365e73)" style="fill: #fcf500; fill-opacity: 0.175; stroke: #000000; stroke-linejoin: miter"/>
   </g>
   <g id="patch_5">
    <path d="M 194.694962 384.48 
L 234.360626 384.48 
L 234.360626 345.7728 
L 194.694962 345.7728 
z
" clip-path="url(#pb5b6365e73)" style="fill: #fcf500; fill-opacity: 0.175; stroke: #000000; stroke-linejoin: miter"/>
   </g>
   <g id="patch_6">
    <path d="M 234.360626 384.48 
L 274.026289 384.48 
L 274.026289 355.4496 
L 234.360626 355.4496 
z
" clip-path="url(#pb5b6365e73)" style="fill: #fcf500; fill-opacity: 0.175; stroke: #000000; stroke-linejoin: miter"/>
   </g>
   <g id="patch_7">
    <path d="M 274.026289 384.48 
L 313.691952 384.48 
L 313.691952 339.7248 
L 274.026289 339.7248 
z
" clip-path="url(#pb5b6365e73)" style="fill: #fcf500; fill-opacity: 0.175; stroke: #000000; stroke-linejoin: miter"/>
   </g>
   <g id="patch_8">
    <path d="M 313.691952 384.48 
L 353.357615 384.48 
L 353.357615 321.5808 
L 313.691952 321.5808 
z
" clip-path="url(#pb5b6365e73)" style="fill: #fcf500; fill-opacity: 0.175; stroke: #000000; stroke-linejoin: miter"/>
   </g>
   <g id="patch_9">
    <path d="M 353.357615 384.48 
L 393.023278 384.48 
L 393.023278 124.416 
L 353.357615 124.416 
z
" clip-path="url(#pb5b6365e73)" style="fill: #fcf500; fill-opacity: 0.175; stroke: #000000; stroke-linejoin: miter"/>
   </g>
   <g id="patch_10">
    <path d="M 393.023278 384.48 
L 432.688941 384.48 
L 432.688941 328.8384 
L 393.023278 328.8384 
z
" clip-path="url(#pb5b6365e73)" style="fill: #fcf500; fill-opacity: 0.175; stroke: #000000; stroke-linejoin: miter"/>
   </g>
   <g id="patch_11">
    <path d="M 432.688941 384.48 
L 472.354604 384.48 
L 472.354604 355.4496 
L 432.688941 355.4496 
z
" clip-path="url(#pb5b6365e73)" style="fill: #fcf500; fill-opacity: 0.175; stroke: #000000; stroke-linejoin: miter"/>
   </g>
   <g id="patch_12">
    <path d="M 472.354604 384.48 
L 512.020267 384.48 
L 512.020267 369.9648 
L 472.354604 369.9648 
z
" clip-path="url(#pb5b6365e73)" style="fill: #fcf500; fill-opacity: 0.175; stroke: #000000; stroke-linejoin: miter"/>
   </g>
   <g id="patch_13">
    <path d="M 512.020267 384.48 
L 551.68593 384.48 
L 551.68593 378.432 
L 512.020267 378.432 
z
" clip-path="url(#pb5b6365e73)" style="fill: #fcf500; fill-opacity: 0.175; stroke: #000000; stroke-linejoin: miter"/>
   </g>
   <g id="patch_14">
    <path d="M 115.363636 384.48 
L 154.881531 384.48 
L 154.881531 216.3456 
L 115.363636 216.3456 
z
" clip-path="url(#pb5b6365e73)" style="fill: #08ff00; fill-opacity: 0.175; stroke: #000000; stroke-linejoin: miter"/>
   </g>
   <g id="patch_15">
    <path d="M 154.881531 384.48 
L 194.399425 384.48 
L 194.399425 331.2576 
L 154.881531 331.2576 
z
" clip-path="url(#pb5b6365e73)" style="fill: #08ff00; fill-opacity: 0.175; stroke: #000000; stroke-linejoin: miter"/>
   </g>
   <g id="patch_16">
    <path d="M 194.399425 384.48 
L 233.917319 384.48 
L 233.917319 351.8208 
L 194.399425 351.8208 
z
" clip-path="url(#pb5b6365e73)" style="fill: #08ff00; fill-opacity: 0.175; stroke: #000000; stroke-linejoin: miter"/>
   </g>
   <g id="patch_17">
    <path d="M 233.917319 384.48 
L 273.435213 384.48 
L 273.435213 334.8864 
L 233.917319 334.8864 
z
" clip-path="url(#pb5b6365e73)" style="fill: #08ff00; fill-opacity: 0.175; stroke: #000000; stroke-linejoin: miter"/>
   </g>
   <g id="patch_18">
    <path d="M 273.435213 384.48 
L 312.953107 384.48 
L 312.953107 345.7728 
L 273.435213 345.7728 
z
" clip-path="url(#pb5b6365e73)" style="fill: #08ff00; fill-opacity: 0.175; stroke: #000000; stroke-linejoin: miter"/>
   </g>
   <g id="patch_19">
    <path d="M 312.953107 384.48 
L 352.471001 384.48 
L 352.471001 345.7728 
L 312.953107 345.7728 
z
" clip-path="url(#pb5b6365e73)" style="fill: #08ff00; fill-opacity: 0.175; stroke: #000000; stroke-linejoin: miter"/>
   </g>
   <g id="patch_20">
    <path d="M 352.471001 384.48 
L 391.988896 384.48 
L 391.988896 137.7216 
L 352.471001 137.7216 
z
" clip-path="url(#pb5b6365e73)" style="fill: #08ff00; fill-opacity: 0.175; stroke: #000000; stroke-linejoin: miter"/>
   </g>
   <g id="patch_21">
    <path d="M 391.988896 384.48 
L 431.50679 384.48 
L 431.50679 326.4192 
L 391.988896 326.4192 
z
" clip-path="url(#pb5b6365e73)" style="fill: #08ff00; fill-opacity: 0.175; stroke: #000000; stroke-linejoin: miter"/>
   </g>
   <g id="patch_22">
    <path d="M 431.50679 384.48 
L 471.024684 384.48 
L 471.024684 353.0304 
L 431.50679 353.0304 
z
" clip-path="url(#pb5b6365e73)" style="fill: #08ff00; fill-opacity: 0.175; stroke: #000000; stroke-linejoin: miter"/>
   </g>
   <g id="patch_23">
    <path d="M 471.024684 384.48 
L 510.542578 384.48 
L 510.542578 372.384 
L 471.024684 372.384 
z
" clip-path="url(#pb5b6365e73)" style="fill: #08ff00; fill-opacity: 0.175; stroke: #000000; stroke-linejoin: miter"/>
   </g>
   <g id="patch_24">
    <path d="M 510.542578 384.48 
L 550.060472 384.48 
L 550.060472 377.2224 
L 510.542578 377.2224 
z
" clip-path="url(#pb5b6365e73)" style="fill: #08ff00; fill-opacity: 0.175; stroke: #000000; stroke-linejoin: miter"/>
   </g>
   <g id="patch_25">
    <path d="M 115.363636 384.48 
L 157.134299 384.48 
L 157.134299 146.1888 
L 115.363636 146.1888 
z
" clip-path="url(#pb5b6365e73)" style="fill: #00fff6; fill-opacity: 0.175; stroke: #000000; stroke-linejoin: miter"/>
   </g>
   <g id="patch_26">
    <path d="M 157.134299 384.48 
L 198.904962 384.48 
L 198.904962 359.0784 
L 157.134299 359.0784 
z
" clip-path="url(#pb5b6365e73)" style="fill: #00fff6; fill-opacity: 0.175; stroke: #000000; stroke-linejoin: miter"/>
   </g>
   <g id="patch_27">
    <path d="M 198.904962 384.48 
L 240.675625 384.48 
L 240.675625 355.4496 
L 198.904962 355.4496 
z
" clip-path="url(#pb5b6365e73)" style="fill: #00fff6; fill-opacity: 0.175; stroke: #000000; stroke-linejoin: miter"/>
   </g>
   <g id="patch_28">
    <path d="M 240.675625 384.48 
L 282.446288 384.48 
L 282.446288 356.6592 
L 240.675625 356.6592 
z
" clip-path="url(#pb5b6365e73)" style="fill: #00fff6; fill-opacity: 0.175; stroke: #000000; stroke-linejoin: miter"/>
   </g>
   <g id="patch_29">
    <path d="M 282.446288 384.48 
L 324.216951 384.48 
L 324.216951 353.0304 
L 282.446288 353.0304 
z
" clip-path="url(#pb5b6365e73)" style="fill: #00fff6; fill-opacity: 0.175; stroke: #000000; stroke-linejoin: miter"/>
   </g>
   <g id="patch_30">
    <path d="M 324.216951 384.48 
L 365.987614 384.48 
L 365.987614 293.76 
L 324.216951 293.76 
z
" clip-path="url(#pb5b6365e73)" style="fill: #00fff6; fill-opacity: 0.175; stroke: #000000; stroke-linejoin: miter"/>
   </g>
   <g id="patch_31">
    <path d="M 365.987614 384.48 
L 407.758277 384.48 
L 407.758277 166.752 
L 365.987614 166.752 
z
" clip-path="url(#pb5b6365e73)" style="fill: #00fff6; fill-opacity: 0.175; stroke: #000000; stroke-linejoin: miter"/>
   </g>
   <g id="patch_32">
    <path d="M 407.758277 384.48 
L 449.52894 384.48 
L 449.52894 344.5632 
L 407.758277 344.5632 
z
" clip-path="url(#pb5b6365e73)" style="fill: #00fff6; fill-opacity: 0.175; stroke: #000000; stroke-linejoin: miter"/>
   </g>
   <g id="patch_33">
    <path d="M 449.52894 384.48 
L 491.299603 384.48 
L 491.299603 363.9168 
L 449.52894 363.9168 
z
" clip-path="url(#pb5b6365e73)" style="fill: #00fff6; fill-opacity: 0.175; stroke: #000000; stroke-linejoin: miter"/>
   </g>
   <g id="patch_34">
    <path d="M 491.299603 384.48 
L 533.070266 384.48 
L 533.070266 374.8032 
L 491.299603 374.8032 
z
" clip-path="url(#pb5b6365e73)" style="fill: #00fff6; fill-opacity: 0.175; stroke: #000000; stroke-linejoin: miter"/>
   </g>
   <g id="patch_35">
    <path d="M 533.070266 384.48 
L 574.840928 384.48 
L 574.840928 377.2224 
L 533.070266 377.2224 
z
" clip-path="url(#pb5b6365e73)" style="fill: #00fff6; fill-opacity: 0.175; stroke: #000000; stroke-linejoin: miter"/>
   </g>
   <g id="patch_36">
    <path d="M 115.363636 384.48 
L 171.727273 384.48 
L 171.727273 305.856 
L 115.363636 305.856 
z
" clip-path="url(#pb5b6365e73)" style="fill: #0010ff; fill-opacity: 0.175; stroke: #000000; stroke-linejoin: miter"/>
   </g>
   <g id="patch_37">
    <path d="M 171.727273 384.48 
L 228.090909 384.48 
L 228.090909 384.48 
L 171.727273 384.48 
z
" clip-path="url(#pb5b6365e73)" style="fill: #0010ff; fill-opacity: 0.175; stroke: #000000; stroke-linejoin: miter"/>
   </g>
   <g id="patch_38">
    <path d="M 228.090909 384.48 
L 284.454545 384.48 
L 284.454545 374.8032 
L 228.090909 374.8032 
z
" clip-path="url(#pb5b6365e73)" style="fill: #0010ff; fill-opacity: 0.175; stroke: #000000; stroke-linejoin: miter"/>
   </g>
   <g id="patch_39">
    <path d="M 284.454545 384.48 
L 340.818182 384.48 
L 340.818182 378.432 
L 284.454545 378.432 
z
" clip-path="url(#pb5b6365e73)" style="fill: #0010ff; fill-opacity: 0.175; stroke: #000000; stroke-linejoin: miter"/>
   </g>
   <g id="patch_40">
    <path d="M 340.818182 384.48 
L 397.181818 384.48 
L 397.181818 262.3104 
L 340.818182 262.3104 
z
" clip-path="url(#pb5b6365e73)" style="fill: #0010ff; fill-opacity: 0.175; stroke: #000000; stroke-linejoin: miter"/>
   </g>
   <g id="patch_41">
    <path d="M 397.181818 384.48 
L 453.545455 384.48 
L 453.545455 366.336 
L 397.181818 366.336 
z
" clip-path="url(#pb5b6365e73)" style="fill: #0010ff; fill-opacity: 0.175; stroke: #000000; stroke-linejoin: miter"/>
   </g>
   <g id="patch_42">
    <path d="M 453.545455 384.48 
L 509.909091 384.48 
L 509.909091 359.0784 
L 453.545455 359.0784 
z
" clip-path="url(#pb5b6365e73)" style="fill: #0010ff; fill-opacity: 0.175; stroke: #000000; stroke-linejoin: miter"/>
   </g>
   <g id="patch_43">
    <path d="M 509.909091 384.48 
L 566.272727 384.48 
L 566.272727 378.432 
L 509.909091 378.432 
z
" clip-path="url(#pb5b6365e73)" style="fill: #0010ff; fill-opacity: 0.175; stroke: #000000; stroke-linejoin: miter"/>
   </g>
   <g id="patch_44">
    <path d="M 566.272727 384.48 
L 622.636364 384.48 
L 622.636364 373.5936 
L 566.272727 373.5936 
z
" clip-path="url(#pb5b6365e73)" style="fill: #0010ff; fill-opacity: 0.175; stroke: #000000; stroke-linejoin: miter"/>
   </g>
   <g id="patch_45">
    <path d="M 115.363636 384.48 
L 171.727273 384.48 
L 171.727273 307.0656 
L 115.363636 307.0656 
z
" clip-path="url(#pb5b6365e73)" style="fill: #ee00ff; fill-opacity: 0.175; stroke: #000000; stroke-linejoin: miter"/>
   </g>
   <g id="patch_46">
    <path d="M 171.727273 384.48 
L 228.090909 384.48 
L 228.090909 384.48 
L 171.727273 384.48 
z
" clip-path="url(#pb5b6365e73)" style="fill: #ee00ff; fill-opacity: 0.175; stroke: #000000; stroke-linejoin: miter"/>
   </g>
   <g id="patch_47">
    <path d="M 228.090909 384.48 
L 284.454545 384.48 
L 284.454545 379.6416 
L 228.090909 379.6416 
z
" clip-path="url(#pb5b6365e73)" style="fill: #ee00ff; fill-opacity: 0.175; stroke: #000000; stroke-linejoin: miter"/>
   </g>
   <g id="patch_48">
    <path d="M 284.454545 384.48 
L 340.818182 384.48 
L 340.818182 374.8032 
L 284.454545 374.8032 
z
" clip-path="url(#pb5b6365e73)" style="fill: #ee00ff; fill-opacity: 0.175; stroke: #000000; stroke-linejoin: miter"/>
   </g>
   <g id="patch_49">
    <path d="M 340.818182 384.48 
L 397.181818 384.48 
L 397.181818 269.568 
L 340.818182 269.568 
z
" clip-path="url(#pb5b6365e73)" style="fill: #ee00ff; fill-opacity: 0.175; stroke: #000000; stroke-linejoin: miter"/>
   </g>
   <g id="patch_50">
    <path d="M 397.181818 384.48 
L 453.545455 384.48 
L 453.545455 360.288 
L 397.181818 360.288 
z
" clip-path="url(#pb5b6365e73)" style="fill: #ee00ff; fill-opacity: 0.175; stroke: #000000; stroke-linejoin: miter"/>
   </g>
   <g id="patch_51">
    <path d="M 453.545455 384.48 
L 509.909091 384.48 
L 509.909091 349.4016 
L 453.545455 349.4016 
z
" clip-path="url(#pb5b6365e73)" style="fill: #ee00ff; fill-opacity: 0.175; stroke: #000000; stroke-linejoin: miter"/>
   </g>
   <g id="patch_52">
    <path d="M 509.909091 384.48 
L 566.272727 384.48 
L 566.272727 376.0128 
L 509.909091 376.0128 
z
" clip-path="url(#pb5b6365e73)" style="fill: #ee00ff; fill-opacity: 0.175; stroke: #000000; stroke-linejoin: miter"/>
   </g>
   <g id="patch_53">
    <path d="M 566.272727 384.48 
L 622.636364 384.48 
L 622.636364 377.2224 
L 566.272727 377.2224 
z
" clip-path="url(#pb5b6365e73)" style="fill: #ee00ff; fill-opacity: 0.175; stroke: #000000; stroke-linejoin: miter"/>
   </g>
   <g id="matplotlib.axis_1">
    <g id="xtick_1">
     <g id="line2d_1">
      <defs>
       <path id="m6fff35778f" d="M 0 0 
L 0 3.5 
" style="stroke: #000000; stroke-width: 0.8"/>
      </defs>
      <g>
       <use xlink:href="#m6fff35778f" x="115.363636" y="384.48" style="stroke: #000000; stroke-width: 0.8"/>
      </g>
     </g>
     <g id="text_1">
      <!-- −1.00 -->
      <g transform="translate(100.04098 399.078438) scale(0.1 -0.1)">
       <defs>
        <path id="DejaVuSans-2212" d="M 678 2272 
L 4684 2272 
L 4684 1741 
L 678 1741 
L 678 2272 
z
" transform="scale(0.015625)"/>
        <path id="DejaVuSans-31" d="M 794 531 
L 1825 531 
L 1825 4091 
L 703 3866 
L 703 4441 
L 1819 4666 
L 2450 4666 
L 2450 531 
L 3481 531 
L 3481 0 
L 794 0 
L 794 531 
z
" transform="scale(0.015625)"/>
        <path id="DejaVuSans-2e" d="M 684 794 
L 1344 794 
L 1344 0 
L 684 0 
L 684 794 
z
" transform="scale(0.015625)"/>
        <path id="DejaVuSans-30" d="M 2034 4250 
Q 1547 4250 1301 3770 
Q 1056 3291 1056 2328 
Q 1056 1369 1301 889 
Q 1547 409 2034 409 
Q 2525 409 2770 889 
Q 3016 1369 3016 2328 
Q 3016 3291 2770 3770 
Q 2525 4250 2034 4250 
z
M 2034 4750 
Q 2819 4750 3233 4129 
Q 3647 3509 3647 2328 
Q 3647 1150 3233 529 
Q 2819 -91 2034 -91 
Q 1250 -91 836 529 
Q 422 1150 422 2328 
Q 422 3509 836 4129 
Q 1250 4750 2034 4750 
z
" transform="scale(0.015625)"/>
       </defs>
       <use xlink:href="#DejaVuSans-2212"/>
       <use xlink:href="#DejaVuSans-31" x="83.789062"/>
       <use xlink:href="#DejaVuSans-2e" x="147.412109"/>
       <use xlink:href="#DejaVuSans-30" x="179.199219"/>
       <use xlink:href="#DejaVuSans-30" x="242.822266"/>
      </g>
     </g>
    </g>
    <g id="xtick_2">
     <g id="line2d_2">
      <g>
       <use xlink:href="#m6fff35778f" x="178.772727" y="384.48" style="stroke: #000000; stroke-width: 0.8"/>
      </g>
     </g>
     <g id="text_2">
      <!-- −0.75 -->
      <g transform="translate(163.450071 399.078438) scale(0.1 -0.1)">
       <defs>
        <path id="DejaVuSans-37" d="M 525 4666 
L 3525 4666 
L 3525 4397 
L 1831 0 
L 1172 0 
L 2766 4134 
L 525 4134 
L 525 4666 
z
" transform="scale(0.015625)"/>
        <path id="DejaVuSans-35" d="M 691 4666 
L 3169 4666 
L 3169 4134 
L 1269 4134 
L 1269 2991 
Q 1406 3038 1543 3061 
Q 1681 3084 1819 3084 
Q 2600 3084 3056 2656 
Q 3513 2228 3513 1497 
Q 3513 744 3044 326 
Q 2575 -91 1722 -91 
Q 1428 -91 1123 -41 
Q 819 9 494 109 
L 494 744 
Q 775 591 1075 516 
Q 1375 441 1709 441 
Q 2250 441 2565 725 
Q 2881 1009 2881 1497 
Q 2881 1984 2565 2268 
Q 2250 2553 1709 2553 
Q 1456 2553 1204 2497 
Q 953 2441 691 2322 
L 691 4666 
z
" transform="scale(0.015625)"/>
       </defs>
       <use xlink:href="#DejaVuSans-2212"/>
       <use xlink:href="#DejaVuSans-30" x="83.789062"/>
       <use xlink:href="#DejaVuSans-2e" x="147.412109"/>
       <use xlink:href="#DejaVuSans-37" x="179.199219"/>
       <use xlink:href="#DejaVuSans-35" x="242.822266"/>
      </g>
     </g>
    </g>
    <g id="xtick_3">
     <g id="line2d_3">
      <g>
       <use xlink:href="#m6fff35778f" x="242.181818" y="384.48" style="stroke: #000000; stroke-width: 0.8"/>
      </g>
     </g>
     <g id="text_3">
      <!-- −0.50 -->
      <g transform="translate(226.859162 399.078438) scale(0.1 -0.1)">
       <use xlink:href="#DejaVuSans-2212"/>
       <use xlink:href="#DejaVuSans-30" x="83.789062"/>
       <use xlink:href="#DejaVuSans-2e" x="147.412109"/>
       <use xlink:href="#DejaVuSans-35" x="179.199219"/>
       <use xlink:href="#DejaVuSans-30" x="242.822266"/>
      </g>
     </g>
    </g>
    <g id="xtick_4">
     <g id="line2d_4">
      <g>
       <use xlink:href="#m6fff35778f" x="305.590909" y="384.48" style="stroke: #000000; stroke-width: 0.8"/>
      </g>
     </g>
     <g id="text_4">
      <!-- −0.25 -->
      <g transform="translate(290.268253 399.078438) scale(0.1 -0.1)">
       <defs>
        <path id="DejaVuSans-32" d="M 1228 531 
L 3431 531 
L 3431 0 
L 469 0 
L 469 531 
Q 828 903 1448 1529 
Q 2069 2156 2228 2338 
Q 2531 2678 2651 2914 
Q 2772 3150 2772 3378 
Q 2772 3750 2511 3984 
Q 2250 4219 1831 4219 
Q 1534 4219 1204 4116 
Q 875 4013 500 3803 
L 500 4441 
Q 881 4594 1212 4672 
Q 1544 4750 1819 4750 
Q 2544 4750 2975 4387 
Q 3406 4025 3406 3419 
Q 3406 3131 3298 2873 
Q 3191 2616 2906 2266 
Q 2828 2175 2409 1742 
Q 1991 1309 1228 531 
z
" transform="scale(0.015625)"/>
       </defs>
       <use xlink:href="#DejaVuSans-2212"/>
       <use xlink:href="#DejaVuSans-30" x="83.789062"/>
       <use xlink:href="#DejaVuSans-2e" x="147.412109"/>
       <use xlink:href="#DejaVuSans-32" x="179.199219"/>
       <use xlink:href="#DejaVuSans-35" x="242.822266"/>
      </g>
     </g>
    </g>
    <g id="xtick_5">
     <g id="line2d_5">
      <g>
       <use xlink:href="#m6fff35778f" x="369" y="384.48" style="stroke: #000000; stroke-width: 0.8"/>
      </g>
     </g>
     <g id="text_5">
      <!-- 0.00 -->
      <g transform="translate(357.867188 399.078438) scale(0.1 -0.1)">
       <use xlink:href="#DejaVuSans-30"/>
       <use xlink:href="#DejaVuSans-2e" x="63.623047"/>
       <use xlink:href="#DejaVuSans-30" x="95.410156"/>
       <use xlink:href="#DejaVuSans-30" x="159.033203"/>
      </g>
     </g>
    </g>
    <g id="xtick_6">
     <g id="line2d_6">
      <g>
       <use xlink:href="#m6fff35778f" x="432.409091" y="384.48" style="stroke: #000000; stroke-width: 0.8"/>
      </g>
     </g>
     <g id="text_6">
      <!-- 0.25 -->
      <g transform="translate(421.276278 399.078438) scale(0.1 -0.1)">
       <use xlink:href="#DejaVuSans-30"/>
       <use xlink:href="#DejaVuSans-2e" x="63.623047"/>
       <use xlink:href="#DejaVuSans-32" x="95.410156"/>
       <use xlink:href="#DejaVuSans-35" x="159.033203"/>
      </g>
     </g>
    </g>
    <g id="xtick_7">
     <g id="line2d_7">
      <g>
       <use xlink:href="#m6fff35778f" x="495.818182" y="384.48" style="stroke: #000000; stroke-width: 0.8"/>
      </g>
     </g>
     <g id="text_7">
      <!-- 0.50 -->
      <g transform="translate(484.685369 399.078438) scale(0.1 -0.1)">
       <use xlink:href="#DejaVuSans-30"/>
       <use xlink:href="#DejaVuSans-2e" x="63.623047"/>
       <use xlink:href="#DejaVuSans-35" x="95.410156"/>
       <use xlink:href="#DejaVuSans-30" x="159.033203"/>
      </g>
     </g>
    </g>
    <g id="xtick_8">
     <g id="line2d_8">
      <g>
       <use xlink:href="#m6fff35778f" x="559.227273" y="384.48" style="stroke: #000000; stroke-width: 0.8"/>
      </g>
     </g>
     <g id="text_8">
      <!-- 0.75 -->
      <g transform="translate(548.09446 399.078438) scale(0.1 -0.1)">
       <use xlink:href="#DejaVuSans-30"/>
       <use xlink:href="#DejaVuSans-2e" x="63.623047"/>
       <use xlink:href="#DejaVuSans-37" x="95.410156"/>
       <use xlink:href="#DejaVuSans-35" x="159.033203"/>
      </g>
     </g>
    </g>
    <g id="xtick_9">
     <g id="line2d_9">
      <g>
       <use xlink:href="#m6fff35778f" x="622.636364" y="384.48" style="stroke: #000000; stroke-width: 0.8"/>
      </g>
     </g>
     <g id="text_9">
      <!-- 1.00 -->
      <g transform="translate(611.503551 399.078438) scale(0.1 -0.1)">
       <use xlink:href="#DejaVuSans-31"/>
       <use xlink:href="#DejaVuSans-2e" x="63.623047"/>
       <use xlink:href="#DejaVuSans-30" x="95.410156"/>
       <use xlink:href="#DejaVuSans-30" x="159.033203"/>
      </g>
     </g>
    </g>
    <g id="text_10">
     <!-- Avg Normalized Interplay -->
     <g transform="translate(305.883594 412.756563) scale(0.1 -0.1)">
      <defs>
       <path id="DejaVuSans-41" d="M 2188 4044 
L 1331 1722 
L 3047 1722 
L 2188 4044 
z
M 1831 4666 
L 2547 4666 
L 4325 0 
L 3669 0 
L 3244 1197 
L 1141 1197 
L 716 0 
L 50 0 
L 1831 4666 
z
" transform="scale(0.015625)"/>
       <path id="DejaVuSans-76" d="M 191 3500 
L 800 3500 
L 1894 563 
L 2988 3500 
L 3597 3500 
L 2284 0 
L 1503 0 
L 191 3500 
z
" transform="scale(0.015625)"/>
       <path id="DejaVuSans-67" d="M 2906 1791 
Q 2906 2416 2648 2759 
Q 2391 3103 1925 3103 
Q 1463 3103 1205 2759 
Q 947 2416 947 1791 
Q 947 1169 1205 825 
Q 1463 481 1925 481 
Q 2391 481 2648 825 
Q 2906 1169 2906 1791 
z
M 3481 434 
Q 3481 -459 3084 -895 
Q 2688 -1331 1869 -1331 
Q 1566 -1331 1297 -1286 
Q 1028 -1241 775 -1147 
L 775 -588 
Q 1028 -725 1275 -790 
Q 1522 -856 1778 -856 
Q 2344 -856 2625 -561 
Q 2906 -266 2906 331 
L 2906 616 
Q 2728 306 2450 153 
Q 2172 0 1784 0 
Q 1141 0 747 490 
Q 353 981 353 1791 
Q 353 2603 747 3093 
Q 1141 3584 1784 3584 
Q 2172 3584 2450 3431 
Q 2728 3278 2906 2969 
L 2906 3500 
L 3481 3500 
L 3481 434 
z
" transform="scale(0.015625)"/>
       <path id="DejaVuSans-20" transform="scale(0.015625)"/>
       <path id="DejaVuSans-4e" d="M 628 4666 
L 1478 4666 
L 3547 763 
L 3547 4666 
L 4159 4666 
L 4159 0 
L 3309 0 
L 1241 3903 
L 1241 0 
L 628 0 
L 628 4666 
z
" transform="scale(0.015625)"/>
       <path id="DejaVuSans-6f" d="M 1959 3097 
Q 1497 3097 1228 2736 
Q 959 2375 959 1747 
Q 959 1119 1226 758 
Q 1494 397 1959 397 
Q 2419 397 2687 759 
Q 2956 1122 2956 1747 
Q 2956 2369 2687 2733 
Q 2419 3097 1959 3097 
z
M 1959 3584 
Q 2709 3584 3137 3096 
Q 3566 2609 3566 1747 
Q 3566 888 3137 398 
Q 2709 -91 1959 -91 
Q 1206 -91 779 398 
Q 353 888 353 1747 
Q 353 2609 779 3096 
Q 1206 3584 1959 3584 
z
" transform="scale(0.015625)"/>
       <path id="DejaVuSans-72" d="M 2631 2963 
Q 2534 3019 2420 3045 
Q 2306 3072 2169 3072 
Q 1681 3072 1420 2755 
Q 1159 2438 1159 1844 
L 1159 0 
L 581 0 
L 581 3500 
L 1159 3500 
L 1159 2956 
Q 1341 3275 1631 3429 
Q 1922 3584 2338 3584 
Q 2397 3584 2469 3576 
Q 2541 3569 2628 3553 
L 2631 2963 
z
" transform="scale(0.015625)"/>
       <path id="DejaVuSans-6d" d="M 3328 2828 
Q 3544 3216 3844 3400 
Q 4144 3584 4550 3584 
Q 5097 3584 5394 3201 
Q 5691 2819 5691 2113 
L 5691 0 
L 5113 0 
L 5113 2094 
Q 5113 2597 4934 2840 
Q 4756 3084 4391 3084 
Q 3944 3084 3684 2787 
Q 3425 2491 3425 1978 
L 3425 0 
L 2847 0 
L 2847 2094 
Q 2847 2600 2669 2842 
Q 2491 3084 2119 3084 
Q 1678 3084 1418 2786 
Q 1159 2488 1159 1978 
L 1159 0 
L 581 0 
L 581 3500 
L 1159 3500 
L 1159 2956 
Q 1356 3278 1631 3431 
Q 1906 3584 2284 3584 
Q 2666 3584 2933 3390 
Q 3200 3197 3328 2828 
z
" transform="scale(0.015625)"/>
       <path id="DejaVuSans-61" d="M 2194 1759 
Q 1497 1759 1228 1600 
Q 959 1441 959 1056 
Q 959 750 1161 570 
Q 1363 391 1709 391 
Q 2188 391 2477 730 
Q 2766 1069 2766 1631 
L 2766 1759 
L 2194 1759 
z
M 3341 1997 
L 3341 0 
L 2766 0 
L 2766 531 
Q 2569 213 2275 61 
Q 1981 -91 1556 -91 
Q 1019 -91 701 211 
Q 384 513 384 1019 
Q 384 1609 779 1909 
Q 1175 2209 1959 2209 
L 2766 2209 
L 2766 2266 
Q 2766 2663 2505 2880 
Q 2244 3097 1772 3097 
Q 1472 3097 1187 3025 
Q 903 2953 641 2809 
L 641 3341 
Q 956 3463 1253 3523 
Q 1550 3584 1831 3584 
Q 2591 3584 2966 3190 
Q 3341 2797 3341 1997 
z
" transform="scale(0.015625)"/>
       <path id="DejaVuSans-6c" d="M 603 4863 
L 1178 4863 
L 1178 0 
L 603 0 
L 603 4863 
z
" transform="scale(0.015625)"/>
       <path id="DejaVuSans-69" d="M 603 3500 
L 1178 3500 
L 1178 0 
L 603 0 
L 603 3500 
z
M 603 4863 
L 1178 4863 
L 1178 4134 
L 603 4134 
L 603 4863 
z
" transform="scale(0.015625)"/>
       <path id="DejaVuSans-7a" d="M 353 3500 
L 3084 3500 
L 3084 2975 
L 922 459 
L 3084 459 
L 3084 0 
L 275 0 
L 275 525 
L 2438 3041 
L 353 3041 
L 353 3500 
z
" transform="scale(0.015625)"/>
       <path id="DejaVuSans-65" d="M 3597 1894 
L 3597 1613 
L 953 1613 
Q 991 1019 1311 708 
Q 1631 397 2203 397 
Q 2534 397 2845 478 
Q 3156 559 3463 722 
L 3463 178 
Q 3153 47 2828 -22 
Q 2503 -91 2169 -91 
Q 1331 -91 842 396 
Q 353 884 353 1716 
Q 353 2575 817 3079 
Q 1281 3584 2069 3584 
Q 2775 3584 3186 3129 
Q 3597 2675 3597 1894 
z
M 3022 2063 
Q 3016 2534 2758 2815 
Q 2500 3097 2075 3097 
Q 1594 3097 1305 2825 
Q 1016 2553 972 2059 
L 3022 2063 
z
" transform="scale(0.015625)"/>
       <path id="DejaVuSans-64" d="M 2906 2969 
L 2906 4863 
L 3481 4863 
L 3481 0 
L 2906 0 
L 2906 525 
Q 2725 213 2448 61 
Q 2172 -91 1784 -91 
Q 1150 -91 751 415 
Q 353 922 353 1747 
Q 353 2572 751 3078 
Q 1150 3584 1784 3584 
Q 2172 3584 2448 3432 
Q 2725 3281 2906 2969 
z
M 947 1747 
Q 947 1113 1208 752 
Q 1469 391 1925 391 
Q 2381 391 2643 752 
Q 2906 1113 2906 1747 
Q 2906 2381 2643 2742 
Q 2381 3103 1925 3103 
Q 1469 3103 1208 2742 
Q 947 2381 947 1747 
z
" transform="scale(0.015625)"/>
       <path id="DejaVuSans-49" d="M 628 4666 
L 1259 4666 
L 1259 0 
L 628 0 
L 628 4666 
z
" transform="scale(0.015625)"/>
       <path id="DejaVuSans-6e" d="M 3513 2113 
L 3513 0 
L 2938 0 
L 2938 2094 
Q 2938 2591 2744 2837 
Q 2550 3084 2163 3084 
Q 1697 3084 1428 2787 
Q 1159 2491 1159 1978 
L 1159 0 
L 581 0 
L 581 3500 
L 1159 3500 
L 1159 2956 
Q 1366 3272 1645 3428 
Q 1925 3584 2291 3584 
Q 2894 3584 3203 3211 
Q 3513 2838 3513 2113 
z
" transform="scale(0.015625)"/>
       <path id="DejaVuSans-74" d="M 1172 4494 
L 1172 3500 
L 2356 3500 
L 2356 3053 
L 1172 3053 
L 1172 1153 
Q 1172 725 1289 603 
Q 1406 481 1766 481 
L 2356 481 
L 2356 0 
L 1766 0 
Q 1100 0 847 248 
Q 594 497 594 1153 
L 594 3053 
L 172 3053 
L 172 3500 
L 594 3500 
L 594 4494 
L 1172 4494 
z
" transform="scale(0.015625)"/>
       <path id="DejaVuSans-70" d="M 1159 525 
L 1159 -1331 
L 581 -1331 
L 581 3500 
L 1159 3500 
L 1159 2969 
Q 1341 3281 1617 3432 
Q 1894 3584 2278 3584 
Q 2916 3584 3314 3078 
Q 3713 2572 3713 1747 
Q 3713 922 3314 415 
Q 2916 -91 2278 -91 
Q 1894 -91 1617 61 
Q 1341 213 1159 525 
z
M 3116 1747 
Q 3116 2381 2855 2742 
Q 2594 3103 2138 3103 
Q 1681 3103 1420 2742 
Q 1159 2381 1159 1747 
Q 1159 1113 1420 752 
Q 1681 391 2138 391 
Q 2594 391 2855 752 
Q 3116 1113 3116 1747 
z
" transform="scale(0.015625)"/>
       <path id="DejaVuSans-79" d="M 2059 -325 
Q 1816 -950 1584 -1140 
Q 1353 -1331 966 -1331 
L 506 -1331 
L 506 -850 
L 844 -850 
Q 1081 -850 1212 -737 
Q 1344 -625 1503 -206 
L 1606 56 
L 191 3500 
L 800 3500 
L 1894 763 
L 2988 3500 
L 3597 3500 
L 2059 -325 
z
" transform="scale(0.015625)"/>
      </defs>
      <use xlink:href="#DejaVuSans-41"/>
      <use xlink:href="#DejaVuSans-76" x="62.533203"/>
      <use xlink:href="#DejaVuSans-67" x="121.712891"/>
      <use xlink:href="#DejaVuSans-20" x="185.189453"/>
      <use xlink:href="#DejaVuSans-4e" x="216.976562"/>
      <use xlink:href="#DejaVuSans-6f" x="291.78125"/>
      <use xlink:href="#DejaVuSans-72" x="352.962891"/>
      <use xlink:href="#DejaVuSans-6d" x="392.326172"/>
      <use xlink:href="#DejaVuSans-61" x="489.738281"/>
      <use xlink:href="#DejaVuSans-6c" x="551.017578"/>
      <use xlink:href="#DejaVuSans-69" x="578.800781"/>
      <use xlink:href="#DejaVuSans-7a" x="606.583984"/>
      <use xlink:href="#DejaVuSans-65" x="659.074219"/>
      <use xlink:href="#DejaVuSans-64" x="720.597656"/>
      <use xlink:href="#DejaVuSans-20" x="784.074219"/>
      <use xlink:href="#DejaVuSans-49" x="815.861328"/>
      <use xlink:href="#DejaVuSans-6e" x="845.353516"/>
      <use xlink:href="#DejaVuSans-74" x="908.732422"/>
      <use xlink:href="#DejaVuSans-65" x="947.941406"/>
      <use xlink:href="#DejaVuSans-72" x="1009.464844"/>
      <use xlink:href="#DejaVuSans-70" x="1050.578125"/>
      <use xlink:href="#DejaVuSans-6c" x="1114.054688"/>
      <use xlink:href="#DejaVuSans-61" x="1141.837891"/>
      <use xlink:href="#DejaVuSans-79" x="1203.117188"/>
     </g>
    </g>
   </g>
   <g id="matplotlib.axis_2">
    <g id="ytick_1">
     <g id="line2d_10">
      <defs>
       <path id="m0806503e22" d="M 0 0 
L -3.5 0 
" style="stroke: #000000; stroke-width: 0.8"/>
      </defs>
      <g>
       <use xlink:href="#m0806503e22" x="90" y="384.48" style="stroke: #000000; stroke-width: 0.8"/>
      </g>
     </g>
     <g id="text_11">
      <!-- 0 -->
      <g transform="translate(76.6375 388.279219) scale(0.1 -0.1)">
       <use xlink:href="#DejaVuSans-30"/>
      </g>
     </g>
    </g>
    <g id="ytick_2">
     <g id="line2d_11">
      <g>
       <use xlink:href="#m0806503e22" x="90" y="324" style="stroke: #000000; stroke-width: 0.8"/>
      </g>
     </g>
     <g id="text_12">
      <!-- 50 -->
      <g transform="translate(70.275 327.799219) scale(0.1 -0.1)">
       <use xlink:href="#DejaVuSans-35"/>
       <use xlink:href="#DejaVuSans-30" x="63.623047"/>
      </g>
     </g>
    </g>
    <g id="ytick_3">
     <g id="line2d_12">
      <g>
       <use xlink:href="#m0806503e22" x="90" y="263.52" style="stroke: #000000; stroke-width: 0.8"/>
      </g>
     </g>
     <g id="text_13">
      <!-- 100 -->
      <g transform="translate(63.9125 267.319219) scale(0.1 -0.1)">
       <use xlink:href="#DejaVuSans-31"/>
       <use xlink:href="#DejaVuSans-30" x="63.623047"/>
       <use xlink:href="#DejaVuSans-30" x="127.246094"/>
      </g>
     </g>
    </g>
    <g id="ytick_4">
     <g id="line2d_13">
      <g>
       <use xlink:href="#m0806503e22" x="90" y="203.04" style="stroke: #000000; stroke-width: 0.8"/>
      </g>
     </g>
     <g id="text_14">
      <!-- 150 -->
      <g transform="translate(63.9125 206.839219) scale(0.1 -0.1)">
       <use xlink:href="#DejaVuSans-31"/>
       <use xlink:href="#DejaVuSans-35" x="63.623047"/>
       <use xlink:href="#DejaVuSans-30" x="127.246094"/>
      </g>
     </g>
    </g>
    <g id="ytick_5">
     <g id="line2d_14">
      <g>
       <use xlink:href="#m0806503e22" x="90" y="142.56" style="stroke: #000000; stroke-width: 0.8"/>
      </g>
     </g>
     <g id="text_15">
      <!-- 200 -->
      <g transform="translate(63.9125 146.359219) scale(0.1 -0.1)">
       <use xlink:href="#DejaVuSans-32"/>
       <use xlink:href="#DejaVuSans-30" x="63.623047"/>
       <use xlink:href="#DejaVuSans-30" x="127.246094"/>
      </g>
     </g>
    </g>
    <g id="ytick_6">
     <g id="line2d_15">
      <g>
       <use xlink:href="#m0806503e22" x="90" y="82.08" style="stroke: #000000; stroke-width: 0.8"/>
      </g>
     </g>
     <g id="text_16">
      <!-- 250 -->
      <g transform="translate(63.9125 85.879219) scale(0.1 -0.1)">
       <use xlink:href="#DejaVuSans-32"/>
       <use xlink:href="#DejaVuSans-35" x="63.623047"/>
       <use xlink:href="#DejaVuSans-30" x="127.246094"/>
      </g>
     </g>
    </g>
    <g id="text_17">
     <!-- Frequency -->
     <g transform="translate(57.832812 243.989687) rotate(-90) scale(0.1 -0.1)">
      <defs>
       <path id="DejaVuSans-46" d="M 628 4666 
L 3309 4666 
L 3309 4134 
L 1259 4134 
L 1259 2759 
L 3109 2759 
L 3109 2228 
L 1259 2228 
L 1259 0 
L 628 0 
L 628 4666 
z
" transform="scale(0.015625)"/>
       <path id="DejaVuSans-71" d="M 947 1747 
Q 947 1113 1208 752 
Q 1469 391 1925 391 
Q 2381 391 2643 752 
Q 2906 1113 2906 1747 
Q 2906 2381 2643 2742 
Q 2381 3103 1925 3103 
Q 1469 3103 1208 2742 
Q 947 2381 947 1747 
z
M 2906 525 
Q 2725 213 2448 61 
Q 2172 -91 1784 -91 
Q 1150 -91 751 415 
Q 353 922 353 1747 
Q 353 2572 751 3078 
Q 1150 3584 1784 3584 
Q 2172 3584 2448 3432 
Q 2725 3281 2906 2969 
L 2906 3500 
L 3481 3500 
L 3481 -1331 
L 2906 -1331 
L 2906 525 
z
" transform="scale(0.015625)"/>
       <path id="DejaVuSans-75" d="M 544 1381 
L 544 3500 
L 1119 3500 
L 1119 1403 
Q 1119 906 1312 657 
Q 1506 409 1894 409 
Q 2359 409 2629 706 
Q 2900 1003 2900 1516 
L 2900 3500 
L 3475 3500 
L 3475 0 
L 2900 0 
L 2900 538 
Q 2691 219 2414 64 
Q 2138 -91 1772 -91 
Q 1169 -91 856 284 
Q 544 659 544 1381 
z
M 1991 3584 
L 1991 3584 
z
" transform="scale(0.015625)"/>
       <path id="DejaVuSans-63" d="M 3122 3366 
L 3122 2828 
Q 2878 2963 2633 3030 
Q 2388 3097 2138 3097 
Q 1578 3097 1268 2742 
Q 959 2388 959 1747 
Q 959 1106 1268 751 
Q 1578 397 2138 397 
Q 2388 397 2633 464 
Q 2878 531 3122 666 
L 3122 134 
Q 2881 22 2623 -34 
Q 2366 -91 2075 -91 
Q 1284 -91 818 406 
Q 353 903 353 1747 
Q 353 2603 823 3093 
Q 1294 3584 2113 3584 
Q 2378 3584 2631 3529 
Q 2884 3475 3122 3366 
z
" transform="scale(0.015625)"/>
      </defs>
      <use xlink:href="#DejaVuSans-46"/>
      <use xlink:href="#DejaVuSans-72" x="50.269531"/>
      <use xlink:href="#DejaVuSans-65" x="89.132812"/>
      <use xlink:href="#DejaVuSans-71" x="150.65625"/>
      <use xlink:href="#DejaVuSans-75" x="214.132812"/>
      <use xlink:href="#DejaVuSans-65" x="277.511719"/>
      <use xlink:href="#DejaVuSans-6e" x="339.035156"/>
      <use xlink:href="#DejaVuSans-63" x="402.414062"/>
      <use xlink:href="#DejaVuSans-79" x="457.394531"/>
     </g>
    </g>
   </g>
   <g id="line2d_16">
    <path d="M 115.363636 292.600975 
L 117.556211 292.031772 
L 119.748785 291.79227 
L 121.941359 291.873107 
L 124.133934 292.260283 
L 126.326508 292.935535 
L 128.519082 293.876831 
L 130.711657 295.058935 
L 132.904231 296.454049 
L 135.096805 298.032501 
L 139.481954 301.615655 
L 143.867103 305.560616 
L 152.6374 313.634257 
L 157.022549 317.405442 
L 161.407698 320.842553 
L 165.792846 323.892235 
L 170.177995 326.547331 
L 174.563144 328.837463 
L 178.948292 330.817257 
L 183.333441 332.554007 
L 189.911164 334.851589 
L 198.681461 337.622356 
L 211.836907 341.522117 
L 218.41463 343.298872 
L 224.992353 344.842522 
L 229.377502 345.693068 
L 233.762651 346.371327 
L 238.147799 346.858345 
L 242.532948 347.141433 
L 246.918097 347.213705 
L 251.303245 347.072774 
L 255.688394 346.718751 
L 260.073543 346.151759 
L 264.458692 345.369141 
L 268.84384 344.362614 
L 273.228989 343.11558 
L 277.614138 341.6009 
L 281.999286 339.779423 
L 286.384435 337.599588 
L 290.769584 334.99844 
L 295.154732 331.904321 
L 297.347307 330.148712 
L 299.539881 328.241451 
L 301.732455 326.173491 
L 303.92503 323.936443 
L 306.117604 321.522869 
L 308.310178 318.9266 
L 310.502753 316.143061 
L 312.695327 313.169595 
L 317.080476 306.653811 
L 321.465624 299.40839 
L 325.850773 291.511777 
L 330.235922 283.097468 
L 345.583942 252.773696 
L 349.969091 245.060157 
L 352.161665 241.563873 
L 354.354239 238.360744 
L 356.546814 235.487879 
L 358.739388 232.979512 
L 360.931962 230.866326 
L 363.124537 229.17483 
L 365.317111 227.926824 
L 367.509685 227.138946 
L 369.70226 226.822333 
L 371.894834 226.982392 
L 374.087409 227.618699 
L 376.279983 228.725017 
L 378.472557 230.289448 
L 380.665132 232.294698 
L 382.857706 234.718455 
L 385.05028 237.533871 
L 387.242855 240.710126 
L 389.435429 244.21306 
L 391.628003 248.005864 
L 396.013152 256.304884 
L 400.398301 265.287003 
L 415.746321 297.770151 
L 420.13147 306.354907 
L 424.516618 314.335962 
L 428.901767 321.637364 
L 433.286916 328.228554 
L 437.672064 334.11606 
L 442.057213 339.334183 
L 446.442362 343.935797 
L 450.82751 347.984108 
L 455.212659 351.545893 
L 459.597808 354.686454 
L 463.982956 357.466251 
L 468.368105 359.939002 
L 472.753254 362.150945 
L 477.138403 364.140925 
L 481.523551 365.940998 
L 488.101274 368.340815 
L 494.678997 370.439206 
L 501.25672 372.286047 
L 507.834443 373.918581 
L 514.412166 375.36578 
L 523.182464 377.047539 
L 531.952761 378.488369 
L 540.723058 379.725905 
L 551.68593 381.028122 
L 551.68593 381.028122 
" clip-path="url(#pb5b6365e73)" style="fill: none; stroke: #fcf500; stroke-width: 1.5; stroke-linecap: square"/>
   </g>
   <g id="line2d_17">
    <path d="M 115.363636 299.087992 
L 117.548043 298.487399 
L 119.732449 298.181452 
L 121.916855 298.163607 
L 124.101261 298.423393 
L 126.285667 298.946693 
L 128.470074 299.716105 
L 130.65448 300.711375 
L 132.838886 301.909887 
L 135.023292 303.287198 
L 139.392105 306.474623 
L 143.760917 310.062679 
L 156.867354 321.292651 
L 161.236167 324.688179 
L 165.604979 327.752526 
L 169.973792 330.448917 
L 174.342604 332.772585 
L 178.711416 334.742945 
L 183.080229 336.394968 
L 187.449041 337.770914 
L 191.817854 338.913369 
L 196.186666 339.86019 
L 202.739885 340.977329 
L 209.293103 341.787098 
L 215.846322 342.322993 
L 222.399541 342.603317 
L 228.952759 342.650189 
L 237.690384 342.418637 
L 250.796821 341.730873 
L 274.82529 340.261966 
L 279.194102 339.79433 
L 283.562915 339.127533 
L 287.931727 338.173792 
L 292.300539 336.833945 
L 294.484946 335.986289 
L 296.669352 335.002295 
L 298.853758 333.868804 
L 301.038164 332.573152 
L 303.222571 331.103461 
L 305.406977 329.448939 
L 307.591383 327.600196 
L 309.775789 325.549567 
L 311.960195 323.291431 
L 314.144602 320.822522 
L 316.329008 318.142234 
L 318.513414 315.252882 
L 320.69782 312.159948 
L 325.066633 305.402204 
L 329.435445 297.982187 
L 333.804257 290.070098 
L 346.910695 265.836365 
L 351.279507 258.581739 
L 353.463913 255.285185 
L 355.64832 252.258886 
L 357.832726 249.537361 
L 360.017132 247.152127 
L 362.201538 245.131115 
L 364.385944 243.498138 
L 366.570351 242.272457 
L 368.754757 241.46842 
L 370.939163 241.095213 
L 373.123569 241.156711 
L 375.307975 241.651449 
L 377.492382 242.572693 
L 379.676788 243.908628 
L 381.861194 245.642642 
L 384.0456 247.753715 
L 386.230007 250.216872 
L 388.414413 253.003721 
L 390.598819 256.083038 
L 392.783225 259.421384 
L 397.152038 266.734216 
L 401.52085 274.654844 
L 416.811693 303.313964 
L 421.180506 310.893426 
L 425.549318 317.945479 
L 429.918131 324.405499 
L 434.286943 330.249401 
L 438.655756 335.486349 
L 443.024568 340.150474 
L 447.39338 344.29256 
L 451.762193 347.972398 
L 456.131005 351.252311 
L 460.499818 354.19213 
L 464.86863 356.845674 
L 469.237443 359.258689 
L 473.606255 361.468037 
L 480.159474 364.459711 
L 486.712692 367.118916 
L 493.265911 369.482343 
L 499.81913 371.571626 
L 506.372348 373.403991 
L 512.925567 374.999197 
L 519.478785 376.382217 
L 528.21641 377.946871 
L 536.954035 379.256495 
L 547.876066 380.621288 
L 550.060472 380.863925 
L 550.060472 380.863925 
" clip-path="url(#pb5b6365e73)" style="fill: none; stroke: #08ff00; stroke-width: 1.5; stroke-linecap: square"/>
   </g>
   <g id="line2d_18">
    <path d="M 115.363636 270.91308 
L 117.672567 270.686189 
L 119.981499 270.889878 
L 122.29043 271.516226 
L 124.599361 272.55198 
L 126.908292 273.978841 
L 129.217223 275.773856 
L 131.526154 277.909906 
L 133.835085 280.356264 
L 136.144016 283.079217 
L 138.452948 286.042731 
L 143.07081 292.539883 
L 147.688672 299.53945 
L 159.233328 317.322324 
L 163.85119 323.905464 
L 168.469052 329.917012 
L 170.777983 332.673511 
L 173.086914 335.251875 
L 175.395845 337.647056 
L 177.704776 339.856884 
L 180.013708 341.88181 
L 182.322639 343.72462 
L 184.63157 345.390134 
L 186.940501 346.884894 
L 189.249432 348.21686 
L 191.558363 349.395103 
L 193.867294 350.429519 
L 196.176225 351.330558 
L 200.794088 352.77563 
L 205.41195 353.81629 
L 210.029812 354.534336 
L 214.647674 355.003318 
L 219.265537 355.286034 
L 226.19233 355.468657 
L 235.428054 355.432606 
L 244.663779 355.180873 
L 251.590572 354.831744 
L 258.517366 354.267849 
L 263.135228 353.714996 
L 267.75309 352.966765 
L 272.370952 351.966803 
L 276.988814 350.650343 
L 281.606677 348.945531 
L 283.915608 347.923631 
L 286.224539 346.775677 
L 288.53347 345.491888 
L 290.842401 344.062676 
L 293.151332 342.47883 
L 295.460263 340.731707 
L 297.769195 338.813452 
L 300.078126 336.717225 
L 302.387057 334.43745 
L 304.695988 331.970058 
L 307.004919 329.312744 
L 309.31385 326.465215 
L 311.622781 323.429422 
L 316.240643 316.8134 
L 320.858506 309.532923 
L 325.476368 301.702945 
L 332.403161 289.29683 
L 339.329955 276.767213 
L 343.947817 268.787483 
L 348.565679 261.441793 
L 350.87461 258.096439 
L 353.183541 255.015145 
L 355.492472 252.229857 
L 357.801404 249.769949 
L 360.110335 247.661695 
L 362.419266 245.927781 
L 364.728197 244.58689 
L 367.037128 243.653344 
L 369.346059 243.136847 
L 371.65499 243.0423 
L 373.963921 243.369722 
L 376.272852 244.114267 
L 378.581784 245.266332 
L 380.890715 246.811763 
L 383.199646 248.732148 
L 385.508577 251.005189 
L 387.817508 253.605143 
L 390.126439 256.503324 
L 392.43537 259.668644 
L 394.744301 263.068188 
L 399.362164 270.432696 
L 403.980026 278.319312 
L 417.833613 302.537418 
L 422.451475 310.096593 
L 427.069337 317.155637 
L 431.687199 323.636943 
L 436.305061 329.504658 
L 440.922924 334.758365 
L 445.540786 339.425365 
L 450.158648 343.552494 
L 454.77651 347.198312 
L 459.394373 350.426243 
L 464.012235 353.299043 
L 468.630097 355.87474 
L 473.247959 358.204028 
L 477.865822 360.328931 
L 484.792615 363.203094 
L 491.719408 365.767049 
L 498.646202 368.064264 
L 505.572995 370.115491 
L 512.499788 371.929825 
L 519.426582 373.514077 
L 526.353375 374.879421 
L 533.280168 376.044842 
L 542.515893 377.335464 
L 551.751617 378.397863 
L 565.605204 379.732526 
L 574.840928 380.530883 
L 574.840928 380.530883 
" clip-path="url(#pb5b6365e73)" style="fill: none; stroke: #00fff6; stroke-width: 1.5; stroke-linecap: square"/>
   </g>
   <g id="line2d_19">
    <path d="M 115.363636 347.974244 
L 120.461855 348.140886 
L 125.560073 348.692501 
L 130.658291 349.608259 
L 135.75651 350.855498 
L 140.854728 352.391416 
L 145.952947 354.165257 
L 153.600274 357.148412 
L 179.091366 367.571433 
L 184.189584 369.381107 
L 189.287803 371.020055 
L 194.386021 372.470374 
L 199.484239 373.721634 
L 204.582458 374.769887 
L 209.680676 375.616391 
L 214.778894 376.266155 
L 219.877113 376.726404 
L 224.975331 377.005065 
L 230.07355 377.109366 
L 235.171768 377.044623 
L 240.269986 376.813282 
L 245.368205 376.414265 
L 250.466423 375.842675 
L 255.564641 375.089858 
L 260.66286 374.143873 
L 265.761078 372.990323 
L 270.859296 371.613563 
L 275.957515 369.998211 
L 281.055733 368.130909 
L 286.153952 366.002246 
L 291.25217 363.608718 
L 296.350388 360.954608 
L 301.448607 358.053633 
L 306.546825 354.930217 
L 314.194153 349.909693 
L 337.136135 334.284996 
L 342.234354 331.175284 
L 347.332572 328.371075 
L 352.43079 325.946339 
L 357.529009 323.965517 
L 360.078118 323.158289 
L 362.627227 322.480248 
L 365.176336 321.935414 
L 367.725445 321.526714 
L 370.274555 321.25595 
L 372.823664 321.123778 
L 375.372773 321.129698 
L 377.921882 321.27207 
L 380.470991 321.548139 
L 383.020101 321.954073 
L 385.56921 322.485026 
L 390.667428 323.897943 
L 395.765646 325.73071 
L 400.863865 327.916455 
L 405.962083 330.381136 
L 413.609411 334.431651 
L 434.002284 345.585465 
L 441.649612 349.352209 
L 446.74783 351.64011 
L 451.846048 353.732234 
L 456.944267 355.625354 
L 462.042485 357.324905 
L 467.140704 358.843273 
L 474.788031 360.820288 
L 482.435359 362.500604 
L 490.082686 363.958926 
L 500.279123 365.674521 
L 515.573778 367.992094 
L 538.515761 371.217433 
L 556.359525 373.494292 
L 571.65418 375.208303 
L 586.948835 376.6968 
L 604.792599 378.211249 
L 622.636364 379.572879 
L 622.636364 379.572879 
" clip-path="url(#pb5b6365e73)" style="fill: none; stroke: #0010ff; stroke-width: 1.5; stroke-linecap: square"/>
   </g>
   <g id="line2d_20">
    <path d="M 115.363636 348.142977 
L 120.461855 348.338604 
L 125.560073 348.933976 
L 130.658291 349.908023 
L 135.75651 351.227249 
L 140.854728 352.847502 
L 145.952947 354.716273 
L 153.600274 357.857171 
L 179.091366 368.847889 
L 184.189584 370.762487 
L 189.287803 372.498701 
L 194.386021 374.036646 
L 199.484239 375.363918 
L 204.582458 376.474618 
L 209.680676 377.368112 
L 214.778894 378.047647 
L 219.877113 378.518919 
L 224.975331 378.788678 
L 230.07355 378.863469 
L 235.171768 378.748552 
L 240.269986 378.447072 
L 245.368205 377.9595 
L 250.466423 377.283393 
L 255.564641 376.413459 
L 260.66286 375.341957 
L 265.761078 374.059404 
L 270.859296 372.55558 
L 275.957515 370.820773 
L 281.055733 368.847233 
L 286.153952 366.630731 
L 291.25217 364.172165 
L 296.350388 361.479072 
L 301.448607 358.566965 
L 306.546825 355.460341 
L 314.194153 350.512876 
L 337.136135 335.272824 
L 342.234354 332.228127 
L 347.332572 329.46053 
L 352.43079 327.034972 
L 357.529009 325.008129 
L 362.627227 323.425612 
L 365.176336 322.81162 
L 367.725445 322.319651 
L 370.274555 321.951374 
L 372.823664 321.707461 
L 375.372773 321.587576 
L 377.921882 321.590387 
L 380.470991 321.713583 
L 383.020101 321.953911 
L 388.118319 322.768519 
L 393.216537 323.991375 
L 398.314756 325.568675 
L 403.412974 327.438531 
L 408.511192 329.534175 
L 416.15852 332.951897 
L 434.002284 341.124082 
L 441.649612 344.323951 
L 449.296939 347.207411 
L 456.944267 349.751193 
L 464.591594 351.976523 
L 472.238922 353.937084 
L 482.435359 356.264725 
L 530.868433 366.80092 
L 548.712197 370.770527 
L 558.908634 372.854254 
L 569.105071 374.72929 
L 579.301508 376.36827 
L 589.497944 377.770598 
L 599.694381 378.955358 
L 612.439927 380.175697 
L 622.636364 380.981692 
L 622.636364 380.981692 
" clip-path="url(#pb5b6365e73)" style="fill: none; stroke: #ee00ff; stroke-width: 1.5; stroke-linecap: square"/>
   </g>
   <g id="patch_54">
    <path d="M 90 384.48 
L 90 51.84 
" style="fill: none; stroke: #000000; stroke-width: 0.8; stroke-linejoin: miter; stroke-linecap: square"/>
   </g>
   <g id="patch_55">
    <path d="M 648 384.48 
L 648 51.84 
" style="fill: none; stroke: #000000; stroke-width: 0.8; stroke-linejoin: miter; stroke-linecap: square"/>
   </g>
   <g id="patch_56">
    <path d="M 90 384.48 
L 648 384.48 
" style="fill: none; stroke: #000000; stroke-width: 0.8; stroke-linejoin: miter; stroke-linecap: square"/>
   </g>
   <g id="patch_57">
    <path d="M 90 51.84 
L 648 51.84 
" style="fill: none; stroke: #000000; stroke-width: 0.8; stroke-linejoin: miter; stroke-linecap: square"/>
   </g>
   <g id="text_18">
    <!-- Stacked Histogram of Avg Normalized Interplay  -->
    <g transform="translate(224.829375 32.402625) scale(0.12 -0.12)">
     <defs>
      <path id="DejaVuSans-53" d="M 3425 4513 
L 3425 3897 
Q 3066 4069 2747 4153 
Q 2428 4238 2131 4238 
Q 1616 4238 1336 4038 
Q 1056 3838 1056 3469 
Q 1056 3159 1242 3001 
Q 1428 2844 1947 2747 
L 2328 2669 
Q 3034 2534 3370 2195 
Q 3706 1856 3706 1288 
Q 3706 609 3251 259 
Q 2797 -91 1919 -91 
Q 1588 -91 1214 -16 
Q 841 59 441 206 
L 441 856 
Q 825 641 1194 531 
Q 1563 422 1919 422 
Q 2459 422 2753 634 
Q 3047 847 3047 1241 
Q 3047 1584 2836 1778 
Q 2625 1972 2144 2069 
L 1759 2144 
Q 1053 2284 737 2584 
Q 422 2884 422 3419 
Q 422 4038 858 4394 
Q 1294 4750 2059 4750 
Q 2388 4750 2728 4690 
Q 3069 4631 3425 4513 
z
" transform="scale(0.015625)"/>
      <path id="DejaVuSans-6b" d="M 581 4863 
L 1159 4863 
L 1159 1991 
L 2875 3500 
L 3609 3500 
L 1753 1863 
L 3688 0 
L 2938 0 
L 1159 1709 
L 1159 0 
L 581 0 
L 581 4863 
z
" transform="scale(0.015625)"/>
      <path id="DejaVuSans-48" d="M 628 4666 
L 1259 4666 
L 1259 2753 
L 3553 2753 
L 3553 4666 
L 4184 4666 
L 4184 0 
L 3553 0 
L 3553 2222 
L 1259 2222 
L 1259 0 
L 628 0 
L 628 4666 
z
" transform="scale(0.015625)"/>
      <path id="DejaVuSans-73" d="M 2834 3397 
L 2834 2853 
Q 2591 2978 2328 3040 
Q 2066 3103 1784 3103 
Q 1356 3103 1142 2972 
Q 928 2841 928 2578 
Q 928 2378 1081 2264 
Q 1234 2150 1697 2047 
L 1894 2003 
Q 2506 1872 2764 1633 
Q 3022 1394 3022 966 
Q 3022 478 2636 193 
Q 2250 -91 1575 -91 
Q 1294 -91 989 -36 
Q 684 19 347 128 
L 347 722 
Q 666 556 975 473 
Q 1284 391 1588 391 
Q 1994 391 2212 530 
Q 2431 669 2431 922 
Q 2431 1156 2273 1281 
Q 2116 1406 1581 1522 
L 1381 1569 
Q 847 1681 609 1914 
Q 372 2147 372 2553 
Q 372 3047 722 3315 
Q 1072 3584 1716 3584 
Q 2034 3584 2315 3537 
Q 2597 3491 2834 3397 
z
" transform="scale(0.015625)"/>
      <path id="DejaVuSans-66" d="M 2375 4863 
L 2375 4384 
L 1825 4384 
Q 1516 4384 1395 4259 
Q 1275 4134 1275 3809 
L 1275 3500 
L 2222 3500 
L 2222 3053 
L 1275 3053 
L 1275 0 
L 697 0 
L 697 3053 
L 147 3053 
L 147 3500 
L 697 3500 
L 697 3744 
Q 697 4328 969 4595 
Q 1241 4863 1831 4863 
L 2375 4863 
z
" transform="scale(0.015625)"/>
     </defs>
     <use xlink:href="#DejaVuSans-53"/>
     <use xlink:href="#DejaVuSans-74" x="63.476562"/>
     <use xlink:href="#DejaVuSans-61" x="102.685547"/>
     <use xlink:href="#DejaVuSans-63" x="163.964844"/>
     <use xlink:href="#DejaVuSans-6b" x="218.945312"/>
     <use xlink:href="#DejaVuSans-65" x="273.230469"/>
     <use xlink:href="#DejaVuSans-64" x="334.753906"/>
     <use xlink:href="#DejaVuSans-20" x="398.230469"/>
     <use xlink:href="#DejaVuSans-48" x="430.017578"/>
     <use xlink:href="#DejaVuSans-69" x="505.212891"/>
     <use xlink:href="#DejaVuSans-73" x="532.996094"/>
     <use xlink:href="#DejaVuSans-74" x="585.095703"/>
     <use xlink:href="#DejaVuSans-6f" x="624.304688"/>
     <use xlink:href="#DejaVuSans-67" x="685.486328"/>
     <use xlink:href="#DejaVuSans-72" x="748.962891"/>
     <use xlink:href="#DejaVuSans-61" x="790.076172"/>
     <use xlink:href="#DejaVuSans-6d" x="851.355469"/>
     <use xlink:href="#DejaVuSans-20" x="948.767578"/>
     <use xlink:href="#DejaVuSans-6f" x="980.554688"/>
     <use xlink:href="#DejaVuSans-66" x="1041.736328"/>
     <use xlink:href="#DejaVuSans-20" x="1076.941406"/>
     <use xlink:href="#DejaVuSans-41" x="1108.728516"/>
     <use xlink:href="#DejaVuSans-76" x="1171.261719"/>
     <use xlink:href="#DejaVuSans-67" x="1230.441406"/>
     <use xlink:href="#DejaVuSans-20" x="1293.917969"/>
     <use xlink:href="#DejaVuSans-4e" x="1325.705078"/>
     <use xlink:href="#DejaVuSans-6f" x="1400.509766"/>
     <use xlink:href="#DejaVuSans-72" x="1461.691406"/>
     <use xlink:href="#DejaVuSans-6d" x="1501.054688"/>
     <use xlink:href="#DejaVuSans-61" x="1598.466797"/>
     <use xlink:href="#DejaVuSans-6c" x="1659.746094"/>
     <use xlink:href="#DejaVuSans-69" x="1687.529297"/>
     <use xlink:href="#DejaVuSans-7a" x="1715.3125"/>
     <use xlink:href="#DejaVuSans-65" x="1767.802734"/>
     <use xlink:href="#DejaVuSans-64" x="1829.326172"/>
     <use xlink:href="#DejaVuSans-20" x="1892.802734"/>
     <use xlink:href="#DejaVuSans-49" x="1924.589844"/>
     <use xlink:href="#DejaVuSans-6e" x="1954.082031"/>
     <use xlink:href="#DejaVuSans-74" x="2017.460938"/>
     <use xlink:href="#DejaVuSans-65" x="2056.669922"/>
     <use xlink:href="#DejaVuSans-72" x="2118.193359"/>
     <use xlink:href="#DejaVuSans-70" x="2159.306641"/>
     <use xlink:href="#DejaVuSans-6c" x="2222.783203"/>
     <use xlink:href="#DejaVuSans-61" x="2250.566406"/>
     <use xlink:href="#DejaVuSans-79" x="2311.845703"/>
     <use xlink:href="#DejaVuSans-20" x="2371.025391"/>
    </g>
    <!-- for H3.2 PTMs in brain across ages -->
    <g transform="translate(265.245 45.84) scale(0.12 -0.12)">
     <defs>
      <path id="DejaVuSans-33" d="M 2597 2516 
Q 3050 2419 3304 2112 
Q 3559 1806 3559 1356 
Q 3559 666 3084 287 
Q 2609 -91 1734 -91 
Q 1441 -91 1130 -33 
Q 819 25 488 141 
L 488 750 
Q 750 597 1062 519 
Q 1375 441 1716 441 
Q 2309 441 2620 675 
Q 2931 909 2931 1356 
Q 2931 1769 2642 2001 
Q 2353 2234 1838 2234 
L 1294 2234 
L 1294 2753 
L 1863 2753 
Q 2328 2753 2575 2939 
Q 2822 3125 2822 3475 
Q 2822 3834 2567 4026 
Q 2313 4219 1838 4219 
Q 1578 4219 1281 4162 
Q 984 4106 628 3988 
L 628 4550 
Q 988 4650 1302 4700 
Q 1616 4750 1894 4750 
Q 2613 4750 3031 4423 
Q 3450 4097 3450 3541 
Q 3450 3153 3228 2886 
Q 3006 2619 2597 2516 
z
" transform="scale(0.015625)"/>
      <path id="DejaVuSans-50" d="M 1259 4147 
L 1259 2394 
L 2053 2394 
Q 2494 2394 2734 2622 
Q 2975 2850 2975 3272 
Q 2975 3691 2734 3919 
Q 2494 4147 2053 4147 
L 1259 4147 
z
M 628 4666 
L 2053 4666 
Q 2838 4666 3239 4311 
Q 3641 3956 3641 3272 
Q 3641 2581 3239 2228 
Q 2838 1875 2053 1875 
L 1259 1875 
L 1259 0 
L 628 0 
L 628 4666 
z
" transform="scale(0.015625)"/>
      <path id="DejaVuSans-54" d="M -19 4666 
L 3928 4666 
L 3928 4134 
L 2272 4134 
L 2272 0 
L 1638 0 
L 1638 4134 
L -19 4134 
L -19 4666 
z
" transform="scale(0.015625)"/>
      <path id="DejaVuSans-4d" d="M 628 4666 
L 1569 4666 
L 2759 1491 
L 3956 4666 
L 4897 4666 
L 4897 0 
L 4281 0 
L 4281 4097 
L 3078 897 
L 2444 897 
L 1241 4097 
L 1241 0 
L 628 0 
L 628 4666 
z
" transform="scale(0.015625)"/>
      <path id="DejaVuSans-62" d="M 3116 1747 
Q 3116 2381 2855 2742 
Q 2594 3103 2138 3103 
Q 1681 3103 1420 2742 
Q 1159 2381 1159 1747 
Q 1159 1113 1420 752 
Q 1681 391 2138 391 
Q 2594 391 2855 752 
Q 3116 1113 3116 1747 
z
M 1159 2969 
Q 1341 3281 1617 3432 
Q 1894 3584 2278 3584 
Q 2916 3584 3314 3078 
Q 3713 2572 3713 1747 
Q 3713 922 3314 415 
Q 2916 -91 2278 -91 
Q 1894 -91 1617 61 
Q 1341 213 1159 525 
L 1159 0 
L 581 0 
L 581 4863 
L 1159 4863 
L 1159 2969 
z
" transform="scale(0.015625)"/>
     </defs>
     <use xlink:href="#DejaVuSans-66"/>
     <use xlink:href="#DejaVuSans-6f" x="35.205078"/>
     <use xlink:href="#DejaVuSans-72" x="96.386719"/>
     <use xlink:href="#DejaVuSans-20" x="137.5"/>
     <use xlink:href="#DejaVuSans-48" x="169.287109"/>
     <use xlink:href="#DejaVuSans-33" x="244.482422"/>
     <use xlink:href="#DejaVuSans-2e" x="308.105469"/>
     <use xlink:href="#DejaVuSans-32" x="339.892578"/>
     <use xlink:href="#DejaVuSans-20" x="403.515625"/>
     <use xlink:href="#DejaVuSans-50" x="435.302734"/>
     <use xlink:href="#DejaVuSans-54" x="495.605469"/>
     <use xlink:href="#DejaVuSans-4d" x="556.689453"/>
     <use xlink:href="#DejaVuSans-73" x="642.96875"/>
     <use xlink:href="#DejaVuSans-20" x="695.068359"/>
     <use xlink:href="#DejaVuSans-69" x="726.855469"/>
     <use xlink:href="#DejaVuSans-6e" x="754.638672"/>
     <use xlink:href="#DejaVuSans-20" x="818.017578"/>
     <use xlink:href="#DejaVuSans-62" x="849.804688"/>
     <use xlink:href="#DejaVuSans-72" x="913.28125"/>
     <use xlink:href="#DejaVuSans-61" x="954.394531"/>
     <use xlink:href="#DejaVuSans-69" x="1015.673828"/>
     <use xlink:href="#DejaVuSans-6e" x="1043.457031"/>
     <use xlink:href="#DejaVuSans-20" x="1106.835938"/>
     <use xlink:href="#DejaVuSans-61" x="1138.623047"/>
     <use xlink:href="#DejaVuSans-63" x="1199.902344"/>
     <use xlink:href="#DejaVuSans-72" x="1254.882812"/>
     <use xlink:href="#DejaVuSans-6f" x="1293.746094"/>
     <use xlink:href="#DejaVuSans-73" x="1354.927734"/>
     <use xlink:href="#DejaVuSans-73" x="1407.027344"/>
     <use xlink:href="#DejaVuSans-20" x="1459.126953"/>
     <use xlink:href="#DejaVuSans-61" x="1490.914062"/>
     <use xlink:href="#DejaVuSans-67" x="1552.193359"/>
     <use xlink:href="#DejaVuSans-65" x="1615.669922"/>
     <use xlink:href="#DejaVuSans-73" x="1677.193359"/>
    </g>
   </g>
   <g id="legend_1">
    <g id="patch_58">
     <path d="M 555.432812 147.90875 
L 641 147.90875 
Q 643 147.90875 643 145.90875 
L 643 58.84 
Q 643 56.84 641 56.84 
L 555.432812 56.84 
Q 553.432812 56.84 553.432812 58.84 
L 553.432812 145.90875 
Q 553.432812 147.90875 555.432812 147.90875 
z
" style="fill: #ffffff; opacity: 0.8; stroke: #cccccc; stroke-linejoin: miter"/>
    </g>
    <g id="text_19">
     <!-- Age -->
     <g transform="translate(588.545312 68.438437) scale(0.1 -0.1)">
      <use xlink:href="#DejaVuSans-41"/>
      <use xlink:href="#DejaVuSans-67" x="68.408203"/>
      <use xlink:href="#DejaVuSans-65" x="131.884766"/>
     </g>
    </g>
    <g id="patch_59">
     <path d="M 557.432812 83.116562 
L 577.432812 83.116562 
L 577.432812 76.116562 
L 557.432812 76.116562 
z
" style="fill: #fcf500; fill-opacity: 0.175; stroke: #000000; stroke-linejoin: miter"/>
    </g>
    <g id="text_20">
     <!-- 3 months -->
     <g transform="translate(585.432812 83.116562) scale(0.1 -0.1)">
      <defs>
       <path id="DejaVuSans-68" d="M 3513 2113 
L 3513 0 
L 2938 0 
L 2938 2094 
Q 2938 2591 2744 2837 
Q 2550 3084 2163 3084 
Q 1697 3084 1428 2787 
Q 1159 2491 1159 1978 
L 1159 0 
L 581 0 
L 581 4863 
L 1159 4863 
L 1159 2956 
Q 1366 3272 1645 3428 
Q 1925 3584 2291 3584 
Q 2894 3584 3203 3211 
Q 3513 2838 3513 2113 
z
" transform="scale(0.015625)"/>
      </defs>
      <use xlink:href="#DejaVuSans-33"/>
      <use xlink:href="#DejaVuSans-20" x="63.623047"/>
      <use xlink:href="#DejaVuSans-6d" x="95.410156"/>
      <use xlink:href="#DejaVuSans-6f" x="192.822266"/>
      <use xlink:href="#DejaVuSans-6e" x="254.003906"/>
      <use xlink:href="#DejaVuSans-74" x="317.382812"/>
      <use xlink:href="#DejaVuSans-68" x="356.591797"/>
      <use xlink:href="#DejaVuSans-73" x="419.970703"/>
     </g>
    </g>
    <g id="patch_60">
     <path d="M 557.432812 97.794688 
L 577.432812 97.794688 
L 577.432812 90.794688 
L 557.432812 90.794688 
z
" style="fill: #08ff00; fill-opacity: 0.175; stroke: #000000; stroke-linejoin: miter"/>
    </g>
    <g id="text_21">
     <!-- 5 months -->
     <g transform="translate(585.432812 97.794688) scale(0.1 -0.1)">
      <use xlink:href="#DejaVuSans-35"/>
      <use xlink:href="#DejaVuSans-20" x="63.623047"/>
      <use xlink:href="#DejaVuSans-6d" x="95.410156"/>
      <use xlink:href="#DejaVuSans-6f" x="192.822266"/>
      <use xlink:href="#DejaVuSans-6e" x="254.003906"/>
      <use xlink:href="#DejaVuSans-74" x="317.382812"/>
      <use xlink:href="#DejaVuSans-68" x="356.591797"/>
      <use xlink:href="#DejaVuSans-73" x="419.970703"/>
     </g>
    </g>
    <g id="patch_61">
     <path d="M 557.432812 112.472812 
L 577.432812 112.472812 
L 577.432812 105.472812 
L 557.432812 105.472812 
z
" style="fill: #00fff6; fill-opacity: 0.175; stroke: #000000; stroke-linejoin: miter"/>
    </g>
    <g id="text_22">
     <!-- 10 months -->
     <g transform="translate(585.432812 112.472812) scale(0.1 -0.1)">
      <use xlink:href="#DejaVuSans-31"/>
      <use xlink:href="#DejaVuSans-30" x="63.623047"/>
      <use xlink:href="#DejaVuSans-20" x="127.246094"/>
      <use xlink:href="#DejaVuSans-6d" x="159.033203"/>
      <use xlink:href="#DejaVuSans-6f" x="256.445312"/>
      <use xlink:href="#DejaVuSans-6e" x="317.626953"/>
      <use xlink:href="#DejaVuSans-74" x="381.005859"/>
      <use xlink:href="#DejaVuSans-68" x="420.214844"/>
      <use xlink:href="#DejaVuSans-73" x="483.59375"/>
     </g>
    </g>
    <g id="patch_62">
     <path d="M 557.432812 127.150937 
L 577.432812 127.150937 
L 577.432812 120.150937 
L 557.432812 120.150937 
z
" style="fill: #0010ff; fill-opacity: 0.175; stroke: #000000; stroke-linejoin: miter"/>
    </g>
    <g id="text_23">
     <!-- 18 months -->
     <g transform="translate(585.432812 127.150937) scale(0.1 -0.1)">
      <defs>
       <path id="DejaVuSans-38" d="M 2034 2216 
Q 1584 2216 1326 1975 
Q 1069 1734 1069 1313 
Q 1069 891 1326 650 
Q 1584 409 2034 409 
Q 2484 409 2743 651 
Q 3003 894 3003 1313 
Q 3003 1734 2745 1975 
Q 2488 2216 2034 2216 
z
M 1403 2484 
Q 997 2584 770 2862 
Q 544 3141 544 3541 
Q 544 4100 942 4425 
Q 1341 4750 2034 4750 
Q 2731 4750 3128 4425 
Q 3525 4100 3525 3541 
Q 3525 3141 3298 2862 
Q 3072 2584 2669 2484 
Q 3125 2378 3379 2068 
Q 3634 1759 3634 1313 
Q 3634 634 3220 271 
Q 2806 -91 2034 -91 
Q 1263 -91 848 271 
Q 434 634 434 1313 
Q 434 1759 690 2068 
Q 947 2378 1403 2484 
z
M 1172 3481 
Q 1172 3119 1398 2916 
Q 1625 2713 2034 2713 
Q 2441 2713 2670 2916 
Q 2900 3119 2900 3481 
Q 2900 3844 2670 4047 
Q 2441 4250 2034 4250 
Q 1625 4250 1398 4047 
Q 1172 3844 1172 3481 
z
" transform="scale(0.015625)"/>
      </defs>
      <use xlink:href="#DejaVuSans-31"/>
      <use xlink:href="#DejaVuSans-38" x="63.623047"/>
      <use xlink:href="#DejaVuSans-20" x="127.246094"/>
      <use xlink:href="#DejaVuSans-6d" x="159.033203"/>
      <use xlink:href="#DejaVuSans-6f" x="256.445312"/>
      <use xlink:href="#DejaVuSans-6e" x="317.626953"/>
      <use xlink:href="#DejaVuSans-74" x="381.005859"/>
      <use xlink:href="#DejaVuSans-68" x="420.214844"/>
      <use xlink:href="#DejaVuSans-73" x="483.59375"/>
     </g>
    </g>
    <g id="patch_63">
     <path d="M 557.432812 141.829062 
L 577.432812 141.829062 
L 577.432812 134.829062 
L 557.432812 134.829062 
z
" style="fill: #ee00ff; fill-opacity: 0.175; stroke: #000000; stroke-linejoin: miter"/>
    </g>
    <g id="text_24">
     <!-- 24 months -->
     <g transform="translate(585.432812 141.829062) scale(0.1 -0.1)">
      <defs>
       <path id="DejaVuSans-34" d="M 2419 4116 
L 825 1625 
L 2419 1625 
L 2419 4116 
z
M 2253 4666 
L 3047 4666 
L 3047 1625 
L 3713 1625 
L 3713 1100 
L 3047 1100 
L 3047 0 
L 2419 0 
L 2419 1100 
L 313 1100 
L 313 1709 
L 2253 4666 
z
" transform="scale(0.015625)"/>
      </defs>
      <use xlink:href="#DejaVuSans-32"/>
      <use xlink:href="#DejaVuSans-34" x="63.623047"/>
      <use xlink:href="#DejaVuSans-20" x="127.246094"/>
      <use xlink:href="#DejaVuSans-6d" x="159.033203"/>
      <use xlink:href="#DejaVuSans-6f" x="256.445312"/>
      <use xlink:href="#DejaVuSans-6e" x="317.626953"/>
      <use xlink:href="#DejaVuSans-74" x="381.005859"/>
      <use xlink:href="#DejaVuSans-68" x="420.214844"/>
      <use xlink:href="#DejaVuSans-73" x="483.59375"/>
     </g>
    </g>
   </g>
  </g>
 </g>
 <defs>
  <clipPath id="pb5b6365e73">
   <rect x="90" y="51.84" width="558" height="332.64"/>
  </clipPath>
 </defs>
</svg>
