<?xml version="1.0" encoding="utf-8" standalone="no"?>
<!DOCTYPE svg PUBLIC "-//W3C//DTD SVG 1.1//EN"
  "http://www.w3.org/Graphics/SVG/1.1/DTD/svg11.dtd">
<svg xmlns:xlink="http://www.w3.org/1999/xlink" width="720pt" height="432pt" viewBox="0 0 720 432" xmlns="http://www.w3.org/2000/svg" version="1.1">
 <metadata>
  <rdf:RDF xmlns:dc="http://purl.org/dc/elements/1.1/" xmlns:cc="http://creativecommons.org/ns#" xmlns:rdf="http://www.w3.org/1999/02/22-rdf-syntax-ns#">
   <cc:Work>
    <dc:type rdf:resource="http://purl.org/dc/dcmitype/StillImage"/>
    <dc:date>2024-04-24T19:58:40.326796</dc:date>
    <dc:format>image/svg+xml</dc:format>
    <dc:creator>
     <cc:Agent>
      <dc:title>Matplotlib v3.8.0, https://matplotlib.org/</dc:title>
     </cc:Agent>
    </dc:creator>
   </cc:Work>
  </rdf:RDF>
 </metadata>
 <defs>
  <style type="text/css">*{stroke-linejoin: round; stroke-linecap: butt}</style>
 </defs>
 <g id="figure_1">
  <g id="patch_1">
   <path d="M 0 432 
L 720 432 
L 720 0 
L 0 0 
L 0 432 
z
" style="fill: none; opacity: 0"/>
  </g>
  <g id="axes_1">
   <g id="patch_2">
    <path d="M 90 384.48 
L 648 384.48 
L 648 51.84 
L 90 51.84 
L 90 384.48 
z
" style="fill: none"/>
   </g>
   <g id="patch_3">
    <path d="M 115.363636 384.48 
L 155.869491 384.48 
L 155.869491 240.5376 
L 115.363636 240.5376 
z
" clip-path="url(#p4e97e650ca)" style="fill: #fcf500; fill-opacity: 0.175; stroke: #000000; stroke-linejoin: miter"/>
   </g>
   <g id="patch_4">
    <path d="M 155.869491 384.48 
L 196.375345 384.48 
L 196.375345 328.8384 
L 155.869491 328.8384 
z
" clip-path="url(#p4e97e650ca)" style="fill: #fcf500; fill-opacity: 0.175; stroke: #000000; stroke-linejoin: miter"/>
   </g>
   <g id="patch_5">
    <path d="M 196.375345 384.48 
L 236.881199 384.48 
L 236.881199 346.9824 
L 196.375345 346.9824 
z
" clip-path="url(#p4e97e650ca)" style="fill: #fcf500; fill-opacity: 0.175; stroke: #000000; stroke-linejoin: miter"/>
   </g>
   <g id="patch_6">
    <path d="M 236.881199 384.48 
L 277.387054 384.48 
L 277.387054 354.24 
L 236.881199 354.24 
z
" clip-path="url(#p4e97e650ca)" style="fill: #fcf500; fill-opacity: 0.175; stroke: #000000; stroke-linejoin: miter"/>
   </g>
   <g id="patch_7">
    <path d="M 277.387054 384.48 
L 317.892908 384.48 
L 317.892908 338.5152 
L 277.387054 338.5152 
z
" clip-path="url(#p4e97e650ca)" style="fill: #fcf500; fill-opacity: 0.175; stroke: #000000; stroke-linejoin: miter"/>
   </g>
   <g id="patch_8">
    <path d="M 317.892908 384.48 
L 358.398762 384.48 
L 358.398762 284.0832 
L 317.892908 284.0832 
z
" clip-path="url(#p4e97e650ca)" style="fill: #fcf500; fill-opacity: 0.175; stroke: #000000; stroke-linejoin: miter"/>
   </g>
   <g id="patch_9">
    <path d="M 358.398762 384.48 
L 398.904616 384.48 
L 398.904616 117.1584 
L 358.398762 117.1584 
z
" clip-path="url(#p4e97e650ca)" style="fill: #fcf500; fill-opacity: 0.175; stroke: #000000; stroke-linejoin: miter"/>
   </g>
   <g id="patch_10">
    <path d="M 398.904616 384.48 
L 439.410471 384.48 
L 439.410471 332.4672 
L 398.904616 332.4672 
z
" clip-path="url(#p4e97e650ca)" style="fill: #fcf500; fill-opacity: 0.175; stroke: #000000; stroke-linejoin: miter"/>
   </g>
   <g id="patch_11">
    <path d="M 439.410471 384.48 
L 479.916325 384.48 
L 479.916325 357.8688 
L 439.410471 357.8688 
z
" clip-path="url(#p4e97e650ca)" style="fill: #fcf500; fill-opacity: 0.175; stroke: #000000; stroke-linejoin: miter"/>
   </g>
   <g id="patch_12">
    <path d="M 479.916325 384.48 
L 520.422179 384.48 
L 520.422179 369.9648 
L 479.916325 369.9648 
z
" clip-path="url(#p4e97e650ca)" style="fill: #fcf500; fill-opacity: 0.175; stroke: #000000; stroke-linejoin: miter"/>
   </g>
   <g id="patch_13">
    <path d="M 520.422179 384.48 
L 560.928034 384.48 
L 560.928034 380.8512 
L 520.422179 380.8512 
z
" clip-path="url(#p4e97e650ca)" style="fill: #fcf500; fill-opacity: 0.175; stroke: #000000; stroke-linejoin: miter"/>
   </g>
   <g id="patch_14">
    <path d="M 115.363636 384.48 
L 156.298687 384.48 
L 156.298687 215.136 
L 115.363636 215.136 
z
" clip-path="url(#p4e97e650ca)" style="fill: #08ff00; fill-opacity: 0.175; stroke: #000000; stroke-linejoin: miter"/>
   </g>
   <g id="patch_15">
    <path d="M 156.298687 384.48 
L 197.233738 384.48 
L 197.233738 336.096 
L 156.298687 336.096 
z
" clip-path="url(#p4e97e650ca)" style="fill: #08ff00; fill-opacity: 0.175; stroke: #000000; stroke-linejoin: miter"/>
   </g>
   <g id="patch_16">
    <path d="M 197.233738 384.48 
L 238.168788 384.48 
L 238.168788 348.192 
L 197.233738 348.192 
z
" clip-path="url(#p4e97e650ca)" style="fill: #08ff00; fill-opacity: 0.175; stroke: #000000; stroke-linejoin: miter"/>
   </g>
   <g id="patch_17">
    <path d="M 238.168788 384.48 
L 279.103839 384.48 
L 279.103839 340.9344 
L 238.168788 340.9344 
z
" clip-path="url(#p4e97e650ca)" style="fill: #08ff00; fill-opacity: 0.175; stroke: #000000; stroke-linejoin: miter"/>
   </g>
   <g id="patch_18">
    <path d="M 279.103839 384.48 
L 320.03889 384.48 
L 320.03889 343.3536 
L 279.103839 343.3536 
z
" clip-path="url(#p4e97e650ca)" style="fill: #08ff00; fill-opacity: 0.175; stroke: #000000; stroke-linejoin: miter"/>
   </g>
   <g id="patch_19">
    <path d="M 320.03889 384.48 
L 360.97394 384.48 
L 360.97394 287.712 
L 320.03889 287.712 
z
" clip-path="url(#p4e97e650ca)" style="fill: #08ff00; fill-opacity: 0.175; stroke: #000000; stroke-linejoin: miter"/>
   </g>
   <g id="patch_20">
    <path d="M 360.97394 384.48 
L 401.908991 384.48 
L 401.908991 123.2064 
L 360.97394 123.2064 
z
" clip-path="url(#p4e97e650ca)" style="fill: #08ff00; fill-opacity: 0.175; stroke: #000000; stroke-linejoin: miter"/>
   </g>
   <g id="patch_21">
    <path d="M 401.908991 384.48 
L 442.844042 384.48 
L 442.844042 350.6112 
L 401.908991 350.6112 
z
" clip-path="url(#p4e97e650ca)" style="fill: #08ff00; fill-opacity: 0.175; stroke: #000000; stroke-linejoin: miter"/>
   </g>
   <g id="patch_22">
    <path d="M 442.844042 384.48 
L 483.779092 384.48 
L 483.779092 356.6592 
L 442.844042 356.6592 
z
" clip-path="url(#p4e97e650ca)" style="fill: #08ff00; fill-opacity: 0.175; stroke: #000000; stroke-linejoin: miter"/>
   </g>
   <g id="patch_23">
    <path d="M 483.779092 384.48 
L 524.714143 384.48 
L 524.714143 368.7552 
L 483.779092 368.7552 
z
" clip-path="url(#p4e97e650ca)" style="fill: #08ff00; fill-opacity: 0.175; stroke: #000000; stroke-linejoin: miter"/>
   </g>
   <g id="patch_24">
    <path d="M 524.714143 384.48 
L 565.649194 384.48 
L 565.649194 380.8512 
L 524.714143 380.8512 
z
" clip-path="url(#p4e97e650ca)" style="fill: #08ff00; fill-opacity: 0.175; stroke: #000000; stroke-linejoin: miter"/>
   </g>
   <g id="patch_25">
    <path d="M 115.363636 384.48 
L 159.091269 384.48 
L 159.091269 109.9008 
L 115.363636 109.9008 
z
" clip-path="url(#p4e97e650ca)" style="fill: #00fff6; fill-opacity: 0.175; stroke: #000000; stroke-linejoin: miter"/>
   </g>
   <g id="patch_26">
    <path d="M 159.091269 384.48 
L 202.818901 384.48 
L 202.818901 365.1264 
L 159.091269 365.1264 
z
" clip-path="url(#p4e97e650ca)" style="fill: #00fff6; fill-opacity: 0.175; stroke: #000000; stroke-linejoin: miter"/>
   </g>
   <g id="patch_27">
    <path d="M 202.818901 384.48 
L 246.546534 384.48 
L 246.546534 337.3056 
L 202.818901 337.3056 
z
" clip-path="url(#p4e97e650ca)" style="fill: #00fff6; fill-opacity: 0.175; stroke: #000000; stroke-linejoin: miter"/>
   </g>
   <g id="patch_28">
    <path d="M 246.546534 384.48 
L 290.274166 384.48 
L 290.274166 340.9344 
L 246.546534 340.9344 
z
" clip-path="url(#p4e97e650ca)" style="fill: #00fff6; fill-opacity: 0.175; stroke: #000000; stroke-linejoin: miter"/>
   </g>
   <g id="patch_29">
    <path d="M 290.274166 384.48 
L 334.001799 384.48 
L 334.001799 354.24 
L 290.274166 354.24 
z
" clip-path="url(#p4e97e650ca)" style="fill: #00fff6; fill-opacity: 0.175; stroke: #000000; stroke-linejoin: miter"/>
   </g>
   <g id="patch_30">
    <path d="M 334.001799 384.48 
L 377.729431 384.48 
L 377.729431 144.9792 
L 334.001799 144.9792 
z
" clip-path="url(#p4e97e650ca)" style="fill: #00fff6; fill-opacity: 0.175; stroke: #000000; stroke-linejoin: miter"/>
   </g>
   <g id="patch_31">
    <path d="M 377.729431 384.48 
L 421.457064 384.48 
L 421.457064 317.952 
L 377.729431 317.952 
z
" clip-path="url(#p4e97e650ca)" style="fill: #00fff6; fill-opacity: 0.175; stroke: #000000; stroke-linejoin: miter"/>
   </g>
   <g id="patch_32">
    <path d="M 421.457064 384.48 
L 465.184696 384.48 
L 465.184696 359.0784 
L 421.457064 359.0784 
z
" clip-path="url(#p4e97e650ca)" style="fill: #00fff6; fill-opacity: 0.175; stroke: #000000; stroke-linejoin: miter"/>
   </g>
   <g id="patch_33">
    <path d="M 465.184696 384.48 
L 508.912329 384.48 
L 508.912329 366.336 
L 465.184696 366.336 
z
" clip-path="url(#p4e97e650ca)" style="fill: #00fff6; fill-opacity: 0.175; stroke: #000000; stroke-linejoin: miter"/>
   </g>
   <g id="patch_34">
    <path d="M 508.912329 384.48 
L 552.639961 384.48 
L 552.639961 377.2224 
L 508.912329 377.2224 
z
" clip-path="url(#p4e97e650ca)" style="fill: #00fff6; fill-opacity: 0.175; stroke: #000000; stroke-linejoin: miter"/>
   </g>
   <g id="patch_35">
    <path d="M 552.639961 384.48 
L 596.367594 384.48 
L 596.367594 383.2704 
L 552.639961 383.2704 
z
" clip-path="url(#p4e97e650ca)" style="fill: #00fff6; fill-opacity: 0.175; stroke: #000000; stroke-linejoin: miter"/>
   </g>
   <g id="patch_36">
    <path d="M 115.363636 384.48 
L 166.090909 384.48 
L 166.090909 223.6032 
L 115.363636 223.6032 
z
" clip-path="url(#p4e97e650ca)" style="fill: #0010ff; fill-opacity: 0.175; stroke: #000000; stroke-linejoin: miter"/>
   </g>
   <g id="patch_37">
    <path d="M 166.090909 384.48 
L 216.818182 384.48 
L 216.818182 377.2224 
L 166.090909 377.2224 
z
" clip-path="url(#p4e97e650ca)" style="fill: #0010ff; fill-opacity: 0.175; stroke: #000000; stroke-linejoin: miter"/>
   </g>
   <g id="patch_38">
    <path d="M 216.818182 384.48 
L 267.545455 384.48 
L 267.545455 367.5456 
L 216.818182 367.5456 
z
" clip-path="url(#p4e97e650ca)" style="fill: #0010ff; fill-opacity: 0.175; stroke: #000000; stroke-linejoin: miter"/>
   </g>
   <g id="patch_39">
    <path d="M 267.545455 384.48 
L 318.272727 384.48 
L 318.272727 369.9648 
L 267.545455 369.9648 
z
" clip-path="url(#p4e97e650ca)" style="fill: #0010ff; fill-opacity: 0.175; stroke: #000000; stroke-linejoin: miter"/>
   </g>
   <g id="patch_40">
    <path d="M 318.272727 384.48 
L 369 384.48 
L 369 330.048 
L 318.272727 330.048 
z
" clip-path="url(#p4e97e650ca)" style="fill: #0010ff; fill-opacity: 0.175; stroke: #000000; stroke-linejoin: miter"/>
   </g>
   <g id="patch_41">
    <path d="M 369 384.48 
L 419.727273 384.48 
L 419.727273 234.4896 
L 369 234.4896 
z
" clip-path="url(#p4e97e650ca)" style="fill: #0010ff; fill-opacity: 0.175; stroke: #000000; stroke-linejoin: miter"/>
   </g>
   <g id="patch_42">
    <path d="M 419.727273 384.48 
L 470.454545 384.48 
L 470.454545 350.6112 
L 419.727273 350.6112 
z
" clip-path="url(#p4e97e650ca)" style="fill: #0010ff; fill-opacity: 0.175; stroke: #000000; stroke-linejoin: miter"/>
   </g>
   <g id="patch_43">
    <path d="M 470.454545 384.48 
L 521.181818 384.48 
L 521.181818 371.1744 
L 470.454545 371.1744 
z
" clip-path="url(#p4e97e650ca)" style="fill: #0010ff; fill-opacity: 0.175; stroke: #000000; stroke-linejoin: miter"/>
   </g>
   <g id="patch_44">
    <path d="M 521.181818 384.48 
L 571.909091 384.48 
L 571.909091 371.1744 
L 521.181818 371.1744 
z
" clip-path="url(#p4e97e650ca)" style="fill: #0010ff; fill-opacity: 0.175; stroke: #000000; stroke-linejoin: miter"/>
   </g>
   <g id="patch_45">
    <path d="M 571.909091 384.48 
L 622.636364 384.48 
L 622.636364 382.0608 
L 571.909091 382.0608 
z
" clip-path="url(#p4e97e650ca)" style="fill: #0010ff; fill-opacity: 0.175; stroke: #000000; stroke-linejoin: miter"/>
   </g>
   <g id="patch_46">
    <path d="M 115.363636 384.48 
L 161.479339 384.48 
L 161.479339 103.8528 
L 115.363636 103.8528 
z
" clip-path="url(#p4e97e650ca)" style="fill: #ee00ff; fill-opacity: 0.175; stroke: #000000; stroke-linejoin: miter"/>
   </g>
   <g id="patch_47">
    <path d="M 161.479339 384.48 
L 207.595041 384.48 
L 207.595041 373.5936 
L 161.479339 373.5936 
z
" clip-path="url(#p4e97e650ca)" style="fill: #ee00ff; fill-opacity: 0.175; stroke: #000000; stroke-linejoin: miter"/>
   </g>
   <g id="patch_48">
    <path d="M 207.595041 384.48 
L 253.710744 384.48 
L 253.710744 355.4496 
L 207.595041 355.4496 
z
" clip-path="url(#p4e97e650ca)" style="fill: #ee00ff; fill-opacity: 0.175; stroke: #000000; stroke-linejoin: miter"/>
   </g>
   <g id="patch_49">
    <path d="M 253.710744 384.48 
L 299.826446 384.48 
L 299.826446 348.192 
L 253.710744 348.192 
z
" clip-path="url(#p4e97e650ca)" style="fill: #ee00ff; fill-opacity: 0.175; stroke: #000000; stroke-linejoin: miter"/>
   </g>
   <g id="patch_50">
    <path d="M 299.826446 384.48 
L 345.942149 384.48 
L 345.942149 354.24 
L 299.826446 354.24 
z
" clip-path="url(#p4e97e650ca)" style="fill: #ee00ff; fill-opacity: 0.175; stroke: #000000; stroke-linejoin: miter"/>
   </g>
   <g id="patch_51">
    <path d="M 345.942149 384.48 
L 392.057851 384.48 
L 392.057851 154.656 
L 345.942149 154.656 
z
" clip-path="url(#p4e97e650ca)" style="fill: #ee00ff; fill-opacity: 0.175; stroke: #000000; stroke-linejoin: miter"/>
   </g>
   <g id="patch_52">
    <path d="M 392.057851 384.48 
L 438.173554 384.48 
L 438.173554 326.4192 
L 392.057851 326.4192 
z
" clip-path="url(#p4e97e650ca)" style="fill: #ee00ff; fill-opacity: 0.175; stroke: #000000; stroke-linejoin: miter"/>
   </g>
   <g id="patch_53">
    <path d="M 438.173554 384.48 
L 484.289256 384.48 
L 484.289256 353.0304 
L 438.173554 353.0304 
z
" clip-path="url(#p4e97e650ca)" style="fill: #ee00ff; fill-opacity: 0.175; stroke: #000000; stroke-linejoin: miter"/>
   </g>
   <g id="patch_54">
    <path d="M 484.289256 384.48 
L 530.404959 384.48 
L 530.404959 371.1744 
L 484.289256 371.1744 
z
" clip-path="url(#p4e97e650ca)" style="fill: #ee00ff; fill-opacity: 0.175; stroke: #000000; stroke-linejoin: miter"/>
   </g>
   <g id="patch_55">
    <path d="M 530.404959 384.48 
L 576.520661 384.48 
L 576.520661 377.2224 
L 530.404959 377.2224 
z
" clip-path="url(#p4e97e650ca)" style="fill: #ee00ff; fill-opacity: 0.175; stroke: #000000; stroke-linejoin: miter"/>
   </g>
   <g id="patch_56">
    <path d="M 576.520661 384.48 
L 622.636364 384.48 
L 622.636364 383.2704 
L 576.520661 383.2704 
z
" clip-path="url(#p4e97e650ca)" style="fill: #ee00ff; fill-opacity: 0.175; stroke: #000000; stroke-linejoin: miter"/>
   </g>
   <g id="matplotlib.axis_1">
    <g id="xtick_1">
     <g id="line2d_1">
      <defs>
       <path id="mc72787fdf2" d="M 0 0 
L 0 3.5 
" style="stroke: #000000; stroke-width: 0.8"/>
      </defs>
      <g>
       <use xlink:href="#mc72787fdf2" x="115.363636" y="384.48" style="stroke: #000000; stroke-width: 0.8"/>
      </g>
     </g>
     <g id="text_1">
      <!-- −1.00 -->
      <g transform="translate(100.04098 399.078438) scale(0.1 -0.1)">
       <defs>
        <path id="DejaVuSans-2212" d="M 678 2272 
L 4684 2272 
L 4684 1741 
L 678 1741 
L 678 2272 
z
" transform="scale(0.015625)"/>
        <path id="DejaVuSans-31" d="M 794 531 
L 1825 531 
L 1825 4091 
L 703 3866 
L 703 4441 
L 1819 4666 
L 2450 4666 
L 2450 531 
L 3481 531 
L 3481 0 
L 794 0 
L 794 531 
z
" transform="scale(0.015625)"/>
        <path id="DejaVuSans-2e" d="M 684 794 
L 1344 794 
L 1344 0 
L 684 0 
L 684 794 
z
" transform="scale(0.015625)"/>
        <path id="DejaVuSans-30" d="M 2034 4250 
Q 1547 4250 1301 3770 
Q 1056 3291 1056 2328 
Q 1056 1369 1301 889 
Q 1547 409 2034 409 
Q 2525 409 2770 889 
Q 3016 1369 3016 2328 
Q 3016 3291 2770 3770 
Q 2525 4250 2034 4250 
z
M 2034 4750 
Q 2819 4750 3233 4129 
Q 3647 3509 3647 2328 
Q 3647 1150 3233 529 
Q 2819 -91 2034 -91 
Q 1250 -91 836 529 
Q 422 1150 422 2328 
Q 422 3509 836 4129 
Q 1250 4750 2034 4750 
z
" transform="scale(0.015625)"/>
       </defs>
       <use xlink:href="#DejaVuSans-2212"/>
       <use xlink:href="#DejaVuSans-31" x="83.789062"/>
       <use xlink:href="#DejaVuSans-2e" x="147.412109"/>
       <use xlink:href="#DejaVuSans-30" x="179.199219"/>
       <use xlink:href="#DejaVuSans-30" x="242.822266"/>
      </g>
     </g>
    </g>
    <g id="xtick_2">
     <g id="line2d_2">
      <g>
       <use xlink:href="#mc72787fdf2" x="178.772727" y="384.48" style="stroke: #000000; stroke-width: 0.8"/>
      </g>
     </g>
     <g id="text_2">
      <!-- −0.75 -->
      <g transform="translate(163.450071 399.078438) scale(0.1 -0.1)">
       <defs>
        <path id="DejaVuSans-37" d="M 525 4666 
L 3525 4666 
L 3525 4397 
L 1831 0 
L 1172 0 
L 2766 4134 
L 525 4134 
L 525 4666 
z
" transform="scale(0.015625)"/>
        <path id="DejaVuSans-35" d="M 691 4666 
L 3169 4666 
L 3169 4134 
L 1269 4134 
L 1269 2991 
Q 1406 3038 1543 3061 
Q 1681 3084 1819 3084 
Q 2600 3084 3056 2656 
Q 3513 2228 3513 1497 
Q 3513 744 3044 326 
Q 2575 -91 1722 -91 
Q 1428 -91 1123 -41 
Q 819 9 494 109 
L 494 744 
Q 775 591 1075 516 
Q 1375 441 1709 441 
Q 2250 441 2565 725 
Q 2881 1009 2881 1497 
Q 2881 1984 2565 2268 
Q 2250 2553 1709 2553 
Q 1456 2553 1204 2497 
Q 953 2441 691 2322 
L 691 4666 
z
" transform="scale(0.015625)"/>
       </defs>
       <use xlink:href="#DejaVuSans-2212"/>
       <use xlink:href="#DejaVuSans-30" x="83.789062"/>
       <use xlink:href="#DejaVuSans-2e" x="147.412109"/>
       <use xlink:href="#DejaVuSans-37" x="179.199219"/>
       <use xlink:href="#DejaVuSans-35" x="242.822266"/>
      </g>
     </g>
    </g>
    <g id="xtick_3">
     <g id="line2d_3">
      <g>
       <use xlink:href="#mc72787fdf2" x="242.181818" y="384.48" style="stroke: #000000; stroke-width: 0.8"/>
      </g>
     </g>
     <g id="text_3">
      <!-- −0.50 -->
      <g transform="translate(226.859162 399.078438) scale(0.1 -0.1)">
       <use xlink:href="#DejaVuSans-2212"/>
       <use xlink:href="#DejaVuSans-30" x="83.789062"/>
       <use xlink:href="#DejaVuSans-2e" x="147.412109"/>
       <use xlink:href="#DejaVuSans-35" x="179.199219"/>
       <use xlink:href="#DejaVuSans-30" x="242.822266"/>
      </g>
     </g>
    </g>
    <g id="xtick_4">
     <g id="line2d_4">
      <g>
       <use xlink:href="#mc72787fdf2" x="305.590909" y="384.48" style="stroke: #000000; stroke-width: 0.8"/>
      </g>
     </g>
     <g id="text_4">
      <!-- −0.25 -->
      <g transform="translate(290.268253 399.078438) scale(0.1 -0.1)">
       <defs>
        <path id="DejaVuSans-32" d="M 1228 531 
L 3431 531 
L 3431 0 
L 469 0 
L 469 531 
Q 828 903 1448 1529 
Q 2069 2156 2228 2338 
Q 2531 2678 2651 2914 
Q 2772 3150 2772 3378 
Q 2772 3750 2511 3984 
Q 2250 4219 1831 4219 
Q 1534 4219 1204 4116 
Q 875 4013 500 3803 
L 500 4441 
Q 881 4594 1212 4672 
Q 1544 4750 1819 4750 
Q 2544 4750 2975 4387 
Q 3406 4025 3406 3419 
Q 3406 3131 3298 2873 
Q 3191 2616 2906 2266 
Q 2828 2175 2409 1742 
Q 1991 1309 1228 531 
z
" transform="scale(0.015625)"/>
       </defs>
       <use xlink:href="#DejaVuSans-2212"/>
       <use xlink:href="#DejaVuSans-30" x="83.789062"/>
       <use xlink:href="#DejaVuSans-2e" x="147.412109"/>
       <use xlink:href="#DejaVuSans-32" x="179.199219"/>
       <use xlink:href="#DejaVuSans-35" x="242.822266"/>
      </g>
     </g>
    </g>
    <g id="xtick_5">
     <g id="line2d_5">
      <g>
       <use xlink:href="#mc72787fdf2" x="369" y="384.48" style="stroke: #000000; stroke-width: 0.8"/>
      </g>
     </g>
     <g id="text_5">
      <!-- 0.00 -->
      <g transform="translate(357.867188 399.078438) scale(0.1 -0.1)">
       <use xlink:href="#DejaVuSans-30"/>
       <use xlink:href="#DejaVuSans-2e" x="63.623047"/>
       <use xlink:href="#DejaVuSans-30" x="95.410156"/>
       <use xlink:href="#DejaVuSans-30" x="159.033203"/>
      </g>
     </g>
    </g>
    <g id="xtick_6">
     <g id="line2d_6">
      <g>
       <use xlink:href="#mc72787fdf2" x="432.409091" y="384.48" style="stroke: #000000; stroke-width: 0.8"/>
      </g>
     </g>
     <g id="text_6">
      <!-- 0.25 -->
      <g transform="translate(421.276278 399.078438) scale(0.1 -0.1)">
       <use xlink:href="#DejaVuSans-30"/>
       <use xlink:href="#DejaVuSans-2e" x="63.623047"/>
       <use xlink:href="#DejaVuSans-32" x="95.410156"/>
       <use xlink:href="#DejaVuSans-35" x="159.033203"/>
      </g>
     </g>
    </g>
    <g id="xtick_7">
     <g id="line2d_7">
      <g>
       <use xlink:href="#mc72787fdf2" x="495.818182" y="384.48" style="stroke: #000000; stroke-width: 0.8"/>
      </g>
     </g>
     <g id="text_7">
      <!-- 0.50 -->
      <g transform="translate(484.685369 399.078438) scale(0.1 -0.1)">
       <use xlink:href="#DejaVuSans-30"/>
       <use xlink:href="#DejaVuSans-2e" x="63.623047"/>
       <use xlink:href="#DejaVuSans-35" x="95.410156"/>
       <use xlink:href="#DejaVuSans-30" x="159.033203"/>
      </g>
     </g>
    </g>
    <g id="xtick_8">
     <g id="line2d_8">
      <g>
       <use xlink:href="#mc72787fdf2" x="559.227273" y="384.48" style="stroke: #000000; stroke-width: 0.8"/>
      </g>
     </g>
     <g id="text_8">
      <!-- 0.75 -->
      <g transform="translate(548.09446 399.078438) scale(0.1 -0.1)">
       <use xlink:href="#DejaVuSans-30"/>
       <use xlink:href="#DejaVuSans-2e" x="63.623047"/>
       <use xlink:href="#DejaVuSans-37" x="95.410156"/>
       <use xlink:href="#DejaVuSans-35" x="159.033203"/>
      </g>
     </g>
    </g>
    <g id="xtick_9">
     <g id="line2d_9">
      <g>
       <use xlink:href="#mc72787fdf2" x="622.636364" y="384.48" style="stroke: #000000; stroke-width: 0.8"/>
      </g>
     </g>
     <g id="text_9">
      <!-- 1.00 -->
      <g transform="translate(611.503551 399.078438) scale(0.1 -0.1)">
       <use xlink:href="#DejaVuSans-31"/>
       <use xlink:href="#DejaVuSans-2e" x="63.623047"/>
       <use xlink:href="#DejaVuSans-30" x="95.410156"/>
       <use xlink:href="#DejaVuSans-30" x="159.033203"/>
      </g>
     </g>
    </g>
    <g id="text_10">
     <!-- Avg Normalized Interplay -->
     <g transform="translate(305.883594 412.756563) scale(0.1 -0.1)">
      <defs>
       <path id="DejaVuSans-41" d="M 2188 4044 
L 1331 1722 
L 3047 1722 
L 2188 4044 
z
M 1831 4666 
L 2547 4666 
L 4325 0 
L 3669 0 
L 3244 1197 
L 1141 1197 
L 716 0 
L 50 0 
L 1831 4666 
z
" transform="scale(0.015625)"/>
       <path id="DejaVuSans-76" d="M 191 3500 
L 800 3500 
L 1894 563 
L 2988 3500 
L 3597 3500 
L 2284 0 
L 1503 0 
L 191 3500 
z
" transform="scale(0.015625)"/>
       <path id="DejaVuSans-67" d="M 2906 1791 
Q 2906 2416 2648 2759 
Q 2391 3103 1925 3103 
Q 1463 3103 1205 2759 
Q 947 2416 947 1791 
Q 947 1169 1205 825 
Q 1463 481 1925 481 
Q 2391 481 2648 825 
Q 2906 1169 2906 1791 
z
M 3481 434 
Q 3481 -459 3084 -895 
Q 2688 -1331 1869 -1331 
Q 1566 -1331 1297 -1286 
Q 1028 -1241 775 -1147 
L 775 -588 
Q 1028 -725 1275 -790 
Q 1522 -856 1778 -856 
Q 2344 -856 2625 -561 
Q 2906 -266 2906 331 
L 2906 616 
Q 2728 306 2450 153 
Q 2172 0 1784 0 
Q 1141 0 747 490 
Q 353 981 353 1791 
Q 353 2603 747 3093 
Q 1141 3584 1784 3584 
Q 2172 3584 2450 3431 
Q 2728 3278 2906 2969 
L 2906 3500 
L 3481 3500 
L 3481 434 
z
" transform="scale(0.015625)"/>
       <path id="DejaVuSans-20" transform="scale(0.015625)"/>
       <path id="DejaVuSans-4e" d="M 628 4666 
L 1478 4666 
L 3547 763 
L 3547 4666 
L 4159 4666 
L 4159 0 
L 3309 0 
L 1241 3903 
L 1241 0 
L 628 0 
L 628 4666 
z
" transform="scale(0.015625)"/>
       <path id="DejaVuSans-6f" d="M 1959 3097 
Q 1497 3097 1228 2736 
Q 959 2375 959 1747 
Q 959 1119 1226 758 
Q 1494 397 1959 397 
Q 2419 397 2687 759 
Q 2956 1122 2956 1747 
Q 2956 2369 2687 2733 
Q 2419 3097 1959 3097 
z
M 1959 3584 
Q 2709 3584 3137 3096 
Q 3566 2609 3566 1747 
Q 3566 888 3137 398 
Q 2709 -91 1959 -91 
Q 1206 -91 779 398 
Q 353 888 353 1747 
Q 353 2609 779 3096 
Q 1206 3584 1959 3584 
z
" transform="scale(0.015625)"/>
       <path id="DejaVuSans-72" d="M 2631 2963 
Q 2534 3019 2420 3045 
Q 2306 3072 2169 3072 
Q 1681 3072 1420 2755 
Q 1159 2438 1159 1844 
L 1159 0 
L 581 0 
L 581 3500 
L 1159 3500 
L 1159 2956 
Q 1341 3275 1631 3429 
Q 1922 3584 2338 3584 
Q 2397 3584 2469 3576 
Q 2541 3569 2628 3553 
L 2631 2963 
z
" transform="scale(0.015625)"/>
       <path id="DejaVuSans-6d" d="M 3328 2828 
Q 3544 3216 3844 3400 
Q 4144 3584 4550 3584 
Q 5097 3584 5394 3201 
Q 5691 2819 5691 2113 
L 5691 0 
L 5113 0 
L 5113 2094 
Q 5113 2597 4934 2840 
Q 4756 3084 4391 3084 
Q 3944 3084 3684 2787 
Q 3425 2491 3425 1978 
L 3425 0 
L 2847 0 
L 2847 2094 
Q 2847 2600 2669 2842 
Q 2491 3084 2119 3084 
Q 1678 3084 1418 2786 
Q 1159 2488 1159 1978 
L 1159 0 
L 581 0 
L 581 3500 
L 1159 3500 
L 1159 2956 
Q 1356 3278 1631 3431 
Q 1906 3584 2284 3584 
Q 2666 3584 2933 3390 
Q 3200 3197 3328 2828 
z
" transform="scale(0.015625)"/>
       <path id="DejaVuSans-61" d="M 2194 1759 
Q 1497 1759 1228 1600 
Q 959 1441 959 1056 
Q 959 750 1161 570 
Q 1363 391 1709 391 
Q 2188 391 2477 730 
Q 2766 1069 2766 1631 
L 2766 1759 
L 2194 1759 
z
M 3341 1997 
L 3341 0 
L 2766 0 
L 2766 531 
Q 2569 213 2275 61 
Q 1981 -91 1556 -91 
Q 1019 -91 701 211 
Q 384 513 384 1019 
Q 384 1609 779 1909 
Q 1175 2209 1959 2209 
L 2766 2209 
L 2766 2266 
Q 2766 2663 2505 2880 
Q 2244 3097 1772 3097 
Q 1472 3097 1187 3025 
Q 903 2953 641 2809 
L 641 3341 
Q 956 3463 1253 3523 
Q 1550 3584 1831 3584 
Q 2591 3584 2966 3190 
Q 3341 2797 3341 1997 
z
" transform="scale(0.015625)"/>
       <path id="DejaVuSans-6c" d="M 603 4863 
L 1178 4863 
L 1178 0 
L 603 0 
L 603 4863 
z
" transform="scale(0.015625)"/>
       <path id="DejaVuSans-69" d="M 603 3500 
L 1178 3500 
L 1178 0 
L 603 0 
L 603 3500 
z
M 603 4863 
L 1178 4863 
L 1178 4134 
L 603 4134 
L 603 4863 
z
" transform="scale(0.015625)"/>
       <path id="DejaVuSans-7a" d="M 353 3500 
L 3084 3500 
L 3084 2975 
L 922 459 
L 3084 459 
L 3084 0 
L 275 0 
L 275 525 
L 2438 3041 
L 353 3041 
L 353 3500 
z
" transform="scale(0.015625)"/>
       <path id="DejaVuSans-65" d="M 3597 1894 
L 3597 1613 
L 953 1613 
Q 991 1019 1311 708 
Q 1631 397 2203 397 
Q 2534 397 2845 478 
Q 3156 559 3463 722 
L 3463 178 
Q 3153 47 2828 -22 
Q 2503 -91 2169 -91 
Q 1331 -91 842 396 
Q 353 884 353 1716 
Q 353 2575 817 3079 
Q 1281 3584 2069 3584 
Q 2775 3584 3186 3129 
Q 3597 2675 3597 1894 
z
M 3022 2063 
Q 3016 2534 2758 2815 
Q 2500 3097 2075 3097 
Q 1594 3097 1305 2825 
Q 1016 2553 972 2059 
L 3022 2063 
z
" transform="scale(0.015625)"/>
       <path id="DejaVuSans-64" d="M 2906 2969 
L 2906 4863 
L 3481 4863 
L 3481 0 
L 2906 0 
L 2906 525 
Q 2725 213 2448 61 
Q 2172 -91 1784 -91 
Q 1150 -91 751 415 
Q 353 922 353 1747 
Q 353 2572 751 3078 
Q 1150 3584 1784 3584 
Q 2172 3584 2448 3432 
Q 2725 3281 2906 2969 
z
M 947 1747 
Q 947 1113 1208 752 
Q 1469 391 1925 391 
Q 2381 391 2643 752 
Q 2906 1113 2906 1747 
Q 2906 2381 2643 2742 
Q 2381 3103 1925 3103 
Q 1469 3103 1208 2742 
Q 947 2381 947 1747 
z
" transform="scale(0.015625)"/>
       <path id="DejaVuSans-49" d="M 628 4666 
L 1259 4666 
L 1259 0 
L 628 0 
L 628 4666 
z
" transform="scale(0.015625)"/>
       <path id="DejaVuSans-6e" d="M 3513 2113 
L 3513 0 
L 2938 0 
L 2938 2094 
Q 2938 2591 2744 2837 
Q 2550 3084 2163 3084 
Q 1697 3084 1428 2787 
Q 1159 2491 1159 1978 
L 1159 0 
L 581 0 
L 581 3500 
L 1159 3500 
L 1159 2956 
Q 1366 3272 1645 3428 
Q 1925 3584 2291 3584 
Q 2894 3584 3203 3211 
Q 3513 2838 3513 2113 
z
" transform="scale(0.015625)"/>
       <path id="DejaVuSans-74" d="M 1172 4494 
L 1172 3500 
L 2356 3500 
L 2356 3053 
L 1172 3053 
L 1172 1153 
Q 1172 725 1289 603 
Q 1406 481 1766 481 
L 2356 481 
L 2356 0 
L 1766 0 
Q 1100 0 847 248 
Q 594 497 594 1153 
L 594 3053 
L 172 3053 
L 172 3500 
L 594 3500 
L 594 4494 
L 1172 4494 
z
" transform="scale(0.015625)"/>
       <path id="DejaVuSans-70" d="M 1159 525 
L 1159 -1331 
L 581 -1331 
L 581 3500 
L 1159 3500 
L 1159 2969 
Q 1341 3281 1617 3432 
Q 1894 3584 2278 3584 
Q 2916 3584 3314 3078 
Q 3713 2572 3713 1747 
Q 3713 922 3314 415 
Q 2916 -91 2278 -91 
Q 1894 -91 1617 61 
Q 1341 213 1159 525 
z
M 3116 1747 
Q 3116 2381 2855 2742 
Q 2594 3103 2138 3103 
Q 1681 3103 1420 2742 
Q 1159 2381 1159 1747 
Q 1159 1113 1420 752 
Q 1681 391 2138 391 
Q 2594 391 2855 752 
Q 3116 1113 3116 1747 
z
" transform="scale(0.015625)"/>
       <path id="DejaVuSans-79" d="M 2059 -325 
Q 1816 -950 1584 -1140 
Q 1353 -1331 966 -1331 
L 506 -1331 
L 506 -850 
L 844 -850 
Q 1081 -850 1212 -737 
Q 1344 -625 1503 -206 
L 1606 56 
L 191 3500 
L 800 3500 
L 1894 763 
L 2988 3500 
L 3597 3500 
L 2059 -325 
z
" transform="scale(0.015625)"/>
      </defs>
      <use xlink:href="#DejaVuSans-41"/>
      <use xlink:href="#DejaVuSans-76" x="62.533203"/>
      <use xlink:href="#DejaVuSans-67" x="121.712891"/>
      <use xlink:href="#DejaVuSans-20" x="185.189453"/>
      <use xlink:href="#DejaVuSans-4e" x="216.976562"/>
      <use xlink:href="#DejaVuSans-6f" x="291.78125"/>
      <use xlink:href="#DejaVuSans-72" x="352.962891"/>
      <use xlink:href="#DejaVuSans-6d" x="392.326172"/>
      <use xlink:href="#DejaVuSans-61" x="489.738281"/>
      <use xlink:href="#DejaVuSans-6c" x="551.017578"/>
      <use xlink:href="#DejaVuSans-69" x="578.800781"/>
      <use xlink:href="#DejaVuSans-7a" x="606.583984"/>
      <use xlink:href="#DejaVuSans-65" x="659.074219"/>
      <use xlink:href="#DejaVuSans-64" x="720.597656"/>
      <use xlink:href="#DejaVuSans-20" x="784.074219"/>
      <use xlink:href="#DejaVuSans-49" x="815.861328"/>
      <use xlink:href="#DejaVuSans-6e" x="845.353516"/>
      <use xlink:href="#DejaVuSans-74" x="908.732422"/>
      <use xlink:href="#DejaVuSans-65" x="947.941406"/>
      <use xlink:href="#DejaVuSans-72" x="1009.464844"/>
      <use xlink:href="#DejaVuSans-70" x="1050.578125"/>
      <use xlink:href="#DejaVuSans-6c" x="1114.054688"/>
      <use xlink:href="#DejaVuSans-61" x="1141.837891"/>
      <use xlink:href="#DejaVuSans-79" x="1203.117188"/>
     </g>
    </g>
   </g>
   <g id="matplotlib.axis_2">
    <g id="ytick_1">
     <g id="line2d_10">
      <defs>
       <path id="mab042600de" d="M 0 0 
L -3.5 0 
" style="stroke: #000000; stroke-width: 0.8"/>
      </defs>
      <g>
       <use xlink:href="#mab042600de" x="90" y="384.48" style="stroke: #000000; stroke-width: 0.8"/>
      </g>
     </g>
     <g id="text_11">
      <!-- 0 -->
      <g transform="translate(76.6375 388.279219) scale(0.1 -0.1)">
       <use xlink:href="#DejaVuSans-30"/>
      </g>
     </g>
    </g>
    <g id="ytick_2">
     <g id="line2d_11">
      <g>
       <use xlink:href="#mab042600de" x="90" y="324" style="stroke: #000000; stroke-width: 0.8"/>
      </g>
     </g>
     <g id="text_12">
      <!-- 50 -->
      <g transform="translate(70.275 327.799219) scale(0.1 -0.1)">
       <use xlink:href="#DejaVuSans-35"/>
       <use xlink:href="#DejaVuSans-30" x="63.623047"/>
      </g>
     </g>
    </g>
    <g id="ytick_3">
     <g id="line2d_12">
      <g>
       <use xlink:href="#mab042600de" x="90" y="263.52" style="stroke: #000000; stroke-width: 0.8"/>
      </g>
     </g>
     <g id="text_13">
      <!-- 100 -->
      <g transform="translate(63.9125 267.319219) scale(0.1 -0.1)">
       <use xlink:href="#DejaVuSans-31"/>
       <use xlink:href="#DejaVuSans-30" x="63.623047"/>
       <use xlink:href="#DejaVuSans-30" x="127.246094"/>
      </g>
     </g>
    </g>
    <g id="ytick_4">
     <g id="line2d_13">
      <g>
       <use xlink:href="#mab042600de" x="90" y="203.04" style="stroke: #000000; stroke-width: 0.8"/>
      </g>
     </g>
     <g id="text_14">
      <!-- 150 -->
      <g transform="translate(63.9125 206.839219) scale(0.1 -0.1)">
       <use xlink:href="#DejaVuSans-31"/>
       <use xlink:href="#DejaVuSans-35" x="63.623047"/>
       <use xlink:href="#DejaVuSans-30" x="127.246094"/>
      </g>
     </g>
    </g>
    <g id="ytick_5">
     <g id="line2d_14">
      <g>
       <use xlink:href="#mab042600de" x="90" y="142.56" style="stroke: #000000; stroke-width: 0.8"/>
      </g>
     </g>
     <g id="text_15">
      <!-- 200 -->
      <g transform="translate(63.9125 146.359219) scale(0.1 -0.1)">
       <use xlink:href="#DejaVuSans-32"/>
       <use xlink:href="#DejaVuSans-30" x="63.623047"/>
       <use xlink:href="#DejaVuSans-30" x="127.246094"/>
      </g>
     </g>
    </g>
    <g id="ytick_6">
     <g id="line2d_15">
      <g>
       <use xlink:href="#mab042600de" x="90" y="82.08" style="stroke: #000000; stroke-width: 0.8"/>
      </g>
     </g>
     <g id="text_16">
      <!-- 250 -->
      <g transform="translate(63.9125 85.879219) scale(0.1 -0.1)">
       <use xlink:href="#DejaVuSans-32"/>
       <use xlink:href="#DejaVuSans-35" x="63.623047"/>
       <use xlink:href="#DejaVuSans-30" x="127.246094"/>
      </g>
     </g>
    </g>
    <g id="text_17">
     <!-- Frequency -->
     <g transform="translate(57.832812 243.989687) rotate(-90) scale(0.1 -0.1)">
      <defs>
       <path id="DejaVuSans-46" d="M 628 4666 
L 3309 4666 
L 3309 4134 
L 1259 4134 
L 1259 2759 
L 3109 2759 
L 3109 2228 
L 1259 2228 
L 1259 0 
L 628 0 
L 628 4666 
z
" transform="scale(0.015625)"/>
       <path id="DejaVuSans-71" d="M 947 1747 
Q 947 1113 1208 752 
Q 1469 391 1925 391 
Q 2381 391 2643 752 
Q 2906 1113 2906 1747 
Q 2906 2381 2643 2742 
Q 2381 3103 1925 3103 
Q 1469 3103 1208 2742 
Q 947 2381 947 1747 
z
M 2906 525 
Q 2725 213 2448 61 
Q 2172 -91 1784 -91 
Q 1150 -91 751 415 
Q 353 922 353 1747 
Q 353 2572 751 3078 
Q 1150 3584 1784 3584 
Q 2172 3584 2448 3432 
Q 2725 3281 2906 2969 
L 2906 3500 
L 3481 3500 
L 3481 -1331 
L 2906 -1331 
L 2906 525 
z
" transform="scale(0.015625)"/>
       <path id="DejaVuSans-75" d="M 544 1381 
L 544 3500 
L 1119 3500 
L 1119 1403 
Q 1119 906 1312 657 
Q 1506 409 1894 409 
Q 2359 409 2629 706 
Q 2900 1003 2900 1516 
L 2900 3500 
L 3475 3500 
L 3475 0 
L 2900 0 
L 2900 538 
Q 2691 219 2414 64 
Q 2138 -91 1772 -91 
Q 1169 -91 856 284 
Q 544 659 544 1381 
z
M 1991 3584 
L 1991 3584 
z
" transform="scale(0.015625)"/>
       <path id="DejaVuSans-63" d="M 3122 3366 
L 3122 2828 
Q 2878 2963 2633 3030 
Q 2388 3097 2138 3097 
Q 1578 3097 1268 2742 
Q 959 2388 959 1747 
Q 959 1106 1268 751 
Q 1578 397 2138 397 
Q 2388 397 2633 464 
Q 2878 531 3122 666 
L 3122 134 
Q 2881 22 2623 -34 
Q 2366 -91 2075 -91 
Q 1284 -91 818 406 
Q 353 903 353 1747 
Q 353 2603 823 3093 
Q 1294 3584 2113 3584 
Q 2378 3584 2631 3529 
Q 2884 3475 3122 3366 
z
" transform="scale(0.015625)"/>
      </defs>
      <use xlink:href="#DejaVuSans-46"/>
      <use xlink:href="#DejaVuSans-72" x="50.269531"/>
      <use xlink:href="#DejaVuSans-65" x="89.132812"/>
      <use xlink:href="#DejaVuSans-71" x="150.65625"/>
      <use xlink:href="#DejaVuSans-75" x="214.132812"/>
      <use xlink:href="#DejaVuSans-65" x="277.511719"/>
      <use xlink:href="#DejaVuSans-6e" x="339.035156"/>
      <use xlink:href="#DejaVuSans-63" x="402.414062"/>
      <use xlink:href="#DejaVuSans-79" x="457.394531"/>
     </g>
    </g>
   </g>
   <g id="line2d_16">
    <path d="M 115.363636 304.811097 
L 117.602653 304.139679 
L 119.841671 303.777655 
L 122.080688 303.716978 
L 124.319705 303.94486 
L 126.558722 304.444176 
L 128.797739 305.193991 
L 131.036756 306.170169 
L 133.275773 307.346062 
L 135.51479 308.693238 
L 139.992824 311.783306 
L 146.709875 316.97176 
L 153.426927 322.207811 
L 157.904961 325.465056 
L 162.382995 328.423832 
L 166.861029 331.041957 
L 171.339063 333.317572 
L 175.817097 335.278919 
L 180.295131 336.972864 
L 184.773166 338.453926 
L 191.490217 340.390257 
L 200.446285 342.644074 
L 209.402353 344.659858 
L 218.358422 346.42438 
L 225.075473 347.516445 
L 231.792524 348.343753 
L 236.270558 348.718721 
L 240.748592 348.93255 
L 245.226627 348.968163 
L 249.704661 348.807392 
L 254.182695 348.429742 
L 258.660729 347.811056 
L 263.138763 346.922196 
L 267.616797 345.72783 
L 272.094831 344.185426 
L 276.572866 342.244561 
L 281.0509 339.8467 
L 283.289917 338.455984 
L 285.528934 336.925673 
L 287.767951 335.246544 
L 290.006968 333.409152 
L 292.245985 331.403953 
L 294.485002 329.221465 
L 296.724019 326.852447 
L 298.963036 324.288122 
L 301.202053 321.520425 
L 303.44107 318.542287 
L 305.680087 315.347949 
L 307.919105 311.933293 
L 310.158122 308.296203 
L 314.636156 300.358459 
L 319.11419 291.571687 
L 323.592224 282.027502 
L 328.070258 271.880791 
L 343.743378 235.412288 
L 345.982395 230.660842 
L 348.221412 226.17312 
L 350.460429 222.000066 
L 352.699446 218.191104 
L 354.938463 214.793149 
L 357.17748 211.84962 
L 359.416497 209.399497 
L 361.655514 207.476441 
L 363.894531 206.108018 
L 366.133548 205.31503 
L 368.372565 205.111005 
L 370.611583 205.501839 
L 372.8506 206.485617 
L 375.089617 208.052617 
L 377.328634 210.185491 
L 379.567651 212.859628 
L 381.806668 216.043687 
L 384.045685 219.700274 
L 386.284702 223.786749 
L 388.523719 228.256138 
L 390.762736 233.058119 
L 395.24077 243.44803 
L 399.718805 254.526234 
L 410.91389 282.584983 
L 415.391924 293.07804 
L 419.869958 302.797871 
L 424.347992 311.61225 
L 426.587009 315.658282 
L 428.826026 319.460067 
L 431.065044 323.019364 
L 433.304061 326.34091 
L 435.543078 329.431983 
L 437.782095 332.301957 
L 440.021112 334.961879 
L 442.260129 337.424061 
L 444.499146 339.701704 
L 446.738163 341.808552 
L 451.216197 345.565784 
L 455.694231 348.805979 
L 460.172265 351.632489 
L 464.6503 354.137301 
L 469.128334 356.398458 
L 475.845385 359.467146 
L 482.562436 362.276846 
L 491.518504 365.758255 
L 500.474573 368.985698 
L 509.430641 371.926268 
L 516.147692 373.905627 
L 522.864743 375.667305 
L 529.581795 377.202586 
L 536.298846 378.516252 
L 543.015897 379.624498 
L 551.971965 380.823945 
L 560.928034 381.76286 
L 560.928034 381.76286 
" clip-path="url(#p4e97e650ca)" style="fill: none; stroke: #fcf500; stroke-width: 1.5; stroke-linecap: square"/>
   </g>
   <g id="line2d_17">
    <path d="M 115.363636 293.504993 
L 117.626378 292.924108 
L 119.889119 292.706468 
L 122.151861 292.843794 
L 124.414602 293.322517 
L 126.677344 294.124186 
L 128.940085 295.225988 
L 131.202827 296.601371 
L 133.465568 298.220741 
L 135.72831 300.052213 
L 140.253793 304.217137 
L 144.779276 308.824616 
L 156.092983 320.648023 
L 160.618466 324.982158 
L 165.143949 328.894575 
L 169.669432 332.322109 
L 174.194915 335.243381 
L 178.720398 337.669581 
L 183.245881 339.634486 
L 187.771364 341.185181 
L 192.296847 342.374479 
L 196.82233 343.255493 
L 201.347813 343.878361 
L 205.873296 344.28873 
L 212.661521 344.593963 
L 219.449745 344.631203 
L 228.500711 344.431099 
L 244.339902 343.799732 
L 253.390867 343.303835 
L 260.179092 342.746563 
L 264.704575 342.208069 
L 269.230058 341.468585 
L 273.755541 340.457961 
L 278.281024 339.096031 
L 280.543765 338.255893 
L 282.806507 337.294127 
L 285.069248 336.198698 
L 287.33199 334.957388 
L 289.594731 333.557923 
L 291.857473 331.988139 
L 294.120214 330.236164 
L 296.382956 328.290624 
L 298.645697 326.140885 
L 300.908439 323.777316 
L 303.17118 321.191572 
L 305.433922 318.37691 
L 307.696663 315.32851 
L 309.959405 312.043818 
L 312.222146 308.522889 
L 314.484888 304.768722 
L 319.010371 296.589309 
L 323.535854 287.599989 
L 328.061337 277.959092 
L 334.849561 262.78681 
L 341.637786 247.693819 
L 346.163269 238.29278 
L 348.42601 233.940445 
L 350.688752 229.88704 
L 352.951493 226.18098 
L 355.214235 222.868196 
L 357.476976 219.991211 
L 359.739718 217.58825 
L 362.002459 215.692404 
L 364.265201 214.330904 
L 366.527942 213.524491 
L 368.790684 213.286927 
L 371.053425 213.624653 
L 373.316167 214.536617 
L 375.578908 216.014258 
L 377.84165 218.041669 
L 380.104391 220.595921 
L 382.367133 223.647548 
L 384.629874 227.161167 
L 386.892616 231.096223 
L 389.155357 235.407836 
L 391.418099 240.04772 
L 395.943582 250.10795 
L 400.469065 260.859535 
L 411.782772 288.160127 
L 416.308255 298.374396 
L 420.833738 307.822369 
L 425.359221 316.364526 
L 427.621963 320.272068 
L 429.884704 323.932754 
L 432.147446 327.34775 
L 434.410187 330.521378 
L 436.672929 333.460686 
L 438.93567 336.175018 
L 441.198411 338.675584 
L 443.461153 340.97504 
L 445.723894 343.087094 
L 447.986636 345.026139 
L 450.249377 346.806916 
L 454.77486 349.952635 
L 459.300343 352.638791 
L 463.825826 354.970386 
L 468.351309 357.038676 
L 475.139534 359.807667 
L 484.1905 363.144818 
L 495.504207 367.040748 
L 506.817915 370.697721 
L 515.868881 373.372109 
L 522.657105 375.177426 
L 529.44533 376.782373 
L 536.233554 378.175735 
L 543.021779 379.360406 
L 549.810003 380.351063 
L 558.860969 381.409524 
L 565.649194 382.039993 
L 565.649194 382.039993 
" clip-path="url(#p4e97e650ca)" style="fill: none; stroke: #08ff00; stroke-width: 1.5; stroke-linecap: square"/>
   </g>
   <g id="line2d_18">
    <path d="M 115.363636 245.445394 
L 117.780742 245.419378 
L 120.197847 246.019436 
L 122.614952 247.23071 
L 125.032058 249.029346 
L 127.449163 251.383052 
L 129.866268 254.251849 
L 132.283374 257.588991 
L 134.700479 261.342036 
L 137.117584 265.454008 
L 139.53469 269.864648 
L 144.3689 279.332099 
L 156.454427 303.925967 
L 161.288637 313.009118 
L 163.705743 317.221651 
L 166.122848 321.176237 
L 168.539953 324.851526 
L 170.957059 328.232125 
L 173.374164 331.308353 
L 175.791269 334.075904 
L 178.208375 336.535417 
L 180.62548 338.691995 
L 183.042585 340.554666 
L 185.45969 342.135829 
L 187.876796 343.450688 
L 190.293901 344.516693 
L 192.711006 345.352999 
L 195.128112 345.979956 
L 197.545217 346.418636 
L 199.962322 346.690403 
L 202.379428 346.816531 
L 207.213638 346.714564 
L 212.047849 346.269669 
L 219.299165 345.257585 
L 231.384691 343.499518 
L 238.636007 342.743998 
L 245.887323 342.30233 
L 253.138639 342.125806 
L 267.641271 341.928342 
L 272.475482 341.635443 
L 277.309692 341.068013 
L 282.143903 340.112906 
L 284.561008 339.452612 
L 286.978114 338.650097 
L 289.395219 337.690089 
L 291.812324 336.557605 
L 294.22943 335.238209 
L 296.646535 333.718307 
L 299.06364 331.985464 
L 301.480746 330.02875 
L 303.897851 327.83911 
L 306.314956 325.409736 
L 308.732061 322.736453 
L 311.149167 319.818093 
L 313.566272 316.656853 
L 315.983377 313.258625 
L 318.400483 309.633277 
L 323.234693 301.761886 
L 328.068904 293.208004 
L 335.32022 279.630066 
L 342.571536 266.113337 
L 347.405747 257.756121 
L 349.822852 253.920686 
L 352.239957 250.378036 
L 354.657062 247.173641 
L 357.074168 244.349842 
L 359.491273 241.944985 
L 361.908378 239.992607 
L 364.325484 238.520716 
L 366.742589 237.551181 
L 369.159694 237.099249 
L 371.5768 237.173204 
L 373.993905 237.774187 
L 376.41101 238.896169 
L 378.828116 240.526093 
L 381.245221 242.644167 
L 383.662326 245.224313 
L 386.079432 248.234741 
L 388.496537 251.638651 
L 390.913642 255.395024 
L 393.330747 259.459485 
L 398.164958 268.323916 
L 402.999169 277.844932 
L 415.084695 302.092607 
L 419.918906 311.151755 
L 424.753117 319.506018 
L 427.170222 323.375668 
L 429.587327 327.02605 
L 432.004433 330.451558 
L 434.421538 333.65032 
L 436.838643 336.623841 
L 439.255748 339.376608 
L 441.672854 341.915679 
L 444.089959 344.25026 
L 446.507064 346.391278 
L 448.92417 348.350975 
L 451.341275 350.142517 
L 453.75838 351.779638 
L 458.592591 354.646449 
L 463.426802 357.061111 
L 468.261012 359.125498 
L 473.095223 360.928822 
L 480.346539 363.301814 
L 490.01496 366.111475 
L 502.100487 369.359078 
L 514.186013 372.417941 
L 523.854434 374.686112 
L 533.522856 376.728454 
L 543.191277 378.491737 
L 550.442593 379.612463 
L 557.693909 380.557828 
L 567.36233 381.560085 
L 577.030751 382.304177 
L 589.116278 382.953482 
L 596.367594 383.23572 
L 596.367594 383.23572 
" clip-path="url(#p4e97e650ca)" style="fill: none; stroke: #00fff6; stroke-width: 1.5; stroke-linecap: square"/>
   </g>
   <g id="line2d_19">
    <path d="M 115.363636 306.755196 
L 117.912746 306.799985 
L 120.461855 307.113419 
L 123.010964 307.690478 
L 125.560073 308.523233 
L 128.109182 309.600988 
L 130.658291 310.910471 
L 133.207401 312.436069 
L 135.75651 314.160094 
L 138.305619 316.063094 
L 143.403837 320.321366 
L 148.502056 325.032799 
L 156.149383 332.547685 
L 163.796711 340.077272 
L 168.894929 344.852769 
L 173.993148 349.293779 
L 179.091366 353.31467 
L 184.189584 356.860305 
L 189.287803 359.904295 
L 194.386021 362.445567 
L 199.484239 364.503805 
L 204.582458 366.114256 
L 209.680676 367.322417 
L 214.778894 368.17898 
L 219.877113 368.73532 
L 224.975331 369.039701 
L 230.07355 369.13427 
L 235.171768 369.052819 
L 242.819095 368.650011 
L 250.466423 367.937499 
L 255.564641 367.28254 
L 260.66286 366.46281 
L 265.761078 365.449995 
L 270.859296 364.20816 
L 275.957515 362.695849 
L 281.055733 360.868731 
L 286.153952 358.682793 
L 291.25217 356.098008 
L 296.350388 353.082378 
L 301.448607 349.616135 
L 306.546825 345.695849 
L 311.645043 341.338091 
L 316.743262 336.582315 
L 321.84148 331.492555 
L 329.488808 323.432469 
L 339.685244 312.531502 
L 344.783463 307.339362 
L 349.881681 302.526185 
L 352.43079 300.309649 
L 354.979899 298.24414 
L 357.529009 296.346658 
L 360.078118 294.632907 
L 362.627227 293.117055 
L 365.176336 291.811526 
L 367.725445 290.72681 
L 370.274555 289.87131 
L 372.823664 289.251217 
L 375.372773 288.870431 
L 377.921882 288.73051 
L 380.470991 288.830665 
L 383.020101 289.167797 
L 385.56921 289.736565 
L 388.118319 290.529496 
L 390.667428 291.537127 
L 393.216537 292.748183 
L 395.765646 294.149773 
L 398.314756 295.72761 
L 400.863865 297.466257 
L 405.962083 301.359956 
L 411.060302 305.693867 
L 416.15852 310.328651 
L 436.551393 329.389408 
L 441.649612 333.803979 
L 446.74783 337.954591 
L 451.846048 341.813292 
L 456.944267 345.368287 
L 462.042485 348.620828 
L 467.140704 351.581912 
L 472.238922 354.269104 
L 477.33714 356.703754 
L 482.435359 358.908728 
L 487.533577 360.906768 
L 492.631795 362.71942 
L 500.279123 365.133587 
L 507.92645 367.233671 
L 515.573778 369.070203 
L 523.221106 370.687194 
L 533.417542 372.568205 
L 543.613979 374.206032 
L 556.359525 376.000712 
L 569.105071 377.576808 
L 581.850617 378.955454 
L 594.596163 380.132245 
L 607.341709 381.105078 
L 622.636364 382.027455 
L 622.636364 382.027455 
" clip-path="url(#p4e97e650ca)" style="fill: none; stroke: #0010ff; stroke-width: 1.5; stroke-linecap: square"/>
   </g>
   <g id="line2d_20">
    <path d="M 115.363636 245.304502 
L 117.912746 245.493699 
L 120.461855 246.306189 
L 123.010964 247.727181 
L 125.560073 249.733295 
L 128.109182 252.293084 
L 130.658291 255.367732 
L 133.207401 258.911925 
L 135.75651 262.874837 
L 138.305619 267.201234 
L 140.854728 271.832633 
L 145.952947 281.767469 
L 161.247602 312.700974 
L 166.34582 322.035263 
L 168.894929 326.348537 
L 171.444038 330.393906 
L 173.993148 334.15454 
L 176.542257 337.619109 
L 179.091366 340.781474 
L 181.640475 343.64029 
L 184.189584 346.198547 
L 186.738693 348.463064 
L 189.287803 350.443952 
L 191.836912 352.154066 
L 194.386021 353.608462 
L 196.93513 354.823874 
L 199.484239 355.818211 
L 202.033349 356.610099 
L 204.582458 357.218464 
L 207.131567 357.662165 
L 209.680676 357.959671 
L 212.229785 358.128799 
L 217.328004 358.148641 
L 222.426222 357.843968 
L 227.52444 357.317105 
L 235.171768 356.281326 
L 247.917314 354.289479 
L 260.66286 352.104974 
L 268.310187 350.536451 
L 273.408406 349.265544 
L 278.506624 347.722717 
L 283.604842 345.816488 
L 286.153952 344.696501 
L 288.703061 343.448592 
L 291.25217 342.060418 
L 293.801279 340.520071 
L 296.350388 338.816363 
L 298.899497 336.939136 
L 301.448607 334.879576 
L 303.997716 332.630551 
L 306.546825 330.186943 
L 309.095934 327.545974 
L 311.645043 324.707514 
L 314.194153 321.674375 
L 316.743262 318.452552 
L 321.84148 311.483927 
L 326.939698 303.91955 
L 332.037917 295.934634 
L 344.783463 275.739111 
L 349.881681 268.337465 
L 352.43079 264.937304 
L 354.979899 261.787879 
L 357.529009 258.924496 
L 360.078118 256.37971 
L 362.627227 254.182694 
L 365.176336 252.358666 
L 367.725445 250.928399 
L 370.274555 249.907819 
L 372.823664 249.307709 
L 375.372773 249.133526 
L 377.921882 249.385337 
L 380.470991 250.057868 
L 383.020101 251.140674 
L 385.56921 252.618418 
L 388.118319 254.471251 
L 390.667428 256.675281 
L 393.216537 259.203115 
L 395.765646 262.024461 
L 398.314756 265.106763 
L 400.863865 268.415869 
L 405.962083 275.573846 
L 411.060302 283.217896 
L 426.354957 306.558233 
L 431.453175 313.821956 
L 436.551393 320.612956 
L 441.649612 326.868813 
L 446.74783 332.564363 
L 451.846048 337.704056 
L 456.944267 342.313794 
L 462.042485 346.433177 
L 467.140704 350.108824 
L 472.238922 353.389137 
L 477.33714 356.320617 
L 482.435359 358.94562 
L 487.533577 361.301325 
L 492.631795 363.419602 
L 497.730014 365.327478 
L 502.828232 367.047919 
L 507.92645 368.600713 
L 515.573778 370.653239 
L 523.221106 372.419661 
L 530.868433 373.946705 
L 538.515761 375.27659 
L 548.712197 376.806396 
L 558.908634 378.120952 
L 571.65418 379.52932 
L 584.399726 380.713346 
L 597.145272 381.68305 
L 609.890818 382.446333 
L 622.636364 383.026704 
L 622.636364 383.026704 
" clip-path="url(#p4e97e650ca)" style="fill: none; stroke: #ee00ff; stroke-width: 1.5; stroke-linecap: square"/>
   </g>
   <g id="patch_57">
    <path d="M 90 384.48 
L 90 51.84 
" style="fill: none; stroke: #000000; stroke-width: 0.8; stroke-linejoin: miter; stroke-linecap: square"/>
   </g>
   <g id="patch_58">
    <path d="M 648 384.48 
L 648 51.84 
" style="fill: none; stroke: #000000; stroke-width: 0.8; stroke-linejoin: miter; stroke-linecap: square"/>
   </g>
   <g id="patch_59">
    <path d="M 90 384.48 
L 648 384.48 
" style="fill: none; stroke: #000000; stroke-width: 0.8; stroke-linejoin: miter; stroke-linecap: square"/>
   </g>
   <g id="patch_60">
    <path d="M 90 51.84 
L 648 51.84 
" style="fill: none; stroke: #000000; stroke-width: 0.8; stroke-linejoin: miter; stroke-linecap: square"/>
   </g>
   <g id="text_18">
    <!-- Stacked Histogram of Avg Normalized Interplay  -->
    <g transform="translate(224.829375 32.402625) scale(0.12 -0.12)">
     <defs>
      <path id="DejaVuSans-53" d="M 3425 4513 
L 3425 3897 
Q 3066 4069 2747 4153 
Q 2428 4238 2131 4238 
Q 1616 4238 1336 4038 
Q 1056 3838 1056 3469 
Q 1056 3159 1242 3001 
Q 1428 2844 1947 2747 
L 2328 2669 
Q 3034 2534 3370 2195 
Q 3706 1856 3706 1288 
Q 3706 609 3251 259 
Q 2797 -91 1919 -91 
Q 1588 -91 1214 -16 
Q 841 59 441 206 
L 441 856 
Q 825 641 1194 531 
Q 1563 422 1919 422 
Q 2459 422 2753 634 
Q 3047 847 3047 1241 
Q 3047 1584 2836 1778 
Q 2625 1972 2144 2069 
L 1759 2144 
Q 1053 2284 737 2584 
Q 422 2884 422 3419 
Q 422 4038 858 4394 
Q 1294 4750 2059 4750 
Q 2388 4750 2728 4690 
Q 3069 4631 3425 4513 
z
" transform="scale(0.015625)"/>
      <path id="DejaVuSans-6b" d="M 581 4863 
L 1159 4863 
L 1159 1991 
L 2875 3500 
L 3609 3500 
L 1753 1863 
L 3688 0 
L 2938 0 
L 1159 1709 
L 1159 0 
L 581 0 
L 581 4863 
z
" transform="scale(0.015625)"/>
      <path id="DejaVuSans-48" d="M 628 4666 
L 1259 4666 
L 1259 2753 
L 3553 2753 
L 3553 4666 
L 4184 4666 
L 4184 0 
L 3553 0 
L 3553 2222 
L 1259 2222 
L 1259 0 
L 628 0 
L 628 4666 
z
" transform="scale(0.015625)"/>
      <path id="DejaVuSans-73" d="M 2834 3397 
L 2834 2853 
Q 2591 2978 2328 3040 
Q 2066 3103 1784 3103 
Q 1356 3103 1142 2972 
Q 928 2841 928 2578 
Q 928 2378 1081 2264 
Q 1234 2150 1697 2047 
L 1894 2003 
Q 2506 1872 2764 1633 
Q 3022 1394 3022 966 
Q 3022 478 2636 193 
Q 2250 -91 1575 -91 
Q 1294 -91 989 -36 
Q 684 19 347 128 
L 347 722 
Q 666 556 975 473 
Q 1284 391 1588 391 
Q 1994 391 2212 530 
Q 2431 669 2431 922 
Q 2431 1156 2273 1281 
Q 2116 1406 1581 1522 
L 1381 1569 
Q 847 1681 609 1914 
Q 372 2147 372 2553 
Q 372 3047 722 3315 
Q 1072 3584 1716 3584 
Q 2034 3584 2315 3537 
Q 2597 3491 2834 3397 
z
" transform="scale(0.015625)"/>
      <path id="DejaVuSans-66" d="M 2375 4863 
L 2375 4384 
L 1825 4384 
Q 1516 4384 1395 4259 
Q 1275 4134 1275 3809 
L 1275 3500 
L 2222 3500 
L 2222 3053 
L 1275 3053 
L 1275 0 
L 697 0 
L 697 3053 
L 147 3053 
L 147 3500 
L 697 3500 
L 697 3744 
Q 697 4328 969 4595 
Q 1241 4863 1831 4863 
L 2375 4863 
z
" transform="scale(0.015625)"/>
     </defs>
     <use xlink:href="#DejaVuSans-53"/>
     <use xlink:href="#DejaVuSans-74" x="63.476562"/>
     <use xlink:href="#DejaVuSans-61" x="102.685547"/>
     <use xlink:href="#DejaVuSans-63" x="163.964844"/>
     <use xlink:href="#DejaVuSans-6b" x="218.945312"/>
     <use xlink:href="#DejaVuSans-65" x="273.230469"/>
     <use xlink:href="#DejaVuSans-64" x="334.753906"/>
     <use xlink:href="#DejaVuSans-20" x="398.230469"/>
     <use xlink:href="#DejaVuSans-48" x="430.017578"/>
     <use xlink:href="#DejaVuSans-69" x="505.212891"/>
     <use xlink:href="#DejaVuSans-73" x="532.996094"/>
     <use xlink:href="#DejaVuSans-74" x="585.095703"/>
     <use xlink:href="#DejaVuSans-6f" x="624.304688"/>
     <use xlink:href="#DejaVuSans-67" x="685.486328"/>
     <use xlink:href="#DejaVuSans-72" x="748.962891"/>
     <use xlink:href="#DejaVuSans-61" x="790.076172"/>
     <use xlink:href="#DejaVuSans-6d" x="851.355469"/>
     <use xlink:href="#DejaVuSans-20" x="948.767578"/>
     <use xlink:href="#DejaVuSans-6f" x="980.554688"/>
     <use xlink:href="#DejaVuSans-66" x="1041.736328"/>
     <use xlink:href="#DejaVuSans-20" x="1076.941406"/>
     <use xlink:href="#DejaVuSans-41" x="1108.728516"/>
     <use xlink:href="#DejaVuSans-76" x="1171.261719"/>
     <use xlink:href="#DejaVuSans-67" x="1230.441406"/>
     <use xlink:href="#DejaVuSans-20" x="1293.917969"/>
     <use xlink:href="#DejaVuSans-4e" x="1325.705078"/>
     <use xlink:href="#DejaVuSans-6f" x="1400.509766"/>
     <use xlink:href="#DejaVuSans-72" x="1461.691406"/>
     <use xlink:href="#DejaVuSans-6d" x="1501.054688"/>
     <use xlink:href="#DejaVuSans-61" x="1598.466797"/>
     <use xlink:href="#DejaVuSans-6c" x="1659.746094"/>
     <use xlink:href="#DejaVuSans-69" x="1687.529297"/>
     <use xlink:href="#DejaVuSans-7a" x="1715.3125"/>
     <use xlink:href="#DejaVuSans-65" x="1767.802734"/>
     <use xlink:href="#DejaVuSans-64" x="1829.326172"/>
     <use xlink:href="#DejaVuSans-20" x="1892.802734"/>
     <use xlink:href="#DejaVuSans-49" x="1924.589844"/>
     <use xlink:href="#DejaVuSans-6e" x="1954.082031"/>
     <use xlink:href="#DejaVuSans-74" x="2017.460938"/>
     <use xlink:href="#DejaVuSans-65" x="2056.669922"/>
     <use xlink:href="#DejaVuSans-72" x="2118.193359"/>
     <use xlink:href="#DejaVuSans-70" x="2159.306641"/>
     <use xlink:href="#DejaVuSans-6c" x="2222.783203"/>
     <use xlink:href="#DejaVuSans-61" x="2250.566406"/>
     <use xlink:href="#DejaVuSans-79" x="2311.845703"/>
     <use xlink:href="#DejaVuSans-20" x="2371.025391"/>
    </g>
    <!-- for H3.2 PTMs in liver across ages -->
    <g transform="translate(267.623438 45.84) scale(0.12 -0.12)">
     <defs>
      <path id="DejaVuSans-33" d="M 2597 2516 
Q 3050 2419 3304 2112 
Q 3559 1806 3559 1356 
Q 3559 666 3084 287 
Q 2609 -91 1734 -91 
Q 1441 -91 1130 -33 
Q 819 25 488 141 
L 488 750 
Q 750 597 1062 519 
Q 1375 441 1716 441 
Q 2309 441 2620 675 
Q 2931 909 2931 1356 
Q 2931 1769 2642 2001 
Q 2353 2234 1838 2234 
L 1294 2234 
L 1294 2753 
L 1863 2753 
Q 2328 2753 2575 2939 
Q 2822 3125 2822 3475 
Q 2822 3834 2567 4026 
Q 2313 4219 1838 4219 
Q 1578 4219 1281 4162 
Q 984 4106 628 3988 
L 628 4550 
Q 988 4650 1302 4700 
Q 1616 4750 1894 4750 
Q 2613 4750 3031 4423 
Q 3450 4097 3450 3541 
Q 3450 3153 3228 2886 
Q 3006 2619 2597 2516 
z
" transform="scale(0.015625)"/>
      <path id="DejaVuSans-50" d="M 1259 4147 
L 1259 2394 
L 2053 2394 
Q 2494 2394 2734 2622 
Q 2975 2850 2975 3272 
Q 2975 3691 2734 3919 
Q 2494 4147 2053 4147 
L 1259 4147 
z
M 628 4666 
L 2053 4666 
Q 2838 4666 3239 4311 
Q 3641 3956 3641 3272 
Q 3641 2581 3239 2228 
Q 2838 1875 2053 1875 
L 1259 1875 
L 1259 0 
L 628 0 
L 628 4666 
z
" transform="scale(0.015625)"/>
      <path id="DejaVuSans-54" d="M -19 4666 
L 3928 4666 
L 3928 4134 
L 2272 4134 
L 2272 0 
L 1638 0 
L 1638 4134 
L -19 4134 
L -19 4666 
z
" transform="scale(0.015625)"/>
      <path id="DejaVuSans-4d" d="M 628 4666 
L 1569 4666 
L 2759 1491 
L 3956 4666 
L 4897 4666 
L 4897 0 
L 4281 0 
L 4281 4097 
L 3078 897 
L 2444 897 
L 1241 4097 
L 1241 0 
L 628 0 
L 628 4666 
z
" transform="scale(0.015625)"/>
     </defs>
     <use xlink:href="#DejaVuSans-66"/>
     <use xlink:href="#DejaVuSans-6f" x="35.205078"/>
     <use xlink:href="#DejaVuSans-72" x="96.386719"/>
     <use xlink:href="#DejaVuSans-20" x="137.5"/>
     <use xlink:href="#DejaVuSans-48" x="169.287109"/>
     <use xlink:href="#DejaVuSans-33" x="244.482422"/>
     <use xlink:href="#DejaVuSans-2e" x="308.105469"/>
     <use xlink:href="#DejaVuSans-32" x="339.892578"/>
     <use xlink:href="#DejaVuSans-20" x="403.515625"/>
     <use xlink:href="#DejaVuSans-50" x="435.302734"/>
     <use xlink:href="#DejaVuSans-54" x="495.605469"/>
     <use xlink:href="#DejaVuSans-4d" x="556.689453"/>
     <use xlink:href="#DejaVuSans-73" x="642.96875"/>
     <use xlink:href="#DejaVuSans-20" x="695.068359"/>
     <use xlink:href="#DejaVuSans-69" x="726.855469"/>
     <use xlink:href="#DejaVuSans-6e" x="754.638672"/>
     <use xlink:href="#DejaVuSans-20" x="818.017578"/>
     <use xlink:href="#DejaVuSans-6c" x="849.804688"/>
     <use xlink:href="#DejaVuSans-69" x="877.587891"/>
     <use xlink:href="#DejaVuSans-76" x="905.371094"/>
     <use xlink:href="#DejaVuSans-65" x="964.550781"/>
     <use xlink:href="#DejaVuSans-72" x="1026.074219"/>
     <use xlink:href="#DejaVuSans-20" x="1067.1875"/>
     <use xlink:href="#DejaVuSans-61" x="1098.974609"/>
     <use xlink:href="#DejaVuSans-63" x="1160.253906"/>
     <use xlink:href="#DejaVuSans-72" x="1215.234375"/>
     <use xlink:href="#DejaVuSans-6f" x="1254.097656"/>
     <use xlink:href="#DejaVuSans-73" x="1315.279297"/>
     <use xlink:href="#DejaVuSans-73" x="1367.378906"/>
     <use xlink:href="#DejaVuSans-20" x="1419.478516"/>
     <use xlink:href="#DejaVuSans-61" x="1451.265625"/>
     <use xlink:href="#DejaVuSans-67" x="1512.544922"/>
     <use xlink:href="#DejaVuSans-65" x="1576.021484"/>
     <use xlink:href="#DejaVuSans-73" x="1637.544922"/>
    </g>
   </g>
   <g id="legend_1">
    <g id="patch_61">
     <path d="M 565.576563 147.90875 
L 641 147.90875 
Q 643 147.90875 643 145.90875 
L 643 58.84 
Q 643 56.84 641 56.84 
L 565.576563 56.84 
Q 563.576563 56.84 563.576563 58.84 
L 563.576563 145.90875 
Q 563.576563 147.90875 565.576563 147.90875 
z
" style="fill: #ffffff; opacity: 0.8; stroke: #cccccc; stroke-linejoin: miter"/>
    </g>
    <g id="text_19">
     <!-- Age -->
     <g transform="translate(593.617188 68.438437) scale(0.1 -0.1)">
      <use xlink:href="#DejaVuSans-41"/>
      <use xlink:href="#DejaVuSans-67" x="68.408203"/>
      <use xlink:href="#DejaVuSans-65" x="131.884766"/>
     </g>
    </g>
    <g id="patch_62">
     <path d="M 567.576563 83.116562 
L 587.576563 83.116562 
L 587.576563 76.116562 
L 567.576563 76.116562 
z
" style="fill: #fcf500; fill-opacity: 0.175; stroke: #000000; stroke-linejoin: miter"/>
    </g>
    <g id="text_20">
     <!-- 3 years -->
     <g transform="translate(595.576563 83.116562) scale(0.1 -0.1)">
      <use xlink:href="#DejaVuSans-33"/>
      <use xlink:href="#DejaVuSans-20" x="63.623047"/>
      <use xlink:href="#DejaVuSans-79" x="95.410156"/>
      <use xlink:href="#DejaVuSans-65" x="154.589844"/>
      <use xlink:href="#DejaVuSans-61" x="216.113281"/>
      <use xlink:href="#DejaVuSans-72" x="277.392578"/>
      <use xlink:href="#DejaVuSans-73" x="318.505859"/>
     </g>
    </g>
    <g id="patch_63">
     <path d="M 567.576563 97.794688 
L 587.576563 97.794688 
L 587.576563 90.794688 
L 567.576563 90.794688 
z
" style="fill: #08ff00; fill-opacity: 0.175; stroke: #000000; stroke-linejoin: miter"/>
    </g>
    <g id="text_21">
     <!-- 5 years -->
     <g transform="translate(595.576563 97.794688) scale(0.1 -0.1)">
      <use xlink:href="#DejaVuSans-35"/>
      <use xlink:href="#DejaVuSans-20" x="63.623047"/>
      <use xlink:href="#DejaVuSans-79" x="95.410156"/>
      <use xlink:href="#DejaVuSans-65" x="154.589844"/>
      <use xlink:href="#DejaVuSans-61" x="216.113281"/>
      <use xlink:href="#DejaVuSans-72" x="277.392578"/>
      <use xlink:href="#DejaVuSans-73" x="318.505859"/>
     </g>
    </g>
    <g id="patch_64">
     <path d="M 567.576563 112.472812 
L 587.576563 112.472812 
L 587.576563 105.472812 
L 567.576563 105.472812 
z
" style="fill: #00fff6; fill-opacity: 0.175; stroke: #000000; stroke-linejoin: miter"/>
    </g>
    <g id="text_22">
     <!-- 10 years -->
     <g transform="translate(595.576563 112.472812) scale(0.1 -0.1)">
      <use xlink:href="#DejaVuSans-31"/>
      <use xlink:href="#DejaVuSans-30" x="63.623047"/>
      <use xlink:href="#DejaVuSans-20" x="127.246094"/>
      <use xlink:href="#DejaVuSans-79" x="159.033203"/>
      <use xlink:href="#DejaVuSans-65" x="218.212891"/>
      <use xlink:href="#DejaVuSans-61" x="279.736328"/>
      <use xlink:href="#DejaVuSans-72" x="341.015625"/>
      <use xlink:href="#DejaVuSans-73" x="382.128906"/>
     </g>
    </g>
    <g id="patch_65">
     <path d="M 567.576563 127.150937 
L 587.576563 127.150937 
L 587.576563 120.150937 
L 567.576563 120.150937 
z
" style="fill: #0010ff; fill-opacity: 0.175; stroke: #000000; stroke-linejoin: miter"/>
    </g>
    <g id="text_23">
     <!-- 18 years -->
     <g transform="translate(595.576563 127.150937) scale(0.1 -0.1)">
      <defs>
       <path id="DejaVuSans-38" d="M 2034 2216 
Q 1584 2216 1326 1975 
Q 1069 1734 1069 1313 
Q 1069 891 1326 650 
Q 1584 409 2034 409 
Q 2484 409 2743 651 
Q 3003 894 3003 1313 
Q 3003 1734 2745 1975 
Q 2488 2216 2034 2216 
z
M 1403 2484 
Q 997 2584 770 2862 
Q 544 3141 544 3541 
Q 544 4100 942 4425 
Q 1341 4750 2034 4750 
Q 2731 4750 3128 4425 
Q 3525 4100 3525 3541 
Q 3525 3141 3298 2862 
Q 3072 2584 2669 2484 
Q 3125 2378 3379 2068 
Q 3634 1759 3634 1313 
Q 3634 634 3220 271 
Q 2806 -91 2034 -91 
Q 1263 -91 848 271 
Q 434 634 434 1313 
Q 434 1759 690 2068 
Q 947 2378 1403 2484 
z
M 1172 3481 
Q 1172 3119 1398 2916 
Q 1625 2713 2034 2713 
Q 2441 2713 2670 2916 
Q 2900 3119 2900 3481 
Q 2900 3844 2670 4047 
Q 2441 4250 2034 4250 
Q 1625 4250 1398 4047 
Q 1172 3844 1172 3481 
z
" transform="scale(0.015625)"/>
      </defs>
      <use xlink:href="#DejaVuSans-31"/>
      <use xlink:href="#DejaVuSans-38" x="63.623047"/>
      <use xlink:href="#DejaVuSans-20" x="127.246094"/>
      <use xlink:href="#DejaVuSans-79" x="159.033203"/>
      <use xlink:href="#DejaVuSans-65" x="218.212891"/>
      <use xlink:href="#DejaVuSans-61" x="279.736328"/>
      <use xlink:href="#DejaVuSans-72" x="341.015625"/>
      <use xlink:href="#DejaVuSans-73" x="382.128906"/>
     </g>
    </g>
    <g id="patch_66">
     <path d="M 567.576563 141.829062 
L 587.576563 141.829062 
L 587.576563 134.829062 
L 567.576563 134.829062 
z
" style="fill: #ee00ff; fill-opacity: 0.175; stroke: #000000; stroke-linejoin: miter"/>
    </g>
    <g id="text_24">
     <!-- 24 years -->
     <g transform="translate(595.576563 141.829062) scale(0.1 -0.1)">
      <defs>
       <path id="DejaVuSans-34" d="M 2419 4116 
L 825 1625 
L 2419 1625 
L 2419 4116 
z
M 2253 4666 
L 3047 4666 
L 3047 1625 
L 3713 1625 
L 3713 1100 
L 3047 1100 
L 3047 0 
L 2419 0 
L 2419 1100 
L 313 1100 
L 313 1709 
L 2253 4666 
z
" transform="scale(0.015625)"/>
      </defs>
      <use xlink:href="#DejaVuSans-32"/>
      <use xlink:href="#DejaVuSans-34" x="63.623047"/>
      <use xlink:href="#DejaVuSans-20" x="127.246094"/>
      <use xlink:href="#DejaVuSans-79" x="159.033203"/>
      <use xlink:href="#DejaVuSans-65" x="218.212891"/>
      <use xlink:href="#DejaVuSans-61" x="279.736328"/>
      <use xlink:href="#DejaVuSans-72" x="341.015625"/>
      <use xlink:href="#DejaVuSans-73" x="382.128906"/>
     </g>
    </g>
   </g>
  </g>
 </g>
 <defs>
  <clipPath id="p4e97e650ca">
   <rect x="90" y="51.84" width="558" height="332.64"/>
  </clipPath>
 </defs>
</svg>
