<?xml version="1.0" encoding="utf-8" standalone="no"?>
<!DOCTYPE svg PUBLIC "-//W3C//DTD SVG 1.1//EN"
  "http://www.w3.org/Graphics/SVG/1.1/DTD/svg11.dtd">
<svg xmlns:xlink="http://www.w3.org/1999/xlink" width="720pt" height="432pt" viewBox="0 0 720 432" xmlns="http://www.w3.org/2000/svg" version="1.1">
 <metadata>
  <rdf:RDF xmlns:dc="http://purl.org/dc/elements/1.1/" xmlns:cc="http://creativecommons.org/ns#" xmlns:rdf="http://www.w3.org/1999/02/22-rdf-syntax-ns#">
   <cc:Work>
    <dc:type rdf:resource="http://purl.org/dc/dcmitype/StillImage"/>
    <dc:date>2024-05-10T00:00:18.173748</dc:date>
    <dc:format>image/svg+xml</dc:format>
    <dc:creator>
     <cc:Agent>
      <dc:title>Matplotlib v3.8.0, https://matplotlib.org/</dc:title>
     </cc:Agent>
    </dc:creator>
   </cc:Work>
  </rdf:RDF>
 </metadata>
 <defs>
  <style type="text/css">*{stroke-linejoin: round; stroke-linecap: butt}</style>
 </defs>
 <g id="figure_1">
  <g id="patch_1">
   <path d="M 0 432 
L 720 432 
L 720 0 
L 0 0 
L 0 432 
z
" style="fill: none; opacity: 0"/>
  </g>
  <g id="axes_1">
   <g id="patch_2">
    <path d="M 90 384.48 
L 648 384.48 
L 648 51.84 
L 90 51.84 
L 90 384.48 
z
" style="fill: none"/>
   </g>
   <g id="patch_3">
    <path d="M 115.363636 384.48 
L 151.343868 384.48 
L 151.343868 270.7776 
L 115.363636 270.7776 
z
" clip-path="url(#p0ddefe1f81)" style="fill: #fcf500; fill-opacity: 0.175; stroke: #000000; stroke-linejoin: miter"/>
   </g>
   <g id="patch_4">
    <path d="M 151.343868 384.48 
L 187.324099 384.48 
L 187.324099 353.0304 
L 151.343868 353.0304 
z
" clip-path="url(#p0ddefe1f81)" style="fill: #fcf500; fill-opacity: 0.175; stroke: #000000; stroke-linejoin: miter"/>
   </g>
   <g id="patch_5">
    <path d="M 187.324099 384.48 
L 223.304331 384.48 
L 223.304331 355.4496 
L 187.324099 355.4496 
z
" clip-path="url(#p0ddefe1f81)" style="fill: #fcf500; fill-opacity: 0.175; stroke: #000000; stroke-linejoin: miter"/>
   </g>
   <g id="patch_6">
    <path d="M 223.304331 384.48 
L 259.284562 384.48 
L 259.284562 349.4016 
L 223.304331 349.4016 
z
" clip-path="url(#p0ddefe1f81)" style="fill: #fcf500; fill-opacity: 0.175; stroke: #000000; stroke-linejoin: miter"/>
   </g>
   <g id="patch_7">
    <path d="M 259.284562 384.48 
L 295.264794 384.48 
L 295.264794 365.1264 
L 259.284562 365.1264 
z
" clip-path="url(#p0ddefe1f81)" style="fill: #fcf500; fill-opacity: 0.175; stroke: #000000; stroke-linejoin: miter"/>
   </g>
   <g id="patch_8">
    <path d="M 295.264794 384.48 
L 331.245025 384.48 
L 331.245025 344.5632 
L 295.264794 344.5632 
z
" clip-path="url(#p0ddefe1f81)" style="fill: #fcf500; fill-opacity: 0.175; stroke: #000000; stroke-linejoin: miter"/>
   </g>
   <g id="patch_9">
    <path d="M 331.245025 384.48 
L 367.225256 384.48 
L 367.225256 322.7904 
L 331.245025 322.7904 
z
" clip-path="url(#p0ddefe1f81)" style="fill: #fcf500; fill-opacity: 0.175; stroke: #000000; stroke-linejoin: miter"/>
   </g>
   <g id="patch_10">
    <path d="M 367.225256 384.48 
L 403.205488 384.48 
L 403.205488 149.8176 
L 367.225256 149.8176 
z
" clip-path="url(#p0ddefe1f81)" style="fill: #fcf500; fill-opacity: 0.175; stroke: #000000; stroke-linejoin: miter"/>
   </g>
   <g id="patch_11">
    <path d="M 403.205488 384.48 
L 439.185719 384.48 
L 439.185719 241.7472 
L 403.205488 241.7472 
z
" clip-path="url(#p0ddefe1f81)" style="fill: #fcf500; fill-opacity: 0.175; stroke: #000000; stroke-linejoin: miter"/>
   </g>
   <g id="patch_12">
    <path d="M 439.185719 384.48 
L 475.165951 384.48 
L 475.165951 340.9344 
L 439.185719 340.9344 
z
" clip-path="url(#p0ddefe1f81)" style="fill: #fcf500; fill-opacity: 0.175; stroke: #000000; stroke-linejoin: miter"/>
   </g>
   <g id="patch_13">
    <path d="M 475.165951 384.48 
L 511.146182 384.48 
L 511.146182 368.7552 
L 475.165951 368.7552 
z
" clip-path="url(#p0ddefe1f81)" style="fill: #fcf500; fill-opacity: 0.175; stroke: #000000; stroke-linejoin: miter"/>
   </g>
   <g id="patch_14">
    <path d="M 511.146182 384.48 
L 547.126414 384.48 
L 547.126414 379.6416 
L 511.146182 379.6416 
z
" clip-path="url(#p0ddefe1f81)" style="fill: #fcf500; fill-opacity: 0.175; stroke: #000000; stroke-linejoin: miter"/>
   </g>
   <g id="patch_15">
    <path d="M 547.126414 384.48 
L 583.106645 384.48 
L 583.106645 378.432 
L 547.126414 378.432 
z
" clip-path="url(#p0ddefe1f81)" style="fill: #fcf500; fill-opacity: 0.175; stroke: #000000; stroke-linejoin: miter"/>
   </g>
   <g id="patch_16">
    <path d="M 115.363636 384.48 
L 149.181818 384.48 
L 149.181818 290.1312 
L 115.363636 290.1312 
z
" clip-path="url(#p0ddefe1f81)" style="fill: #08ff00; fill-opacity: 0.175; stroke: #000000; stroke-linejoin: miter"/>
   </g>
   <g id="patch_17">
    <path d="M 149.181818 384.48 
L 183 384.48 
L 183 355.4496 
L 149.181818 355.4496 
z
" clip-path="url(#p0ddefe1f81)" style="fill: #08ff00; fill-opacity: 0.175; stroke: #000000; stroke-linejoin: miter"/>
   </g>
   <g id="patch_18">
    <path d="M 183 384.48 
L 216.818182 384.48 
L 216.818182 351.8208 
L 183 351.8208 
z
" clip-path="url(#p0ddefe1f81)" style="fill: #08ff00; fill-opacity: 0.175; stroke: #000000; stroke-linejoin: miter"/>
   </g>
   <g id="patch_19">
    <path d="M 216.818182 384.48 
L 250.636364 384.48 
L 250.636364 345.7728 
L 216.818182 345.7728 
z
" clip-path="url(#p0ddefe1f81)" style="fill: #08ff00; fill-opacity: 0.175; stroke: #000000; stroke-linejoin: miter"/>
   </g>
   <g id="patch_20">
    <path d="M 250.636364 384.48 
L 284.454545 384.48 
L 284.454545 355.4496 
L 250.636364 355.4496 
z
" clip-path="url(#p0ddefe1f81)" style="fill: #08ff00; fill-opacity: 0.175; stroke: #000000; stroke-linejoin: miter"/>
   </g>
   <g id="patch_21">
    <path d="M 284.454545 384.48 
L 318.272727 384.48 
L 318.272727 362.7072 
L 284.454545 362.7072 
z
" clip-path="url(#p0ddefe1f81)" style="fill: #08ff00; fill-opacity: 0.175; stroke: #000000; stroke-linejoin: miter"/>
   </g>
   <g id="patch_22">
    <path d="M 318.272727 384.48 
L 352.090909 384.48 
L 352.090909 328.8384 
L 318.272727 328.8384 
z
" clip-path="url(#p0ddefe1f81)" style="fill: #08ff00; fill-opacity: 0.175; stroke: #000000; stroke-linejoin: miter"/>
   </g>
   <g id="patch_23">
    <path d="M 352.090909 384.48 
L 385.909091 384.48 
L 385.909091 290.1312 
L 352.090909 290.1312 
z
" clip-path="url(#p0ddefe1f81)" style="fill: #08ff00; fill-opacity: 0.175; stroke: #000000; stroke-linejoin: miter"/>
   </g>
   <g id="patch_24">
    <path d="M 385.909091 384.48 
L 419.727273 384.48 
L 419.727273 108.6912 
L 385.909091 108.6912 
z
" clip-path="url(#p0ddefe1f81)" style="fill: #08ff00; fill-opacity: 0.175; stroke: #000000; stroke-linejoin: miter"/>
   </g>
   <g id="patch_25">
    <path d="M 419.727273 384.48 
L 453.545455 384.48 
L 453.545455 324 
L 419.727273 324 
z
" clip-path="url(#p0ddefe1f81)" style="fill: #08ff00; fill-opacity: 0.175; stroke: #000000; stroke-linejoin: miter"/>
   </g>
   <g id="patch_26">
    <path d="M 453.545455 384.48 
L 487.363636 384.48 
L 487.363636 361.4976 
L 453.545455 361.4976 
z
" clip-path="url(#p0ddefe1f81)" style="fill: #08ff00; fill-opacity: 0.175; stroke: #000000; stroke-linejoin: miter"/>
   </g>
   <g id="patch_27">
    <path d="M 487.363636 384.48 
L 521.181818 384.48 
L 521.181818 367.5456 
L 487.363636 367.5456 
z
" clip-path="url(#p0ddefe1f81)" style="fill: #08ff00; fill-opacity: 0.175; stroke: #000000; stroke-linejoin: miter"/>
   </g>
   <g id="patch_28">
    <path d="M 521.181818 384.48 
L 555 384.48 
L 555 383.2704 
L 521.181818 383.2704 
z
" clip-path="url(#p0ddefe1f81)" style="fill: #08ff00; fill-opacity: 0.175; stroke: #000000; stroke-linejoin: miter"/>
   </g>
   <g id="patch_29">
    <path d="M 555 384.48 
L 588.818182 384.48 
L 588.818182 382.0608 
L 555 382.0608 
z
" clip-path="url(#p0ddefe1f81)" style="fill: #08ff00; fill-opacity: 0.175; stroke: #000000; stroke-linejoin: miter"/>
   </g>
   <g id="patch_30">
    <path d="M 588.818182 384.48 
L 622.636364 384.48 
L 622.636364 382.0608 
L 588.818182 382.0608 
z
" clip-path="url(#p0ddefe1f81)" style="fill: #08ff00; fill-opacity: 0.175; stroke: #000000; stroke-linejoin: miter"/>
   </g>
   <g id="patch_31">
    <path d="M 115.363636 384.48 
L 142.750857 384.48 
L 142.750857 281.664 
L 115.363636 281.664 
z
" clip-path="url(#p0ddefe1f81)" style="fill: #00fff6; fill-opacity: 0.175; stroke: #000000; stroke-linejoin: miter"/>
   </g>
   <g id="patch_32">
    <path d="M 142.750857 384.48 
L 170.138077 384.48 
L 170.138077 376.0128 
L 142.750857 376.0128 
z
" clip-path="url(#p0ddefe1f81)" style="fill: #00fff6; fill-opacity: 0.175; stroke: #000000; stroke-linejoin: miter"/>
   </g>
   <g id="patch_33">
    <path d="M 170.138077 384.48 
L 197.525297 384.48 
L 197.525297 362.7072 
L 170.138077 362.7072 
z
" clip-path="url(#p0ddefe1f81)" style="fill: #00fff6; fill-opacity: 0.175; stroke: #000000; stroke-linejoin: miter"/>
   </g>
   <g id="patch_34">
    <path d="M 197.525297 384.48 
L 224.912517 384.48 
L 224.912517 374.8032 
L 197.525297 374.8032 
z
" clip-path="url(#p0ddefe1f81)" style="fill: #00fff6; fill-opacity: 0.175; stroke: #000000; stroke-linejoin: miter"/>
   </g>
   <g id="patch_35">
    <path d="M 224.912517 384.48 
L 252.299737 384.48 
L 252.299737 368.7552 
L 224.912517 368.7552 
z
" clip-path="url(#p0ddefe1f81)" style="fill: #00fff6; fill-opacity: 0.175; stroke: #000000; stroke-linejoin: miter"/>
   </g>
   <g id="patch_36">
    <path d="M 252.299737 384.48 
L 279.686957 384.48 
L 279.686957 353.0304 
L 252.299737 353.0304 
z
" clip-path="url(#p0ddefe1f81)" style="fill: #00fff6; fill-opacity: 0.175; stroke: #000000; stroke-linejoin: miter"/>
   </g>
   <g id="patch_37">
    <path d="M 279.686957 384.48 
L 307.074178 384.48 
L 307.074178 359.0784 
L 279.686957 359.0784 
z
" clip-path="url(#p0ddefe1f81)" style="fill: #00fff6; fill-opacity: 0.175; stroke: #000000; stroke-linejoin: miter"/>
   </g>
   <g id="patch_38">
    <path d="M 307.074178 384.48 
L 334.461398 384.48 
L 334.461398 350.6112 
L 307.074178 350.6112 
z
" clip-path="url(#p0ddefe1f81)" style="fill: #00fff6; fill-opacity: 0.175; stroke: #000000; stroke-linejoin: miter"/>
   </g>
   <g id="patch_39">
    <path d="M 334.461398 384.48 
L 361.848618 384.48 
L 361.848618 322.7904 
L 334.461398 322.7904 
z
" clip-path="url(#p0ddefe1f81)" style="fill: #00fff6; fill-opacity: 0.175; stroke: #000000; stroke-linejoin: miter"/>
   </g>
   <g id="patch_40">
    <path d="M 361.848618 384.48 
L 389.235838 384.48 
L 389.235838 304.6464 
L 361.848618 304.6464 
z
" clip-path="url(#p0ddefe1f81)" style="fill: #00fff6; fill-opacity: 0.175; stroke: #000000; stroke-linejoin: miter"/>
   </g>
   <g id="patch_41">
    <path d="M 389.235838 384.48 
L 416.623058 384.48 
L 416.623058 142.56 
L 389.235838 142.56 
z
" clip-path="url(#p0ddefe1f81)" style="fill: #00fff6; fill-opacity: 0.175; stroke: #000000; stroke-linejoin: miter"/>
   </g>
   <g id="patch_42">
    <path d="M 416.623058 384.48 
L 444.010279 384.48 
L 444.010279 299.808 
L 416.623058 299.808 
z
" clip-path="url(#p0ddefe1f81)" style="fill: #00fff6; fill-opacity: 0.175; stroke: #000000; stroke-linejoin: miter"/>
   </g>
   <g id="patch_43">
    <path d="M 444.010279 384.48 
L 471.397499 384.48 
L 471.397499 357.8688 
L 444.010279 357.8688 
z
" clip-path="url(#p0ddefe1f81)" style="fill: #00fff6; fill-opacity: 0.175; stroke: #000000; stroke-linejoin: miter"/>
   </g>
   <g id="patch_44">
    <path d="M 471.397499 384.48 
L 498.784719 384.48 
L 498.784719 369.9648 
L 471.397499 369.9648 
z
" clip-path="url(#p0ddefe1f81)" style="fill: #00fff6; fill-opacity: 0.175; stroke: #000000; stroke-linejoin: miter"/>
   </g>
   <g id="patch_45">
    <path d="M 498.784719 384.48 
L 526.171939 384.48 
L 526.171939 378.432 
L 498.784719 378.432 
z
" clip-path="url(#p0ddefe1f81)" style="fill: #00fff6; fill-opacity: 0.175; stroke: #000000; stroke-linejoin: miter"/>
   </g>
   <g id="patch_46">
    <path d="M 526.171939 384.48 
L 553.559159 384.48 
L 553.559159 378.432 
L 526.171939 378.432 
z
" clip-path="url(#p0ddefe1f81)" style="fill: #00fff6; fill-opacity: 0.175; stroke: #000000; stroke-linejoin: miter"/>
   </g>
   <g id="patch_47">
    <path d="M 553.559159 384.48 
L 580.94638 384.48 
L 580.94638 380.8512 
L 553.559159 380.8512 
z
" clip-path="url(#p0ddefe1f81)" style="fill: #00fff6; fill-opacity: 0.175; stroke: #000000; stroke-linejoin: miter"/>
   </g>
   <g id="patch_48">
    <path d="M 580.94638 384.48 
L 608.3336 384.48 
L 608.3336 380.8512 
L 580.94638 380.8512 
z
" clip-path="url(#p0ddefe1f81)" style="fill: #00fff6; fill-opacity: 0.175; stroke: #000000; stroke-linejoin: miter"/>
   </g>
   <g id="patch_49">
    <path d="M 115.363636 384.48 
L 146.201391 384.48 
L 146.201391 257.472 
L 115.363636 257.472 
z
" clip-path="url(#p0ddefe1f81)" style="fill: #0010ff; fill-opacity: 0.175; stroke: #000000; stroke-linejoin: miter"/>
   </g>
   <g id="patch_50">
    <path d="M 146.201391 384.48 
L 177.039145 384.48 
L 177.039145 384.48 
L 146.201391 384.48 
z
" clip-path="url(#p0ddefe1f81)" style="fill: #0010ff; fill-opacity: 0.175; stroke: #000000; stroke-linejoin: miter"/>
   </g>
   <g id="patch_51">
    <path d="M 177.039145 384.48 
L 207.876899 384.48 
L 207.876899 377.2224 
L 177.039145 377.2224 
z
" clip-path="url(#p0ddefe1f81)" style="fill: #0010ff; fill-opacity: 0.175; stroke: #000000; stroke-linejoin: miter"/>
   </g>
   <g id="patch_52">
    <path d="M 207.876899 384.48 
L 238.714653 384.48 
L 238.714653 355.4496 
L 207.876899 355.4496 
z
" clip-path="url(#p0ddefe1f81)" style="fill: #0010ff; fill-opacity: 0.175; stroke: #000000; stroke-linejoin: miter"/>
   </g>
   <g id="patch_53">
    <path d="M 238.714653 384.48 
L 269.552407 384.48 
L 269.552407 355.4496 
L 238.714653 355.4496 
z
" clip-path="url(#p0ddefe1f81)" style="fill: #0010ff; fill-opacity: 0.175; stroke: #000000; stroke-linejoin: miter"/>
   </g>
   <g id="patch_54">
    <path d="M 269.552407 384.48 
L 300.390161 384.48 
L 300.390161 362.7072 
L 269.552407 362.7072 
z
" clip-path="url(#p0ddefe1f81)" style="fill: #0010ff; fill-opacity: 0.175; stroke: #000000; stroke-linejoin: miter"/>
   </g>
   <g id="patch_55">
    <path d="M 300.390161 384.48 
L 331.227916 384.48 
L 331.227916 351.8208 
L 300.390161 351.8208 
z
" clip-path="url(#p0ddefe1f81)" style="fill: #0010ff; fill-opacity: 0.175; stroke: #000000; stroke-linejoin: miter"/>
   </g>
   <g id="patch_56">
    <path d="M 331.227916 384.48 
L 362.06567 384.48 
L 362.06567 325.2096 
L 331.227916 325.2096 
z
" clip-path="url(#p0ddefe1f81)" style="fill: #0010ff; fill-opacity: 0.175; stroke: #000000; stroke-linejoin: miter"/>
   </g>
   <g id="patch_57">
    <path d="M 362.06567 384.48 
L 392.903424 384.48 
L 392.903424 297.3888 
L 362.06567 297.3888 
z
" clip-path="url(#p0ddefe1f81)" style="fill: #0010ff; fill-opacity: 0.175; stroke: #000000; stroke-linejoin: miter"/>
   </g>
   <g id="patch_58">
    <path d="M 392.903424 384.48 
L 423.741178 384.48 
L 423.741178 128.0448 
L 392.903424 128.0448 
z
" clip-path="url(#p0ddefe1f81)" style="fill: #0010ff; fill-opacity: 0.175; stroke: #000000; stroke-linejoin: miter"/>
   </g>
   <g id="patch_59">
    <path d="M 423.741178 384.48 
L 454.578932 384.48 
L 454.578932 310.6944 
L 423.741178 310.6944 
z
" clip-path="url(#p0ddefe1f81)" style="fill: #0010ff; fill-opacity: 0.175; stroke: #000000; stroke-linejoin: miter"/>
   </g>
   <g id="patch_60">
    <path d="M 454.578932 384.48 
L 485.416686 384.48 
L 485.416686 357.8688 
L 454.578932 357.8688 
z
" clip-path="url(#p0ddefe1f81)" style="fill: #0010ff; fill-opacity: 0.175; stroke: #000000; stroke-linejoin: miter"/>
   </g>
   <g id="patch_61">
    <path d="M 485.416686 384.48 
L 516.25444 384.48 
L 516.25444 374.8032 
L 485.416686 374.8032 
z
" clip-path="url(#p0ddefe1f81)" style="fill: #0010ff; fill-opacity: 0.175; stroke: #000000; stroke-linejoin: miter"/>
   </g>
   <g id="patch_62">
    <path d="M 516.25444 384.48 
L 547.092195 384.48 
L 547.092195 376.0128 
L 516.25444 376.0128 
z
" clip-path="url(#p0ddefe1f81)" style="fill: #0010ff; fill-opacity: 0.175; stroke: #000000; stroke-linejoin: miter"/>
   </g>
   <g id="patch_63">
    <path d="M 547.092195 384.48 
L 577.929949 384.48 
L 577.929949 378.432 
L 547.092195 378.432 
z
" clip-path="url(#p0ddefe1f81)" style="fill: #0010ff; fill-opacity: 0.175; stroke: #000000; stroke-linejoin: miter"/>
   </g>
   <g id="patch_64">
    <path d="M 577.929949 384.48 
L 608.767703 384.48 
L 608.767703 380.8512 
L 577.929949 380.8512 
z
" clip-path="url(#p0ddefe1f81)" style="fill: #0010ff; fill-opacity: 0.175; stroke: #000000; stroke-linejoin: miter"/>
   </g>
   <g id="patch_65">
    <path d="M 115.363636 384.48 
L 142.947957 384.48 
L 142.947957 273.1968 
L 115.363636 273.1968 
z
" clip-path="url(#p0ddefe1f81)" style="fill: #ee00ff; fill-opacity: 0.175; stroke: #000000; stroke-linejoin: miter"/>
   </g>
   <g id="patch_66">
    <path d="M 142.947957 384.48 
L 170.532278 384.48 
L 170.532278 384.48 
L 142.947957 384.48 
z
" clip-path="url(#p0ddefe1f81)" style="fill: #ee00ff; fill-opacity: 0.175; stroke: #000000; stroke-linejoin: miter"/>
   </g>
   <g id="patch_67">
    <path d="M 170.532278 384.48 
L 198.116598 384.48 
L 198.116598 376.0128 
L 170.532278 376.0128 
z
" clip-path="url(#p0ddefe1f81)" style="fill: #ee00ff; fill-opacity: 0.175; stroke: #000000; stroke-linejoin: miter"/>
   </g>
   <g id="patch_68">
    <path d="M 198.116598 384.48 
L 225.700919 384.48 
L 225.700919 359.0784 
L 198.116598 359.0784 
z
" clip-path="url(#p0ddefe1f81)" style="fill: #ee00ff; fill-opacity: 0.175; stroke: #000000; stroke-linejoin: miter"/>
   </g>
   <g id="patch_69">
    <path d="M 225.700919 384.48 
L 253.285239 384.48 
L 253.285239 361.4976 
L 225.700919 361.4976 
z
" clip-path="url(#p0ddefe1f81)" style="fill: #ee00ff; fill-opacity: 0.175; stroke: #000000; stroke-linejoin: miter"/>
   </g>
   <g id="patch_70">
    <path d="M 253.285239 384.48 
L 280.86956 384.48 
L 280.86956 360.288 
L 253.285239 360.288 
z
" clip-path="url(#p0ddefe1f81)" style="fill: #ee00ff; fill-opacity: 0.175; stroke: #000000; stroke-linejoin: miter"/>
   </g>
   <g id="patch_71">
    <path d="M 280.86956 384.48 
L 308.45388 384.48 
L 308.45388 363.9168 
L 280.86956 363.9168 
z
" clip-path="url(#p0ddefe1f81)" style="fill: #ee00ff; fill-opacity: 0.175; stroke: #000000; stroke-linejoin: miter"/>
   </g>
   <g id="patch_72">
    <path d="M 308.45388 384.48 
L 336.038201 384.48 
L 336.038201 342.144 
L 308.45388 342.144 
z
" clip-path="url(#p0ddefe1f81)" style="fill: #ee00ff; fill-opacity: 0.175; stroke: #000000; stroke-linejoin: miter"/>
   </g>
   <g id="patch_73">
    <path d="M 336.038201 384.48 
L 363.622522 384.48 
L 363.622522 333.6768 
L 336.038201 333.6768 
z
" clip-path="url(#p0ddefe1f81)" style="fill: #ee00ff; fill-opacity: 0.175; stroke: #000000; stroke-linejoin: miter"/>
   </g>
   <g id="patch_74">
    <path d="M 363.622522 384.48 
L 391.206842 384.48 
L 391.206842 299.808 
L 363.622522 299.808 
z
" clip-path="url(#p0ddefe1f81)" style="fill: #ee00ff; fill-opacity: 0.175; stroke: #000000; stroke-linejoin: miter"/>
   </g>
   <g id="patch_75">
    <path d="M 391.206842 384.48 
L 418.791163 384.48 
L 418.791163 138.9312 
L 391.206842 138.9312 
z
" clip-path="url(#p0ddefe1f81)" style="fill: #ee00ff; fill-opacity: 0.175; stroke: #000000; stroke-linejoin: miter"/>
   </g>
   <g id="patch_76">
    <path d="M 418.791163 384.48 
L 446.375483 384.48 
L 446.375483 313.1136 
L 418.791163 313.1136 
z
" clip-path="url(#p0ddefe1f81)" style="fill: #ee00ff; fill-opacity: 0.175; stroke: #000000; stroke-linejoin: miter"/>
   </g>
   <g id="patch_77">
    <path d="M 446.375483 384.48 
L 473.959804 384.48 
L 473.959804 351.8208 
L 446.375483 351.8208 
z
" clip-path="url(#p0ddefe1f81)" style="fill: #ee00ff; fill-opacity: 0.175; stroke: #000000; stroke-linejoin: miter"/>
   </g>
   <g id="patch_78">
    <path d="M 473.959804 384.48 
L 501.544125 384.48 
L 501.544125 369.9648 
L 473.959804 369.9648 
z
" clip-path="url(#p0ddefe1f81)" style="fill: #ee00ff; fill-opacity: 0.175; stroke: #000000; stroke-linejoin: miter"/>
   </g>
   <g id="patch_79">
    <path d="M 501.544125 384.48 
L 529.128445 384.48 
L 529.128445 376.0128 
L 501.544125 376.0128 
z
" clip-path="url(#p0ddefe1f81)" style="fill: #ee00ff; fill-opacity: 0.175; stroke: #000000; stroke-linejoin: miter"/>
   </g>
   <g id="patch_80">
    <path d="M 529.128445 384.48 
L 556.712766 384.48 
L 556.712766 376.0128 
L 529.128445 376.0128 
z
" clip-path="url(#p0ddefe1f81)" style="fill: #ee00ff; fill-opacity: 0.175; stroke: #000000; stroke-linejoin: miter"/>
   </g>
   <g id="patch_81">
    <path d="M 556.712766 384.48 
L 584.297086 384.48 
L 584.297086 378.432 
L 556.712766 378.432 
z
" clip-path="url(#p0ddefe1f81)" style="fill: #ee00ff; fill-opacity: 0.175; stroke: #000000; stroke-linejoin: miter"/>
   </g>
   <g id="matplotlib.axis_1">
    <g id="xtick_1">
     <g id="line2d_1">
      <defs>
       <path id="md53624c19f" d="M 0 0 
L 0 3.5 
" style="stroke: #000000; stroke-width: 0.8"/>
      </defs>
      <g>
       <use xlink:href="#md53624c19f" x="115.363636" y="384.48" style="stroke: #000000; stroke-width: 0.8"/>
      </g>
     </g>
     <g id="text_1">
      <!-- −1.00 -->
      <g transform="translate(100.04098 399.078438) scale(0.1 -0.1)">
       <defs>
        <path id="DejaVuSans-2212" d="M 678 2272 
L 4684 2272 
L 4684 1741 
L 678 1741 
L 678 2272 
z
" transform="scale(0.015625)"/>
        <path id="DejaVuSans-31" d="M 794 531 
L 1825 531 
L 1825 4091 
L 703 3866 
L 703 4441 
L 1819 4666 
L 2450 4666 
L 2450 531 
L 3481 531 
L 3481 0 
L 794 0 
L 794 531 
z
" transform="scale(0.015625)"/>
        <path id="DejaVuSans-2e" d="M 684 794 
L 1344 794 
L 1344 0 
L 684 0 
L 684 794 
z
" transform="scale(0.015625)"/>
        <path id="DejaVuSans-30" d="M 2034 4250 
Q 1547 4250 1301 3770 
Q 1056 3291 1056 2328 
Q 1056 1369 1301 889 
Q 1547 409 2034 409 
Q 2525 409 2770 889 
Q 3016 1369 3016 2328 
Q 3016 3291 2770 3770 
Q 2525 4250 2034 4250 
z
M 2034 4750 
Q 2819 4750 3233 4129 
Q 3647 3509 3647 2328 
Q 3647 1150 3233 529 
Q 2819 -91 2034 -91 
Q 1250 -91 836 529 
Q 422 1150 422 2328 
Q 422 3509 836 4129 
Q 1250 4750 2034 4750 
z
" transform="scale(0.015625)"/>
       </defs>
       <use xlink:href="#DejaVuSans-2212"/>
       <use xlink:href="#DejaVuSans-31" x="83.789062"/>
       <use xlink:href="#DejaVuSans-2e" x="147.412109"/>
       <use xlink:href="#DejaVuSans-30" x="179.199219"/>
       <use xlink:href="#DejaVuSans-30" x="242.822266"/>
      </g>
     </g>
    </g>
    <g id="xtick_2">
     <g id="line2d_2">
      <g>
       <use xlink:href="#md53624c19f" x="186.660853" y="384.48" style="stroke: #000000; stroke-width: 0.8"/>
      </g>
     </g>
     <g id="text_2">
      <!-- −0.75 -->
      <g transform="translate(171.338197 399.078438) scale(0.1 -0.1)">
       <defs>
        <path id="DejaVuSans-37" d="M 525 4666 
L 3525 4666 
L 3525 4397 
L 1831 0 
L 1172 0 
L 2766 4134 
L 525 4134 
L 525 4666 
z
" transform="scale(0.015625)"/>
        <path id="DejaVuSans-35" d="M 691 4666 
L 3169 4666 
L 3169 4134 
L 1269 4134 
L 1269 2991 
Q 1406 3038 1543 3061 
Q 1681 3084 1819 3084 
Q 2600 3084 3056 2656 
Q 3513 2228 3513 1497 
Q 3513 744 3044 326 
Q 2575 -91 1722 -91 
Q 1428 -91 1123 -41 
Q 819 9 494 109 
L 494 744 
Q 775 591 1075 516 
Q 1375 441 1709 441 
Q 2250 441 2565 725 
Q 2881 1009 2881 1497 
Q 2881 1984 2565 2268 
Q 2250 2553 1709 2553 
Q 1456 2553 1204 2497 
Q 953 2441 691 2322 
L 691 4666 
z
" transform="scale(0.015625)"/>
       </defs>
       <use xlink:href="#DejaVuSans-2212"/>
       <use xlink:href="#DejaVuSans-30" x="83.789062"/>
       <use xlink:href="#DejaVuSans-2e" x="147.412109"/>
       <use xlink:href="#DejaVuSans-37" x="179.199219"/>
       <use xlink:href="#DejaVuSans-35" x="242.822266"/>
      </g>
     </g>
    </g>
    <g id="xtick_3">
     <g id="line2d_3">
      <g>
       <use xlink:href="#md53624c19f" x="257.958069" y="384.48" style="stroke: #000000; stroke-width: 0.8"/>
      </g>
     </g>
     <g id="text_3">
      <!-- −0.50 -->
      <g transform="translate(242.635413 399.078438) scale(0.1 -0.1)">
       <use xlink:href="#DejaVuSans-2212"/>
       <use xlink:href="#DejaVuSans-30" x="83.789062"/>
       <use xlink:href="#DejaVuSans-2e" x="147.412109"/>
       <use xlink:href="#DejaVuSans-35" x="179.199219"/>
       <use xlink:href="#DejaVuSans-30" x="242.822266"/>
      </g>
     </g>
    </g>
    <g id="xtick_4">
     <g id="line2d_4">
      <g>
       <use xlink:href="#md53624c19f" x="329.255286" y="384.48" style="stroke: #000000; stroke-width: 0.8"/>
      </g>
     </g>
     <g id="text_4">
      <!-- −0.25 -->
      <g transform="translate(313.932629 399.078438) scale(0.1 -0.1)">
       <defs>
        <path id="DejaVuSans-32" d="M 1228 531 
L 3431 531 
L 3431 0 
L 469 0 
L 469 531 
Q 828 903 1448 1529 
Q 2069 2156 2228 2338 
Q 2531 2678 2651 2914 
Q 2772 3150 2772 3378 
Q 2772 3750 2511 3984 
Q 2250 4219 1831 4219 
Q 1534 4219 1204 4116 
Q 875 4013 500 3803 
L 500 4441 
Q 881 4594 1212 4672 
Q 1544 4750 1819 4750 
Q 2544 4750 2975 4387 
Q 3406 4025 3406 3419 
Q 3406 3131 3298 2873 
Q 3191 2616 2906 2266 
Q 2828 2175 2409 1742 
Q 1991 1309 1228 531 
z
" transform="scale(0.015625)"/>
       </defs>
       <use xlink:href="#DejaVuSans-2212"/>
       <use xlink:href="#DejaVuSans-30" x="83.789062"/>
       <use xlink:href="#DejaVuSans-2e" x="147.412109"/>
       <use xlink:href="#DejaVuSans-32" x="179.199219"/>
       <use xlink:href="#DejaVuSans-35" x="242.822266"/>
      </g>
     </g>
    </g>
    <g id="xtick_5">
     <g id="line2d_5">
      <g>
       <use xlink:href="#md53624c19f" x="400.552502" y="384.48" style="stroke: #000000; stroke-width: 0.8"/>
      </g>
     </g>
     <g id="text_5">
      <!-- 0.00 -->
      <g transform="translate(389.41969 399.078438) scale(0.1 -0.1)">
       <use xlink:href="#DejaVuSans-30"/>
       <use xlink:href="#DejaVuSans-2e" x="63.623047"/>
       <use xlink:href="#DejaVuSans-30" x="95.410156"/>
       <use xlink:href="#DejaVuSans-30" x="159.033203"/>
      </g>
     </g>
    </g>
    <g id="xtick_6">
     <g id="line2d_6">
      <g>
       <use xlink:href="#md53624c19f" x="471.849719" y="384.48" style="stroke: #000000; stroke-width: 0.8"/>
      </g>
     </g>
     <g id="text_6">
      <!-- 0.25 -->
      <g transform="translate(460.716906 399.078438) scale(0.1 -0.1)">
       <use xlink:href="#DejaVuSans-30"/>
       <use xlink:href="#DejaVuSans-2e" x="63.623047"/>
       <use xlink:href="#DejaVuSans-32" x="95.410156"/>
       <use xlink:href="#DejaVuSans-35" x="159.033203"/>
      </g>
     </g>
    </g>
    <g id="xtick_7">
     <g id="line2d_7">
      <g>
       <use xlink:href="#md53624c19f" x="543.146935" y="384.48" style="stroke: #000000; stroke-width: 0.8"/>
      </g>
     </g>
     <g id="text_7">
      <!-- 0.50 -->
      <g transform="translate(532.014123 399.078438) scale(0.1 -0.1)">
       <use xlink:href="#DejaVuSans-30"/>
       <use xlink:href="#DejaVuSans-2e" x="63.623047"/>
       <use xlink:href="#DejaVuSans-35" x="95.410156"/>
       <use xlink:href="#DejaVuSans-30" x="159.033203"/>
      </g>
     </g>
    </g>
    <g id="xtick_8">
     <g id="line2d_8">
      <g>
       <use xlink:href="#md53624c19f" x="614.444151" y="384.48" style="stroke: #000000; stroke-width: 0.8"/>
      </g>
     </g>
     <g id="text_8">
      <!-- 0.75 -->
      <g transform="translate(603.311339 399.078438) scale(0.1 -0.1)">
       <use xlink:href="#DejaVuSans-30"/>
       <use xlink:href="#DejaVuSans-2e" x="63.623047"/>
       <use xlink:href="#DejaVuSans-37" x="95.410156"/>
       <use xlink:href="#DejaVuSans-35" x="159.033203"/>
      </g>
     </g>
    </g>
    <g id="text_9">
     <!-- Avg Normalized Interplay -->
     <g transform="translate(305.883594 412.756563) scale(0.1 -0.1)">
      <defs>
       <path id="DejaVuSans-41" d="M 2188 4044 
L 1331 1722 
L 3047 1722 
L 2188 4044 
z
M 1831 4666 
L 2547 4666 
L 4325 0 
L 3669 0 
L 3244 1197 
L 1141 1197 
L 716 0 
L 50 0 
L 1831 4666 
z
" transform="scale(0.015625)"/>
       <path id="DejaVuSans-76" d="M 191 3500 
L 800 3500 
L 1894 563 
L 2988 3500 
L 3597 3500 
L 2284 0 
L 1503 0 
L 191 3500 
z
" transform="scale(0.015625)"/>
       <path id="DejaVuSans-67" d="M 2906 1791 
Q 2906 2416 2648 2759 
Q 2391 3103 1925 3103 
Q 1463 3103 1205 2759 
Q 947 2416 947 1791 
Q 947 1169 1205 825 
Q 1463 481 1925 481 
Q 2391 481 2648 825 
Q 2906 1169 2906 1791 
z
M 3481 434 
Q 3481 -459 3084 -895 
Q 2688 -1331 1869 -1331 
Q 1566 -1331 1297 -1286 
Q 1028 -1241 775 -1147 
L 775 -588 
Q 1028 -725 1275 -790 
Q 1522 -856 1778 -856 
Q 2344 -856 2625 -561 
Q 2906 -266 2906 331 
L 2906 616 
Q 2728 306 2450 153 
Q 2172 0 1784 0 
Q 1141 0 747 490 
Q 353 981 353 1791 
Q 353 2603 747 3093 
Q 1141 3584 1784 3584 
Q 2172 3584 2450 3431 
Q 2728 3278 2906 2969 
L 2906 3500 
L 3481 3500 
L 3481 434 
z
" transform="scale(0.015625)"/>
       <path id="DejaVuSans-20" transform="scale(0.015625)"/>
       <path id="DejaVuSans-4e" d="M 628 4666 
L 1478 4666 
L 3547 763 
L 3547 4666 
L 4159 4666 
L 4159 0 
L 3309 0 
L 1241 3903 
L 1241 0 
L 628 0 
L 628 4666 
z
" transform="scale(0.015625)"/>
       <path id="DejaVuSans-6f" d="M 1959 3097 
Q 1497 3097 1228 2736 
Q 959 2375 959 1747 
Q 959 1119 1226 758 
Q 1494 397 1959 397 
Q 2419 397 2687 759 
Q 2956 1122 2956 1747 
Q 2956 2369 2687 2733 
Q 2419 3097 1959 3097 
z
M 1959 3584 
Q 2709 3584 3137 3096 
Q 3566 2609 3566 1747 
Q 3566 888 3137 398 
Q 2709 -91 1959 -91 
Q 1206 -91 779 398 
Q 353 888 353 1747 
Q 353 2609 779 3096 
Q 1206 3584 1959 3584 
z
" transform="scale(0.015625)"/>
       <path id="DejaVuSans-72" d="M 2631 2963 
Q 2534 3019 2420 3045 
Q 2306 3072 2169 3072 
Q 1681 3072 1420 2755 
Q 1159 2438 1159 1844 
L 1159 0 
L 581 0 
L 581 3500 
L 1159 3500 
L 1159 2956 
Q 1341 3275 1631 3429 
Q 1922 3584 2338 3584 
Q 2397 3584 2469 3576 
Q 2541 3569 2628 3553 
L 2631 2963 
z
" transform="scale(0.015625)"/>
       <path id="DejaVuSans-6d" d="M 3328 2828 
Q 3544 3216 3844 3400 
Q 4144 3584 4550 3584 
Q 5097 3584 5394 3201 
Q 5691 2819 5691 2113 
L 5691 0 
L 5113 0 
L 5113 2094 
Q 5113 2597 4934 2840 
Q 4756 3084 4391 3084 
Q 3944 3084 3684 2787 
Q 3425 2491 3425 1978 
L 3425 0 
L 2847 0 
L 2847 2094 
Q 2847 2600 2669 2842 
Q 2491 3084 2119 3084 
Q 1678 3084 1418 2786 
Q 1159 2488 1159 1978 
L 1159 0 
L 581 0 
L 581 3500 
L 1159 3500 
L 1159 2956 
Q 1356 3278 1631 3431 
Q 1906 3584 2284 3584 
Q 2666 3584 2933 3390 
Q 3200 3197 3328 2828 
z
" transform="scale(0.015625)"/>
       <path id="DejaVuSans-61" d="M 2194 1759 
Q 1497 1759 1228 1600 
Q 959 1441 959 1056 
Q 959 750 1161 570 
Q 1363 391 1709 391 
Q 2188 391 2477 730 
Q 2766 1069 2766 1631 
L 2766 1759 
L 2194 1759 
z
M 3341 1997 
L 3341 0 
L 2766 0 
L 2766 531 
Q 2569 213 2275 61 
Q 1981 -91 1556 -91 
Q 1019 -91 701 211 
Q 384 513 384 1019 
Q 384 1609 779 1909 
Q 1175 2209 1959 2209 
L 2766 2209 
L 2766 2266 
Q 2766 2663 2505 2880 
Q 2244 3097 1772 3097 
Q 1472 3097 1187 3025 
Q 903 2953 641 2809 
L 641 3341 
Q 956 3463 1253 3523 
Q 1550 3584 1831 3584 
Q 2591 3584 2966 3190 
Q 3341 2797 3341 1997 
z
" transform="scale(0.015625)"/>
       <path id="DejaVuSans-6c" d="M 603 4863 
L 1178 4863 
L 1178 0 
L 603 0 
L 603 4863 
z
" transform="scale(0.015625)"/>
       <path id="DejaVuSans-69" d="M 603 3500 
L 1178 3500 
L 1178 0 
L 603 0 
L 603 3500 
z
M 603 4863 
L 1178 4863 
L 1178 4134 
L 603 4134 
L 603 4863 
z
" transform="scale(0.015625)"/>
       <path id="DejaVuSans-7a" d="M 353 3500 
L 3084 3500 
L 3084 2975 
L 922 459 
L 3084 459 
L 3084 0 
L 275 0 
L 275 525 
L 2438 3041 
L 353 3041 
L 353 3500 
z
" transform="scale(0.015625)"/>
       <path id="DejaVuSans-65" d="M 3597 1894 
L 3597 1613 
L 953 1613 
Q 991 1019 1311 708 
Q 1631 397 2203 397 
Q 2534 397 2845 478 
Q 3156 559 3463 722 
L 3463 178 
Q 3153 47 2828 -22 
Q 2503 -91 2169 -91 
Q 1331 -91 842 396 
Q 353 884 353 1716 
Q 353 2575 817 3079 
Q 1281 3584 2069 3584 
Q 2775 3584 3186 3129 
Q 3597 2675 3597 1894 
z
M 3022 2063 
Q 3016 2534 2758 2815 
Q 2500 3097 2075 3097 
Q 1594 3097 1305 2825 
Q 1016 2553 972 2059 
L 3022 2063 
z
" transform="scale(0.015625)"/>
       <path id="DejaVuSans-64" d="M 2906 2969 
L 2906 4863 
L 3481 4863 
L 3481 0 
L 2906 0 
L 2906 525 
Q 2725 213 2448 61 
Q 2172 -91 1784 -91 
Q 1150 -91 751 415 
Q 353 922 353 1747 
Q 353 2572 751 3078 
Q 1150 3584 1784 3584 
Q 2172 3584 2448 3432 
Q 2725 3281 2906 2969 
z
M 947 1747 
Q 947 1113 1208 752 
Q 1469 391 1925 391 
Q 2381 391 2643 752 
Q 2906 1113 2906 1747 
Q 2906 2381 2643 2742 
Q 2381 3103 1925 3103 
Q 1469 3103 1208 2742 
Q 947 2381 947 1747 
z
" transform="scale(0.015625)"/>
       <path id="DejaVuSans-49" d="M 628 4666 
L 1259 4666 
L 1259 0 
L 628 0 
L 628 4666 
z
" transform="scale(0.015625)"/>
       <path id="DejaVuSans-6e" d="M 3513 2113 
L 3513 0 
L 2938 0 
L 2938 2094 
Q 2938 2591 2744 2837 
Q 2550 3084 2163 3084 
Q 1697 3084 1428 2787 
Q 1159 2491 1159 1978 
L 1159 0 
L 581 0 
L 581 3500 
L 1159 3500 
L 1159 2956 
Q 1366 3272 1645 3428 
Q 1925 3584 2291 3584 
Q 2894 3584 3203 3211 
Q 3513 2838 3513 2113 
z
" transform="scale(0.015625)"/>
       <path id="DejaVuSans-74" d="M 1172 4494 
L 1172 3500 
L 2356 3500 
L 2356 3053 
L 1172 3053 
L 1172 1153 
Q 1172 725 1289 603 
Q 1406 481 1766 481 
L 2356 481 
L 2356 0 
L 1766 0 
Q 1100 0 847 248 
Q 594 497 594 1153 
L 594 3053 
L 172 3053 
L 172 3500 
L 594 3500 
L 594 4494 
L 1172 4494 
z
" transform="scale(0.015625)"/>
       <path id="DejaVuSans-70" d="M 1159 525 
L 1159 -1331 
L 581 -1331 
L 581 3500 
L 1159 3500 
L 1159 2969 
Q 1341 3281 1617 3432 
Q 1894 3584 2278 3584 
Q 2916 3584 3314 3078 
Q 3713 2572 3713 1747 
Q 3713 922 3314 415 
Q 2916 -91 2278 -91 
Q 1894 -91 1617 61 
Q 1341 213 1159 525 
z
M 3116 1747 
Q 3116 2381 2855 2742 
Q 2594 3103 2138 3103 
Q 1681 3103 1420 2742 
Q 1159 2381 1159 1747 
Q 1159 1113 1420 752 
Q 1681 391 2138 391 
Q 2594 391 2855 752 
Q 3116 1113 3116 1747 
z
" transform="scale(0.015625)"/>
       <path id="DejaVuSans-79" d="M 2059 -325 
Q 1816 -950 1584 -1140 
Q 1353 -1331 966 -1331 
L 506 -1331 
L 506 -850 
L 844 -850 
Q 1081 -850 1212 -737 
Q 1344 -625 1503 -206 
L 1606 56 
L 191 3500 
L 800 3500 
L 1894 763 
L 2988 3500 
L 3597 3500 
L 2059 -325 
z
" transform="scale(0.015625)"/>
      </defs>
      <use xlink:href="#DejaVuSans-41"/>
      <use xlink:href="#DejaVuSans-76" x="62.533203"/>
      <use xlink:href="#DejaVuSans-67" x="121.712891"/>
      <use xlink:href="#DejaVuSans-20" x="185.189453"/>
      <use xlink:href="#DejaVuSans-4e" x="216.976562"/>
      <use xlink:href="#DejaVuSans-6f" x="291.78125"/>
      <use xlink:href="#DejaVuSans-72" x="352.962891"/>
      <use xlink:href="#DejaVuSans-6d" x="392.326172"/>
      <use xlink:href="#DejaVuSans-61" x="489.738281"/>
      <use xlink:href="#DejaVuSans-6c" x="551.017578"/>
      <use xlink:href="#DejaVuSans-69" x="578.800781"/>
      <use xlink:href="#DejaVuSans-7a" x="606.583984"/>
      <use xlink:href="#DejaVuSans-65" x="659.074219"/>
      <use xlink:href="#DejaVuSans-64" x="720.597656"/>
      <use xlink:href="#DejaVuSans-20" x="784.074219"/>
      <use xlink:href="#DejaVuSans-49" x="815.861328"/>
      <use xlink:href="#DejaVuSans-6e" x="845.353516"/>
      <use xlink:href="#DejaVuSans-74" x="908.732422"/>
      <use xlink:href="#DejaVuSans-65" x="947.941406"/>
      <use xlink:href="#DejaVuSans-72" x="1009.464844"/>
      <use xlink:href="#DejaVuSans-70" x="1050.578125"/>
      <use xlink:href="#DejaVuSans-6c" x="1114.054688"/>
      <use xlink:href="#DejaVuSans-61" x="1141.837891"/>
      <use xlink:href="#DejaVuSans-79" x="1203.117188"/>
     </g>
    </g>
   </g>
   <g id="matplotlib.axis_2">
    <g id="ytick_1">
     <g id="line2d_9">
      <defs>
       <path id="mcf9d989e82" d="M 0 0 
L -3.5 0 
" style="stroke: #000000; stroke-width: 0.8"/>
      </defs>
      <g>
       <use xlink:href="#mcf9d989e82" x="90" y="384.48" style="stroke: #000000; stroke-width: 0.8"/>
      </g>
     </g>
     <g id="text_10">
      <!-- 0 -->
      <g transform="translate(76.6375 388.279219) scale(0.1 -0.1)">
       <use xlink:href="#DejaVuSans-30"/>
      </g>
     </g>
    </g>
    <g id="ytick_2">
     <g id="line2d_10">
      <g>
       <use xlink:href="#mcf9d989e82" x="90" y="324" style="stroke: #000000; stroke-width: 0.8"/>
      </g>
     </g>
     <g id="text_11">
      <!-- 50 -->
      <g transform="translate(70.275 327.799219) scale(0.1 -0.1)">
       <use xlink:href="#DejaVuSans-35"/>
       <use xlink:href="#DejaVuSans-30" x="63.623047"/>
      </g>
     </g>
    </g>
    <g id="ytick_3">
     <g id="line2d_11">
      <g>
       <use xlink:href="#mcf9d989e82" x="90" y="263.52" style="stroke: #000000; stroke-width: 0.8"/>
      </g>
     </g>
     <g id="text_12">
      <!-- 100 -->
      <g transform="translate(63.9125 267.319219) scale(0.1 -0.1)">
       <use xlink:href="#DejaVuSans-31"/>
       <use xlink:href="#DejaVuSans-30" x="63.623047"/>
       <use xlink:href="#DejaVuSans-30" x="127.246094"/>
      </g>
     </g>
    </g>
    <g id="ytick_4">
     <g id="line2d_12">
      <g>
       <use xlink:href="#mcf9d989e82" x="90" y="203.04" style="stroke: #000000; stroke-width: 0.8"/>
      </g>
     </g>
     <g id="text_13">
      <!-- 150 -->
      <g transform="translate(63.9125 206.839219) scale(0.1 -0.1)">
       <use xlink:href="#DejaVuSans-31"/>
       <use xlink:href="#DejaVuSans-35" x="63.623047"/>
       <use xlink:href="#DejaVuSans-30" x="127.246094"/>
      </g>
     </g>
    </g>
    <g id="ytick_5">
     <g id="line2d_13">
      <g>
       <use xlink:href="#mcf9d989e82" x="90" y="142.56" style="stroke: #000000; stroke-width: 0.8"/>
      </g>
     </g>
     <g id="text_14">
      <!-- 200 -->
      <g transform="translate(63.9125 146.359219) scale(0.1 -0.1)">
       <use xlink:href="#DejaVuSans-32"/>
       <use xlink:href="#DejaVuSans-30" x="63.623047"/>
       <use xlink:href="#DejaVuSans-30" x="127.246094"/>
      </g>
     </g>
    </g>
    <g id="ytick_6">
     <g id="line2d_14">
      <g>
       <use xlink:href="#mcf9d989e82" x="90" y="82.08" style="stroke: #000000; stroke-width: 0.8"/>
      </g>
     </g>
     <g id="text_15">
      <!-- 250 -->
      <g transform="translate(63.9125 85.879219) scale(0.1 -0.1)">
       <use xlink:href="#DejaVuSans-32"/>
       <use xlink:href="#DejaVuSans-35" x="63.623047"/>
       <use xlink:href="#DejaVuSans-30" x="127.246094"/>
      </g>
     </g>
    </g>
    <g id="text_16">
     <!-- Frequency -->
     <g transform="translate(57.832812 243.989687) rotate(-90) scale(0.1 -0.1)">
      <defs>
       <path id="DejaVuSans-46" d="M 628 4666 
L 3309 4666 
L 3309 4134 
L 1259 4134 
L 1259 2759 
L 3109 2759 
L 3109 2228 
L 1259 2228 
L 1259 0 
L 628 0 
L 628 4666 
z
" transform="scale(0.015625)"/>
       <path id="DejaVuSans-71" d="M 947 1747 
Q 947 1113 1208 752 
Q 1469 391 1925 391 
Q 2381 391 2643 752 
Q 2906 1113 2906 1747 
Q 2906 2381 2643 2742 
Q 2381 3103 1925 3103 
Q 1469 3103 1208 2742 
Q 947 2381 947 1747 
z
M 2906 525 
Q 2725 213 2448 61 
Q 2172 -91 1784 -91 
Q 1150 -91 751 415 
Q 353 922 353 1747 
Q 353 2572 751 3078 
Q 1150 3584 1784 3584 
Q 2172 3584 2448 3432 
Q 2725 3281 2906 2969 
L 2906 3500 
L 3481 3500 
L 3481 -1331 
L 2906 -1331 
L 2906 525 
z
" transform="scale(0.015625)"/>
       <path id="DejaVuSans-75" d="M 544 1381 
L 544 3500 
L 1119 3500 
L 1119 1403 
Q 1119 906 1312 657 
Q 1506 409 1894 409 
Q 2359 409 2629 706 
Q 2900 1003 2900 1516 
L 2900 3500 
L 3475 3500 
L 3475 0 
L 2900 0 
L 2900 538 
Q 2691 219 2414 64 
Q 2138 -91 1772 -91 
Q 1169 -91 856 284 
Q 544 659 544 1381 
z
M 1991 3584 
L 1991 3584 
z
" transform="scale(0.015625)"/>
       <path id="DejaVuSans-63" d="M 3122 3366 
L 3122 2828 
Q 2878 2963 2633 3030 
Q 2388 3097 2138 3097 
Q 1578 3097 1268 2742 
Q 959 2388 959 1747 
Q 959 1106 1268 751 
Q 1578 397 2138 397 
Q 2388 397 2633 464 
Q 2878 531 3122 666 
L 3122 134 
Q 2881 22 2623 -34 
Q 2366 -91 2075 -91 
Q 1284 -91 818 406 
Q 353 903 353 1747 
Q 353 2603 823 3093 
Q 1294 3584 2113 3584 
Q 2378 3584 2631 3529 
Q 2884 3475 3122 3366 
z
" transform="scale(0.015625)"/>
      </defs>
      <use xlink:href="#DejaVuSans-46"/>
      <use xlink:href="#DejaVuSans-72" x="50.269531"/>
      <use xlink:href="#DejaVuSans-65" x="89.132812"/>
      <use xlink:href="#DejaVuSans-71" x="150.65625"/>
      <use xlink:href="#DejaVuSans-75" x="214.132812"/>
      <use xlink:href="#DejaVuSans-65" x="277.511719"/>
      <use xlink:href="#DejaVuSans-6e" x="339.035156"/>
      <use xlink:href="#DejaVuSans-63" x="402.414062"/>
      <use xlink:href="#DejaVuSans-79" x="457.394531"/>
     </g>
    </g>
   </g>
   <g id="line2d_15">
    <path d="M 115.363636 330.385755 
L 117.714104 330.070004 
L 120.064571 329.979104 
L 122.415039 330.104496 
L 124.765506 330.433847 
L 127.115973 330.951413 
L 129.466441 331.638507 
L 131.816908 332.474035 
L 136.517843 334.497654 
L 141.218778 336.829062 
L 150.620647 341.670471 
L 155.321582 343.873503 
L 160.022517 345.79328 
L 164.723451 347.382682 
L 169.424386 348.636783 
L 174.125321 349.584879 
L 178.826256 350.279808 
L 185.877658 350.990104 
L 197.629995 351.800425 
L 209.382332 352.676383 
L 223.485136 353.996408 
L 237.58794 355.302721 
L 246.98981 355.938416 
L 254.041212 356.189372 
L 261.092614 356.174595 
L 265.793549 355.983717 
L 270.494483 355.624549 
L 275.195418 355.077296 
L 279.896353 354.322415 
L 284.597288 353.340106 
L 289.298223 352.109304 
L 293.999157 350.606218 
L 298.700092 348.802578 
L 303.401027 346.663858 
L 308.101962 344.147784 
L 312.802896 341.203529 
L 317.503831 337.772002 
L 319.854298 335.853185 
L 322.204766 333.787622 
L 324.555233 331.566693 
L 326.905701 329.181938 
L 329.256168 326.625286 
L 331.606635 323.889308 
L 333.957103 320.967517 
L 336.30757 317.854676 
L 338.658037 314.547141 
L 343.358972 307.343477 
L 348.059907 299.372602 
L 352.760842 290.698213 
L 357.461777 281.440677 
L 364.513179 266.87774 
L 371.564581 252.303549 
L 376.265516 243.131634 
L 378.615983 238.84672 
L 380.96645 234.825304 
L 383.316918 231.113661 
L 385.667385 227.756335 
L 388.017852 224.795239 
L 390.36832 222.268768 
L 392.718787 220.210977 
L 395.069255 218.650818 
L 397.419722 217.611486 
L 399.770189 217.109883 
L 402.120657 217.156222 
L 404.471124 217.753779 
L 406.821592 218.898811 
L 409.172059 220.580631 
L 411.522526 222.781849 
L 413.872994 225.478765 
L 416.223461 228.641896 
L 418.573928 232.23663 
L 420.924396 236.223979 
L 423.274863 240.561409 
L 425.625331 245.203714 
L 430.326265 255.214206 
L 435.0272 265.874474 
L 446.779537 293.041524 
L 451.480472 303.344626 
L 456.181406 313.007029 
L 460.882341 321.902608 
L 465.583276 329.962723 
L 467.933743 333.671638 
L 470.284211 337.167457 
L 472.634678 340.453569 
L 474.985146 343.535063 
L 477.335613 346.418402 
L 479.68608 349.111114 
L 482.036548 351.621517 
L 484.387015 353.958463 
L 486.737482 356.13112 
L 491.438417 360.020695 
L 496.139352 363.363427 
L 500.840287 366.228463 
L 505.541221 368.67876 
L 510.242156 370.770159 
L 514.943091 372.551328 
L 519.644026 374.064255 
L 524.344961 375.345068 
L 529.045895 376.424966 
L 533.74683 377.33119 
L 540.798232 378.417112 
L 547.849634 379.238672 
L 557.251504 380.034488 
L 569.003841 380.739449 
L 583.106645 381.441049 
L 583.106645 381.441049 
" clip-path="url(#p0ddefe1f81)" style="fill: none; stroke: #fcf500; stroke-width: 1.5; stroke-linecap: square"/>
   </g>
   <g id="line2d_16">
    <path d="M 115.363636 340.342874 
L 117.912746 339.992548 
L 120.461855 339.860787 
L 123.010964 339.936401 
L 125.560073 340.203525 
L 128.109182 340.642204 
L 130.658291 341.229125 
L 135.75651 342.742774 
L 143.403837 345.446731 
L 148.502056 347.232215 
L 153.600274 348.806041 
L 158.698492 350.058078 
L 163.796711 350.936574 
L 168.894929 351.44316 
L 173.993148 351.621164 
L 179.091366 351.540512 
L 186.738693 351.112408 
L 204.582458 349.909729 
L 212.229785 349.676878 
L 219.877113 349.716824 
L 227.52444 350.044739 
L 235.171768 350.643187 
L 242.819095 351.459272 
L 265.761078 354.100519 
L 270.859296 354.425574 
L 275.957515 354.536221 
L 281.055733 354.375365 
L 286.153952 353.887226 
L 291.25217 353.018176 
L 293.801279 352.424703 
L 296.350388 351.716931 
L 298.899497 350.888715 
L 301.448607 349.933927 
L 303.997716 348.846397 
L 306.546825 347.619833 
L 309.095934 346.247753 
L 311.645043 344.723402 
L 314.194153 343.039704 
L 316.743262 341.189213 
L 319.292371 339.164115 
L 321.84148 336.956261 
L 324.390589 334.557265 
L 326.939698 331.958657 
L 329.488808 329.152121 
L 332.037917 326.129802 
L 334.587026 322.884699 
L 337.136135 319.411139 
L 339.685244 315.705314 
L 342.234354 311.76589 
L 344.783463 307.594642 
L 349.881681 298.583296 
L 354.979899 288.772287 
L 360.078118 278.350603 
L 372.823664 251.746831 
L 375.372773 246.767181 
L 377.921882 242.04946 
L 380.470991 237.660709 
L 383.020101 233.667061 
L 385.56921 230.132082 
L 388.118319 227.115086 
L 390.667428 224.669482 
L 393.216537 222.841228 
L 395.765646 221.667453 
L 398.314756 221.17529 
L 400.863865 221.38099 
L 403.412974 222.289339 
L 405.962083 223.893418 
L 408.511192 226.174701 
L 411.060302 229.103503 
L 413.609411 232.639754 
L 416.15852 236.73407 
L 418.707629 241.329076 
L 421.256738 246.360927 
L 423.805847 251.760974 
L 428.904066 263.377519 
L 444.198721 299.741543 
L 449.296939 310.816426 
L 451.846048 315.974573 
L 454.395158 320.850011 
L 456.944267 325.429271 
L 459.493376 329.705478 
L 462.042485 333.677744 
L 464.591594 337.350467 
L 467.140704 340.732574 
L 469.689813 343.836732 
L 472.238922 346.678555 
L 474.788031 349.275836 
L 477.33714 351.647814 
L 479.886249 353.814509 
L 482.435359 355.796113 
L 484.984468 357.612473 
L 490.082686 360.824549 
L 495.180905 363.587875 
L 500.279123 366.014315 
L 505.377341 368.187522 
L 510.47556 370.163788 
L 518.122887 372.824849 
L 525.770215 375.149584 
L 530.868433 376.507825 
L 535.966651 377.704815 
L 541.06487 378.735771 
L 546.163088 379.60072 
L 551.261307 380.305756 
L 558.908634 381.09176 
L 566.555962 381.608916 
L 576.752398 382.01304 
L 597.145272 382.460721 
L 620.087254 383.074671 
L 622.636364 383.153689 
L 622.636364 383.153689 
" clip-path="url(#p0ddefe1f81)" style="fill: none; stroke: #08ff00; stroke-width: 1.5; stroke-linecap: square"/>
   </g>
   <g id="line2d_17">
    <path d="M 115.363636 346.373562 
L 117.840872 346.221137 
L 120.318108 346.27137 
L 122.795344 346.516859 
L 125.27258 346.946382 
L 127.749816 347.545301 
L 130.227052 348.296065 
L 135.181524 350.171997 
L 140.135996 352.39938 
L 154.999412 359.483931 
L 159.953884 361.541022 
L 164.908356 363.322335 
L 169.862828 364.810968 
L 174.8173 366.017979 
L 179.771772 366.971297 
L 184.726244 367.704721 
L 189.680716 368.248892 
L 194.635188 368.625457 
L 199.58966 368.844847 
L 204.544132 368.907396 
L 209.498604 368.806966 
L 214.453076 368.535944 
L 219.407548 368.090386 
L 224.36202 367.474239 
L 231.793728 366.264417 
L 239.225436 364.79683 
L 266.475032 359.116196 
L 286.29292 355.328029 
L 291.247392 354.17541 
L 296.201864 352.835506 
L 301.156336 351.255095 
L 306.110808 349.38378 
L 311.06528 347.174075 
L 316.019752 344.580372 
L 320.974224 341.557321 
L 325.928696 338.05848 
L 330.883168 334.036245 
L 335.83764 329.444094 
L 340.792112 324.241983 
L 345.746584 318.405237 
L 350.701056 311.936547 
L 355.655528 304.879831 
L 360.61 297.333818 
L 370.518944 281.499993 
L 375.473416 273.745705 
L 380.427888 266.550898 
L 382.905124 263.281389 
L 385.38236 260.294211 
L 387.859596 257.635707 
L 390.336832 255.349661 
L 392.814068 253.47614 
L 395.291304 252.050382 
L 397.76854 251.101797 
L 400.245776 250.653085 
L 402.723012 250.719543 
L 405.200248 251.308558 
L 407.677484 252.419331 
L 410.15472 254.042831 
L 412.631956 256.161983 
L 415.109192 258.752087 
L 417.586428 261.781449 
L 420.063664 265.212198 
L 422.5409 269.00126 
L 425.018136 273.101449 
L 429.972608 282.032939 
L 434.92708 291.591832 
L 444.836024 311.008991 
L 449.790496 320.201007 
L 454.744968 328.724347 
L 457.222204 332.687295 
L 459.69944 336.435181 
L 462.176676 339.9616 
L 464.653912 343.264072 
L 467.131148 346.343582 
L 469.608384 349.204067 
L 472.08562 351.851913 
L 474.562856 354.295451 
L 477.040092 356.544483 
L 479.517328 358.609846 
L 481.994564 360.503015 
L 484.4718 362.235769 
L 486.949036 363.819903 
L 491.903508 366.588239 
L 496.85798 368.895209 
L 501.812452 370.818488 
L 506.766924 372.424944 
L 511.721396 373.770852 
L 516.675868 374.902915 
L 521.63034 375.859566 
L 529.062048 377.03282 
L 536.493756 377.963426 
L 546.4027 378.929349 
L 558.78888 379.8367 
L 576.129532 380.816454 
L 608.3336 382.538914 
L 608.3336 382.538914 
" clip-path="url(#p0ddefe1f81)" style="fill: none; stroke: #00fff6; stroke-width: 1.5; stroke-linecap: square"/>
   </g>
   <g id="line2d_18">
    <path d="M 115.363636 335.810025 
L 117.843054 335.912398 
L 120.322471 336.291138 
L 122.801889 336.937581 
L 125.281306 337.838179 
L 127.760723 338.974856 
L 130.240141 340.325491 
L 132.719558 341.864505 
L 137.678393 345.392163 
L 142.637228 349.310837 
L 152.554898 357.312926 
L 157.513733 360.94632 
L 159.99315 362.592202 
L 162.472567 364.102487 
L 164.951985 365.465098 
L 167.431402 366.671309 
L 169.91082 367.715624 
L 172.390237 368.595599 
L 174.869654 369.311603 
L 177.349072 369.866547 
L 179.828489 370.265579 
L 182.307907 370.515766 
L 184.787324 370.62578 
L 187.266742 370.605575 
L 192.225576 370.218981 
L 197.184411 369.450425 
L 202.143246 368.397915 
L 209.581498 366.493359 
L 224.458003 362.494502 
L 231.896255 360.782398 
L 239.334507 359.391004 
L 246.77276 358.323118 
L 254.211012 357.51627 
L 276.525769 355.410654 
L 281.484604 354.724668 
L 286.443438 353.866378 
L 291.402273 352.796725 
L 296.361108 351.477824 
L 301.319943 349.871292 
L 306.278778 347.936211 
L 311.237613 345.627142 
L 316.196447 342.892726 
L 321.155282 339.675445 
L 323.6347 337.866405 
L 326.114117 335.913159 
L 328.593534 333.807845 
L 331.072952 331.542933 
L 333.552369 329.111491 
L 336.031787 326.507488 
L 338.511204 323.726138 
L 340.990622 320.764265 
L 343.470039 317.620694 
L 348.428874 310.796132 
L 353.387709 303.29789 
L 358.346544 295.226953 
L 365.784796 282.423994 
L 373.223048 269.543026 
L 378.181883 261.446646 
L 380.6613 257.681128 
L 383.140718 254.165998 
L 385.620135 250.946855 
L 388.099553 248.067447 
L 390.57897 245.568697 
L 393.058387 243.487755 
L 395.537805 241.857114 
L 398.017222 240.703814 
L 400.49664 240.048767 
L 402.976057 239.906224 
L 405.455475 240.2834 
L 407.934892 241.180273 
L 410.414309 242.589571 
L 412.893727 244.49693 
L 415.373144 246.881235 
L 417.852562 249.715122 
L 420.331979 252.96562 
L 422.811396 256.594926 
L 425.290814 260.561263 
L 427.770231 264.819815 
L 432.729066 274.024911 
L 437.687901 283.827584 
L 447.605571 303.777372 
L 452.564406 313.30909 
L 457.52324 322.236134 
L 462.482075 330.410491 
L 464.961493 334.186901 
L 467.44091 337.748294 
L 469.920327 341.092837 
L 472.399745 344.221494 
L 474.879162 347.137641 
L 477.35858 349.84668 
L 479.837997 352.355659 
L 482.317415 354.672918 
L 484.796832 356.807755 
L 487.276249 358.770128 
L 489.755667 360.570389 
L 492.235084 362.219057 
L 494.714502 363.726632 
L 499.673336 366.35948 
L 504.632171 368.547391 
L 509.591006 370.361751 
L 514.549841 371.865807 
L 519.508676 373.114609 
L 524.467511 374.155529 
L 531.905763 375.414008 
L 539.344015 376.406318 
L 549.261685 377.462203 
L 564.138189 378.755153 
L 598.850033 381.46264 
L 608.767703 382.168014 
L 608.767703 382.168014 
" clip-path="url(#p0ddefe1f81)" style="fill: none; stroke: #0010ff; stroke-width: 1.5; stroke-linecap: square"/>
   </g>
   <g id="line2d_19">
    <path d="M 115.363636 345.019371 
L 117.720086 345.064403 
L 120.076535 345.318653 
L 122.432985 345.77541 
L 124.789434 346.424361 
L 127.145884 347.251848 
L 129.502333 348.241222 
L 134.215232 350.626659 
L 138.928131 353.405089 
L 153.066828 362.205456 
L 157.779727 364.72951 
L 162.492626 366.841941 
L 164.849076 367.721688 
L 167.205525 368.477075 
L 169.561975 369.106092 
L 171.918424 369.608963 
L 174.274874 369.987962 
L 176.631323 370.24719 
L 181.344222 370.430478 
L 186.057121 370.219191 
L 190.77002 369.687665 
L 195.482919 368.917036 
L 202.552268 367.490354 
L 216.690965 364.529614 
L 223.760313 363.332413 
L 230.829662 362.431238 
L 237.89901 361.818594 
L 247.324808 361.328626 
L 261.463505 360.718352 
L 268.532854 360.175622 
L 273.245753 359.642626 
L 277.958652 358.940364 
L 282.671551 358.04866 
L 287.38445 356.953767 
L 292.097349 355.647102 
L 296.810248 354.123076 
L 301.523147 352.376187 
L 306.236046 350.39767 
L 310.948945 348.172157 
L 315.661844 345.674871 
L 320.374743 342.869938 
L 325.087642 339.710408 
L 329.800541 336.140455 
L 334.51344 332.100079 
L 339.226339 327.532348 
L 343.939238 322.392902 
L 348.652137 316.661029 
L 353.365036 310.351228 
L 358.077935 303.523829 
L 362.790834 296.292991 
L 376.929531 274.165935 
L 381.64243 267.543965 
L 383.998879 264.547893 
L 386.355329 261.81382 
L 388.711778 259.37885 
L 391.068228 257.277543 
L 393.424677 255.541121 
L 395.781127 254.196728 
L 398.137576 253.266773 
L 400.494026 252.768374 
L 402.850475 252.71293 
L 405.206925 253.10582 
L 407.563374 253.946266 
L 409.919824 255.227334 
L 412.276273 256.936096 
L 414.632723 259.053942 
L 416.989172 261.557017 
L 419.345622 264.416791 
L 421.702071 267.600724 
L 424.058521 271.073005 
L 426.41497 274.795353 
L 431.127869 282.829704 
L 438.197218 295.748194 
L 445.266566 308.802044 
L 449.979465 317.158635 
L 454.692364 325.019786 
L 459.405263 332.261364 
L 464.118162 338.812034 
L 468.831061 344.645856 
L 471.18751 347.295923 
L 473.54396 349.772739 
L 475.900409 352.081485 
L 478.256859 354.228356 
L 480.613308 356.220299 
L 485.326207 359.769589 
L 490.039106 362.791981 
L 494.752005 365.350625 
L 499.464904 367.506154 
L 504.177803 369.315116 
L 508.890702 370.829428 
L 513.603601 372.096404 
L 518.3165 373.159006 
L 525.385849 374.453578 
L 532.455197 375.488885 
L 541.880995 376.624139 
L 560.732591 378.580042 
L 584.297086 380.929093 
L 584.297086 380.929093 
" clip-path="url(#p0ddefe1f81)" style="fill: none; stroke: #ee00ff; stroke-width: 1.5; stroke-linecap: square"/>
   </g>
   <g id="patch_82">
    <path d="M 90 384.48 
L 90 51.84 
" style="fill: none; stroke: #000000; stroke-width: 0.8; stroke-linejoin: miter; stroke-linecap: square"/>
   </g>
   <g id="patch_83">
    <path d="M 648 384.48 
L 648 51.84 
" style="fill: none; stroke: #000000; stroke-width: 0.8; stroke-linejoin: miter; stroke-linecap: square"/>
   </g>
   <g id="patch_84">
    <path d="M 90 384.48 
L 648 384.48 
" style="fill: none; stroke: #000000; stroke-width: 0.8; stroke-linejoin: miter; stroke-linecap: square"/>
   </g>
   <g id="patch_85">
    <path d="M 90 51.84 
L 648 51.84 
" style="fill: none; stroke: #000000; stroke-width: 0.8; stroke-linejoin: miter; stroke-linecap: square"/>
   </g>
   <g id="text_17">
    <!-- Stacked Histogram of Avg Normalized Interplay  -->
    <g transform="translate(224.829375 32.402625) scale(0.12 -0.12)">
     <defs>
      <path id="DejaVuSans-53" d="M 3425 4513 
L 3425 3897 
Q 3066 4069 2747 4153 
Q 2428 4238 2131 4238 
Q 1616 4238 1336 4038 
Q 1056 3838 1056 3469 
Q 1056 3159 1242 3001 
Q 1428 2844 1947 2747 
L 2328 2669 
Q 3034 2534 3370 2195 
Q 3706 1856 3706 1288 
Q 3706 609 3251 259 
Q 2797 -91 1919 -91 
Q 1588 -91 1214 -16 
Q 841 59 441 206 
L 441 856 
Q 825 641 1194 531 
Q 1563 422 1919 422 
Q 2459 422 2753 634 
Q 3047 847 3047 1241 
Q 3047 1584 2836 1778 
Q 2625 1972 2144 2069 
L 1759 2144 
Q 1053 2284 737 2584 
Q 422 2884 422 3419 
Q 422 4038 858 4394 
Q 1294 4750 2059 4750 
Q 2388 4750 2728 4690 
Q 3069 4631 3425 4513 
z
" transform="scale(0.015625)"/>
      <path id="DejaVuSans-6b" d="M 581 4863 
L 1159 4863 
L 1159 1991 
L 2875 3500 
L 3609 3500 
L 1753 1863 
L 3688 0 
L 2938 0 
L 1159 1709 
L 1159 0 
L 581 0 
L 581 4863 
z
" transform="scale(0.015625)"/>
      <path id="DejaVuSans-48" d="M 628 4666 
L 1259 4666 
L 1259 2753 
L 3553 2753 
L 3553 4666 
L 4184 4666 
L 4184 0 
L 3553 0 
L 3553 2222 
L 1259 2222 
L 1259 0 
L 628 0 
L 628 4666 
z
" transform="scale(0.015625)"/>
      <path id="DejaVuSans-73" d="M 2834 3397 
L 2834 2853 
Q 2591 2978 2328 3040 
Q 2066 3103 1784 3103 
Q 1356 3103 1142 2972 
Q 928 2841 928 2578 
Q 928 2378 1081 2264 
Q 1234 2150 1697 2047 
L 1894 2003 
Q 2506 1872 2764 1633 
Q 3022 1394 3022 966 
Q 3022 478 2636 193 
Q 2250 -91 1575 -91 
Q 1294 -91 989 -36 
Q 684 19 347 128 
L 347 722 
Q 666 556 975 473 
Q 1284 391 1588 391 
Q 1994 391 2212 530 
Q 2431 669 2431 922 
Q 2431 1156 2273 1281 
Q 2116 1406 1581 1522 
L 1381 1569 
Q 847 1681 609 1914 
Q 372 2147 372 2553 
Q 372 3047 722 3315 
Q 1072 3584 1716 3584 
Q 2034 3584 2315 3537 
Q 2597 3491 2834 3397 
z
" transform="scale(0.015625)"/>
      <path id="DejaVuSans-66" d="M 2375 4863 
L 2375 4384 
L 1825 4384 
Q 1516 4384 1395 4259 
Q 1275 4134 1275 3809 
L 1275 3500 
L 2222 3500 
L 2222 3053 
L 1275 3053 
L 1275 0 
L 697 0 
L 697 3053 
L 147 3053 
L 147 3500 
L 697 3500 
L 697 3744 
Q 697 4328 969 4595 
Q 1241 4863 1831 4863 
L 2375 4863 
z
" transform="scale(0.015625)"/>
     </defs>
     <use xlink:href="#DejaVuSans-53"/>
     <use xlink:href="#DejaVuSans-74" x="63.476562"/>
     <use xlink:href="#DejaVuSans-61" x="102.685547"/>
     <use xlink:href="#DejaVuSans-63" x="163.964844"/>
     <use xlink:href="#DejaVuSans-6b" x="218.945312"/>
     <use xlink:href="#DejaVuSans-65" x="273.230469"/>
     <use xlink:href="#DejaVuSans-64" x="334.753906"/>
     <use xlink:href="#DejaVuSans-20" x="398.230469"/>
     <use xlink:href="#DejaVuSans-48" x="430.017578"/>
     <use xlink:href="#DejaVuSans-69" x="505.212891"/>
     <use xlink:href="#DejaVuSans-73" x="532.996094"/>
     <use xlink:href="#DejaVuSans-74" x="585.095703"/>
     <use xlink:href="#DejaVuSans-6f" x="624.304688"/>
     <use xlink:href="#DejaVuSans-67" x="685.486328"/>
     <use xlink:href="#DejaVuSans-72" x="748.962891"/>
     <use xlink:href="#DejaVuSans-61" x="790.076172"/>
     <use xlink:href="#DejaVuSans-6d" x="851.355469"/>
     <use xlink:href="#DejaVuSans-20" x="948.767578"/>
     <use xlink:href="#DejaVuSans-6f" x="980.554688"/>
     <use xlink:href="#DejaVuSans-66" x="1041.736328"/>
     <use xlink:href="#DejaVuSans-20" x="1076.941406"/>
     <use xlink:href="#DejaVuSans-41" x="1108.728516"/>
     <use xlink:href="#DejaVuSans-76" x="1171.261719"/>
     <use xlink:href="#DejaVuSans-67" x="1230.441406"/>
     <use xlink:href="#DejaVuSans-20" x="1293.917969"/>
     <use xlink:href="#DejaVuSans-4e" x="1325.705078"/>
     <use xlink:href="#DejaVuSans-6f" x="1400.509766"/>
     <use xlink:href="#DejaVuSans-72" x="1461.691406"/>
     <use xlink:href="#DejaVuSans-6d" x="1501.054688"/>
     <use xlink:href="#DejaVuSans-61" x="1598.466797"/>
     <use xlink:href="#DejaVuSans-6c" x="1659.746094"/>
     <use xlink:href="#DejaVuSans-69" x="1687.529297"/>
     <use xlink:href="#DejaVuSans-7a" x="1715.3125"/>
     <use xlink:href="#DejaVuSans-65" x="1767.802734"/>
     <use xlink:href="#DejaVuSans-64" x="1829.326172"/>
     <use xlink:href="#DejaVuSans-20" x="1892.802734"/>
     <use xlink:href="#DejaVuSans-49" x="1924.589844"/>
     <use xlink:href="#DejaVuSans-6e" x="1954.082031"/>
     <use xlink:href="#DejaVuSans-74" x="2017.460938"/>
     <use xlink:href="#DejaVuSans-65" x="2056.669922"/>
     <use xlink:href="#DejaVuSans-72" x="2118.193359"/>
     <use xlink:href="#DejaVuSans-70" x="2159.306641"/>
     <use xlink:href="#DejaVuSans-6c" x="2222.783203"/>
     <use xlink:href="#DejaVuSans-61" x="2250.566406"/>
     <use xlink:href="#DejaVuSans-79" x="2311.845703"/>
     <use xlink:href="#DejaVuSans-20" x="2371.025391"/>
    </g>
    <!-- for H3.3 PTMs in kidney across ages -->
    <g transform="translate(260.670938 45.84) scale(0.12 -0.12)">
     <defs>
      <path id="DejaVuSans-33" d="M 2597 2516 
Q 3050 2419 3304 2112 
Q 3559 1806 3559 1356 
Q 3559 666 3084 287 
Q 2609 -91 1734 -91 
Q 1441 -91 1130 -33 
Q 819 25 488 141 
L 488 750 
Q 750 597 1062 519 
Q 1375 441 1716 441 
Q 2309 441 2620 675 
Q 2931 909 2931 1356 
Q 2931 1769 2642 2001 
Q 2353 2234 1838 2234 
L 1294 2234 
L 1294 2753 
L 1863 2753 
Q 2328 2753 2575 2939 
Q 2822 3125 2822 3475 
Q 2822 3834 2567 4026 
Q 2313 4219 1838 4219 
Q 1578 4219 1281 4162 
Q 984 4106 628 3988 
L 628 4550 
Q 988 4650 1302 4700 
Q 1616 4750 1894 4750 
Q 2613 4750 3031 4423 
Q 3450 4097 3450 3541 
Q 3450 3153 3228 2886 
Q 3006 2619 2597 2516 
z
" transform="scale(0.015625)"/>
      <path id="DejaVuSans-50" d="M 1259 4147 
L 1259 2394 
L 2053 2394 
Q 2494 2394 2734 2622 
Q 2975 2850 2975 3272 
Q 2975 3691 2734 3919 
Q 2494 4147 2053 4147 
L 1259 4147 
z
M 628 4666 
L 2053 4666 
Q 2838 4666 3239 4311 
Q 3641 3956 3641 3272 
Q 3641 2581 3239 2228 
Q 2838 1875 2053 1875 
L 1259 1875 
L 1259 0 
L 628 0 
L 628 4666 
z
" transform="scale(0.015625)"/>
      <path id="DejaVuSans-54" d="M -19 4666 
L 3928 4666 
L 3928 4134 
L 2272 4134 
L 2272 0 
L 1638 0 
L 1638 4134 
L -19 4134 
L -19 4666 
z
" transform="scale(0.015625)"/>
      <path id="DejaVuSans-4d" d="M 628 4666 
L 1569 4666 
L 2759 1491 
L 3956 4666 
L 4897 4666 
L 4897 0 
L 4281 0 
L 4281 4097 
L 3078 897 
L 2444 897 
L 1241 4097 
L 1241 0 
L 628 0 
L 628 4666 
z
" transform="scale(0.015625)"/>
     </defs>
     <use xlink:href="#DejaVuSans-66"/>
     <use xlink:href="#DejaVuSans-6f" x="35.205078"/>
     <use xlink:href="#DejaVuSans-72" x="96.386719"/>
     <use xlink:href="#DejaVuSans-20" x="137.5"/>
     <use xlink:href="#DejaVuSans-48" x="169.287109"/>
     <use xlink:href="#DejaVuSans-33" x="244.482422"/>
     <use xlink:href="#DejaVuSans-2e" x="308.105469"/>
     <use xlink:href="#DejaVuSans-33" x="339.892578"/>
     <use xlink:href="#DejaVuSans-20" x="403.515625"/>
     <use xlink:href="#DejaVuSans-50" x="435.302734"/>
     <use xlink:href="#DejaVuSans-54" x="495.605469"/>
     <use xlink:href="#DejaVuSans-4d" x="556.689453"/>
     <use xlink:href="#DejaVuSans-73" x="642.96875"/>
     <use xlink:href="#DejaVuSans-20" x="695.068359"/>
     <use xlink:href="#DejaVuSans-69" x="726.855469"/>
     <use xlink:href="#DejaVuSans-6e" x="754.638672"/>
     <use xlink:href="#DejaVuSans-20" x="818.017578"/>
     <use xlink:href="#DejaVuSans-6b" x="849.804688"/>
     <use xlink:href="#DejaVuSans-69" x="907.714844"/>
     <use xlink:href="#DejaVuSans-64" x="935.498047"/>
     <use xlink:href="#DejaVuSans-6e" x="998.974609"/>
     <use xlink:href="#DejaVuSans-65" x="1062.353516"/>
     <use xlink:href="#DejaVuSans-79" x="1123.876953"/>
     <use xlink:href="#DejaVuSans-20" x="1183.056641"/>
     <use xlink:href="#DejaVuSans-61" x="1214.84375"/>
     <use xlink:href="#DejaVuSans-63" x="1276.123047"/>
     <use xlink:href="#DejaVuSans-72" x="1331.103516"/>
     <use xlink:href="#DejaVuSans-6f" x="1369.966797"/>
     <use xlink:href="#DejaVuSans-73" x="1431.148438"/>
     <use xlink:href="#DejaVuSans-73" x="1483.248047"/>
     <use xlink:href="#DejaVuSans-20" x="1535.347656"/>
     <use xlink:href="#DejaVuSans-61" x="1567.134766"/>
     <use xlink:href="#DejaVuSans-67" x="1628.414062"/>
     <use xlink:href="#DejaVuSans-65" x="1691.890625"/>
     <use xlink:href="#DejaVuSans-73" x="1753.414062"/>
    </g>
   </g>
   <g id="legend_1">
    <g id="patch_86">
     <path d="M 555.432812 147.90875 
L 641 147.90875 
Q 643 147.90875 643 145.90875 
L 643 58.84 
Q 643 56.84 641 56.84 
L 555.432812 56.84 
Q 553.432812 56.84 553.432812 58.84 
L 553.432812 145.90875 
Q 553.432812 147.90875 555.432812 147.90875 
z
" style="fill: #ffffff; opacity: 0.8; stroke: #cccccc; stroke-linejoin: miter"/>
    </g>
    <g id="text_18">
     <!-- Age -->
     <g transform="translate(588.545312 68.438437) scale(0.1 -0.1)">
      <use xlink:href="#DejaVuSans-41"/>
      <use xlink:href="#DejaVuSans-67" x="68.408203"/>
      <use xlink:href="#DejaVuSans-65" x="131.884766"/>
     </g>
    </g>
    <g id="patch_87">
     <path d="M 557.432812 83.116562 
L 577.432812 83.116562 
L 577.432812 76.116562 
L 557.432812 76.116562 
z
" style="fill: #fcf500; fill-opacity: 0.175; stroke: #000000; stroke-linejoin: miter"/>
    </g>
    <g id="text_19">
     <!-- 3 months -->
     <g transform="translate(585.432812 83.116562) scale(0.1 -0.1)">
      <defs>
       <path id="DejaVuSans-68" d="M 3513 2113 
L 3513 0 
L 2938 0 
L 2938 2094 
Q 2938 2591 2744 2837 
Q 2550 3084 2163 3084 
Q 1697 3084 1428 2787 
Q 1159 2491 1159 1978 
L 1159 0 
L 581 0 
L 581 4863 
L 1159 4863 
L 1159 2956 
Q 1366 3272 1645 3428 
Q 1925 3584 2291 3584 
Q 2894 3584 3203 3211 
Q 3513 2838 3513 2113 
z
" transform="scale(0.015625)"/>
      </defs>
      <use xlink:href="#DejaVuSans-33"/>
      <use xlink:href="#DejaVuSans-20" x="63.623047"/>
      <use xlink:href="#DejaVuSans-6d" x="95.410156"/>
      <use xlink:href="#DejaVuSans-6f" x="192.822266"/>
      <use xlink:href="#DejaVuSans-6e" x="254.003906"/>
      <use xlink:href="#DejaVuSans-74" x="317.382812"/>
      <use xlink:href="#DejaVuSans-68" x="356.591797"/>
      <use xlink:href="#DejaVuSans-73" x="419.970703"/>
     </g>
    </g>
    <g id="patch_88">
     <path d="M 557.432812 97.794688 
L 577.432812 97.794688 
L 577.432812 90.794688 
L 557.432812 90.794688 
z
" style="fill: #08ff00; fill-opacity: 0.175; stroke: #000000; stroke-linejoin: miter"/>
    </g>
    <g id="text_20">
     <!-- 5 months -->
     <g transform="translate(585.432812 97.794688) scale(0.1 -0.1)">
      <use xlink:href="#DejaVuSans-35"/>
      <use xlink:href="#DejaVuSans-20" x="63.623047"/>
      <use xlink:href="#DejaVuSans-6d" x="95.410156"/>
      <use xlink:href="#DejaVuSans-6f" x="192.822266"/>
      <use xlink:href="#DejaVuSans-6e" x="254.003906"/>
      <use xlink:href="#DejaVuSans-74" x="317.382812"/>
      <use xlink:href="#DejaVuSans-68" x="356.591797"/>
      <use xlink:href="#DejaVuSans-73" x="419.970703"/>
     </g>
    </g>
    <g id="patch_89">
     <path d="M 557.432812 112.472812 
L 577.432812 112.472812 
L 577.432812 105.472812 
L 557.432812 105.472812 
z
" style="fill: #00fff6; fill-opacity: 0.175; stroke: #000000; stroke-linejoin: miter"/>
    </g>
    <g id="text_21">
     <!-- 10 months -->
     <g transform="translate(585.432812 112.472812) scale(0.1 -0.1)">
      <use xlink:href="#DejaVuSans-31"/>
      <use xlink:href="#DejaVuSans-30" x="63.623047"/>
      <use xlink:href="#DejaVuSans-20" x="127.246094"/>
      <use xlink:href="#DejaVuSans-6d" x="159.033203"/>
      <use xlink:href="#DejaVuSans-6f" x="256.445312"/>
      <use xlink:href="#DejaVuSans-6e" x="317.626953"/>
      <use xlink:href="#DejaVuSans-74" x="381.005859"/>
      <use xlink:href="#DejaVuSans-68" x="420.214844"/>
      <use xlink:href="#DejaVuSans-73" x="483.59375"/>
     </g>
    </g>
    <g id="patch_90">
     <path d="M 557.432812 127.150937 
L 577.432812 127.150937 
L 577.432812 120.150937 
L 557.432812 120.150937 
z
" style="fill: #0010ff; fill-opacity: 0.175; stroke: #000000; stroke-linejoin: miter"/>
    </g>
    <g id="text_22">
     <!-- 18 months -->
     <g transform="translate(585.432812 127.150937) scale(0.1 -0.1)">
      <defs>
       <path id="DejaVuSans-38" d="M 2034 2216 
Q 1584 2216 1326 1975 
Q 1069 1734 1069 1313 
Q 1069 891 1326 650 
Q 1584 409 2034 409 
Q 2484 409 2743 651 
Q 3003 894 3003 1313 
Q 3003 1734 2745 1975 
Q 2488 2216 2034 2216 
z
M 1403 2484 
Q 997 2584 770 2862 
Q 544 3141 544 3541 
Q 544 4100 942 4425 
Q 1341 4750 2034 4750 
Q 2731 4750 3128 4425 
Q 3525 4100 3525 3541 
Q 3525 3141 3298 2862 
Q 3072 2584 2669 2484 
Q 3125 2378 3379 2068 
Q 3634 1759 3634 1313 
Q 3634 634 3220 271 
Q 2806 -91 2034 -91 
Q 1263 -91 848 271 
Q 434 634 434 1313 
Q 434 1759 690 2068 
Q 947 2378 1403 2484 
z
M 1172 3481 
Q 1172 3119 1398 2916 
Q 1625 2713 2034 2713 
Q 2441 2713 2670 2916 
Q 2900 3119 2900 3481 
Q 2900 3844 2670 4047 
Q 2441 4250 2034 4250 
Q 1625 4250 1398 4047 
Q 1172 3844 1172 3481 
z
" transform="scale(0.015625)"/>
      </defs>
      <use xlink:href="#DejaVuSans-31"/>
      <use xlink:href="#DejaVuSans-38" x="63.623047"/>
      <use xlink:href="#DejaVuSans-20" x="127.246094"/>
      <use xlink:href="#DejaVuSans-6d" x="159.033203"/>
      <use xlink:href="#DejaVuSans-6f" x="256.445312"/>
      <use xlink:href="#DejaVuSans-6e" x="317.626953"/>
      <use xlink:href="#DejaVuSans-74" x="381.005859"/>
      <use xlink:href="#DejaVuSans-68" x="420.214844"/>
      <use xlink:href="#DejaVuSans-73" x="483.59375"/>
     </g>
    </g>
    <g id="patch_91">
     <path d="M 557.432812 141.829062 
L 577.432812 141.829062 
L 577.432812 134.829062 
L 557.432812 134.829062 
z
" style="fill: #ee00ff; fill-opacity: 0.175; stroke: #000000; stroke-linejoin: miter"/>
    </g>
    <g id="text_23">
     <!-- 24 months -->
     <g transform="translate(585.432812 141.829062) scale(0.1 -0.1)">
      <defs>
       <path id="DejaVuSans-34" d="M 2419 4116 
L 825 1625 
L 2419 1625 
L 2419 4116 
z
M 2253 4666 
L 3047 4666 
L 3047 1625 
L 3713 1625 
L 3713 1100 
L 3047 1100 
L 3047 0 
L 2419 0 
L 2419 1100 
L 313 1100 
L 313 1709 
L 2253 4666 
z
" transform="scale(0.015625)"/>
      </defs>
      <use xlink:href="#DejaVuSans-32"/>
      <use xlink:href="#DejaVuSans-34" x="63.623047"/>
      <use xlink:href="#DejaVuSans-20" x="127.246094"/>
      <use xlink:href="#DejaVuSans-6d" x="159.033203"/>
      <use xlink:href="#DejaVuSans-6f" x="256.445312"/>
      <use xlink:href="#DejaVuSans-6e" x="317.626953"/>
      <use xlink:href="#DejaVuSans-74" x="381.005859"/>
      <use xlink:href="#DejaVuSans-68" x="420.214844"/>
      <use xlink:href="#DejaVuSans-73" x="483.59375"/>
     </g>
    </g>
   </g>
  </g>
 </g>
 <defs>
  <clipPath id="p0ddefe1f81">
   <rect x="90" y="51.84" width="558" height="332.64"/>
  </clipPath>
 </defs>
</svg>
