<?xml version="1.0" encoding="utf-8" standalone="no"?>
<!DOCTYPE svg PUBLIC "-//W3C//DTD SVG 1.1//EN"
  "http://www.w3.org/Graphics/SVG/1.1/DTD/svg11.dtd">
<svg xmlns:xlink="http://www.w3.org/1999/xlink" width="720pt" height="432pt" viewBox="0 0 720 432" xmlns="http://www.w3.org/2000/svg" version="1.1">
 <metadata>
  <rdf:RDF xmlns:dc="http://purl.org/dc/elements/1.1/" xmlns:cc="http://creativecommons.org/ns#" xmlns:rdf="http://www.w3.org/1999/02/22-rdf-syntax-ns#">
   <cc:Work>
    <dc:type rdf:resource="http://purl.org/dc/dcmitype/StillImage"/>
    <dc:date>2024-04-24T19:58:40.673923</dc:date>
    <dc:format>image/svg+xml</dc:format>
    <dc:creator>
     <cc:Agent>
      <dc:title>Matplotlib v3.8.0, https://matplotlib.org/</dc:title>
     </cc:Agent>
    </dc:creator>
   </cc:Work>
  </rdf:RDF>
 </metadata>
 <defs>
  <style type="text/css">*{stroke-linejoin: round; stroke-linecap: butt}</style>
 </defs>
 <g id="figure_1">
  <g id="patch_1">
   <path d="M 0 432 
L 720 432 
L 720 0 
L 0 0 
L 0 432 
z
" style="fill: none; opacity: 0"/>
  </g>
  <g id="axes_1">
   <g id="patch_2">
    <path d="M 90 384.48 
L 648 384.48 
L 648 51.84 
L 90 51.84 
L 90 384.48 
z
" style="fill: none"/>
   </g>
   <g id="patch_3">
    <path d="M 115.363636 384.48 
L 150.782131 384.48 
L 150.782131 271.9872 
L 115.363636 271.9872 
z
" clip-path="url(#paae0251685)" style="fill: #fcf500; fill-opacity: 0.175; stroke: #000000; stroke-linejoin: miter"/>
   </g>
   <g id="patch_4">
    <path d="M 150.782131 384.48 
L 186.200626 384.48 
L 186.200626 362.7072 
L 150.782131 362.7072 
z
" clip-path="url(#paae0251685)" style="fill: #fcf500; fill-opacity: 0.175; stroke: #000000; stroke-linejoin: miter"/>
   </g>
   <g id="patch_5">
    <path d="M 186.200626 384.48 
L 221.619121 384.48 
L 221.619121 338.5152 
L 186.200626 338.5152 
z
" clip-path="url(#paae0251685)" style="fill: #fcf500; fill-opacity: 0.175; stroke: #000000; stroke-linejoin: miter"/>
   </g>
   <g id="patch_6">
    <path d="M 221.619121 384.48 
L 257.037615 384.48 
L 257.037615 361.4976 
L 221.619121 361.4976 
z
" clip-path="url(#paae0251685)" style="fill: #fcf500; fill-opacity: 0.175; stroke: #000000; stroke-linejoin: miter"/>
   </g>
   <g id="patch_7">
    <path d="M 257.037615 384.48 
L 292.45611 384.48 
L 292.45611 348.192 
L 257.037615 348.192 
z
" clip-path="url(#paae0251685)" style="fill: #fcf500; fill-opacity: 0.175; stroke: #000000; stroke-linejoin: miter"/>
   </g>
   <g id="patch_8">
    <path d="M 292.45611 384.48 
L 327.874605 384.48 
L 327.874605 355.4496 
L 292.45611 355.4496 
z
" clip-path="url(#paae0251685)" style="fill: #fcf500; fill-opacity: 0.175; stroke: #000000; stroke-linejoin: miter"/>
   </g>
   <g id="patch_9">
    <path d="M 327.874605 384.48 
L 363.293099 384.48 
L 363.293099 328.8384 
L 327.874605 328.8384 
z
" clip-path="url(#paae0251685)" style="fill: #fcf500; fill-opacity: 0.175; stroke: #000000; stroke-linejoin: miter"/>
   </g>
   <g id="patch_10">
    <path d="M 363.293099 384.48 
L 398.711594 384.48 
L 398.711594 235.6992 
L 363.293099 235.6992 
z
" clip-path="url(#paae0251685)" style="fill: #fcf500; fill-opacity: 0.175; stroke: #000000; stroke-linejoin: miter"/>
   </g>
   <g id="patch_11">
    <path d="M 398.711594 384.48 
L 434.130089 384.48 
L 434.130089 144.9792 
L 398.711594 144.9792 
z
" clip-path="url(#paae0251685)" style="fill: #fcf500; fill-opacity: 0.175; stroke: #000000; stroke-linejoin: miter"/>
   </g>
   <g id="patch_12">
    <path d="M 434.130089 384.48 
L 469.548584 384.48 
L 469.548584 344.5632 
L 434.130089 344.5632 
z
" clip-path="url(#paae0251685)" style="fill: #fcf500; fill-opacity: 0.175; stroke: #000000; stroke-linejoin: miter"/>
   </g>
   <g id="patch_13">
    <path d="M 469.548584 384.48 
L 504.967078 384.48 
L 504.967078 373.5936 
L 469.548584 373.5936 
z
" clip-path="url(#paae0251685)" style="fill: #fcf500; fill-opacity: 0.175; stroke: #000000; stroke-linejoin: miter"/>
   </g>
   <g id="patch_14">
    <path d="M 504.967078 384.48 
L 540.385573 384.48 
L 540.385573 373.5936 
L 504.967078 373.5936 
z
" clip-path="url(#paae0251685)" style="fill: #fcf500; fill-opacity: 0.175; stroke: #000000; stroke-linejoin: miter"/>
   </g>
   <g id="patch_15">
    <path d="M 540.385573 384.48 
L 575.804068 384.48 
L 575.804068 383.2704 
L 540.385573 383.2704 
z
" clip-path="url(#paae0251685)" style="fill: #fcf500; fill-opacity: 0.175; stroke: #000000; stroke-linejoin: miter"/>
   </g>
   <g id="patch_16">
    <path d="M 575.804068 384.48 
L 611.222562 384.48 
L 611.222562 382.0608 
L 575.804068 382.0608 
z
" clip-path="url(#paae0251685)" style="fill: #fcf500; fill-opacity: 0.175; stroke: #000000; stroke-linejoin: miter"/>
   </g>
   <g id="patch_17">
    <path d="M 115.363636 384.48 
L 148.799334 384.48 
L 148.799334 280.4544 
L 115.363636 280.4544 
z
" clip-path="url(#paae0251685)" style="fill: #08ff00; fill-opacity: 0.175; stroke: #000000; stroke-linejoin: miter"/>
   </g>
   <g id="patch_18">
    <path d="M 148.799334 384.48 
L 182.235031 384.48 
L 182.235031 356.6592 
L 148.799334 356.6592 
z
" clip-path="url(#paae0251685)" style="fill: #08ff00; fill-opacity: 0.175; stroke: #000000; stroke-linejoin: miter"/>
   </g>
   <g id="patch_19">
    <path d="M 182.235031 384.48 
L 215.670728 384.48 
L 215.670728 350.6112 
L 182.235031 350.6112 
z
" clip-path="url(#paae0251685)" style="fill: #08ff00; fill-opacity: 0.175; stroke: #000000; stroke-linejoin: miter"/>
   </g>
   <g id="patch_20">
    <path d="M 215.670728 384.48 
L 249.106425 384.48 
L 249.106425 359.0784 
L 215.670728 359.0784 
z
" clip-path="url(#paae0251685)" style="fill: #08ff00; fill-opacity: 0.175; stroke: #000000; stroke-linejoin: miter"/>
   </g>
   <g id="patch_21">
    <path d="M 249.106425 384.48 
L 282.542123 384.48 
L 282.542123 357.8688 
L 249.106425 357.8688 
z
" clip-path="url(#paae0251685)" style="fill: #08ff00; fill-opacity: 0.175; stroke: #000000; stroke-linejoin: miter"/>
   </g>
   <g id="patch_22">
    <path d="M 282.542123 384.48 
L 315.97782 384.48 
L 315.97782 346.9824 
L 282.542123 346.9824 
z
" clip-path="url(#paae0251685)" style="fill: #08ff00; fill-opacity: 0.175; stroke: #000000; stroke-linejoin: miter"/>
   </g>
   <g id="patch_23">
    <path d="M 315.97782 384.48 
L 349.413517 384.48 
L 349.413517 342.144 
L 315.97782 342.144 
z
" clip-path="url(#paae0251685)" style="fill: #08ff00; fill-opacity: 0.175; stroke: #000000; stroke-linejoin: miter"/>
   </g>
   <g id="patch_24">
    <path d="M 349.413517 384.48 
L 382.849215 384.48 
L 382.849215 310.6944 
L 349.413517 310.6944 
z
" clip-path="url(#paae0251685)" style="fill: #08ff00; fill-opacity: 0.175; stroke: #000000; stroke-linejoin: miter"/>
   </g>
   <g id="patch_25">
    <path d="M 382.849215 384.48 
L 416.284912 384.48 
L 416.284912 91.7568 
L 382.849215 91.7568 
z
" clip-path="url(#paae0251685)" style="fill: #08ff00; fill-opacity: 0.175; stroke: #000000; stroke-linejoin: miter"/>
   </g>
   <g id="patch_26">
    <path d="M 416.284912 384.48 
L 449.720609 384.48 
L 449.720609 315.5328 
L 416.284912 315.5328 
z
" clip-path="url(#paae0251685)" style="fill: #08ff00; fill-opacity: 0.175; stroke: #000000; stroke-linejoin: miter"/>
   </g>
   <g id="patch_27">
    <path d="M 449.720609 384.48 
L 483.156306 384.48 
L 483.156306 359.0784 
L 449.720609 359.0784 
z
" clip-path="url(#paae0251685)" style="fill: #08ff00; fill-opacity: 0.175; stroke: #000000; stroke-linejoin: miter"/>
   </g>
   <g id="patch_28">
    <path d="M 483.156306 384.48 
L 516.592004 384.48 
L 516.592004 373.5936 
L 483.156306 373.5936 
z
" clip-path="url(#paae0251685)" style="fill: #08ff00; fill-opacity: 0.175; stroke: #000000; stroke-linejoin: miter"/>
   </g>
   <g id="patch_29">
    <path d="M 516.592004 384.48 
L 550.027701 384.48 
L 550.027701 380.8512 
L 516.592004 380.8512 
z
" clip-path="url(#paae0251685)" style="fill: #08ff00; fill-opacity: 0.175; stroke: #000000; stroke-linejoin: miter"/>
   </g>
   <g id="patch_30">
    <path d="M 550.027701 384.48 
L 583.463398 384.48 
L 583.463398 382.0608 
L 550.027701 382.0608 
z
" clip-path="url(#paae0251685)" style="fill: #08ff00; fill-opacity: 0.175; stroke: #000000; stroke-linejoin: miter"/>
   </g>
   <g id="patch_31">
    <path d="M 583.463398 384.48 
L 616.899096 384.48 
L 616.899096 382.0608 
L 583.463398 382.0608 
z
" clip-path="url(#paae0251685)" style="fill: #08ff00; fill-opacity: 0.175; stroke: #000000; stroke-linejoin: miter"/>
   </g>
   <g id="patch_32">
    <path d="M 115.363636 384.48 
L 144.767992 384.48 
L 144.767992 298.5984 
L 115.363636 298.5984 
z
" clip-path="url(#paae0251685)" style="fill: #00fff6; fill-opacity: 0.175; stroke: #000000; stroke-linejoin: miter"/>
   </g>
   <g id="patch_33">
    <path d="M 144.767992 384.48 
L 174.172348 384.48 
L 174.172348 369.9648 
L 144.767992 369.9648 
z
" clip-path="url(#paae0251685)" style="fill: #00fff6; fill-opacity: 0.175; stroke: #000000; stroke-linejoin: miter"/>
   </g>
   <g id="patch_34">
    <path d="M 174.172348 384.48 
L 203.576704 384.48 
L 203.576704 356.6592 
L 174.172348 356.6592 
z
" clip-path="url(#paae0251685)" style="fill: #00fff6; fill-opacity: 0.175; stroke: #000000; stroke-linejoin: miter"/>
   </g>
   <g id="patch_35">
    <path d="M 203.576704 384.48 
L 232.98106 384.48 
L 232.98106 365.1264 
L 203.576704 365.1264 
z
" clip-path="url(#paae0251685)" style="fill: #00fff6; fill-opacity: 0.175; stroke: #000000; stroke-linejoin: miter"/>
   </g>
   <g id="patch_36">
    <path d="M 232.98106 384.48 
L 262.385415 384.48 
L 262.385415 355.4496 
L 232.98106 355.4496 
z
" clip-path="url(#paae0251685)" style="fill: #00fff6; fill-opacity: 0.175; stroke: #000000; stroke-linejoin: miter"/>
   </g>
   <g id="patch_37">
    <path d="M 262.385415 384.48 
L 291.789771 384.48 
L 291.789771 351.8208 
L 262.385415 351.8208 
z
" clip-path="url(#paae0251685)" style="fill: #00fff6; fill-opacity: 0.175; stroke: #000000; stroke-linejoin: miter"/>
   </g>
   <g id="patch_38">
    <path d="M 291.789771 384.48 
L 321.194127 384.48 
L 321.194127 360.288 
L 291.789771 360.288 
z
" clip-path="url(#paae0251685)" style="fill: #00fff6; fill-opacity: 0.175; stroke: #000000; stroke-linejoin: miter"/>
   </g>
   <g id="patch_39">
    <path d="M 321.194127 384.48 
L 350.598483 384.48 
L 350.598483 339.7248 
L 321.194127 339.7248 
z
" clip-path="url(#paae0251685)" style="fill: #00fff6; fill-opacity: 0.175; stroke: #000000; stroke-linejoin: miter"/>
   </g>
   <g id="patch_40">
    <path d="M 350.598483 384.48 
L 380.002839 384.48 
L 380.002839 311.904 
L 350.598483 311.904 
z
" clip-path="url(#paae0251685)" style="fill: #00fff6; fill-opacity: 0.175; stroke: #000000; stroke-linejoin: miter"/>
   </g>
   <g id="patch_41">
    <path d="M 380.002839 384.48 
L 409.407195 384.48 
L 409.407195 128.0448 
L 380.002839 128.0448 
z
" clip-path="url(#paae0251685)" style="fill: #00fff6; fill-opacity: 0.175; stroke: #000000; stroke-linejoin: miter"/>
   </g>
   <g id="patch_42">
    <path d="M 409.407195 384.48 
L 438.81155 384.48 
L 438.81155 287.712 
L 409.407195 287.712 
z
" clip-path="url(#paae0251685)" style="fill: #00fff6; fill-opacity: 0.175; stroke: #000000; stroke-linejoin: miter"/>
   </g>
   <g id="patch_43">
    <path d="M 438.81155 384.48 
L 468.215906 384.48 
L 468.215906 348.192 
L 438.81155 348.192 
z
" clip-path="url(#paae0251685)" style="fill: #00fff6; fill-opacity: 0.175; stroke: #000000; stroke-linejoin: miter"/>
   </g>
   <g id="patch_44">
    <path d="M 468.215906 384.48 
L 497.620262 384.48 
L 497.620262 366.336 
L 468.215906 366.336 
z
" clip-path="url(#paae0251685)" style="fill: #00fff6; fill-opacity: 0.175; stroke: #000000; stroke-linejoin: miter"/>
   </g>
   <g id="patch_45">
    <path d="M 497.620262 384.48 
L 527.024618 384.48 
L 527.024618 376.0128 
L 497.620262 376.0128 
z
" clip-path="url(#paae0251685)" style="fill: #00fff6; fill-opacity: 0.175; stroke: #000000; stroke-linejoin: miter"/>
   </g>
   <g id="patch_46">
    <path d="M 527.024618 384.48 
L 556.428974 384.48 
L 556.428974 382.0608 
L 527.024618 382.0608 
z
" clip-path="url(#paae0251685)" style="fill: #00fff6; fill-opacity: 0.175; stroke: #000000; stroke-linejoin: miter"/>
   </g>
   <g id="patch_47">
    <path d="M 556.428974 384.48 
L 585.83333 384.48 
L 585.83333 379.6416 
L 556.428974 379.6416 
z
" clip-path="url(#paae0251685)" style="fill: #00fff6; fill-opacity: 0.175; stroke: #000000; stroke-linejoin: miter"/>
   </g>
   <g id="patch_48">
    <path d="M 585.83333 384.48 
L 615.237685 384.48 
L 615.237685 380.8512 
L 585.83333 380.8512 
z
" clip-path="url(#paae0251685)" style="fill: #00fff6; fill-opacity: 0.175; stroke: #000000; stroke-linejoin: miter"/>
   </g>
   <g id="patch_49">
    <path d="M 115.363636 384.48 
L 147.068182 384.48 
L 147.068182 265.9392 
L 115.363636 265.9392 
z
" clip-path="url(#paae0251685)" style="fill: #0010ff; fill-opacity: 0.175; stroke: #000000; stroke-linejoin: miter"/>
   </g>
   <g id="patch_50">
    <path d="M 147.068182 384.48 
L 178.772727 384.48 
L 178.772727 380.8512 
L 147.068182 380.8512 
z
" clip-path="url(#paae0251685)" style="fill: #0010ff; fill-opacity: 0.175; stroke: #000000; stroke-linejoin: miter"/>
   </g>
   <g id="patch_51">
    <path d="M 178.772727 384.48 
L 210.477273 384.48 
L 210.477273 376.0128 
L 178.772727 376.0128 
z
" clip-path="url(#paae0251685)" style="fill: #0010ff; fill-opacity: 0.175; stroke: #000000; stroke-linejoin: miter"/>
   </g>
   <g id="patch_52">
    <path d="M 210.477273 384.48 
L 242.181818 384.48 
L 242.181818 339.7248 
L 210.477273 339.7248 
z
" clip-path="url(#paae0251685)" style="fill: #0010ff; fill-opacity: 0.175; stroke: #000000; stroke-linejoin: miter"/>
   </g>
   <g id="patch_53">
    <path d="M 242.181818 384.48 
L 273.886364 384.48 
L 273.886364 361.4976 
L 242.181818 361.4976 
z
" clip-path="url(#paae0251685)" style="fill: #0010ff; fill-opacity: 0.175; stroke: #000000; stroke-linejoin: miter"/>
   </g>
   <g id="patch_54">
    <path d="M 273.886364 384.48 
L 305.590909 384.48 
L 305.590909 365.1264 
L 273.886364 365.1264 
z
" clip-path="url(#paae0251685)" style="fill: #0010ff; fill-opacity: 0.175; stroke: #000000; stroke-linejoin: miter"/>
   </g>
   <g id="patch_55">
    <path d="M 305.590909 384.48 
L 337.295455 384.48 
L 337.295455 363.9168 
L 305.590909 363.9168 
z
" clip-path="url(#paae0251685)" style="fill: #0010ff; fill-opacity: 0.175; stroke: #000000; stroke-linejoin: miter"/>
   </g>
   <g id="patch_56">
    <path d="M 337.295455 384.48 
L 369 384.48 
L 369 310.6944 
L 337.295455 310.6944 
z
" clip-path="url(#paae0251685)" style="fill: #0010ff; fill-opacity: 0.175; stroke: #000000; stroke-linejoin: miter"/>
   </g>
   <g id="patch_57">
    <path d="M 369 384.48 
L 400.704545 384.48 
L 400.704545 232.0704 
L 369 232.0704 
z
" clip-path="url(#paae0251685)" style="fill: #0010ff; fill-opacity: 0.175; stroke: #000000; stroke-linejoin: miter"/>
   </g>
   <g id="patch_58">
    <path d="M 400.704545 384.48 
L 432.409091 384.48 
L 432.409091 172.8 
L 400.704545 172.8 
z
" clip-path="url(#paae0251685)" style="fill: #0010ff; fill-opacity: 0.175; stroke: #000000; stroke-linejoin: miter"/>
   </g>
   <g id="patch_59">
    <path d="M 432.409091 384.48 
L 464.113636 384.48 
L 464.113636 331.2576 
L 432.409091 331.2576 
z
" clip-path="url(#paae0251685)" style="fill: #0010ff; fill-opacity: 0.175; stroke: #000000; stroke-linejoin: miter"/>
   </g>
   <g id="patch_60">
    <path d="M 464.113636 384.48 
L 495.818182 384.48 
L 495.818182 362.7072 
L 464.113636 362.7072 
z
" clip-path="url(#paae0251685)" style="fill: #0010ff; fill-opacity: 0.175; stroke: #000000; stroke-linejoin: miter"/>
   </g>
   <g id="patch_61">
    <path d="M 495.818182 384.48 
L 527.522727 384.48 
L 527.522727 371.1744 
L 495.818182 371.1744 
z
" clip-path="url(#paae0251685)" style="fill: #0010ff; fill-opacity: 0.175; stroke: #000000; stroke-linejoin: miter"/>
   </g>
   <g id="patch_62">
    <path d="M 527.522727 384.48 
L 559.227273 384.48 
L 559.227273 377.2224 
L 527.522727 377.2224 
z
" clip-path="url(#paae0251685)" style="fill: #0010ff; fill-opacity: 0.175; stroke: #000000; stroke-linejoin: miter"/>
   </g>
   <g id="patch_63">
    <path d="M 559.227273 384.48 
L 590.931818 384.48 
L 590.931818 382.0608 
L 559.227273 382.0608 
z
" clip-path="url(#paae0251685)" style="fill: #0010ff; fill-opacity: 0.175; stroke: #000000; stroke-linejoin: miter"/>
   </g>
   <g id="patch_64">
    <path d="M 590.931818 384.48 
L 622.636364 384.48 
L 622.636364 380.8512 
L 590.931818 380.8512 
z
" clip-path="url(#paae0251685)" style="fill: #0010ff; fill-opacity: 0.175; stroke: #000000; stroke-linejoin: miter"/>
   </g>
   <g id="patch_65">
    <path d="M 115.363636 384.48 
L 138.020272 384.48 
L 138.020272 284.0832 
L 115.363636 284.0832 
z
" clip-path="url(#paae0251685)" style="fill: #ee00ff; fill-opacity: 0.175; stroke: #000000; stroke-linejoin: miter"/>
   </g>
   <g id="patch_66">
    <path d="M 138.020272 384.48 
L 160.676908 384.48 
L 160.676908 384.48 
L 138.020272 384.48 
z
" clip-path="url(#paae0251685)" style="fill: #ee00ff; fill-opacity: 0.175; stroke: #000000; stroke-linejoin: miter"/>
   </g>
   <g id="patch_67">
    <path d="M 160.676908 384.48 
L 183.333544 384.48 
L 183.333544 384.48 
L 160.676908 384.48 
z
" clip-path="url(#paae0251685)" style="fill: #ee00ff; fill-opacity: 0.175; stroke: #000000; stroke-linejoin: miter"/>
   </g>
   <g id="patch_68">
    <path d="M 183.333544 384.48 
L 205.99018 384.48 
L 205.99018 382.0608 
L 183.333544 382.0608 
z
" clip-path="url(#paae0251685)" style="fill: #ee00ff; fill-opacity: 0.175; stroke: #000000; stroke-linejoin: miter"/>
   </g>
   <g id="patch_69">
    <path d="M 205.99018 384.48 
L 228.646815 384.48 
L 228.646815 363.9168 
L 205.99018 363.9168 
z
" clip-path="url(#paae0251685)" style="fill: #ee00ff; fill-opacity: 0.175; stroke: #000000; stroke-linejoin: miter"/>
   </g>
   <g id="patch_70">
    <path d="M 228.646815 384.48 
L 251.303451 384.48 
L 251.303451 360.288 
L 228.646815 360.288 
z
" clip-path="url(#paae0251685)" style="fill: #ee00ff; fill-opacity: 0.175; stroke: #000000; stroke-linejoin: miter"/>
   </g>
   <g id="patch_71">
    <path d="M 251.303451 384.48 
L 273.960087 384.48 
L 273.960087 363.9168 
L 251.303451 363.9168 
z
" clip-path="url(#paae0251685)" style="fill: #ee00ff; fill-opacity: 0.175; stroke: #000000; stroke-linejoin: miter"/>
   </g>
   <g id="patch_72">
    <path d="M 273.960087 384.48 
L 296.616723 384.48 
L 296.616723 368.7552 
L 273.960087 368.7552 
z
" clip-path="url(#paae0251685)" style="fill: #ee00ff; fill-opacity: 0.175; stroke: #000000; stroke-linejoin: miter"/>
   </g>
   <g id="patch_73">
    <path d="M 296.616723 384.48 
L 319.273359 384.48 
L 319.273359 363.9168 
L 296.616723 363.9168 
z
" clip-path="url(#paae0251685)" style="fill: #ee00ff; fill-opacity: 0.175; stroke: #000000; stroke-linejoin: miter"/>
   </g>
   <g id="patch_74">
    <path d="M 319.273359 384.48 
L 341.929995 384.48 
L 341.929995 348.192 
L 319.273359 348.192 
z
" clip-path="url(#paae0251685)" style="fill: #ee00ff; fill-opacity: 0.175; stroke: #000000; stroke-linejoin: miter"/>
   </g>
   <g id="patch_75">
    <path d="M 341.929995 384.48 
L 364.58663 384.48 
L 364.58663 326.4192 
L 341.929995 326.4192 
z
" clip-path="url(#paae0251685)" style="fill: #ee00ff; fill-opacity: 0.175; stroke: #000000; stroke-linejoin: miter"/>
   </g>
   <g id="patch_76">
    <path d="M 364.58663 384.48 
L 387.243266 384.48 
L 387.243266 310.6944 
L 364.58663 310.6944 
z
" clip-path="url(#paae0251685)" style="fill: #ee00ff; fill-opacity: 0.175; stroke: #000000; stroke-linejoin: miter"/>
   </g>
   <g id="patch_77">
    <path d="M 387.243266 384.48 
L 409.899902 384.48 
L 409.899902 190.944 
L 387.243266 190.944 
z
" clip-path="url(#paae0251685)" style="fill: #ee00ff; fill-opacity: 0.175; stroke: #000000; stroke-linejoin: miter"/>
   </g>
   <g id="patch_78">
    <path d="M 409.899902 384.48 
L 432.556538 384.48 
L 432.556538 281.664 
L 409.899902 281.664 
z
" clip-path="url(#paae0251685)" style="fill: #ee00ff; fill-opacity: 0.175; stroke: #000000; stroke-linejoin: miter"/>
   </g>
   <g id="patch_79">
    <path d="M 432.556538 384.48 
L 455.213174 384.48 
L 455.213174 332.4672 
L 432.556538 332.4672 
z
" clip-path="url(#paae0251685)" style="fill: #ee00ff; fill-opacity: 0.175; stroke: #000000; stroke-linejoin: miter"/>
   </g>
   <g id="patch_80">
    <path d="M 455.213174 384.48 
L 477.86981 384.48 
L 477.86981 362.7072 
L 455.213174 362.7072 
z
" clip-path="url(#paae0251685)" style="fill: #ee00ff; fill-opacity: 0.175; stroke: #000000; stroke-linejoin: miter"/>
   </g>
   <g id="patch_81">
    <path d="M 477.86981 384.48 
L 500.526445 384.48 
L 500.526445 376.0128 
L 477.86981 376.0128 
z
" clip-path="url(#paae0251685)" style="fill: #ee00ff; fill-opacity: 0.175; stroke: #000000; stroke-linejoin: miter"/>
   </g>
   <g id="patch_82">
    <path d="M 500.526445 384.48 
L 523.183081 384.48 
L 523.183081 376.0128 
L 500.526445 376.0128 
z
" clip-path="url(#paae0251685)" style="fill: #ee00ff; fill-opacity: 0.175; stroke: #000000; stroke-linejoin: miter"/>
   </g>
   <g id="patch_83">
    <path d="M 523.183081 384.48 
L 545.839717 384.48 
L 545.839717 378.432 
L 523.183081 378.432 
z
" clip-path="url(#paae0251685)" style="fill: #ee00ff; fill-opacity: 0.175; stroke: #000000; stroke-linejoin: miter"/>
   </g>
   <g id="patch_84">
    <path d="M 545.839717 384.48 
L 568.496353 384.48 
L 568.496353 376.0128 
L 545.839717 376.0128 
z
" clip-path="url(#paae0251685)" style="fill: #ee00ff; fill-opacity: 0.175; stroke: #000000; stroke-linejoin: miter"/>
   </g>
   <g id="patch_85">
    <path d="M 568.496353 384.48 
L 591.152989 384.48 
L 591.152989 382.0608 
L 568.496353 382.0608 
z
" clip-path="url(#paae0251685)" style="fill: #ee00ff; fill-opacity: 0.175; stroke: #000000; stroke-linejoin: miter"/>
   </g>
   <g id="patch_86">
    <path d="M 591.152989 384.48 
L 613.809624 384.48 
L 613.809624 383.2704 
L 591.152989 383.2704 
z
" clip-path="url(#paae0251685)" style="fill: #ee00ff; fill-opacity: 0.175; stroke: #000000; stroke-linejoin: miter"/>
   </g>
   <g id="matplotlib.axis_1">
    <g id="xtick_1">
     <g id="line2d_1">
      <defs>
       <path id="mefe63d775b" d="M 0 0 
L 0 3.5 
" style="stroke: #000000; stroke-width: 0.8"/>
      </defs>
      <g>
       <use xlink:href="#mefe63d775b" x="115.363636" y="384.48" style="stroke: #000000; stroke-width: 0.8"/>
      </g>
     </g>
     <g id="text_1">
      <!-- −1.00 -->
      <g transform="translate(100.04098 399.078438) scale(0.1 -0.1)">
       <defs>
        <path id="DejaVuSans-2212" d="M 678 2272 
L 4684 2272 
L 4684 1741 
L 678 1741 
L 678 2272 
z
" transform="scale(0.015625)"/>
        <path id="DejaVuSans-31" d="M 794 531 
L 1825 531 
L 1825 4091 
L 703 3866 
L 703 4441 
L 1819 4666 
L 2450 4666 
L 2450 531 
L 3481 531 
L 3481 0 
L 794 0 
L 794 531 
z
" transform="scale(0.015625)"/>
        <path id="DejaVuSans-2e" d="M 684 794 
L 1344 794 
L 1344 0 
L 684 0 
L 684 794 
z
" transform="scale(0.015625)"/>
        <path id="DejaVuSans-30" d="M 2034 4250 
Q 1547 4250 1301 3770 
Q 1056 3291 1056 2328 
Q 1056 1369 1301 889 
Q 1547 409 2034 409 
Q 2525 409 2770 889 
Q 3016 1369 3016 2328 
Q 3016 3291 2770 3770 
Q 2525 4250 2034 4250 
z
M 2034 4750 
Q 2819 4750 3233 4129 
Q 3647 3509 3647 2328 
Q 3647 1150 3233 529 
Q 2819 -91 2034 -91 
Q 1250 -91 836 529 
Q 422 1150 422 2328 
Q 422 3509 836 4129 
Q 1250 4750 2034 4750 
z
" transform="scale(0.015625)"/>
       </defs>
       <use xlink:href="#DejaVuSans-2212"/>
       <use xlink:href="#DejaVuSans-31" x="83.789062"/>
       <use xlink:href="#DejaVuSans-2e" x="147.412109"/>
       <use xlink:href="#DejaVuSans-30" x="179.199219"/>
       <use xlink:href="#DejaVuSans-30" x="242.822266"/>
      </g>
     </g>
    </g>
    <g id="xtick_2">
     <g id="line2d_2">
      <g>
       <use xlink:href="#mefe63d775b" x="186.561553" y="384.48" style="stroke: #000000; stroke-width: 0.8"/>
      </g>
     </g>
     <g id="text_2">
      <!-- −0.75 -->
      <g transform="translate(171.238897 399.078438) scale(0.1 -0.1)">
       <defs>
        <path id="DejaVuSans-37" d="M 525 4666 
L 3525 4666 
L 3525 4397 
L 1831 0 
L 1172 0 
L 2766 4134 
L 525 4134 
L 525 4666 
z
" transform="scale(0.015625)"/>
        <path id="DejaVuSans-35" d="M 691 4666 
L 3169 4666 
L 3169 4134 
L 1269 4134 
L 1269 2991 
Q 1406 3038 1543 3061 
Q 1681 3084 1819 3084 
Q 2600 3084 3056 2656 
Q 3513 2228 3513 1497 
Q 3513 744 3044 326 
Q 2575 -91 1722 -91 
Q 1428 -91 1123 -41 
Q 819 9 494 109 
L 494 744 
Q 775 591 1075 516 
Q 1375 441 1709 441 
Q 2250 441 2565 725 
Q 2881 1009 2881 1497 
Q 2881 1984 2565 2268 
Q 2250 2553 1709 2553 
Q 1456 2553 1204 2497 
Q 953 2441 691 2322 
L 691 4666 
z
" transform="scale(0.015625)"/>
       </defs>
       <use xlink:href="#DejaVuSans-2212"/>
       <use xlink:href="#DejaVuSans-30" x="83.789062"/>
       <use xlink:href="#DejaVuSans-2e" x="147.412109"/>
       <use xlink:href="#DejaVuSans-37" x="179.199219"/>
       <use xlink:href="#DejaVuSans-35" x="242.822266"/>
      </g>
     </g>
    </g>
    <g id="xtick_3">
     <g id="line2d_3">
      <g>
       <use xlink:href="#mefe63d775b" x="257.75947" y="384.48" style="stroke: #000000; stroke-width: 0.8"/>
      </g>
     </g>
     <g id="text_3">
      <!-- −0.50 -->
      <g transform="translate(242.436814 399.078438) scale(0.1 -0.1)">
       <use xlink:href="#DejaVuSans-2212"/>
       <use xlink:href="#DejaVuSans-30" x="83.789062"/>
       <use xlink:href="#DejaVuSans-2e" x="147.412109"/>
       <use xlink:href="#DejaVuSans-35" x="179.199219"/>
       <use xlink:href="#DejaVuSans-30" x="242.822266"/>
      </g>
     </g>
    </g>
    <g id="xtick_4">
     <g id="line2d_4">
      <g>
       <use xlink:href="#mefe63d775b" x="328.957387" y="384.48" style="stroke: #000000; stroke-width: 0.8"/>
      </g>
     </g>
     <g id="text_4">
      <!-- −0.25 -->
      <g transform="translate(313.63473 399.078438) scale(0.1 -0.1)">
       <defs>
        <path id="DejaVuSans-32" d="M 1228 531 
L 3431 531 
L 3431 0 
L 469 0 
L 469 531 
Q 828 903 1448 1529 
Q 2069 2156 2228 2338 
Q 2531 2678 2651 2914 
Q 2772 3150 2772 3378 
Q 2772 3750 2511 3984 
Q 2250 4219 1831 4219 
Q 1534 4219 1204 4116 
Q 875 4013 500 3803 
L 500 4441 
Q 881 4594 1212 4672 
Q 1544 4750 1819 4750 
Q 2544 4750 2975 4387 
Q 3406 4025 3406 3419 
Q 3406 3131 3298 2873 
Q 3191 2616 2906 2266 
Q 2828 2175 2409 1742 
Q 1991 1309 1228 531 
z
" transform="scale(0.015625)"/>
       </defs>
       <use xlink:href="#DejaVuSans-2212"/>
       <use xlink:href="#DejaVuSans-30" x="83.789062"/>
       <use xlink:href="#DejaVuSans-2e" x="147.412109"/>
       <use xlink:href="#DejaVuSans-32" x="179.199219"/>
       <use xlink:href="#DejaVuSans-35" x="242.822266"/>
      </g>
     </g>
    </g>
    <g id="xtick_5">
     <g id="line2d_5">
      <g>
       <use xlink:href="#mefe63d775b" x="400.155303" y="384.48" style="stroke: #000000; stroke-width: 0.8"/>
      </g>
     </g>
     <g id="text_5">
      <!-- 0.00 -->
      <g transform="translate(389.022491 399.078438) scale(0.1 -0.1)">
       <use xlink:href="#DejaVuSans-30"/>
       <use xlink:href="#DejaVuSans-2e" x="63.623047"/>
       <use xlink:href="#DejaVuSans-30" x="95.410156"/>
       <use xlink:href="#DejaVuSans-30" x="159.033203"/>
      </g>
     </g>
    </g>
    <g id="xtick_6">
     <g id="line2d_6">
      <g>
       <use xlink:href="#mefe63d775b" x="471.35322" y="384.48" style="stroke: #000000; stroke-width: 0.8"/>
      </g>
     </g>
     <g id="text_6">
      <!-- 0.25 -->
      <g transform="translate(460.220408 399.078438) scale(0.1 -0.1)">
       <use xlink:href="#DejaVuSans-30"/>
       <use xlink:href="#DejaVuSans-2e" x="63.623047"/>
       <use xlink:href="#DejaVuSans-32" x="95.410156"/>
       <use xlink:href="#DejaVuSans-35" x="159.033203"/>
      </g>
     </g>
    </g>
    <g id="xtick_7">
     <g id="line2d_7">
      <g>
       <use xlink:href="#mefe63d775b" x="542.551137" y="384.48" style="stroke: #000000; stroke-width: 0.8"/>
      </g>
     </g>
     <g id="text_7">
      <!-- 0.50 -->
      <g transform="translate(531.418325 399.078438) scale(0.1 -0.1)">
       <use xlink:href="#DejaVuSans-30"/>
       <use xlink:href="#DejaVuSans-2e" x="63.623047"/>
       <use xlink:href="#DejaVuSans-35" x="95.410156"/>
       <use xlink:href="#DejaVuSans-30" x="159.033203"/>
      </g>
     </g>
    </g>
    <g id="xtick_8">
     <g id="line2d_8">
      <g>
       <use xlink:href="#mefe63d775b" x="613.749054" y="384.48" style="stroke: #000000; stroke-width: 0.8"/>
      </g>
     </g>
     <g id="text_8">
      <!-- 0.75 -->
      <g transform="translate(602.616241 399.078438) scale(0.1 -0.1)">
       <use xlink:href="#DejaVuSans-30"/>
       <use xlink:href="#DejaVuSans-2e" x="63.623047"/>
       <use xlink:href="#DejaVuSans-37" x="95.410156"/>
       <use xlink:href="#DejaVuSans-35" x="159.033203"/>
      </g>
     </g>
    </g>
    <g id="text_9">
     <!-- Avg Normalized Interplay -->
     <g transform="translate(305.883594 412.756563) scale(0.1 -0.1)">
      <defs>
       <path id="DejaVuSans-41" d="M 2188 4044 
L 1331 1722 
L 3047 1722 
L 2188 4044 
z
M 1831 4666 
L 2547 4666 
L 4325 0 
L 3669 0 
L 3244 1197 
L 1141 1197 
L 716 0 
L 50 0 
L 1831 4666 
z
" transform="scale(0.015625)"/>
       <path id="DejaVuSans-76" d="M 191 3500 
L 800 3500 
L 1894 563 
L 2988 3500 
L 3597 3500 
L 2284 0 
L 1503 0 
L 191 3500 
z
" transform="scale(0.015625)"/>
       <path id="DejaVuSans-67" d="M 2906 1791 
Q 2906 2416 2648 2759 
Q 2391 3103 1925 3103 
Q 1463 3103 1205 2759 
Q 947 2416 947 1791 
Q 947 1169 1205 825 
Q 1463 481 1925 481 
Q 2391 481 2648 825 
Q 2906 1169 2906 1791 
z
M 3481 434 
Q 3481 -459 3084 -895 
Q 2688 -1331 1869 -1331 
Q 1566 -1331 1297 -1286 
Q 1028 -1241 775 -1147 
L 775 -588 
Q 1028 -725 1275 -790 
Q 1522 -856 1778 -856 
Q 2344 -856 2625 -561 
Q 2906 -266 2906 331 
L 2906 616 
Q 2728 306 2450 153 
Q 2172 0 1784 0 
Q 1141 0 747 490 
Q 353 981 353 1791 
Q 353 2603 747 3093 
Q 1141 3584 1784 3584 
Q 2172 3584 2450 3431 
Q 2728 3278 2906 2969 
L 2906 3500 
L 3481 3500 
L 3481 434 
z
" transform="scale(0.015625)"/>
       <path id="DejaVuSans-20" transform="scale(0.015625)"/>
       <path id="DejaVuSans-4e" d="M 628 4666 
L 1478 4666 
L 3547 763 
L 3547 4666 
L 4159 4666 
L 4159 0 
L 3309 0 
L 1241 3903 
L 1241 0 
L 628 0 
L 628 4666 
z
" transform="scale(0.015625)"/>
       <path id="DejaVuSans-6f" d="M 1959 3097 
Q 1497 3097 1228 2736 
Q 959 2375 959 1747 
Q 959 1119 1226 758 
Q 1494 397 1959 397 
Q 2419 397 2687 759 
Q 2956 1122 2956 1747 
Q 2956 2369 2687 2733 
Q 2419 3097 1959 3097 
z
M 1959 3584 
Q 2709 3584 3137 3096 
Q 3566 2609 3566 1747 
Q 3566 888 3137 398 
Q 2709 -91 1959 -91 
Q 1206 -91 779 398 
Q 353 888 353 1747 
Q 353 2609 779 3096 
Q 1206 3584 1959 3584 
z
" transform="scale(0.015625)"/>
       <path id="DejaVuSans-72" d="M 2631 2963 
Q 2534 3019 2420 3045 
Q 2306 3072 2169 3072 
Q 1681 3072 1420 2755 
Q 1159 2438 1159 1844 
L 1159 0 
L 581 0 
L 581 3500 
L 1159 3500 
L 1159 2956 
Q 1341 3275 1631 3429 
Q 1922 3584 2338 3584 
Q 2397 3584 2469 3576 
Q 2541 3569 2628 3553 
L 2631 2963 
z
" transform="scale(0.015625)"/>
       <path id="DejaVuSans-6d" d="M 3328 2828 
Q 3544 3216 3844 3400 
Q 4144 3584 4550 3584 
Q 5097 3584 5394 3201 
Q 5691 2819 5691 2113 
L 5691 0 
L 5113 0 
L 5113 2094 
Q 5113 2597 4934 2840 
Q 4756 3084 4391 3084 
Q 3944 3084 3684 2787 
Q 3425 2491 3425 1978 
L 3425 0 
L 2847 0 
L 2847 2094 
Q 2847 2600 2669 2842 
Q 2491 3084 2119 3084 
Q 1678 3084 1418 2786 
Q 1159 2488 1159 1978 
L 1159 0 
L 581 0 
L 581 3500 
L 1159 3500 
L 1159 2956 
Q 1356 3278 1631 3431 
Q 1906 3584 2284 3584 
Q 2666 3584 2933 3390 
Q 3200 3197 3328 2828 
z
" transform="scale(0.015625)"/>
       <path id="DejaVuSans-61" d="M 2194 1759 
Q 1497 1759 1228 1600 
Q 959 1441 959 1056 
Q 959 750 1161 570 
Q 1363 391 1709 391 
Q 2188 391 2477 730 
Q 2766 1069 2766 1631 
L 2766 1759 
L 2194 1759 
z
M 3341 1997 
L 3341 0 
L 2766 0 
L 2766 531 
Q 2569 213 2275 61 
Q 1981 -91 1556 -91 
Q 1019 -91 701 211 
Q 384 513 384 1019 
Q 384 1609 779 1909 
Q 1175 2209 1959 2209 
L 2766 2209 
L 2766 2266 
Q 2766 2663 2505 2880 
Q 2244 3097 1772 3097 
Q 1472 3097 1187 3025 
Q 903 2953 641 2809 
L 641 3341 
Q 956 3463 1253 3523 
Q 1550 3584 1831 3584 
Q 2591 3584 2966 3190 
Q 3341 2797 3341 1997 
z
" transform="scale(0.015625)"/>
       <path id="DejaVuSans-6c" d="M 603 4863 
L 1178 4863 
L 1178 0 
L 603 0 
L 603 4863 
z
" transform="scale(0.015625)"/>
       <path id="DejaVuSans-69" d="M 603 3500 
L 1178 3500 
L 1178 0 
L 603 0 
L 603 3500 
z
M 603 4863 
L 1178 4863 
L 1178 4134 
L 603 4134 
L 603 4863 
z
" transform="scale(0.015625)"/>
       <path id="DejaVuSans-7a" d="M 353 3500 
L 3084 3500 
L 3084 2975 
L 922 459 
L 3084 459 
L 3084 0 
L 275 0 
L 275 525 
L 2438 3041 
L 353 3041 
L 353 3500 
z
" transform="scale(0.015625)"/>
       <path id="DejaVuSans-65" d="M 3597 1894 
L 3597 1613 
L 953 1613 
Q 991 1019 1311 708 
Q 1631 397 2203 397 
Q 2534 397 2845 478 
Q 3156 559 3463 722 
L 3463 178 
Q 3153 47 2828 -22 
Q 2503 -91 2169 -91 
Q 1331 -91 842 396 
Q 353 884 353 1716 
Q 353 2575 817 3079 
Q 1281 3584 2069 3584 
Q 2775 3584 3186 3129 
Q 3597 2675 3597 1894 
z
M 3022 2063 
Q 3016 2534 2758 2815 
Q 2500 3097 2075 3097 
Q 1594 3097 1305 2825 
Q 1016 2553 972 2059 
L 3022 2063 
z
" transform="scale(0.015625)"/>
       <path id="DejaVuSans-64" d="M 2906 2969 
L 2906 4863 
L 3481 4863 
L 3481 0 
L 2906 0 
L 2906 525 
Q 2725 213 2448 61 
Q 2172 -91 1784 -91 
Q 1150 -91 751 415 
Q 353 922 353 1747 
Q 353 2572 751 3078 
Q 1150 3584 1784 3584 
Q 2172 3584 2448 3432 
Q 2725 3281 2906 2969 
z
M 947 1747 
Q 947 1113 1208 752 
Q 1469 391 1925 391 
Q 2381 391 2643 752 
Q 2906 1113 2906 1747 
Q 2906 2381 2643 2742 
Q 2381 3103 1925 3103 
Q 1469 3103 1208 2742 
Q 947 2381 947 1747 
z
" transform="scale(0.015625)"/>
       <path id="DejaVuSans-49" d="M 628 4666 
L 1259 4666 
L 1259 0 
L 628 0 
L 628 4666 
z
" transform="scale(0.015625)"/>
       <path id="DejaVuSans-6e" d="M 3513 2113 
L 3513 0 
L 2938 0 
L 2938 2094 
Q 2938 2591 2744 2837 
Q 2550 3084 2163 3084 
Q 1697 3084 1428 2787 
Q 1159 2491 1159 1978 
L 1159 0 
L 581 0 
L 581 3500 
L 1159 3500 
L 1159 2956 
Q 1366 3272 1645 3428 
Q 1925 3584 2291 3584 
Q 2894 3584 3203 3211 
Q 3513 2838 3513 2113 
z
" transform="scale(0.015625)"/>
       <path id="DejaVuSans-74" d="M 1172 4494 
L 1172 3500 
L 2356 3500 
L 2356 3053 
L 1172 3053 
L 1172 1153 
Q 1172 725 1289 603 
Q 1406 481 1766 481 
L 2356 481 
L 2356 0 
L 1766 0 
Q 1100 0 847 248 
Q 594 497 594 1153 
L 594 3053 
L 172 3053 
L 172 3500 
L 594 3500 
L 594 4494 
L 1172 4494 
z
" transform="scale(0.015625)"/>
       <path id="DejaVuSans-70" d="M 1159 525 
L 1159 -1331 
L 581 -1331 
L 581 3500 
L 1159 3500 
L 1159 2969 
Q 1341 3281 1617 3432 
Q 1894 3584 2278 3584 
Q 2916 3584 3314 3078 
Q 3713 2572 3713 1747 
Q 3713 922 3314 415 
Q 2916 -91 2278 -91 
Q 1894 -91 1617 61 
Q 1341 213 1159 525 
z
M 3116 1747 
Q 3116 2381 2855 2742 
Q 2594 3103 2138 3103 
Q 1681 3103 1420 2742 
Q 1159 2381 1159 1747 
Q 1159 1113 1420 752 
Q 1681 391 2138 391 
Q 2594 391 2855 752 
Q 3116 1113 3116 1747 
z
" transform="scale(0.015625)"/>
       <path id="DejaVuSans-79" d="M 2059 -325 
Q 1816 -950 1584 -1140 
Q 1353 -1331 966 -1331 
L 506 -1331 
L 506 -850 
L 844 -850 
Q 1081 -850 1212 -737 
Q 1344 -625 1503 -206 
L 1606 56 
L 191 3500 
L 800 3500 
L 1894 763 
L 2988 3500 
L 3597 3500 
L 2059 -325 
z
" transform="scale(0.015625)"/>
      </defs>
      <use xlink:href="#DejaVuSans-41"/>
      <use xlink:href="#DejaVuSans-76" x="62.533203"/>
      <use xlink:href="#DejaVuSans-67" x="121.712891"/>
      <use xlink:href="#DejaVuSans-20" x="185.189453"/>
      <use xlink:href="#DejaVuSans-4e" x="216.976562"/>
      <use xlink:href="#DejaVuSans-6f" x="291.78125"/>
      <use xlink:href="#DejaVuSans-72" x="352.962891"/>
      <use xlink:href="#DejaVuSans-6d" x="392.326172"/>
      <use xlink:href="#DejaVuSans-61" x="489.738281"/>
      <use xlink:href="#DejaVuSans-6c" x="551.017578"/>
      <use xlink:href="#DejaVuSans-69" x="578.800781"/>
      <use xlink:href="#DejaVuSans-7a" x="606.583984"/>
      <use xlink:href="#DejaVuSans-65" x="659.074219"/>
      <use xlink:href="#DejaVuSans-64" x="720.597656"/>
      <use xlink:href="#DejaVuSans-20" x="784.074219"/>
      <use xlink:href="#DejaVuSans-49" x="815.861328"/>
      <use xlink:href="#DejaVuSans-6e" x="845.353516"/>
      <use xlink:href="#DejaVuSans-74" x="908.732422"/>
      <use xlink:href="#DejaVuSans-65" x="947.941406"/>
      <use xlink:href="#DejaVuSans-72" x="1009.464844"/>
      <use xlink:href="#DejaVuSans-70" x="1050.578125"/>
      <use xlink:href="#DejaVuSans-6c" x="1114.054688"/>
      <use xlink:href="#DejaVuSans-61" x="1141.837891"/>
      <use xlink:href="#DejaVuSans-79" x="1203.117188"/>
     </g>
    </g>
   </g>
   <g id="matplotlib.axis_2">
    <g id="ytick_1">
     <g id="line2d_9">
      <defs>
       <path id="m83262f3f4b" d="M 0 0 
L -3.5 0 
" style="stroke: #000000; stroke-width: 0.8"/>
      </defs>
      <g>
       <use xlink:href="#m83262f3f4b" x="90" y="384.48" style="stroke: #000000; stroke-width: 0.8"/>
      </g>
     </g>
     <g id="text_10">
      <!-- 0 -->
      <g transform="translate(76.6375 388.279219) scale(0.1 -0.1)">
       <use xlink:href="#DejaVuSans-30"/>
      </g>
     </g>
    </g>
    <g id="ytick_2">
     <g id="line2d_10">
      <g>
       <use xlink:href="#m83262f3f4b" x="90" y="324" style="stroke: #000000; stroke-width: 0.8"/>
      </g>
     </g>
     <g id="text_11">
      <!-- 50 -->
      <g transform="translate(70.275 327.799219) scale(0.1 -0.1)">
       <use xlink:href="#DejaVuSans-35"/>
       <use xlink:href="#DejaVuSans-30" x="63.623047"/>
      </g>
     </g>
    </g>
    <g id="ytick_3">
     <g id="line2d_11">
      <g>
       <use xlink:href="#m83262f3f4b" x="90" y="263.52" style="stroke: #000000; stroke-width: 0.8"/>
      </g>
     </g>
     <g id="text_12">
      <!-- 100 -->
      <g transform="translate(63.9125 267.319219) scale(0.1 -0.1)">
       <use xlink:href="#DejaVuSans-31"/>
       <use xlink:href="#DejaVuSans-30" x="63.623047"/>
       <use xlink:href="#DejaVuSans-30" x="127.246094"/>
      </g>
     </g>
    </g>
    <g id="ytick_4">
     <g id="line2d_12">
      <g>
       <use xlink:href="#m83262f3f4b" x="90" y="203.04" style="stroke: #000000; stroke-width: 0.8"/>
      </g>
     </g>
     <g id="text_13">
      <!-- 150 -->
      <g transform="translate(63.9125 206.839219) scale(0.1 -0.1)">
       <use xlink:href="#DejaVuSans-31"/>
       <use xlink:href="#DejaVuSans-35" x="63.623047"/>
       <use xlink:href="#DejaVuSans-30" x="127.246094"/>
      </g>
     </g>
    </g>
    <g id="ytick_5">
     <g id="line2d_13">
      <g>
       <use xlink:href="#m83262f3f4b" x="90" y="142.56" style="stroke: #000000; stroke-width: 0.8"/>
      </g>
     </g>
     <g id="text_14">
      <!-- 200 -->
      <g transform="translate(63.9125 146.359219) scale(0.1 -0.1)">
       <use xlink:href="#DejaVuSans-32"/>
       <use xlink:href="#DejaVuSans-30" x="63.623047"/>
       <use xlink:href="#DejaVuSans-30" x="127.246094"/>
      </g>
     </g>
    </g>
    <g id="ytick_6">
     <g id="line2d_14">
      <g>
       <use xlink:href="#m83262f3f4b" x="90" y="82.08" style="stroke: #000000; stroke-width: 0.8"/>
      </g>
     </g>
     <g id="text_15">
      <!-- 250 -->
      <g transform="translate(63.9125 85.879219) scale(0.1 -0.1)">
       <use xlink:href="#DejaVuSans-32"/>
       <use xlink:href="#DejaVuSans-35" x="63.623047"/>
       <use xlink:href="#DejaVuSans-30" x="127.246094"/>
      </g>
     </g>
    </g>
    <g id="text_16">
     <!-- Frequency -->
     <g transform="translate(57.832812 243.989687) rotate(-90) scale(0.1 -0.1)">
      <defs>
       <path id="DejaVuSans-46" d="M 628 4666 
L 3309 4666 
L 3309 4134 
L 1259 4134 
L 1259 2759 
L 3109 2759 
L 3109 2228 
L 1259 2228 
L 1259 0 
L 628 0 
L 628 4666 
z
" transform="scale(0.015625)"/>
       <path id="DejaVuSans-71" d="M 947 1747 
Q 947 1113 1208 752 
Q 1469 391 1925 391 
Q 2381 391 2643 752 
Q 2906 1113 2906 1747 
Q 2906 2381 2643 2742 
Q 2381 3103 1925 3103 
Q 1469 3103 1208 2742 
Q 947 2381 947 1747 
z
M 2906 525 
Q 2725 213 2448 61 
Q 2172 -91 1784 -91 
Q 1150 -91 751 415 
Q 353 922 353 1747 
Q 353 2572 751 3078 
Q 1150 3584 1784 3584 
Q 2172 3584 2448 3432 
Q 2725 3281 2906 2969 
L 2906 3500 
L 3481 3500 
L 3481 -1331 
L 2906 -1331 
L 2906 525 
z
" transform="scale(0.015625)"/>
       <path id="DejaVuSans-75" d="M 544 1381 
L 544 3500 
L 1119 3500 
L 1119 1403 
Q 1119 906 1312 657 
Q 1506 409 1894 409 
Q 2359 409 2629 706 
Q 2900 1003 2900 1516 
L 2900 3500 
L 3475 3500 
L 3475 0 
L 2900 0 
L 2900 538 
Q 2691 219 2414 64 
Q 2138 -91 1772 -91 
Q 1169 -91 856 284 
Q 544 659 544 1381 
z
M 1991 3584 
L 1991 3584 
z
" transform="scale(0.015625)"/>
       <path id="DejaVuSans-63" d="M 3122 3366 
L 3122 2828 
Q 2878 2963 2633 3030 
Q 2388 3097 2138 3097 
Q 1578 3097 1268 2742 
Q 959 2388 959 1747 
Q 959 1106 1268 751 
Q 1578 397 2138 397 
Q 2388 397 2633 464 
Q 2878 531 3122 666 
L 3122 134 
Q 2881 22 2623 -34 
Q 2366 -91 2075 -91 
Q 1284 -91 818 406 
Q 353 903 353 1747 
Q 353 2603 823 3093 
Q 1294 3584 2113 3584 
Q 2378 3584 2631 3529 
Q 2884 3475 3122 3366 
z
" transform="scale(0.015625)"/>
      </defs>
      <use xlink:href="#DejaVuSans-46"/>
      <use xlink:href="#DejaVuSans-72" x="50.269531"/>
      <use xlink:href="#DejaVuSans-65" x="89.132812"/>
      <use xlink:href="#DejaVuSans-71" x="150.65625"/>
      <use xlink:href="#DejaVuSans-75" x="214.132812"/>
      <use xlink:href="#DejaVuSans-65" x="277.511719"/>
      <use xlink:href="#DejaVuSans-6e" x="339.035156"/>
      <use xlink:href="#DejaVuSans-63" x="402.414062"/>
      <use xlink:href="#DejaVuSans-79" x="457.394531"/>
     </g>
    </g>
   </g>
   <g id="line2d_15">
    <path d="M 115.363636 331.832613 
L 117.85539 331.628409 
L 120.347143 331.690241 
L 122.838897 332.005757 
L 125.33065 332.557252 
L 127.822403 333.322209 
L 130.314157 334.273995 
L 132.80591 335.382683 
L 137.789417 337.940208 
L 150.248184 344.77239 
L 155.231691 347.07755 
L 157.723444 348.056772 
L 160.215198 348.906004 
L 162.706951 349.620086 
L 165.198704 350.198198 
L 167.690458 350.643552 
L 170.182211 350.962977 
L 175.165718 351.266321 
L 180.149225 351.214527 
L 187.624485 350.750286 
L 197.591498 350.047945 
L 202.575005 349.866107 
L 207.558512 349.860469 
L 212.542019 350.037278 
L 220.017279 350.592211 
L 232.476046 351.898497 
L 242.44306 352.832422 
L 249.91832 353.280048 
L 257.39358 353.454129 
L 264.86884 353.343382 
L 272.3441 352.940235 
L 277.327607 352.494379 
L 282.311114 351.884524 
L 287.294621 351.080502 
L 292.278128 350.042135 
L 297.261634 348.719539 
L 302.245141 347.053357 
L 307.228648 344.974638 
L 309.720401 343.75629 
L 312.212155 342.404362 
L 314.703908 340.90734 
L 317.195662 339.253083 
L 319.687415 337.428886 
L 322.179168 335.421583 
L 324.670922 333.217718 
L 327.162675 330.803772 
L 329.654429 328.166465 
L 332.146182 325.293139 
L 334.637935 322.172218 
L 337.129689 318.793739 
L 339.621442 315.149961 
L 342.113196 311.236016 
L 344.604949 307.0506 
L 347.096702 302.596677 
L 349.588456 297.88216 
L 354.571963 287.731477 
L 359.555469 276.782588 
L 374.50599 242.587827 
L 376.997743 237.314517 
L 379.489496 232.347138 
L 381.98125 227.75724 
L 384.473003 223.614248 
L 386.964757 219.983726 
L 389.45651 216.925662 
L 391.948263 214.492855 
L 394.440017 212.729449 
L 396.93177 211.669682 
L 399.423524 211.336893 
L 401.915277 211.742839 
L 404.40703 212.887333 
L 406.898784 214.758232 
L 409.390537 217.331774 
L 411.882291 220.573232 
L 414.374044 224.437889 
L 416.865797 228.872266 
L 419.357551 233.815565 
L 421.849304 239.201273 
L 424.341058 244.958864 
L 429.324564 257.297874 
L 444.275085 295.924271 
L 449.258592 307.814976 
L 451.750345 313.395775 
L 454.242098 318.702982 
L 456.733852 323.721713 
L 459.225605 328.442927 
L 461.717359 332.862825 
L 464.209112 336.982192 
L 466.700865 340.805713 
L 469.192619 344.341292 
L 471.684372 347.599391 
L 474.176126 350.592417 
L 476.667879 353.334164 
L 479.159632 355.839323 
L 481.651386 358.123063 
L 484.143139 360.200689 
L 486.634893 362.087368 
L 489.126646 363.797918 
L 491.618399 365.346658 
L 494.110153 366.747306 
L 499.09366 369.15587 
L 504.077166 371.11973 
L 509.060673 372.723966 
L 514.04418 374.043042 
L 519.027687 375.14123 
L 526.502947 376.490324 
L 533.978207 377.60318 
L 543.945221 378.870847 
L 556.403988 380.225318 
L 568.862755 381.321047 
L 578.829768 381.984513 
L 591.288535 382.569753 
L 608.730809 383.113487 
L 611.222562 383.179802 
L 611.222562 383.179802 
" clip-path="url(#paae0251685)" style="fill: none; stroke: #fcf500; stroke-width: 1.5; stroke-linecap: square"/>
   </g>
   <g id="line2d_16">
    <path d="M 115.363636 336.905529 
L 117.883915 336.567297 
L 120.404194 336.461783 
L 122.924472 336.577865 
L 125.444751 336.89969 
L 127.96503 337.407249 
L 130.485308 338.077106 
L 135.525866 339.797925 
L 140.566423 341.839431 
L 150.647538 346.034754 
L 155.688095 347.857265 
L 160.728653 349.367613 
L 165.76921 350.543341 
L 170.809768 351.41232 
L 175.850325 352.037696 
L 183.411161 352.696004 
L 201.053112 354.098126 
L 226.255899 356.529987 
L 233.816735 356.903251 
L 238.857292 356.971713 
L 243.89785 356.881612 
L 248.938407 356.629448 
L 253.978964 356.217803 
L 261.5398 355.317278 
L 269.100636 354.10737 
L 276.661472 352.623049 
L 284.222309 350.887618 
L 291.783145 348.894442 
L 296.823702 347.395174 
L 301.864259 345.717684 
L 306.904817 343.803227 
L 311.945374 341.569375 
L 316.985932 338.909034 
L 319.50621 337.379159 
L 322.026489 335.69256 
L 324.546768 333.830539 
L 327.067046 331.774038 
L 329.587325 329.504126 
L 332.107604 327.002553 
L 334.627882 324.252386 
L 337.148161 321.238711 
L 339.66844 317.949387 
L 342.188718 314.375829 
L 344.708997 310.513802 
L 347.229276 306.364193 
L 349.749554 301.933736 
L 352.269833 297.235646 
L 357.310391 287.124813 
L 362.350948 276.28276 
L 372.432063 253.989042 
L 377.47262 243.565757 
L 379.992899 238.787855 
L 382.513177 234.396967 
L 385.033456 230.463307 
L 387.553735 227.052385 
L 390.074014 224.223266 
L 392.594292 222.026961 
L 395.114571 220.505006 
L 397.63485 219.688289 
L 400.155128 219.596167 
L 402.675407 220.235918 
L 405.195686 221.602539 
L 407.715964 223.678903 
L 410.236243 226.436266 
L 412.756522 229.835107 
L 415.2768 233.826261 
L 417.797079 238.352291 
L 420.317358 243.349067 
L 422.837636 248.747467 
L 427.878194 260.458298 
L 435.43903 279.216093 
L 442.999866 297.810258 
L 448.040423 309.408515 
L 450.560702 314.855123 
L 453.080981 320.03319 
L 455.601259 324.926177 
L 458.121538 329.52391 
L 460.641817 333.822 
L 463.162095 337.821186 
L 465.682374 341.52662 
L 468.202653 344.94714 
L 470.722932 348.094534 
L 473.24321 350.982839 
L 475.763489 353.627686 
L 478.283768 356.045695 
L 480.804046 358.253948 
L 483.324325 360.269531 
L 485.844604 362.109157 
L 488.364882 363.788861 
L 490.885161 365.323773 
L 495.925718 368.014308 
L 500.966276 370.279044 
L 506.006833 372.197186 
L 511.047391 373.830396 
L 516.087948 375.225721 
L 521.128505 376.419026 
L 526.169063 377.438287 
L 533.729899 378.689834 
L 541.290735 379.66514 
L 548.851571 380.420128 
L 558.932686 381.168139 
L 571.534079 381.819361 
L 589.17603 382.437777 
L 616.899096 383.204391 
L 616.899096 383.204391 
" clip-path="url(#paae0251685)" style="fill: none; stroke: #08ff00; stroke-width: 1.5; stroke-linecap: square"/>
   </g>
   <g id="line2d_17">
    <path d="M 115.363636 348.737097 
L 117.875566 348.497029 
L 120.387496 348.448357 
L 122.899426 348.582764 
L 125.411356 348.887882 
L 127.923286 349.347749 
L 130.435216 349.943392 
L 135.459076 351.455164 
L 142.994865 354.172704 
L 150.530655 356.894523 
L 155.554515 358.474499 
L 160.578374 359.764241 
L 165.602234 360.728343 
L 170.626094 361.371999 
L 175.649954 361.730283 
L 180.673814 361.855491 
L 188.209603 361.730944 
L 198.257323 361.232277 
L 213.328902 360.191186 
L 230.912412 358.737775 
L 258.54364 356.394152 
L 278.63908 354.785865 
L 286.174869 353.918426 
L 291.198729 353.140439 
L 296.222589 352.136205 
L 301.246449 350.844433 
L 306.270308 349.201818 
L 311.294168 347.143966 
L 313.806098 345.938944 
L 316.318028 344.605494 
L 318.829958 343.135213 
L 321.341888 341.519578 
L 323.853818 339.749965 
L 326.365748 337.817685 
L 328.877677 335.714074 
L 331.389607 333.430629 
L 333.901537 330.959211 
L 336.413467 328.292316 
L 338.925397 325.423418 
L 341.437327 322.347386 
L 343.949257 319.06097 
L 346.461187 315.563339 
L 348.973117 311.856668 
L 353.996976 303.843492 
L 359.020836 295.121158 
L 364.044696 285.871938 
L 374.092416 266.976332 
L 379.116275 258.128262 
L 381.628205 254.057519 
L 384.140135 250.303561 
L 386.652065 246.925916 
L 389.163995 243.981089 
L 391.675925 241.520989 
L 394.187855 239.591417 
L 396.699785 238.230694 
L 399.211714 237.468476 
L 401.723644 237.324814 
L 404.235574 237.809494 
L 406.747504 238.921702 
L 409.259434 240.650004 
L 411.771364 242.97266 
L 414.283294 245.858256 
L 416.795224 249.26661 
L 419.307154 253.149931 
L 421.819084 257.454163 
L 424.331013 262.120472 
L 429.354873 272.289463 
L 434.378733 283.149843 
L 444.426453 305.05538 
L 449.450312 315.327947 
L 454.474172 324.785386 
L 456.986102 329.158047 
L 459.498032 333.277939 
L 462.009962 337.139932 
L 464.521892 340.743386 
L 467.033822 344.091555 
L 469.545752 347.190966 
L 472.057681 350.05081 
L 474.569611 352.682346 
L 477.081541 355.098346 
L 479.593471 357.312581 
L 482.105401 359.339369 
L 484.617331 361.193172 
L 487.129261 362.888268 
L 489.641191 364.438473 
L 494.66505 367.155933 
L 499.68891 369.440062 
L 504.71277 371.369638 
L 509.73663 373.007467 
L 514.76049 374.401928 
L 519.784349 375.589578 
L 524.808209 376.598178 
L 532.343999 377.82229 
L 539.879789 378.753706 
L 547.415578 379.449016 
L 557.463298 380.106542 
L 570.022947 380.675913 
L 607.701896 382.241046 
L 615.237685 382.602679 
L 615.237685 382.602679 
" clip-path="url(#paae0251685)" style="fill: none; stroke: #00fff6; stroke-width: 1.5; stroke-linecap: square"/>
   </g>
   <g id="line2d_18">
    <path d="M 115.363636 337.158635 
L 117.912746 337.228659 
L 120.461855 337.581079 
L 123.010964 338.205909 
L 125.560073 339.087738 
L 128.109182 340.206172 
L 130.658291 341.536406 
L 133.207401 343.049935 
L 138.305619 346.499206 
L 145.952947 352.214826 
L 151.051165 355.991709 
L 156.149383 359.462247 
L 158.698492 361.022237 
L 161.247602 362.440297 
L 163.796711 363.702384 
L 166.34582 364.79829 
L 168.894929 365.72155 
L 171.444038 366.469267 
L 173.993148 367.041865 
L 176.542257 367.442799 
L 179.091366 367.678223 
L 181.640475 367.756644 
L 184.189584 367.688568 
L 186.738693 367.486142 
L 191.836912 366.733016 
L 196.93513 365.61482 
L 202.033349 364.255634 
L 217.328004 359.915403 
L 222.426222 358.716057 
L 227.52444 357.762831 
L 232.622659 357.095708 
L 237.720877 356.730136 
L 242.819095 356.657159 
L 247.917314 356.844938 
L 253.015532 357.241555 
L 260.66286 358.075562 
L 270.859296 359.195776 
L 275.957515 359.558363 
L 281.055733 359.670985 
L 286.153952 359.449655 
L 288.703061 359.188975 
L 291.25217 358.815791 
L 293.801279 358.321189 
L 296.350388 357.69661 
L 298.899497 356.933843 
L 301.448607 356.025008 
L 303.997716 354.962548 
L 306.546825 353.739229 
L 309.095934 352.348137 
L 311.645043 350.782701 
L 314.194153 349.036712 
L 316.743262 347.104379 
L 319.292371 344.980387 
L 321.84148 342.659987 
L 324.390589 340.139113 
L 326.939698 337.414523 
L 329.488808 334.483967 
L 332.037917 331.346393 
L 334.587026 328.002179 
L 337.136135 324.453391 
L 342.234354 316.760517 
L 347.332572 308.329227 
L 352.43079 299.26715 
L 357.529009 289.736763 
L 370.274555 265.473019 
L 375.372773 256.439228 
L 377.921882 252.253293 
L 380.470991 248.353644 
L 383.020101 244.788651 
L 385.56921 241.604743 
L 388.118319 238.845339 
L 390.667428 236.549787 
L 393.216537 234.752357 
L 395.765646 233.481328 
L 398.314756 232.758192 
L 400.863865 232.597028 
L 403.412974 233.004054 
L 405.962083 233.97739 
L 408.511192 235.507035 
L 411.060302 237.575062 
L 413.609411 240.156038 
L 416.15852 243.217628 
L 418.707629 246.721386 
L 421.256738 250.623688 
L 423.805847 254.876777 
L 426.354957 259.429879 
L 431.453175 269.224841 
L 439.100503 284.850397 
L 446.74783 300.444039 
L 451.846048 310.302171 
L 456.944267 319.472099 
L 459.493376 323.753437 
L 462.042485 327.816934 
L 464.591594 331.656032 
L 467.140704 335.267727 
L 469.689813 338.652158 
L 472.238922 341.812177 
L 474.788031 344.75293 
L 477.33714 347.481451 
L 479.886249 350.006277 
L 482.435359 352.337108 
L 484.984468 354.484484 
L 487.533577 356.459515 
L 490.082686 358.273643 
L 492.631795 359.938432 
L 497.730014 362.865893 
L 502.828232 365.331125 
L 507.92645 367.417081 
L 513.024669 369.19814 
L 518.122887 370.738649 
L 523.221106 372.092109 
L 530.868433 373.861377 
L 538.515761 375.401222 
L 548.712197 377.182359 
L 558.908634 378.681644 
L 569.105071 379.893842 
L 579.301508 380.824105 
L 589.497944 381.512737 
L 602.24349 382.140759 
L 622.636364 382.918383 
L 622.636364 382.918383 
" clip-path="url(#paae0251685)" style="fill: none; stroke: #0010ff; stroke-width: 1.5; stroke-linecap: square"/>
   </g>
   <g id="line2d_19">
    <path d="M 115.363636 354.477119 
L 117.86839 354.567481 
L 120.373144 354.857235 
L 122.877897 355.3395 
L 125.382651 356.003382 
L 127.887405 356.834301 
L 130.392159 357.814434 
L 135.401666 360.138112 
L 140.411173 362.78887 
L 150.430188 368.286483 
L 155.439696 370.776378 
L 160.449203 372.90791 
L 162.953957 373.809958 
L 165.458711 374.592587 
L 167.963464 375.251337 
L 170.468218 375.78417 
L 172.972972 376.191281 
L 175.477725 376.474873 
L 177.982479 376.638917 
L 182.991987 376.631608 
L 188.001494 376.227221 
L 193.011001 375.49683 
L 198.020509 374.518385 
L 205.53477 372.759089 
L 220.563292 369.07951 
L 228.077553 367.53593 
L 233.087061 366.694985 
L 238.096568 366.017701 
L 245.610829 365.294541 
L 253.12509 364.855147 
L 275.667874 363.826574 
L 280.677381 363.328181 
L 285.686889 362.622201 
L 290.696396 361.665852 
L 295.705903 360.422647 
L 300.715411 358.862582 
L 305.724918 356.961533 
L 310.734426 354.699959 
L 315.743933 352.061126 
L 320.753441 349.029249 
L 325.762948 345.588129 
L 330.772455 341.720968 
L 335.781963 337.412079 
L 340.79147 332.651001 
L 345.800978 327.439238 
L 350.810485 321.799213 
L 355.819992 315.784398 
L 363.334254 306.27826 
L 370.848515 296.672263 
L 375.858022 290.578213 
L 378.362776 287.72229 
L 380.86753 285.040505 
L 383.372283 282.568193 
L 385.877037 280.339935 
L 388.381791 278.38871 
L 390.886544 276.745031 
L 393.391298 275.436125 
L 395.896052 274.485165 
L 398.400805 273.910608 
L 400.905559 273.725645 
L 403.410313 273.937809 
L 405.915067 274.548736 
L 408.41982 275.554106 
L 410.924574 276.943752 
L 413.429328 278.701939 
L 415.934081 280.8078 
L 418.438835 283.235907 
L 420.943589 285.956948 
L 423.448343 288.938491 
L 425.953096 292.145794 
L 430.962604 299.092138 
L 435.972111 306.502912 
L 448.49588 325.3017 
L 453.505387 332.362825 
L 458.514895 338.935334 
L 463.524402 344.93304 
L 468.533909 350.310537 
L 471.038663 352.761863 
L 473.543417 355.05582 
L 476.04817 357.194869 
L 478.552924 359.18263 
L 481.057678 361.023687 
L 483.562432 362.723406 
L 488.571939 365.723247 
L 493.581446 368.234973 
L 498.590954 370.315205 
L 503.600461 372.021304 
L 508.609969 373.409071 
L 513.619476 374.531106 
L 518.628984 375.435775 
L 526.143245 376.479318 
L 533.657506 377.257794 
L 543.676521 378.060051 
L 578.743073 380.663871 
L 601.285856 382.417147 
L 613.809624 383.162 
L 613.809624 383.162 
" clip-path="url(#paae0251685)" style="fill: none; stroke: #ee00ff; stroke-width: 1.5; stroke-linecap: square"/>
   </g>
   <g id="patch_87">
    <path d="M 90 384.48 
L 90 51.84 
" style="fill: none; stroke: #000000; stroke-width: 0.8; stroke-linejoin: miter; stroke-linecap: square"/>
   </g>
   <g id="patch_88">
    <path d="M 648 384.48 
L 648 51.84 
" style="fill: none; stroke: #000000; stroke-width: 0.8; stroke-linejoin: miter; stroke-linecap: square"/>
   </g>
   <g id="patch_89">
    <path d="M 90 384.48 
L 648 384.48 
" style="fill: none; stroke: #000000; stroke-width: 0.8; stroke-linejoin: miter; stroke-linecap: square"/>
   </g>
   <g id="patch_90">
    <path d="M 90 51.84 
L 648 51.84 
" style="fill: none; stroke: #000000; stroke-width: 0.8; stroke-linejoin: miter; stroke-linecap: square"/>
   </g>
   <g id="text_17">
    <!-- Stacked Histogram of Avg Normalized Interplay  -->
    <g transform="translate(224.829375 32.402625) scale(0.12 -0.12)">
     <defs>
      <path id="DejaVuSans-53" d="M 3425 4513 
L 3425 3897 
Q 3066 4069 2747 4153 
Q 2428 4238 2131 4238 
Q 1616 4238 1336 4038 
Q 1056 3838 1056 3469 
Q 1056 3159 1242 3001 
Q 1428 2844 1947 2747 
L 2328 2669 
Q 3034 2534 3370 2195 
Q 3706 1856 3706 1288 
Q 3706 609 3251 259 
Q 2797 -91 1919 -91 
Q 1588 -91 1214 -16 
Q 841 59 441 206 
L 441 856 
Q 825 641 1194 531 
Q 1563 422 1919 422 
Q 2459 422 2753 634 
Q 3047 847 3047 1241 
Q 3047 1584 2836 1778 
Q 2625 1972 2144 2069 
L 1759 2144 
Q 1053 2284 737 2584 
Q 422 2884 422 3419 
Q 422 4038 858 4394 
Q 1294 4750 2059 4750 
Q 2388 4750 2728 4690 
Q 3069 4631 3425 4513 
z
" transform="scale(0.015625)"/>
      <path id="DejaVuSans-6b" d="M 581 4863 
L 1159 4863 
L 1159 1991 
L 2875 3500 
L 3609 3500 
L 1753 1863 
L 3688 0 
L 2938 0 
L 1159 1709 
L 1159 0 
L 581 0 
L 581 4863 
z
" transform="scale(0.015625)"/>
      <path id="DejaVuSans-48" d="M 628 4666 
L 1259 4666 
L 1259 2753 
L 3553 2753 
L 3553 4666 
L 4184 4666 
L 4184 0 
L 3553 0 
L 3553 2222 
L 1259 2222 
L 1259 0 
L 628 0 
L 628 4666 
z
" transform="scale(0.015625)"/>
      <path id="DejaVuSans-73" d="M 2834 3397 
L 2834 2853 
Q 2591 2978 2328 3040 
Q 2066 3103 1784 3103 
Q 1356 3103 1142 2972 
Q 928 2841 928 2578 
Q 928 2378 1081 2264 
Q 1234 2150 1697 2047 
L 1894 2003 
Q 2506 1872 2764 1633 
Q 3022 1394 3022 966 
Q 3022 478 2636 193 
Q 2250 -91 1575 -91 
Q 1294 -91 989 -36 
Q 684 19 347 128 
L 347 722 
Q 666 556 975 473 
Q 1284 391 1588 391 
Q 1994 391 2212 530 
Q 2431 669 2431 922 
Q 2431 1156 2273 1281 
Q 2116 1406 1581 1522 
L 1381 1569 
Q 847 1681 609 1914 
Q 372 2147 372 2553 
Q 372 3047 722 3315 
Q 1072 3584 1716 3584 
Q 2034 3584 2315 3537 
Q 2597 3491 2834 3397 
z
" transform="scale(0.015625)"/>
      <path id="DejaVuSans-66" d="M 2375 4863 
L 2375 4384 
L 1825 4384 
Q 1516 4384 1395 4259 
Q 1275 4134 1275 3809 
L 1275 3500 
L 2222 3500 
L 2222 3053 
L 1275 3053 
L 1275 0 
L 697 0 
L 697 3053 
L 147 3053 
L 147 3500 
L 697 3500 
L 697 3744 
Q 697 4328 969 4595 
Q 1241 4863 1831 4863 
L 2375 4863 
z
" transform="scale(0.015625)"/>
     </defs>
     <use xlink:href="#DejaVuSans-53"/>
     <use xlink:href="#DejaVuSans-74" x="63.476562"/>
     <use xlink:href="#DejaVuSans-61" x="102.685547"/>
     <use xlink:href="#DejaVuSans-63" x="163.964844"/>
     <use xlink:href="#DejaVuSans-6b" x="218.945312"/>
     <use xlink:href="#DejaVuSans-65" x="273.230469"/>
     <use xlink:href="#DejaVuSans-64" x="334.753906"/>
     <use xlink:href="#DejaVuSans-20" x="398.230469"/>
     <use xlink:href="#DejaVuSans-48" x="430.017578"/>
     <use xlink:href="#DejaVuSans-69" x="505.212891"/>
     <use xlink:href="#DejaVuSans-73" x="532.996094"/>
     <use xlink:href="#DejaVuSans-74" x="585.095703"/>
     <use xlink:href="#DejaVuSans-6f" x="624.304688"/>
     <use xlink:href="#DejaVuSans-67" x="685.486328"/>
     <use xlink:href="#DejaVuSans-72" x="748.962891"/>
     <use xlink:href="#DejaVuSans-61" x="790.076172"/>
     <use xlink:href="#DejaVuSans-6d" x="851.355469"/>
     <use xlink:href="#DejaVuSans-20" x="948.767578"/>
     <use xlink:href="#DejaVuSans-6f" x="980.554688"/>
     <use xlink:href="#DejaVuSans-66" x="1041.736328"/>
     <use xlink:href="#DejaVuSans-20" x="1076.941406"/>
     <use xlink:href="#DejaVuSans-41" x="1108.728516"/>
     <use xlink:href="#DejaVuSans-76" x="1171.261719"/>
     <use xlink:href="#DejaVuSans-67" x="1230.441406"/>
     <use xlink:href="#DejaVuSans-20" x="1293.917969"/>
     <use xlink:href="#DejaVuSans-4e" x="1325.705078"/>
     <use xlink:href="#DejaVuSans-6f" x="1400.509766"/>
     <use xlink:href="#DejaVuSans-72" x="1461.691406"/>
     <use xlink:href="#DejaVuSans-6d" x="1501.054688"/>
     <use xlink:href="#DejaVuSans-61" x="1598.466797"/>
     <use xlink:href="#DejaVuSans-6c" x="1659.746094"/>
     <use xlink:href="#DejaVuSans-69" x="1687.529297"/>
     <use xlink:href="#DejaVuSans-7a" x="1715.3125"/>
     <use xlink:href="#DejaVuSans-65" x="1767.802734"/>
     <use xlink:href="#DejaVuSans-64" x="1829.326172"/>
     <use xlink:href="#DejaVuSans-20" x="1892.802734"/>
     <use xlink:href="#DejaVuSans-49" x="1924.589844"/>
     <use xlink:href="#DejaVuSans-6e" x="1954.082031"/>
     <use xlink:href="#DejaVuSans-74" x="2017.460938"/>
     <use xlink:href="#DejaVuSans-65" x="2056.669922"/>
     <use xlink:href="#DejaVuSans-72" x="2118.193359"/>
     <use xlink:href="#DejaVuSans-70" x="2159.306641"/>
     <use xlink:href="#DejaVuSans-6c" x="2222.783203"/>
     <use xlink:href="#DejaVuSans-61" x="2250.566406"/>
     <use xlink:href="#DejaVuSans-79" x="2311.845703"/>
     <use xlink:href="#DejaVuSans-20" x="2371.025391"/>
    </g>
    <!-- for H3.3 PTMs in liver across ages -->
    <g transform="translate(267.623438 45.84) scale(0.12 -0.12)">
     <defs>
      <path id="DejaVuSans-33" d="M 2597 2516 
Q 3050 2419 3304 2112 
Q 3559 1806 3559 1356 
Q 3559 666 3084 287 
Q 2609 -91 1734 -91 
Q 1441 -91 1130 -33 
Q 819 25 488 141 
L 488 750 
Q 750 597 1062 519 
Q 1375 441 1716 441 
Q 2309 441 2620 675 
Q 2931 909 2931 1356 
Q 2931 1769 2642 2001 
Q 2353 2234 1838 2234 
L 1294 2234 
L 1294 2753 
L 1863 2753 
Q 2328 2753 2575 2939 
Q 2822 3125 2822 3475 
Q 2822 3834 2567 4026 
Q 2313 4219 1838 4219 
Q 1578 4219 1281 4162 
Q 984 4106 628 3988 
L 628 4550 
Q 988 4650 1302 4700 
Q 1616 4750 1894 4750 
Q 2613 4750 3031 4423 
Q 3450 4097 3450 3541 
Q 3450 3153 3228 2886 
Q 3006 2619 2597 2516 
z
" transform="scale(0.015625)"/>
      <path id="DejaVuSans-50" d="M 1259 4147 
L 1259 2394 
L 2053 2394 
Q 2494 2394 2734 2622 
Q 2975 2850 2975 3272 
Q 2975 3691 2734 3919 
Q 2494 4147 2053 4147 
L 1259 4147 
z
M 628 4666 
L 2053 4666 
Q 2838 4666 3239 4311 
Q 3641 3956 3641 3272 
Q 3641 2581 3239 2228 
Q 2838 1875 2053 1875 
L 1259 1875 
L 1259 0 
L 628 0 
L 628 4666 
z
" transform="scale(0.015625)"/>
      <path id="DejaVuSans-54" d="M -19 4666 
L 3928 4666 
L 3928 4134 
L 2272 4134 
L 2272 0 
L 1638 0 
L 1638 4134 
L -19 4134 
L -19 4666 
z
" transform="scale(0.015625)"/>
      <path id="DejaVuSans-4d" d="M 628 4666 
L 1569 4666 
L 2759 1491 
L 3956 4666 
L 4897 4666 
L 4897 0 
L 4281 0 
L 4281 4097 
L 3078 897 
L 2444 897 
L 1241 4097 
L 1241 0 
L 628 0 
L 628 4666 
z
" transform="scale(0.015625)"/>
     </defs>
     <use xlink:href="#DejaVuSans-66"/>
     <use xlink:href="#DejaVuSans-6f" x="35.205078"/>
     <use xlink:href="#DejaVuSans-72" x="96.386719"/>
     <use xlink:href="#DejaVuSans-20" x="137.5"/>
     <use xlink:href="#DejaVuSans-48" x="169.287109"/>
     <use xlink:href="#DejaVuSans-33" x="244.482422"/>
     <use xlink:href="#DejaVuSans-2e" x="308.105469"/>
     <use xlink:href="#DejaVuSans-33" x="339.892578"/>
     <use xlink:href="#DejaVuSans-20" x="403.515625"/>
     <use xlink:href="#DejaVuSans-50" x="435.302734"/>
     <use xlink:href="#DejaVuSans-54" x="495.605469"/>
     <use xlink:href="#DejaVuSans-4d" x="556.689453"/>
     <use xlink:href="#DejaVuSans-73" x="642.96875"/>
     <use xlink:href="#DejaVuSans-20" x="695.068359"/>
     <use xlink:href="#DejaVuSans-69" x="726.855469"/>
     <use xlink:href="#DejaVuSans-6e" x="754.638672"/>
     <use xlink:href="#DejaVuSans-20" x="818.017578"/>
     <use xlink:href="#DejaVuSans-6c" x="849.804688"/>
     <use xlink:href="#DejaVuSans-69" x="877.587891"/>
     <use xlink:href="#DejaVuSans-76" x="905.371094"/>
     <use xlink:href="#DejaVuSans-65" x="964.550781"/>
     <use xlink:href="#DejaVuSans-72" x="1026.074219"/>
     <use xlink:href="#DejaVuSans-20" x="1067.1875"/>
     <use xlink:href="#DejaVuSans-61" x="1098.974609"/>
     <use xlink:href="#DejaVuSans-63" x="1160.253906"/>
     <use xlink:href="#DejaVuSans-72" x="1215.234375"/>
     <use xlink:href="#DejaVuSans-6f" x="1254.097656"/>
     <use xlink:href="#DejaVuSans-73" x="1315.279297"/>
     <use xlink:href="#DejaVuSans-73" x="1367.378906"/>
     <use xlink:href="#DejaVuSans-20" x="1419.478516"/>
     <use xlink:href="#DejaVuSans-61" x="1451.265625"/>
     <use xlink:href="#DejaVuSans-67" x="1512.544922"/>
     <use xlink:href="#DejaVuSans-65" x="1576.021484"/>
     <use xlink:href="#DejaVuSans-73" x="1637.544922"/>
    </g>
   </g>
   <g id="legend_1">
    <g id="patch_91">
     <path d="M 565.576563 147.90875 
L 641 147.90875 
Q 643 147.90875 643 145.90875 
L 643 58.84 
Q 643 56.84 641 56.84 
L 565.576563 56.84 
Q 563.576563 56.84 563.576563 58.84 
L 563.576563 145.90875 
Q 563.576563 147.90875 565.576563 147.90875 
z
" style="fill: #ffffff; opacity: 0.8; stroke: #cccccc; stroke-linejoin: miter"/>
    </g>
    <g id="text_18">
     <!-- Age -->
     <g transform="translate(593.617188 68.438437) scale(0.1 -0.1)">
      <use xlink:href="#DejaVuSans-41"/>
      <use xlink:href="#DejaVuSans-67" x="68.408203"/>
      <use xlink:href="#DejaVuSans-65" x="131.884766"/>
     </g>
    </g>
    <g id="patch_92">
     <path d="M 567.576563 83.116562 
L 587.576563 83.116562 
L 587.576563 76.116562 
L 567.576563 76.116562 
z
" style="fill: #fcf500; fill-opacity: 0.175; stroke: #000000; stroke-linejoin: miter"/>
    </g>
    <g id="text_19">
     <!-- 3 years -->
     <g transform="translate(595.576563 83.116562) scale(0.1 -0.1)">
      <use xlink:href="#DejaVuSans-33"/>
      <use xlink:href="#DejaVuSans-20" x="63.623047"/>
      <use xlink:href="#DejaVuSans-79" x="95.410156"/>
      <use xlink:href="#DejaVuSans-65" x="154.589844"/>
      <use xlink:href="#DejaVuSans-61" x="216.113281"/>
      <use xlink:href="#DejaVuSans-72" x="277.392578"/>
      <use xlink:href="#DejaVuSans-73" x="318.505859"/>
     </g>
    </g>
    <g id="patch_93">
     <path d="M 567.576563 97.794688 
L 587.576563 97.794688 
L 587.576563 90.794688 
L 567.576563 90.794688 
z
" style="fill: #08ff00; fill-opacity: 0.175; stroke: #000000; stroke-linejoin: miter"/>
    </g>
    <g id="text_20">
     <!-- 5 years -->
     <g transform="translate(595.576563 97.794688) scale(0.1 -0.1)">
      <use xlink:href="#DejaVuSans-35"/>
      <use xlink:href="#DejaVuSans-20" x="63.623047"/>
      <use xlink:href="#DejaVuSans-79" x="95.410156"/>
      <use xlink:href="#DejaVuSans-65" x="154.589844"/>
      <use xlink:href="#DejaVuSans-61" x="216.113281"/>
      <use xlink:href="#DejaVuSans-72" x="277.392578"/>
      <use xlink:href="#DejaVuSans-73" x="318.505859"/>
     </g>
    </g>
    <g id="patch_94">
     <path d="M 567.576563 112.472812 
L 587.576563 112.472812 
L 587.576563 105.472812 
L 567.576563 105.472812 
z
" style="fill: #00fff6; fill-opacity: 0.175; stroke: #000000; stroke-linejoin: miter"/>
    </g>
    <g id="text_21">
     <!-- 10 years -->
     <g transform="translate(595.576563 112.472812) scale(0.1 -0.1)">
      <use xlink:href="#DejaVuSans-31"/>
      <use xlink:href="#DejaVuSans-30" x="63.623047"/>
      <use xlink:href="#DejaVuSans-20" x="127.246094"/>
      <use xlink:href="#DejaVuSans-79" x="159.033203"/>
      <use xlink:href="#DejaVuSans-65" x="218.212891"/>
      <use xlink:href="#DejaVuSans-61" x="279.736328"/>
      <use xlink:href="#DejaVuSans-72" x="341.015625"/>
      <use xlink:href="#DejaVuSans-73" x="382.128906"/>
     </g>
    </g>
    <g id="patch_95">
     <path d="M 567.576563 127.150937 
L 587.576563 127.150937 
L 587.576563 120.150937 
L 567.576563 120.150937 
z
" style="fill: #0010ff; fill-opacity: 0.175; stroke: #000000; stroke-linejoin: miter"/>
    </g>
    <g id="text_22">
     <!-- 18 years -->
     <g transform="translate(595.576563 127.150937) scale(0.1 -0.1)">
      <defs>
       <path id="DejaVuSans-38" d="M 2034 2216 
Q 1584 2216 1326 1975 
Q 1069 1734 1069 1313 
Q 1069 891 1326 650 
Q 1584 409 2034 409 
Q 2484 409 2743 651 
Q 3003 894 3003 1313 
Q 3003 1734 2745 1975 
Q 2488 2216 2034 2216 
z
M 1403 2484 
Q 997 2584 770 2862 
Q 544 3141 544 3541 
Q 544 4100 942 4425 
Q 1341 4750 2034 4750 
Q 2731 4750 3128 4425 
Q 3525 4100 3525 3541 
Q 3525 3141 3298 2862 
Q 3072 2584 2669 2484 
Q 3125 2378 3379 2068 
Q 3634 1759 3634 1313 
Q 3634 634 3220 271 
Q 2806 -91 2034 -91 
Q 1263 -91 848 271 
Q 434 634 434 1313 
Q 434 1759 690 2068 
Q 947 2378 1403 2484 
z
M 1172 3481 
Q 1172 3119 1398 2916 
Q 1625 2713 2034 2713 
Q 2441 2713 2670 2916 
Q 2900 3119 2900 3481 
Q 2900 3844 2670 4047 
Q 2441 4250 2034 4250 
Q 1625 4250 1398 4047 
Q 1172 3844 1172 3481 
z
" transform="scale(0.015625)"/>
      </defs>
      <use xlink:href="#DejaVuSans-31"/>
      <use xlink:href="#DejaVuSans-38" x="63.623047"/>
      <use xlink:href="#DejaVuSans-20" x="127.246094"/>
      <use xlink:href="#DejaVuSans-79" x="159.033203"/>
      <use xlink:href="#DejaVuSans-65" x="218.212891"/>
      <use xlink:href="#DejaVuSans-61" x="279.736328"/>
      <use xlink:href="#DejaVuSans-72" x="341.015625"/>
      <use xlink:href="#DejaVuSans-73" x="382.128906"/>
     </g>
    </g>
    <g id="patch_96">
     <path d="M 567.576563 141.829062 
L 587.576563 141.829062 
L 587.576563 134.829062 
L 567.576563 134.829062 
z
" style="fill: #ee00ff; fill-opacity: 0.175; stroke: #000000; stroke-linejoin: miter"/>
    </g>
    <g id="text_23">
     <!-- 24 years -->
     <g transform="translate(595.576563 141.829062) scale(0.1 -0.1)">
      <defs>
       <path id="DejaVuSans-34" d="M 2419 4116 
L 825 1625 
L 2419 1625 
L 2419 4116 
z
M 2253 4666 
L 3047 4666 
L 3047 1625 
L 3713 1625 
L 3713 1100 
L 3047 1100 
L 3047 0 
L 2419 0 
L 2419 1100 
L 313 1100 
L 313 1709 
L 2253 4666 
z
" transform="scale(0.015625)"/>
      </defs>
      <use xlink:href="#DejaVuSans-32"/>
      <use xlink:href="#DejaVuSans-34" x="63.623047"/>
      <use xlink:href="#DejaVuSans-20" x="127.246094"/>
      <use xlink:href="#DejaVuSans-79" x="159.033203"/>
      <use xlink:href="#DejaVuSans-65" x="218.212891"/>
      <use xlink:href="#DejaVuSans-61" x="279.736328"/>
      <use xlink:href="#DejaVuSans-72" x="341.015625"/>
      <use xlink:href="#DejaVuSans-73" x="382.128906"/>
     </g>
    </g>
   </g>
  </g>
 </g>
 <defs>
  <clipPath id="paae0251685">
   <rect x="90" y="51.84" width="558" height="332.64"/>
  </clipPath>
 </defs>
</svg>
