<?xml version="1.0" encoding="utf-8" standalone="no"?>
<!DOCTYPE svg PUBLIC "-//W3C//DTD SVG 1.1//EN"
  "http://www.w3.org/Graphics/SVG/1.1/DTD/svg11.dtd">
<svg xmlns:xlink="http://www.w3.org/1999/xlink" width="720pt" height="432pt" viewBox="0 0 720 432" xmlns="http://www.w3.org/2000/svg" version="1.1">
 <metadata>
  <rdf:RDF xmlns:dc="http://purl.org/dc/elements/1.1/" xmlns:cc="http://creativecommons.org/ns#" xmlns:rdf="http://www.w3.org/1999/02/22-rdf-syntax-ns#">
   <cc:Work>
    <dc:type rdf:resource="http://purl.org/dc/dcmitype/StillImage"/>
    <dc:date>2024-05-10T00:00:18.471601</dc:date>
    <dc:format>image/svg+xml</dc:format>
    <dc:creator>
     <cc:Agent>
      <dc:title>Matplotlib v3.8.0, https://matplotlib.org/</dc:title>
     </cc:Agent>
    </dc:creator>
   </cc:Work>
  </rdf:RDF>
 </metadata>
 <defs>
  <style type="text/css">*{stroke-linejoin: round; stroke-linecap: butt}</style>
 </defs>
 <g id="figure_1">
  <g id="patch_1">
   <path d="M 0 432 
L 720 432 
L 720 0 
L 0 0 
L 0 432 
z
" style="fill: none; opacity: 0"/>
  </g>
  <g id="axes_1">
   <g id="patch_2">
    <path d="M 90 384.48 
L 648 384.48 
L 648 51.84 
L 90 51.84 
L 90 384.48 
z
" style="fill: none"/>
   </g>
   <g id="patch_3">
    <path d="M 115.363636 384.48 
L 160.036188 384.48 
L 160.036188 240.5376 
L 115.363636 240.5376 
z
" clip-path="url(#p804cbaaa66)" style="fill: #fcf500; fill-opacity: 0.175; stroke: #000000; stroke-linejoin: miter"/>
   </g>
   <g id="patch_4">
    <path d="M 160.036188 384.48 
L 204.70874 384.48 
L 204.70874 328.8384 
L 160.036188 328.8384 
z
" clip-path="url(#p804cbaaa66)" style="fill: #fcf500; fill-opacity: 0.175; stroke: #000000; stroke-linejoin: miter"/>
   </g>
   <g id="patch_5">
    <path d="M 204.70874 384.48 
L 249.381292 384.48 
L 249.381292 346.9824 
L 204.70874 346.9824 
z
" clip-path="url(#p804cbaaa66)" style="fill: #fcf500; fill-opacity: 0.175; stroke: #000000; stroke-linejoin: miter"/>
   </g>
   <g id="patch_6">
    <path d="M 249.381292 384.48 
L 294.053844 384.48 
L 294.053844 354.24 
L 249.381292 354.24 
z
" clip-path="url(#p804cbaaa66)" style="fill: #fcf500; fill-opacity: 0.175; stroke: #000000; stroke-linejoin: miter"/>
   </g>
   <g id="patch_7">
    <path d="M 294.053844 384.48 
L 338.726396 384.48 
L 338.726396 338.5152 
L 294.053844 338.5152 
z
" clip-path="url(#p804cbaaa66)" style="fill: #fcf500; fill-opacity: 0.175; stroke: #000000; stroke-linejoin: miter"/>
   </g>
   <g id="patch_8">
    <path d="M 338.726396 384.48 
L 383.398948 384.48 
L 383.398948 284.0832 
L 338.726396 284.0832 
z
" clip-path="url(#p804cbaaa66)" style="fill: #fcf500; fill-opacity: 0.175; stroke: #000000; stroke-linejoin: miter"/>
   </g>
   <g id="patch_9">
    <path d="M 383.398948 384.48 
L 428.0715 384.48 
L 428.0715 117.1584 
L 383.398948 117.1584 
z
" clip-path="url(#p804cbaaa66)" style="fill: #fcf500; fill-opacity: 0.175; stroke: #000000; stroke-linejoin: miter"/>
   </g>
   <g id="patch_10">
    <path d="M 428.0715 384.48 
L 472.744051 384.48 
L 472.744051 332.4672 
L 428.0715 332.4672 
z
" clip-path="url(#p804cbaaa66)" style="fill: #fcf500; fill-opacity: 0.175; stroke: #000000; stroke-linejoin: miter"/>
   </g>
   <g id="patch_11">
    <path d="M 472.744051 384.48 
L 517.416603 384.48 
L 517.416603 357.8688 
L 472.744051 357.8688 
z
" clip-path="url(#p804cbaaa66)" style="fill: #fcf500; fill-opacity: 0.175; stroke: #000000; stroke-linejoin: miter"/>
   </g>
   <g id="patch_12">
    <path d="M 517.416603 384.48 
L 562.089155 384.48 
L 562.089155 369.9648 
L 517.416603 369.9648 
z
" clip-path="url(#p804cbaaa66)" style="fill: #fcf500; fill-opacity: 0.175; stroke: #000000; stroke-linejoin: miter"/>
   </g>
   <g id="patch_13">
    <path d="M 562.089155 384.48 
L 606.761707 384.48 
L 606.761707 380.8512 
L 562.089155 380.8512 
z
" clip-path="url(#p804cbaaa66)" style="fill: #fcf500; fill-opacity: 0.175; stroke: #000000; stroke-linejoin: miter"/>
   </g>
   <g id="patch_14">
    <path d="M 115.363636 384.48 
L 160.509535 384.48 
L 160.509535 215.136 
L 115.363636 215.136 
z
" clip-path="url(#p804cbaaa66)" style="fill: #08ff00; fill-opacity: 0.175; stroke: #000000; stroke-linejoin: miter"/>
   </g>
   <g id="patch_15">
    <path d="M 160.509535 384.48 
L 205.655433 384.48 
L 205.655433 336.096 
L 160.509535 336.096 
z
" clip-path="url(#p804cbaaa66)" style="fill: #08ff00; fill-opacity: 0.175; stroke: #000000; stroke-linejoin: miter"/>
   </g>
   <g id="patch_16">
    <path d="M 205.655433 384.48 
L 250.801331 384.48 
L 250.801331 348.192 
L 205.655433 348.192 
z
" clip-path="url(#p804cbaaa66)" style="fill: #08ff00; fill-opacity: 0.175; stroke: #000000; stroke-linejoin: miter"/>
   </g>
   <g id="patch_17">
    <path d="M 250.801331 384.48 
L 295.947229 384.48 
L 295.947229 340.9344 
L 250.801331 340.9344 
z
" clip-path="url(#p804cbaaa66)" style="fill: #08ff00; fill-opacity: 0.175; stroke: #000000; stroke-linejoin: miter"/>
   </g>
   <g id="patch_18">
    <path d="M 295.947229 384.48 
L 341.093127 384.48 
L 341.093127 343.3536 
L 295.947229 343.3536 
z
" clip-path="url(#p804cbaaa66)" style="fill: #08ff00; fill-opacity: 0.175; stroke: #000000; stroke-linejoin: miter"/>
   </g>
   <g id="patch_19">
    <path d="M 341.093127 384.48 
L 386.239026 384.48 
L 386.239026 287.712 
L 341.093127 287.712 
z
" clip-path="url(#p804cbaaa66)" style="fill: #08ff00; fill-opacity: 0.175; stroke: #000000; stroke-linejoin: miter"/>
   </g>
   <g id="patch_20">
    <path d="M 386.239026 384.48 
L 431.384924 384.48 
L 431.384924 123.2064 
L 386.239026 123.2064 
z
" clip-path="url(#p804cbaaa66)" style="fill: #08ff00; fill-opacity: 0.175; stroke: #000000; stroke-linejoin: miter"/>
   </g>
   <g id="patch_21">
    <path d="M 431.384924 384.48 
L 476.530822 384.48 
L 476.530822 350.6112 
L 431.384924 350.6112 
z
" clip-path="url(#p804cbaaa66)" style="fill: #08ff00; fill-opacity: 0.175; stroke: #000000; stroke-linejoin: miter"/>
   </g>
   <g id="patch_22">
    <path d="M 476.530822 384.48 
L 521.67672 384.48 
L 521.67672 356.6592 
L 476.530822 356.6592 
z
" clip-path="url(#p804cbaaa66)" style="fill: #08ff00; fill-opacity: 0.175; stroke: #000000; stroke-linejoin: miter"/>
   </g>
   <g id="patch_23">
    <path d="M 521.67672 384.48 
L 566.822618 384.48 
L 566.822618 368.7552 
L 521.67672 368.7552 
z
" clip-path="url(#p804cbaaa66)" style="fill: #08ff00; fill-opacity: 0.175; stroke: #000000; stroke-linejoin: miter"/>
   </g>
   <g id="patch_24">
    <path d="M 566.822618 384.48 
L 611.968516 384.48 
L 611.968516 380.8512 
L 566.822618 380.8512 
z
" clip-path="url(#p804cbaaa66)" style="fill: #08ff00; fill-opacity: 0.175; stroke: #000000; stroke-linejoin: miter"/>
   </g>
   <g id="patch_25">
    <path d="M 115.363636 384.48 
L 160.955657 384.48 
L 160.955657 109.9008 
L 115.363636 109.9008 
z
" clip-path="url(#p804cbaaa66)" style="fill: #00fff6; fill-opacity: 0.175; stroke: #000000; stroke-linejoin: miter"/>
   </g>
   <g id="patch_26">
    <path d="M 160.955657 384.48 
L 206.547678 384.48 
L 206.547678 367.5456 
L 160.955657 367.5456 
z
" clip-path="url(#p804cbaaa66)" style="fill: #00fff6; fill-opacity: 0.175; stroke: #000000; stroke-linejoin: miter"/>
   </g>
   <g id="patch_27">
    <path d="M 206.547678 384.48 
L 252.139699 384.48 
L 252.139699 340.9344 
L 206.547678 340.9344 
z
" clip-path="url(#p804cbaaa66)" style="fill: #00fff6; fill-opacity: 0.175; stroke: #000000; stroke-linejoin: miter"/>
   </g>
   <g id="patch_28">
    <path d="M 252.139699 384.48 
L 297.73172 384.48 
L 297.73172 348.192 
L 252.139699 348.192 
z
" clip-path="url(#p804cbaaa66)" style="fill: #00fff6; fill-opacity: 0.175; stroke: #000000; stroke-linejoin: miter"/>
   </g>
   <g id="patch_29">
    <path d="M 297.73172 384.48 
L 343.32374 384.48 
L 343.32374 349.4016 
L 297.73172 349.4016 
z
" clip-path="url(#p804cbaaa66)" style="fill: #00fff6; fill-opacity: 0.175; stroke: #000000; stroke-linejoin: miter"/>
   </g>
   <g id="patch_30">
    <path d="M 343.32374 384.48 
L 388.915761 384.48 
L 388.915761 314.3232 
L 343.32374 314.3232 
z
" clip-path="url(#p804cbaaa66)" style="fill: #00fff6; fill-opacity: 0.175; stroke: #000000; stroke-linejoin: miter"/>
   </g>
   <g id="patch_31">
    <path d="M 388.915761 384.48 
L 434.507782 384.48 
L 434.507782 154.656 
L 388.915761 154.656 
z
" clip-path="url(#p804cbaaa66)" style="fill: #00fff6; fill-opacity: 0.175; stroke: #000000; stroke-linejoin: miter"/>
   </g>
   <g id="patch_32">
    <path d="M 434.507782 384.48 
L 480.099803 384.48 
L 480.099803 359.0784 
L 434.507782 359.0784 
z
" clip-path="url(#p804cbaaa66)" style="fill: #00fff6; fill-opacity: 0.175; stroke: #000000; stroke-linejoin: miter"/>
   </g>
   <g id="patch_33">
    <path d="M 480.099803 384.48 
L 525.691823 384.48 
L 525.691823 360.288 
L 480.099803 360.288 
z
" clip-path="url(#p804cbaaa66)" style="fill: #00fff6; fill-opacity: 0.175; stroke: #000000; stroke-linejoin: miter"/>
   </g>
   <g id="patch_34">
    <path d="M 525.691823 384.48 
L 571.283844 384.48 
L 571.283844 371.1744 
L 525.691823 371.1744 
z
" clip-path="url(#p804cbaaa66)" style="fill: #00fff6; fill-opacity: 0.175; stroke: #000000; stroke-linejoin: miter"/>
   </g>
   <g id="patch_35">
    <path d="M 571.283844 384.48 
L 616.875865 384.48 
L 616.875865 380.8512 
L 571.283844 380.8512 
z
" clip-path="url(#p804cbaaa66)" style="fill: #00fff6; fill-opacity: 0.175; stroke: #000000; stroke-linejoin: miter"/>
   </g>
   <g id="patch_36">
    <path d="M 115.363636 384.48 
L 165.172851 384.48 
L 165.172851 222.3936 
L 115.363636 222.3936 
z
" clip-path="url(#p804cbaaa66)" style="fill: #0010ff; fill-opacity: 0.175; stroke: #000000; stroke-linejoin: miter"/>
   </g>
   <g id="patch_37">
    <path d="M 165.172851 384.48 
L 214.982066 384.48 
L 214.982066 378.432 
L 165.172851 378.432 
z
" clip-path="url(#p804cbaaa66)" style="fill: #0010ff; fill-opacity: 0.175; stroke: #000000; stroke-linejoin: miter"/>
   </g>
   <g id="patch_38">
    <path d="M 214.982066 384.48 
L 264.79128 384.48 
L 264.79128 371.1744 
L 214.982066 371.1744 
z
" clip-path="url(#p804cbaaa66)" style="fill: #0010ff; fill-opacity: 0.175; stroke: #000000; stroke-linejoin: miter"/>
   </g>
   <g id="patch_39">
    <path d="M 264.79128 384.48 
L 314.600495 384.48 
L 314.600495 368.7552 
L 264.79128 368.7552 
z
" clip-path="url(#p804cbaaa66)" style="fill: #0010ff; fill-opacity: 0.175; stroke: #000000; stroke-linejoin: miter"/>
   </g>
   <g id="patch_40">
    <path d="M 314.600495 384.48 
L 364.40971 384.48 
L 364.40971 369.9648 
L 314.600495 369.9648 
z
" clip-path="url(#p804cbaaa66)" style="fill: #0010ff; fill-opacity: 0.175; stroke: #000000; stroke-linejoin: miter"/>
   </g>
   <g id="patch_41">
    <path d="M 364.40971 384.48 
L 414.218924 384.48 
L 414.218924 240.5376 
L 364.40971 240.5376 
z
" clip-path="url(#p804cbaaa66)" style="fill: #0010ff; fill-opacity: 0.175; stroke: #000000; stroke-linejoin: miter"/>
   </g>
   <g id="patch_42">
    <path d="M 414.218924 384.48 
L 464.028139 384.48 
L 464.028139 328.8384 
L 414.218924 328.8384 
z
" clip-path="url(#p804cbaaa66)" style="fill: #0010ff; fill-opacity: 0.175; stroke: #000000; stroke-linejoin: miter"/>
   </g>
   <g id="patch_43">
    <path d="M 464.028139 384.48 
L 513.837354 384.48 
L 513.837354 353.0304 
L 464.028139 353.0304 
z
" clip-path="url(#p804cbaaa66)" style="fill: #0010ff; fill-opacity: 0.175; stroke: #000000; stroke-linejoin: miter"/>
   </g>
   <g id="patch_44">
    <path d="M 513.837354 384.48 
L 563.646568 384.48 
L 563.646568 372.384 
L 513.837354 372.384 
z
" clip-path="url(#p804cbaaa66)" style="fill: #0010ff; fill-opacity: 0.175; stroke: #000000; stroke-linejoin: miter"/>
   </g>
   <g id="patch_45">
    <path d="M 563.646568 384.48 
L 613.455783 384.48 
L 613.455783 374.8032 
L 563.646568 374.8032 
z
" clip-path="url(#p804cbaaa66)" style="fill: #0010ff; fill-opacity: 0.175; stroke: #000000; stroke-linejoin: miter"/>
   </g>
   <g id="patch_46">
    <path d="M 115.363636 384.48 
L 161.479339 384.48 
L 161.479339 103.8528 
L 115.363636 103.8528 
z
" clip-path="url(#p804cbaaa66)" style="fill: #ee00ff; fill-opacity: 0.175; stroke: #000000; stroke-linejoin: miter"/>
   </g>
   <g id="patch_47">
    <path d="M 161.479339 384.48 
L 207.595041 384.48 
L 207.595041 378.432 
L 161.479339 378.432 
z
" clip-path="url(#p804cbaaa66)" style="fill: #ee00ff; fill-opacity: 0.175; stroke: #000000; stroke-linejoin: miter"/>
   </g>
   <g id="patch_48">
    <path d="M 207.595041 384.48 
L 253.710744 384.48 
L 253.710744 359.0784 
L 207.595041 359.0784 
z
" clip-path="url(#p804cbaaa66)" style="fill: #ee00ff; fill-opacity: 0.175; stroke: #000000; stroke-linejoin: miter"/>
   </g>
   <g id="patch_49">
    <path d="M 253.710744 384.48 
L 299.826446 384.48 
L 299.826446 351.8208 
L 253.710744 351.8208 
z
" clip-path="url(#p804cbaaa66)" style="fill: #ee00ff; fill-opacity: 0.175; stroke: #000000; stroke-linejoin: miter"/>
   </g>
   <g id="patch_50">
    <path d="M 299.826446 384.48 
L 345.942149 384.48 
L 345.942149 357.8688 
L 299.826446 357.8688 
z
" clip-path="url(#p804cbaaa66)" style="fill: #ee00ff; fill-opacity: 0.175; stroke: #000000; stroke-linejoin: miter"/>
   </g>
   <g id="patch_51">
    <path d="M 345.942149 384.48 
L 392.057851 384.48 
L 392.057851 316.7424 
L 345.942149 316.7424 
z
" clip-path="url(#p804cbaaa66)" style="fill: #ee00ff; fill-opacity: 0.175; stroke: #000000; stroke-linejoin: miter"/>
   </g>
   <g id="patch_52">
    <path d="M 392.057851 384.48 
L 438.173554 384.48 
L 438.173554 184.896 
L 392.057851 184.896 
z
" clip-path="url(#p804cbaaa66)" style="fill: #ee00ff; fill-opacity: 0.175; stroke: #000000; stroke-linejoin: miter"/>
   </g>
   <g id="patch_53">
    <path d="M 438.173554 384.48 
L 484.289256 384.48 
L 484.289256 338.5152 
L 438.173554 338.5152 
z
" clip-path="url(#p804cbaaa66)" style="fill: #ee00ff; fill-opacity: 0.175; stroke: #000000; stroke-linejoin: miter"/>
   </g>
   <g id="patch_54">
    <path d="M 484.289256 384.48 
L 530.404959 384.48 
L 530.404959 357.8688 
L 484.289256 357.8688 
z
" clip-path="url(#p804cbaaa66)" style="fill: #ee00ff; fill-opacity: 0.175; stroke: #000000; stroke-linejoin: miter"/>
   </g>
   <g id="patch_55">
    <path d="M 530.404959 384.48 
L 576.520661 384.48 
L 576.520661 376.0128 
L 530.404959 376.0128 
z
" clip-path="url(#p804cbaaa66)" style="fill: #ee00ff; fill-opacity: 0.175; stroke: #000000; stroke-linejoin: miter"/>
   </g>
   <g id="patch_56">
    <path d="M 576.520661 384.48 
L 622.636364 384.48 
L 622.636364 377.2224 
L 576.520661 377.2224 
z
" clip-path="url(#p804cbaaa66)" style="fill: #ee00ff; fill-opacity: 0.175; stroke: #000000; stroke-linejoin: miter"/>
   </g>
   <g id="matplotlib.axis_1">
    <g id="xtick_1">
     <g id="line2d_1">
      <defs>
       <path id="m166c59042e" d="M 0 0 
L 0 3.5 
" style="stroke: #000000; stroke-width: 0.8"/>
      </defs>
      <g>
       <use xlink:href="#m166c59042e" x="115.363636" y="384.48" style="stroke: #000000; stroke-width: 0.8"/>
      </g>
     </g>
     <g id="text_1">
      <!-- −1.00 -->
      <g transform="translate(100.04098 399.078438) scale(0.1 -0.1)">
       <defs>
        <path id="DejaVuSans-2212" d="M 678 2272 
L 4684 2272 
L 4684 1741 
L 678 1741 
L 678 2272 
z
" transform="scale(0.015625)"/>
        <path id="DejaVuSans-31" d="M 794 531 
L 1825 531 
L 1825 4091 
L 703 3866 
L 703 4441 
L 1819 4666 
L 2450 4666 
L 2450 531 
L 3481 531 
L 3481 0 
L 794 0 
L 794 531 
z
" transform="scale(0.015625)"/>
        <path id="DejaVuSans-2e" d="M 684 794 
L 1344 794 
L 1344 0 
L 684 0 
L 684 794 
z
" transform="scale(0.015625)"/>
        <path id="DejaVuSans-30" d="M 2034 4250 
Q 1547 4250 1301 3770 
Q 1056 3291 1056 2328 
Q 1056 1369 1301 889 
Q 1547 409 2034 409 
Q 2525 409 2770 889 
Q 3016 1369 3016 2328 
Q 3016 3291 2770 3770 
Q 2525 4250 2034 4250 
z
M 2034 4750 
Q 2819 4750 3233 4129 
Q 3647 3509 3647 2328 
Q 3647 1150 3233 529 
Q 2819 -91 2034 -91 
Q 1250 -91 836 529 
Q 422 1150 422 2328 
Q 422 3509 836 4129 
Q 1250 4750 2034 4750 
z
" transform="scale(0.015625)"/>
       </defs>
       <use xlink:href="#DejaVuSans-2212"/>
       <use xlink:href="#DejaVuSans-31" x="83.789062"/>
       <use xlink:href="#DejaVuSans-2e" x="147.412109"/>
       <use xlink:href="#DejaVuSans-30" x="179.199219"/>
       <use xlink:href="#DejaVuSans-30" x="242.822266"/>
      </g>
     </g>
    </g>
    <g id="xtick_2">
     <g id="line2d_2">
      <g>
       <use xlink:href="#m166c59042e" x="185.295402" y="384.48" style="stroke: #000000; stroke-width: 0.8"/>
      </g>
     </g>
     <g id="text_2">
      <!-- −0.75 -->
      <g transform="translate(169.972746 399.078438) scale(0.1 -0.1)">
       <defs>
        <path id="DejaVuSans-37" d="M 525 4666 
L 3525 4666 
L 3525 4397 
L 1831 0 
L 1172 0 
L 2766 4134 
L 525 4134 
L 525 4666 
z
" transform="scale(0.015625)"/>
        <path id="DejaVuSans-35" d="M 691 4666 
L 3169 4666 
L 3169 4134 
L 1269 4134 
L 1269 2991 
Q 1406 3038 1543 3061 
Q 1681 3084 1819 3084 
Q 2600 3084 3056 2656 
Q 3513 2228 3513 1497 
Q 3513 744 3044 326 
Q 2575 -91 1722 -91 
Q 1428 -91 1123 -41 
Q 819 9 494 109 
L 494 744 
Q 775 591 1075 516 
Q 1375 441 1709 441 
Q 2250 441 2565 725 
Q 2881 1009 2881 1497 
Q 2881 1984 2565 2268 
Q 2250 2553 1709 2553 
Q 1456 2553 1204 2497 
Q 953 2441 691 2322 
L 691 4666 
z
" transform="scale(0.015625)"/>
       </defs>
       <use xlink:href="#DejaVuSans-2212"/>
       <use xlink:href="#DejaVuSans-30" x="83.789062"/>
       <use xlink:href="#DejaVuSans-2e" x="147.412109"/>
       <use xlink:href="#DejaVuSans-37" x="179.199219"/>
       <use xlink:href="#DejaVuSans-35" x="242.822266"/>
      </g>
     </g>
    </g>
    <g id="xtick_3">
     <g id="line2d_3">
      <g>
       <use xlink:href="#m166c59042e" x="255.227167" y="384.48" style="stroke: #000000; stroke-width: 0.8"/>
      </g>
     </g>
     <g id="text_3">
      <!-- −0.50 -->
      <g transform="translate(239.904511 399.078438) scale(0.1 -0.1)">
       <use xlink:href="#DejaVuSans-2212"/>
       <use xlink:href="#DejaVuSans-30" x="83.789062"/>
       <use xlink:href="#DejaVuSans-2e" x="147.412109"/>
       <use xlink:href="#DejaVuSans-35" x="179.199219"/>
       <use xlink:href="#DejaVuSans-30" x="242.822266"/>
      </g>
     </g>
    </g>
    <g id="xtick_4">
     <g id="line2d_4">
      <g>
       <use xlink:href="#m166c59042e" x="325.158933" y="384.48" style="stroke: #000000; stroke-width: 0.8"/>
      </g>
     </g>
     <g id="text_4">
      <!-- −0.25 -->
      <g transform="translate(309.836277 399.078438) scale(0.1 -0.1)">
       <defs>
        <path id="DejaVuSans-32" d="M 1228 531 
L 3431 531 
L 3431 0 
L 469 0 
L 469 531 
Q 828 903 1448 1529 
Q 2069 2156 2228 2338 
Q 2531 2678 2651 2914 
Q 2772 3150 2772 3378 
Q 2772 3750 2511 3984 
Q 2250 4219 1831 4219 
Q 1534 4219 1204 4116 
Q 875 4013 500 3803 
L 500 4441 
Q 881 4594 1212 4672 
Q 1544 4750 1819 4750 
Q 2544 4750 2975 4387 
Q 3406 4025 3406 3419 
Q 3406 3131 3298 2873 
Q 3191 2616 2906 2266 
Q 2828 2175 2409 1742 
Q 1991 1309 1228 531 
z
" transform="scale(0.015625)"/>
       </defs>
       <use xlink:href="#DejaVuSans-2212"/>
       <use xlink:href="#DejaVuSans-30" x="83.789062"/>
       <use xlink:href="#DejaVuSans-2e" x="147.412109"/>
       <use xlink:href="#DejaVuSans-32" x="179.199219"/>
       <use xlink:href="#DejaVuSans-35" x="242.822266"/>
      </g>
     </g>
    </g>
    <g id="xtick_5">
     <g id="line2d_5">
      <g>
       <use xlink:href="#m166c59042e" x="395.090698" y="384.48" style="stroke: #000000; stroke-width: 0.8"/>
      </g>
     </g>
     <g id="text_5">
      <!-- 0.00 -->
      <g transform="translate(383.957886 399.078438) scale(0.1 -0.1)">
       <use xlink:href="#DejaVuSans-30"/>
       <use xlink:href="#DejaVuSans-2e" x="63.623047"/>
       <use xlink:href="#DejaVuSans-30" x="95.410156"/>
       <use xlink:href="#DejaVuSans-30" x="159.033203"/>
      </g>
     </g>
    </g>
    <g id="xtick_6">
     <g id="line2d_6">
      <g>
       <use xlink:href="#m166c59042e" x="465.022464" y="384.48" style="stroke: #000000; stroke-width: 0.8"/>
      </g>
     </g>
     <g id="text_6">
      <!-- 0.25 -->
      <g transform="translate(453.889651 399.078438) scale(0.1 -0.1)">
       <use xlink:href="#DejaVuSans-30"/>
       <use xlink:href="#DejaVuSans-2e" x="63.623047"/>
       <use xlink:href="#DejaVuSans-32" x="95.410156"/>
       <use xlink:href="#DejaVuSans-35" x="159.033203"/>
      </g>
     </g>
    </g>
    <g id="xtick_7">
     <g id="line2d_7">
      <g>
       <use xlink:href="#m166c59042e" x="534.954229" y="384.48" style="stroke: #000000; stroke-width: 0.8"/>
      </g>
     </g>
     <g id="text_7">
      <!-- 0.50 -->
      <g transform="translate(523.821417 399.078438) scale(0.1 -0.1)">
       <use xlink:href="#DejaVuSans-30"/>
       <use xlink:href="#DejaVuSans-2e" x="63.623047"/>
       <use xlink:href="#DejaVuSans-35" x="95.410156"/>
       <use xlink:href="#DejaVuSans-30" x="159.033203"/>
      </g>
     </g>
    </g>
    <g id="xtick_8">
     <g id="line2d_8">
      <g>
       <use xlink:href="#m166c59042e" x="604.885995" y="384.48" style="stroke: #000000; stroke-width: 0.8"/>
      </g>
     </g>
     <g id="text_8">
      <!-- 0.75 -->
      <g transform="translate(593.753182 399.078438) scale(0.1 -0.1)">
       <use xlink:href="#DejaVuSans-30"/>
       <use xlink:href="#DejaVuSans-2e" x="63.623047"/>
       <use xlink:href="#DejaVuSans-37" x="95.410156"/>
       <use xlink:href="#DejaVuSans-35" x="159.033203"/>
      </g>
     </g>
    </g>
    <g id="text_9">
     <!-- Avg Normalized Interplay -->
     <g transform="translate(305.883594 412.756563) scale(0.1 -0.1)">
      <defs>
       <path id="DejaVuSans-41" d="M 2188 4044 
L 1331 1722 
L 3047 1722 
L 2188 4044 
z
M 1831 4666 
L 2547 4666 
L 4325 0 
L 3669 0 
L 3244 1197 
L 1141 1197 
L 716 0 
L 50 0 
L 1831 4666 
z
" transform="scale(0.015625)"/>
       <path id="DejaVuSans-76" d="M 191 3500 
L 800 3500 
L 1894 563 
L 2988 3500 
L 3597 3500 
L 2284 0 
L 1503 0 
L 191 3500 
z
" transform="scale(0.015625)"/>
       <path id="DejaVuSans-67" d="M 2906 1791 
Q 2906 2416 2648 2759 
Q 2391 3103 1925 3103 
Q 1463 3103 1205 2759 
Q 947 2416 947 1791 
Q 947 1169 1205 825 
Q 1463 481 1925 481 
Q 2391 481 2648 825 
Q 2906 1169 2906 1791 
z
M 3481 434 
Q 3481 -459 3084 -895 
Q 2688 -1331 1869 -1331 
Q 1566 -1331 1297 -1286 
Q 1028 -1241 775 -1147 
L 775 -588 
Q 1028 -725 1275 -790 
Q 1522 -856 1778 -856 
Q 2344 -856 2625 -561 
Q 2906 -266 2906 331 
L 2906 616 
Q 2728 306 2450 153 
Q 2172 0 1784 0 
Q 1141 0 747 490 
Q 353 981 353 1791 
Q 353 2603 747 3093 
Q 1141 3584 1784 3584 
Q 2172 3584 2450 3431 
Q 2728 3278 2906 2969 
L 2906 3500 
L 3481 3500 
L 3481 434 
z
" transform="scale(0.015625)"/>
       <path id="DejaVuSans-20" transform="scale(0.015625)"/>
       <path id="DejaVuSans-4e" d="M 628 4666 
L 1478 4666 
L 3547 763 
L 3547 4666 
L 4159 4666 
L 4159 0 
L 3309 0 
L 1241 3903 
L 1241 0 
L 628 0 
L 628 4666 
z
" transform="scale(0.015625)"/>
       <path id="DejaVuSans-6f" d="M 1959 3097 
Q 1497 3097 1228 2736 
Q 959 2375 959 1747 
Q 959 1119 1226 758 
Q 1494 397 1959 397 
Q 2419 397 2687 759 
Q 2956 1122 2956 1747 
Q 2956 2369 2687 2733 
Q 2419 3097 1959 3097 
z
M 1959 3584 
Q 2709 3584 3137 3096 
Q 3566 2609 3566 1747 
Q 3566 888 3137 398 
Q 2709 -91 1959 -91 
Q 1206 -91 779 398 
Q 353 888 353 1747 
Q 353 2609 779 3096 
Q 1206 3584 1959 3584 
z
" transform="scale(0.015625)"/>
       <path id="DejaVuSans-72" d="M 2631 2963 
Q 2534 3019 2420 3045 
Q 2306 3072 2169 3072 
Q 1681 3072 1420 2755 
Q 1159 2438 1159 1844 
L 1159 0 
L 581 0 
L 581 3500 
L 1159 3500 
L 1159 2956 
Q 1341 3275 1631 3429 
Q 1922 3584 2338 3584 
Q 2397 3584 2469 3576 
Q 2541 3569 2628 3553 
L 2631 2963 
z
" transform="scale(0.015625)"/>
       <path id="DejaVuSans-6d" d="M 3328 2828 
Q 3544 3216 3844 3400 
Q 4144 3584 4550 3584 
Q 5097 3584 5394 3201 
Q 5691 2819 5691 2113 
L 5691 0 
L 5113 0 
L 5113 2094 
Q 5113 2597 4934 2840 
Q 4756 3084 4391 3084 
Q 3944 3084 3684 2787 
Q 3425 2491 3425 1978 
L 3425 0 
L 2847 0 
L 2847 2094 
Q 2847 2600 2669 2842 
Q 2491 3084 2119 3084 
Q 1678 3084 1418 2786 
Q 1159 2488 1159 1978 
L 1159 0 
L 581 0 
L 581 3500 
L 1159 3500 
L 1159 2956 
Q 1356 3278 1631 3431 
Q 1906 3584 2284 3584 
Q 2666 3584 2933 3390 
Q 3200 3197 3328 2828 
z
" transform="scale(0.015625)"/>
       <path id="DejaVuSans-61" d="M 2194 1759 
Q 1497 1759 1228 1600 
Q 959 1441 959 1056 
Q 959 750 1161 570 
Q 1363 391 1709 391 
Q 2188 391 2477 730 
Q 2766 1069 2766 1631 
L 2766 1759 
L 2194 1759 
z
M 3341 1997 
L 3341 0 
L 2766 0 
L 2766 531 
Q 2569 213 2275 61 
Q 1981 -91 1556 -91 
Q 1019 -91 701 211 
Q 384 513 384 1019 
Q 384 1609 779 1909 
Q 1175 2209 1959 2209 
L 2766 2209 
L 2766 2266 
Q 2766 2663 2505 2880 
Q 2244 3097 1772 3097 
Q 1472 3097 1187 3025 
Q 903 2953 641 2809 
L 641 3341 
Q 956 3463 1253 3523 
Q 1550 3584 1831 3584 
Q 2591 3584 2966 3190 
Q 3341 2797 3341 1997 
z
" transform="scale(0.015625)"/>
       <path id="DejaVuSans-6c" d="M 603 4863 
L 1178 4863 
L 1178 0 
L 603 0 
L 603 4863 
z
" transform="scale(0.015625)"/>
       <path id="DejaVuSans-69" d="M 603 3500 
L 1178 3500 
L 1178 0 
L 603 0 
L 603 3500 
z
M 603 4863 
L 1178 4863 
L 1178 4134 
L 603 4134 
L 603 4863 
z
" transform="scale(0.015625)"/>
       <path id="DejaVuSans-7a" d="M 353 3500 
L 3084 3500 
L 3084 2975 
L 922 459 
L 3084 459 
L 3084 0 
L 275 0 
L 275 525 
L 2438 3041 
L 353 3041 
L 353 3500 
z
" transform="scale(0.015625)"/>
       <path id="DejaVuSans-65" d="M 3597 1894 
L 3597 1613 
L 953 1613 
Q 991 1019 1311 708 
Q 1631 397 2203 397 
Q 2534 397 2845 478 
Q 3156 559 3463 722 
L 3463 178 
Q 3153 47 2828 -22 
Q 2503 -91 2169 -91 
Q 1331 -91 842 396 
Q 353 884 353 1716 
Q 353 2575 817 3079 
Q 1281 3584 2069 3584 
Q 2775 3584 3186 3129 
Q 3597 2675 3597 1894 
z
M 3022 2063 
Q 3016 2534 2758 2815 
Q 2500 3097 2075 3097 
Q 1594 3097 1305 2825 
Q 1016 2553 972 2059 
L 3022 2063 
z
" transform="scale(0.015625)"/>
       <path id="DejaVuSans-64" d="M 2906 2969 
L 2906 4863 
L 3481 4863 
L 3481 0 
L 2906 0 
L 2906 525 
Q 2725 213 2448 61 
Q 2172 -91 1784 -91 
Q 1150 -91 751 415 
Q 353 922 353 1747 
Q 353 2572 751 3078 
Q 1150 3584 1784 3584 
Q 2172 3584 2448 3432 
Q 2725 3281 2906 2969 
z
M 947 1747 
Q 947 1113 1208 752 
Q 1469 391 1925 391 
Q 2381 391 2643 752 
Q 2906 1113 2906 1747 
Q 2906 2381 2643 2742 
Q 2381 3103 1925 3103 
Q 1469 3103 1208 2742 
Q 947 2381 947 1747 
z
" transform="scale(0.015625)"/>
       <path id="DejaVuSans-49" d="M 628 4666 
L 1259 4666 
L 1259 0 
L 628 0 
L 628 4666 
z
" transform="scale(0.015625)"/>
       <path id="DejaVuSans-6e" d="M 3513 2113 
L 3513 0 
L 2938 0 
L 2938 2094 
Q 2938 2591 2744 2837 
Q 2550 3084 2163 3084 
Q 1697 3084 1428 2787 
Q 1159 2491 1159 1978 
L 1159 0 
L 581 0 
L 581 3500 
L 1159 3500 
L 1159 2956 
Q 1366 3272 1645 3428 
Q 1925 3584 2291 3584 
Q 2894 3584 3203 3211 
Q 3513 2838 3513 2113 
z
" transform="scale(0.015625)"/>
       <path id="DejaVuSans-74" d="M 1172 4494 
L 1172 3500 
L 2356 3500 
L 2356 3053 
L 1172 3053 
L 1172 1153 
Q 1172 725 1289 603 
Q 1406 481 1766 481 
L 2356 481 
L 2356 0 
L 1766 0 
Q 1100 0 847 248 
Q 594 497 594 1153 
L 594 3053 
L 172 3053 
L 172 3500 
L 594 3500 
L 594 4494 
L 1172 4494 
z
" transform="scale(0.015625)"/>
       <path id="DejaVuSans-70" d="M 1159 525 
L 1159 -1331 
L 581 -1331 
L 581 3500 
L 1159 3500 
L 1159 2969 
Q 1341 3281 1617 3432 
Q 1894 3584 2278 3584 
Q 2916 3584 3314 3078 
Q 3713 2572 3713 1747 
Q 3713 922 3314 415 
Q 2916 -91 2278 -91 
Q 1894 -91 1617 61 
Q 1341 213 1159 525 
z
M 3116 1747 
Q 3116 2381 2855 2742 
Q 2594 3103 2138 3103 
Q 1681 3103 1420 2742 
Q 1159 2381 1159 1747 
Q 1159 1113 1420 752 
Q 1681 391 2138 391 
Q 2594 391 2855 752 
Q 3116 1113 3116 1747 
z
" transform="scale(0.015625)"/>
       <path id="DejaVuSans-79" d="M 2059 -325 
Q 1816 -950 1584 -1140 
Q 1353 -1331 966 -1331 
L 506 -1331 
L 506 -850 
L 844 -850 
Q 1081 -850 1212 -737 
Q 1344 -625 1503 -206 
L 1606 56 
L 191 3500 
L 800 3500 
L 1894 763 
L 2988 3500 
L 3597 3500 
L 2059 -325 
z
" transform="scale(0.015625)"/>
      </defs>
      <use xlink:href="#DejaVuSans-41"/>
      <use xlink:href="#DejaVuSans-76" x="62.533203"/>
      <use xlink:href="#DejaVuSans-67" x="121.712891"/>
      <use xlink:href="#DejaVuSans-20" x="185.189453"/>
      <use xlink:href="#DejaVuSans-4e" x="216.976562"/>
      <use xlink:href="#DejaVuSans-6f" x="291.78125"/>
      <use xlink:href="#DejaVuSans-72" x="352.962891"/>
      <use xlink:href="#DejaVuSans-6d" x="392.326172"/>
      <use xlink:href="#DejaVuSans-61" x="489.738281"/>
      <use xlink:href="#DejaVuSans-6c" x="551.017578"/>
      <use xlink:href="#DejaVuSans-69" x="578.800781"/>
      <use xlink:href="#DejaVuSans-7a" x="606.583984"/>
      <use xlink:href="#DejaVuSans-65" x="659.074219"/>
      <use xlink:href="#DejaVuSans-64" x="720.597656"/>
      <use xlink:href="#DejaVuSans-20" x="784.074219"/>
      <use xlink:href="#DejaVuSans-49" x="815.861328"/>
      <use xlink:href="#DejaVuSans-6e" x="845.353516"/>
      <use xlink:href="#DejaVuSans-74" x="908.732422"/>
      <use xlink:href="#DejaVuSans-65" x="947.941406"/>
      <use xlink:href="#DejaVuSans-72" x="1009.464844"/>
      <use xlink:href="#DejaVuSans-70" x="1050.578125"/>
      <use xlink:href="#DejaVuSans-6c" x="1114.054688"/>
      <use xlink:href="#DejaVuSans-61" x="1141.837891"/>
      <use xlink:href="#DejaVuSans-79" x="1203.117188"/>
     </g>
    </g>
   </g>
   <g id="matplotlib.axis_2">
    <g id="ytick_1">
     <g id="line2d_9">
      <defs>
       <path id="m90ad36eecf" d="M 0 0 
L -3.5 0 
" style="stroke: #000000; stroke-width: 0.8"/>
      </defs>
      <g>
       <use xlink:href="#m90ad36eecf" x="90" y="384.48" style="stroke: #000000; stroke-width: 0.8"/>
      </g>
     </g>
     <g id="text_10">
      <!-- 0 -->
      <g transform="translate(76.6375 388.279219) scale(0.1 -0.1)">
       <use xlink:href="#DejaVuSans-30"/>
      </g>
     </g>
    </g>
    <g id="ytick_2">
     <g id="line2d_10">
      <g>
       <use xlink:href="#m90ad36eecf" x="90" y="324" style="stroke: #000000; stroke-width: 0.8"/>
      </g>
     </g>
     <g id="text_11">
      <!-- 50 -->
      <g transform="translate(70.275 327.799219) scale(0.1 -0.1)">
       <use xlink:href="#DejaVuSans-35"/>
       <use xlink:href="#DejaVuSans-30" x="63.623047"/>
      </g>
     </g>
    </g>
    <g id="ytick_3">
     <g id="line2d_11">
      <g>
       <use xlink:href="#m90ad36eecf" x="90" y="263.52" style="stroke: #000000; stroke-width: 0.8"/>
      </g>
     </g>
     <g id="text_12">
      <!-- 100 -->
      <g transform="translate(63.9125 267.319219) scale(0.1 -0.1)">
       <use xlink:href="#DejaVuSans-31"/>
       <use xlink:href="#DejaVuSans-30" x="63.623047"/>
       <use xlink:href="#DejaVuSans-30" x="127.246094"/>
      </g>
     </g>
    </g>
    <g id="ytick_4">
     <g id="line2d_12">
      <g>
       <use xlink:href="#m90ad36eecf" x="90" y="203.04" style="stroke: #000000; stroke-width: 0.8"/>
      </g>
     </g>
     <g id="text_13">
      <!-- 150 -->
      <g transform="translate(63.9125 206.839219) scale(0.1 -0.1)">
       <use xlink:href="#DejaVuSans-31"/>
       <use xlink:href="#DejaVuSans-35" x="63.623047"/>
       <use xlink:href="#DejaVuSans-30" x="127.246094"/>
      </g>
     </g>
    </g>
    <g id="ytick_5">
     <g id="line2d_13">
      <g>
       <use xlink:href="#m90ad36eecf" x="90" y="142.56" style="stroke: #000000; stroke-width: 0.8"/>
      </g>
     </g>
     <g id="text_14">
      <!-- 200 -->
      <g transform="translate(63.9125 146.359219) scale(0.1 -0.1)">
       <use xlink:href="#DejaVuSans-32"/>
       <use xlink:href="#DejaVuSans-30" x="63.623047"/>
       <use xlink:href="#DejaVuSans-30" x="127.246094"/>
      </g>
     </g>
    </g>
    <g id="ytick_6">
     <g id="line2d_14">
      <g>
       <use xlink:href="#m90ad36eecf" x="90" y="82.08" style="stroke: #000000; stroke-width: 0.8"/>
      </g>
     </g>
     <g id="text_15">
      <!-- 250 -->
      <g transform="translate(63.9125 85.879219) scale(0.1 -0.1)">
       <use xlink:href="#DejaVuSans-32"/>
       <use xlink:href="#DejaVuSans-35" x="63.623047"/>
       <use xlink:href="#DejaVuSans-30" x="127.246094"/>
      </g>
     </g>
    </g>
    <g id="text_16">
     <!-- Frequency -->
     <g transform="translate(57.832812 243.989687) rotate(-90) scale(0.1 -0.1)">
      <defs>
       <path id="DejaVuSans-46" d="M 628 4666 
L 3309 4666 
L 3309 4134 
L 1259 4134 
L 1259 2759 
L 3109 2759 
L 3109 2228 
L 1259 2228 
L 1259 0 
L 628 0 
L 628 4666 
z
" transform="scale(0.015625)"/>
       <path id="DejaVuSans-71" d="M 947 1747 
Q 947 1113 1208 752 
Q 1469 391 1925 391 
Q 2381 391 2643 752 
Q 2906 1113 2906 1747 
Q 2906 2381 2643 2742 
Q 2381 3103 1925 3103 
Q 1469 3103 1208 2742 
Q 947 2381 947 1747 
z
M 2906 525 
Q 2725 213 2448 61 
Q 2172 -91 1784 -91 
Q 1150 -91 751 415 
Q 353 922 353 1747 
Q 353 2572 751 3078 
Q 1150 3584 1784 3584 
Q 2172 3584 2448 3432 
Q 2725 3281 2906 2969 
L 2906 3500 
L 3481 3500 
L 3481 -1331 
L 2906 -1331 
L 2906 525 
z
" transform="scale(0.015625)"/>
       <path id="DejaVuSans-75" d="M 544 1381 
L 544 3500 
L 1119 3500 
L 1119 1403 
Q 1119 906 1312 657 
Q 1506 409 1894 409 
Q 2359 409 2629 706 
Q 2900 1003 2900 1516 
L 2900 3500 
L 3475 3500 
L 3475 0 
L 2900 0 
L 2900 538 
Q 2691 219 2414 64 
Q 2138 -91 1772 -91 
Q 1169 -91 856 284 
Q 544 659 544 1381 
z
M 1991 3584 
L 1991 3584 
z
" transform="scale(0.015625)"/>
       <path id="DejaVuSans-63" d="M 3122 3366 
L 3122 2828 
Q 2878 2963 2633 3030 
Q 2388 3097 2138 3097 
Q 1578 3097 1268 2742 
Q 959 2388 959 1747 
Q 959 1106 1268 751 
Q 1578 397 2138 397 
Q 2388 397 2633 464 
Q 2878 531 3122 666 
L 3122 134 
Q 2881 22 2623 -34 
Q 2366 -91 2075 -91 
Q 1284 -91 818 406 
Q 353 903 353 1747 
Q 353 2603 823 3093 
Q 1294 3584 2113 3584 
Q 2378 3584 2631 3529 
Q 2884 3475 3122 3366 
z
" transform="scale(0.015625)"/>
      </defs>
      <use xlink:href="#DejaVuSans-46"/>
      <use xlink:href="#DejaVuSans-72" x="50.269531"/>
      <use xlink:href="#DejaVuSans-65" x="89.132812"/>
      <use xlink:href="#DejaVuSans-71" x="150.65625"/>
      <use xlink:href="#DejaVuSans-75" x="214.132812"/>
      <use xlink:href="#DejaVuSans-65" x="277.511719"/>
      <use xlink:href="#DejaVuSans-6e" x="339.035156"/>
      <use xlink:href="#DejaVuSans-63" x="402.414062"/>
      <use xlink:href="#DejaVuSans-79" x="457.394531"/>
     </g>
    </g>
   </g>
   <g id="line2d_15">
    <path d="M 115.363636 304.811097 
L 117.832973 304.139679 
L 120.30231 303.777655 
L 122.771647 303.716978 
L 125.240985 303.94486 
L 127.710322 304.444176 
L 130.179659 305.193991 
L 132.648996 306.170169 
L 135.118333 307.346062 
L 137.58767 308.693238 
L 142.526344 311.783306 
L 147.465018 315.205462 
L 157.342366 322.207811 
L 162.28104 325.465056 
L 167.219714 328.423832 
L 172.158388 331.041957 
L 177.097062 333.317572 
L 182.035736 335.278919 
L 186.97441 336.972864 
L 191.913085 338.453926 
L 199.321096 340.390257 
L 209.198444 342.644074 
L 219.075792 344.659858 
L 228.95314 346.42438 
L 236.361151 347.516445 
L 243.769162 348.343753 
L 248.707836 348.718721 
L 253.646511 348.93255 
L 258.585185 348.968163 
L 263.523859 348.807392 
L 268.462533 348.429742 
L 273.401207 347.811056 
L 278.339881 346.922196 
L 283.278555 345.72783 
L 288.217229 344.185426 
L 293.155903 342.244561 
L 298.094577 339.8467 
L 300.563914 338.455984 
L 303.033251 336.925673 
L 305.502588 335.246544 
L 307.971925 333.409152 
L 310.441262 331.403953 
L 312.910599 329.221465 
L 315.379936 326.852447 
L 317.849274 324.288122 
L 320.318611 321.520425 
L 322.787948 318.542287 
L 325.257285 315.347949 
L 327.726622 311.933293 
L 330.195959 308.296203 
L 332.665296 304.43693 
L 337.60397 296.066873 
L 342.542644 286.886151 
L 347.481318 277.017151 
L 354.889329 261.354211 
L 362.29734 245.500786 
L 367.236014 235.412288 
L 369.705351 230.660842 
L 372.174688 226.17312 
L 374.644025 222.000066 
L 377.113362 218.191104 
L 379.5827 214.793149 
L 382.052037 211.84962 
L 384.521374 209.399497 
L 386.990711 207.476441 
L 389.460048 206.108018 
L 391.929385 205.31503 
L 394.398722 205.111005 
L 396.868059 205.501839 
L 399.337396 206.485617 
L 401.806733 208.052617 
L 404.27607 210.185491 
L 406.745407 212.859628 
L 409.214744 216.043687 
L 411.684081 219.700274 
L 414.153418 223.786749 
L 416.622755 228.256138 
L 419.092092 233.058119 
L 424.030766 243.44803 
L 428.96944 254.526234 
L 441.316125 282.584983 
L 446.2548 293.07804 
L 451.193474 302.797871 
L 453.662811 307.323624 
L 456.132148 311.61225 
L 458.601485 315.658282 
L 461.070822 319.460067 
L 463.540159 323.019364 
L 466.009496 326.34091 
L 468.478833 329.431983 
L 470.94817 332.301957 
L 473.417507 334.961879 
L 475.886844 337.424061 
L 478.356181 339.701704 
L 480.825518 341.808552 
L 483.294855 343.758593 
L 488.233529 347.243828 
L 493.172203 350.264891 
L 498.110877 352.919884 
L 503.049551 355.294041 
L 507.988226 357.457956 
L 515.396237 360.427068 
L 522.804248 363.172117 
L 532.681596 366.58913 
L 542.558944 369.750113 
L 549.966955 371.926268 
L 557.374966 373.905627 
L 564.782977 375.667305 
L 572.190989 377.202586 
L 579.599 378.516252 
L 587.007011 379.624498 
L 596.884359 380.823945 
L 606.761707 381.76286 
L 606.761707 381.76286 
" clip-path="url(#p804cbaaa66)" style="fill: none; stroke: #fcf500; stroke-width: 1.5; stroke-linecap: square"/>
   </g>
   <g id="line2d_16">
    <path d="M 115.363636 293.504993 
L 117.859138 292.924108 
L 120.35464 292.706468 
L 122.850142 292.843794 
L 125.345644 293.322517 
L 127.841146 294.124186 
L 130.336648 295.225988 
L 132.83215 296.601371 
L 135.327652 298.220741 
L 137.823154 300.052213 
L 140.318655 302.06239 
L 145.309659 306.482342 
L 155.291667 316.003799 
L 160.282671 320.648023 
L 165.273675 324.982158 
L 170.264678 328.894575 
L 175.255682 332.322109 
L 180.246686 335.243381 
L 185.23769 337.669581 
L 190.228694 339.634486 
L 195.219697 341.185181 
L 200.210701 342.374479 
L 205.201705 343.255493 
L 210.192709 343.878361 
L 215.183713 344.28873 
L 222.670218 344.593963 
L 230.156724 344.631203 
L 240.138732 344.431099 
L 257.607245 343.799732 
L 267.589253 343.303835 
L 275.075759 342.746563 
L 280.066762 342.208069 
L 285.057766 341.468585 
L 290.04877 340.457961 
L 295.039774 339.096031 
L 297.535276 338.255893 
L 300.030778 337.294127 
L 302.52628 336.198698 
L 305.021782 334.957388 
L 307.517283 333.557923 
L 310.012785 331.988139 
L 312.508287 330.236164 
L 315.003789 328.290624 
L 317.499291 326.140885 
L 319.994793 323.777316 
L 322.490295 321.191572 
L 324.985797 318.37691 
L 327.481299 315.32851 
L 329.976801 312.043818 
L 332.472303 308.522889 
L 334.967804 304.768722 
L 337.463306 300.787585 
L 342.45431 292.18755 
L 347.445314 282.848475 
L 352.436318 272.962128 
L 364.913827 247.693819 
L 369.904831 238.29278 
L 372.400333 233.940445 
L 374.895835 229.88704 
L 377.391337 226.18098 
L 379.886839 222.868196 
L 382.382341 219.991211 
L 384.877843 217.58825 
L 387.373345 215.692404 
L 389.868846 214.330904 
L 392.364348 213.524491 
L 394.85985 213.286927 
L 397.355352 213.624653 
L 399.850854 214.536617 
L 402.346356 216.014258 
L 404.841858 218.041669 
L 407.33736 220.595921 
L 409.832862 223.647548 
L 412.328364 227.161167 
L 414.823866 231.096223 
L 417.319367 235.407836 
L 419.814869 240.04772 
L 424.805873 250.10795 
L 429.796877 260.859535 
L 442.274387 288.160127 
L 447.26539 298.374396 
L 452.256394 307.822369 
L 454.751896 312.21252 
L 457.247398 316.364526 
L 459.7429 320.272068 
L 462.238402 323.932754 
L 464.733904 327.34775 
L 467.229406 330.521378 
L 469.724908 333.460686 
L 472.22041 336.175018 
L 474.715911 338.675584 
L 477.211413 340.97504 
L 479.706915 343.087094 
L 482.202417 345.026139 
L 484.697919 346.806916 
L 489.688923 349.952635 
L 494.679927 352.638791 
L 499.670931 354.970386 
L 504.661934 357.038676 
L 512.14844 359.807667 
L 522.130448 363.144818 
L 534.607957 367.040748 
L 547.085467 370.697721 
L 557.067474 373.372109 
L 564.55398 375.177426 
L 572.040486 376.782373 
L 579.526992 378.175735 
L 587.013497 379.360406 
L 594.500003 380.351063 
L 604.482011 381.409524 
L 611.968516 382.039993 
L 611.968516 382.039993 
" clip-path="url(#p804cbaaa66)" style="fill: none; stroke: #08ff00; stroke-width: 1.5; stroke-linecap: square"/>
   </g>
   <g id="line2d_17">
    <path d="M 115.363636 252.390513 
L 117.883798 252.353718 
L 120.40396 252.849894 
L 122.924122 253.867694 
L 125.444284 255.388886 
L 127.964446 257.388734 
L 130.484608 259.836519 
L 133.00477 262.696168 
L 135.524932 265.927 
L 138.045094 269.48454 
L 140.565256 273.321396 
L 145.60558 281.634397 
L 153.166066 294.94744 
L 160.726552 308.135293 
L 165.766875 316.319425 
L 168.287037 320.134432 
L 170.807199 323.733085 
L 173.327361 327.097425 
L 175.847523 330.214055 
L 178.367685 333.073979 
L 180.887847 335.672376 
L 183.408009 338.008311 
L 185.928171 340.084401 
L 188.448333 341.906443 
L 190.968495 343.483021 
L 193.488657 344.825099 
L 196.008819 345.945617 
L 198.528981 346.859092 
L 201.049143 347.581231 
L 203.569305 348.128577 
L 206.089467 348.518165 
L 208.609629 348.767226 
L 213.649953 348.91204 
L 218.690276 348.695162 
L 223.7306 348.237773 
L 233.811248 347.008073 
L 243.891896 345.854136 
L 251.452382 345.250159 
L 259.012868 344.919604 
L 266.573354 344.820453 
L 284.214487 344.741252 
L 289.254811 344.481094 
L 294.295135 343.970235 
L 299.335459 343.116597 
L 301.855621 342.531114 
L 304.375783 341.823502 
L 306.895945 340.981545 
L 309.416107 339.993257 
L 311.936269 338.847059 
L 314.456431 337.531987 
L 316.976593 336.037914 
L 319.496755 334.355785 
L 322.016917 332.477876 
L 324.537078 330.398057 
L 327.05724 328.112058 
L 329.577402 325.617744 
L 332.097564 322.915368 
L 334.617726 320.007824 
L 337.137888 316.900863 
L 342.178212 310.127107 
L 347.218536 302.703489 
L 352.25886 294.792467 
L 367.379832 270.487222 
L 372.420156 263.155669 
L 374.940318 259.808944 
L 377.460479 256.725355 
L 379.980641 253.940459 
L 382.500803 251.487219 
L 385.020965 249.395398 
L 387.541127 247.690987 
L 390.061289 246.395708 
L 392.581451 245.526587 
L 395.101613 245.095616 
L 397.621775 245.109516 
L 400.141937 245.569604 
L 402.662099 246.471765 
L 405.182261 247.806538 
L 407.702423 249.559311 
L 410.222585 251.710612 
L 412.742747 254.236499 
L 415.262909 257.109035 
L 417.783071 260.296832 
L 420.303233 263.765646 
L 422.823395 267.479025 
L 427.863719 275.486605 
L 432.904042 284.009044 
L 445.504852 305.637536 
L 450.545176 313.765359 
L 455.5855 321.318573 
L 460.625824 328.187086 
L 463.145986 331.344578 
L 465.666148 334.31298 
L 468.18631 337.092274 
L 470.706472 339.684845 
L 473.226634 342.095194 
L 475.746796 344.329632 
L 478.266958 346.395964 
L 480.78712 348.303194 
L 483.307282 350.061221 
L 488.347605 353.172117 
L 493.387929 355.815804 
L 498.428253 358.078417 
L 503.468577 360.039801 
L 508.508901 361.770018 
L 516.069387 364.056368 
L 523.629873 366.097683 
L 533.710521 368.589299 
L 546.31133 371.457318 
L 558.91214 374.068773 
L 568.992788 375.942618 
L 579.073436 377.599201 
L 589.154084 379.027753 
L 599.234731 380.232112 
L 609.315379 381.227888 
L 616.875865 381.851291 
L 616.875865 381.851291 
" clip-path="url(#p804cbaaa66)" style="fill: none; stroke: #00fff6; stroke-width: 1.5; stroke-linecap: square"/>
   </g>
   <g id="line2d_18">
    <path d="M 115.363636 313.421968 
L 117.866612 313.454802 
L 120.369588 313.691044 
L 122.872563 314.127537 
L 125.375539 314.759299 
L 127.878514 315.579597 
L 130.38149 316.580042 
L 132.884466 317.750715 
L 135.387441 319.080307 
L 137.890417 320.556283 
L 142.896368 323.892185 
L 147.902319 327.640584 
L 152.908271 331.676239 
L 172.932075 348.269212 
L 177.938027 352.01628 
L 182.943978 355.453561 
L 187.949929 358.539024 
L 192.95588 361.248983 
L 197.961832 363.576415 
L 202.967783 365.528601 
L 207.973734 367.124343 
L 212.979685 368.390988 
L 217.985636 369.361486 
L 222.991588 370.071629 
L 227.997539 370.557605 
L 233.00349 370.853924 
L 240.512417 371.009724 
L 248.021344 370.892512 
L 255.530271 370.557531 
L 263.039197 370.027477 
L 270.548124 369.292025 
L 278.057051 368.309547 
L 283.063002 367.484175 
L 288.068954 366.492732 
L 293.074905 365.306085 
L 298.080856 363.893384 
L 303.086807 362.22373 
L 308.092758 360.26809 
L 313.09871 358.001429 
L 318.104661 355.404979 
L 323.110612 352.468534 
L 328.116563 349.192639 
L 333.122515 345.590521 
L 338.128466 341.689574 
L 343.134417 337.532257 
L 350.643344 330.945733 
L 365.661198 317.51617 
L 370.667149 313.319513 
L 375.6731 309.436427 
L 380.679051 305.967881 
L 383.182027 304.418366 
L 385.685002 303.00617 
L 388.187978 301.740746 
L 390.690954 300.63048 
L 393.193929 299.682593 
L 395.696905 298.903046 
L 398.199881 298.296476 
L 400.702856 297.866144 
L 403.205832 297.613897 
L 405.708807 297.540162 
L 408.211783 297.643948 
L 410.714759 297.922873 
L 413.217734 298.373209 
L 415.72071 298.989949 
L 418.223685 299.766882 
L 420.726661 300.69669 
L 423.229637 301.77106 
L 425.732612 302.980799 
L 430.738563 305.766002 
L 435.744515 308.966231 
L 440.750466 312.490063 
L 448.259393 318.18122 
L 468.283198 333.79346 
L 475.792124 339.218926 
L 480.798076 342.603194 
L 485.804027 345.781925 
L 490.809978 348.748936 
L 495.815929 351.505355 
L 500.821881 354.057781 
L 505.827832 356.416511 
L 510.833783 358.593978 
L 518.34271 361.549344 
L 525.851637 364.170296 
L 533.360564 366.495695 
L 540.86949 368.558339 
L 548.378417 370.385763 
L 555.887344 372.002101 
L 563.396271 373.430005 
L 573.408173 375.079664 
L 583.420076 376.48805 
L 595.934954 377.987237 
L 610.952808 379.510041 
L 613.455783 379.740896 
L 613.455783 379.740896 
" clip-path="url(#p804cbaaa66)" style="fill: none; stroke: #0010ff; stroke-width: 1.5; stroke-linecap: square"/>
   </g>
   <g id="line2d_19">
    <path d="M 115.363636 257.717058 
L 117.912746 257.853051 
L 120.461855 258.461158 
L 123.010964 259.532009 
L 125.560073 261.050796 
L 128.109182 262.997543 
L 130.658291 265.347485 
L 133.207401 268.071519 
L 135.75651 271.136742 
L 138.305619 274.507044 
L 140.854728 278.143751 
L 145.952947 286.052922 
L 151.051165 294.529397 
L 163.796711 316.076717 
L 168.894929 324.099589 
L 173.993148 331.457628 
L 176.542257 334.841608 
L 179.091366 338.011733 
L 181.640475 340.959504 
L 184.189584 343.679729 
L 186.738693 346.17031 
L 189.287803 348.431991 
L 191.836912 350.46808 
L 194.386021 352.284147 
L 196.93513 353.887719 
L 199.484239 355.287964 
L 202.033349 356.495384 
L 204.582458 357.521513 
L 207.131567 358.378635 
L 209.680676 359.079516 
L 212.229785 359.637168 
L 214.778894 360.064623 
L 219.877113 360.580078 
L 224.975331 360.724019 
L 230.07355 360.585417 
L 235.171768 360.241524 
L 242.819095 359.477567 
L 255.564641 357.897957 
L 273.408406 355.473272 
L 281.055733 354.273818 
L 288.703061 352.819827 
L 293.801279 351.625106 
L 298.899497 350.179819 
L 303.997716 348.417586 
L 309.095934 346.269823 
L 314.194153 343.669744 
L 316.743262 342.180893 
L 319.292371 340.557244 
L 321.84148 338.793247 
L 324.390589 336.884492 
L 326.939698 334.827899 
L 329.488808 332.621902 
L 334.587026 327.764045 
L 339.685244 322.334952 
L 344.783463 316.392185 
L 349.881681 310.029087 
L 357.529009 299.987671 
L 365.176336 289.866592 
L 370.274555 283.409767 
L 375.372773 277.436274 
L 377.921882 274.697478 
L 380.470991 272.157921 
L 383.020101 269.841336 
L 385.56921 267.769619 
L 388.118319 265.962475 
L 390.667428 264.437098 
L 393.216537 263.207893 
L 395.765646 262.286245 
L 398.314756 261.680341 
L 400.863865 261.395054 
L 403.412974 261.431882 
L 405.962083 261.788951 
L 408.511192 262.461084 
L 411.060302 263.439918 
L 413.609411 264.714092 
L 416.15852 266.269468 
L 418.707629 268.089415 
L 421.256738 270.155116 
L 423.805847 272.445913 
L 426.354957 274.93967 
L 431.453175 280.442391 
L 436.551393 286.470955 
L 444.198721 296.08188 
L 454.395158 309.053932 
L 459.493376 315.291518 
L 464.591594 321.227473 
L 469.689813 326.795896 
L 474.788031 331.957513 
L 479.886249 336.696084 
L 484.984468 341.013989 
L 490.082686 344.927543 
L 495.180905 348.462482 
L 500.279123 351.649969 
L 505.377341 354.523315 
L 510.47556 357.115514 
L 515.573778 359.457564 
L 520.671996 361.5775 
L 525.770215 363.500001 
L 530.868433 365.246421 
L 538.515761 367.575329 
L 546.163088 369.600513 
L 553.810416 371.364765 
L 561.457743 372.905189 
L 569.105071 374.255403 
L 579.301508 375.813219 
L 589.497944 377.15421 
L 602.24349 378.607576 
L 617.538145 380.11507 
L 622.636364 380.569334 
L 622.636364 380.569334 
" clip-path="url(#p804cbaaa66)" style="fill: none; stroke: #ee00ff; stroke-width: 1.5; stroke-linecap: square"/>
   </g>
   <g id="patch_57">
    <path d="M 90 384.48 
L 90 51.84 
" style="fill: none; stroke: #000000; stroke-width: 0.8; stroke-linejoin: miter; stroke-linecap: square"/>
   </g>
   <g id="patch_58">
    <path d="M 648 384.48 
L 648 51.84 
" style="fill: none; stroke: #000000; stroke-width: 0.8; stroke-linejoin: miter; stroke-linecap: square"/>
   </g>
   <g id="patch_59">
    <path d="M 90 384.48 
L 648 384.48 
" style="fill: none; stroke: #000000; stroke-width: 0.8; stroke-linejoin: miter; stroke-linecap: square"/>
   </g>
   <g id="patch_60">
    <path d="M 90 51.84 
L 648 51.84 
" style="fill: none; stroke: #000000; stroke-width: 0.8; stroke-linejoin: miter; stroke-linecap: square"/>
   </g>
   <g id="text_17">
    <!-- Stacked Histogram of Avg Normalized Interplay  -->
    <g transform="translate(224.829375 32.402625) scale(0.12 -0.12)">
     <defs>
      <path id="DejaVuSans-53" d="M 3425 4513 
L 3425 3897 
Q 3066 4069 2747 4153 
Q 2428 4238 2131 4238 
Q 1616 4238 1336 4038 
Q 1056 3838 1056 3469 
Q 1056 3159 1242 3001 
Q 1428 2844 1947 2747 
L 2328 2669 
Q 3034 2534 3370 2195 
Q 3706 1856 3706 1288 
Q 3706 609 3251 259 
Q 2797 -91 1919 -91 
Q 1588 -91 1214 -16 
Q 841 59 441 206 
L 441 856 
Q 825 641 1194 531 
Q 1563 422 1919 422 
Q 2459 422 2753 634 
Q 3047 847 3047 1241 
Q 3047 1584 2836 1778 
Q 2625 1972 2144 2069 
L 1759 2144 
Q 1053 2284 737 2584 
Q 422 2884 422 3419 
Q 422 4038 858 4394 
Q 1294 4750 2059 4750 
Q 2388 4750 2728 4690 
Q 3069 4631 3425 4513 
z
" transform="scale(0.015625)"/>
      <path id="DejaVuSans-6b" d="M 581 4863 
L 1159 4863 
L 1159 1991 
L 2875 3500 
L 3609 3500 
L 1753 1863 
L 3688 0 
L 2938 0 
L 1159 1709 
L 1159 0 
L 581 0 
L 581 4863 
z
" transform="scale(0.015625)"/>
      <path id="DejaVuSans-48" d="M 628 4666 
L 1259 4666 
L 1259 2753 
L 3553 2753 
L 3553 4666 
L 4184 4666 
L 4184 0 
L 3553 0 
L 3553 2222 
L 1259 2222 
L 1259 0 
L 628 0 
L 628 4666 
z
" transform="scale(0.015625)"/>
      <path id="DejaVuSans-73" d="M 2834 3397 
L 2834 2853 
Q 2591 2978 2328 3040 
Q 2066 3103 1784 3103 
Q 1356 3103 1142 2972 
Q 928 2841 928 2578 
Q 928 2378 1081 2264 
Q 1234 2150 1697 2047 
L 1894 2003 
Q 2506 1872 2764 1633 
Q 3022 1394 3022 966 
Q 3022 478 2636 193 
Q 2250 -91 1575 -91 
Q 1294 -91 989 -36 
Q 684 19 347 128 
L 347 722 
Q 666 556 975 473 
Q 1284 391 1588 391 
Q 1994 391 2212 530 
Q 2431 669 2431 922 
Q 2431 1156 2273 1281 
Q 2116 1406 1581 1522 
L 1381 1569 
Q 847 1681 609 1914 
Q 372 2147 372 2553 
Q 372 3047 722 3315 
Q 1072 3584 1716 3584 
Q 2034 3584 2315 3537 
Q 2597 3491 2834 3397 
z
" transform="scale(0.015625)"/>
      <path id="DejaVuSans-66" d="M 2375 4863 
L 2375 4384 
L 1825 4384 
Q 1516 4384 1395 4259 
Q 1275 4134 1275 3809 
L 1275 3500 
L 2222 3500 
L 2222 3053 
L 1275 3053 
L 1275 0 
L 697 0 
L 697 3053 
L 147 3053 
L 147 3500 
L 697 3500 
L 697 3744 
Q 697 4328 969 4595 
Q 1241 4863 1831 4863 
L 2375 4863 
z
" transform="scale(0.015625)"/>
     </defs>
     <use xlink:href="#DejaVuSans-53"/>
     <use xlink:href="#DejaVuSans-74" x="63.476562"/>
     <use xlink:href="#DejaVuSans-61" x="102.685547"/>
     <use xlink:href="#DejaVuSans-63" x="163.964844"/>
     <use xlink:href="#DejaVuSans-6b" x="218.945312"/>
     <use xlink:href="#DejaVuSans-65" x="273.230469"/>
     <use xlink:href="#DejaVuSans-64" x="334.753906"/>
     <use xlink:href="#DejaVuSans-20" x="398.230469"/>
     <use xlink:href="#DejaVuSans-48" x="430.017578"/>
     <use xlink:href="#DejaVuSans-69" x="505.212891"/>
     <use xlink:href="#DejaVuSans-73" x="532.996094"/>
     <use xlink:href="#DejaVuSans-74" x="585.095703"/>
     <use xlink:href="#DejaVuSans-6f" x="624.304688"/>
     <use xlink:href="#DejaVuSans-67" x="685.486328"/>
     <use xlink:href="#DejaVuSans-72" x="748.962891"/>
     <use xlink:href="#DejaVuSans-61" x="790.076172"/>
     <use xlink:href="#DejaVuSans-6d" x="851.355469"/>
     <use xlink:href="#DejaVuSans-20" x="948.767578"/>
     <use xlink:href="#DejaVuSans-6f" x="980.554688"/>
     <use xlink:href="#DejaVuSans-66" x="1041.736328"/>
     <use xlink:href="#DejaVuSans-20" x="1076.941406"/>
     <use xlink:href="#DejaVuSans-41" x="1108.728516"/>
     <use xlink:href="#DejaVuSans-76" x="1171.261719"/>
     <use xlink:href="#DejaVuSans-67" x="1230.441406"/>
     <use xlink:href="#DejaVuSans-20" x="1293.917969"/>
     <use xlink:href="#DejaVuSans-4e" x="1325.705078"/>
     <use xlink:href="#DejaVuSans-6f" x="1400.509766"/>
     <use xlink:href="#DejaVuSans-72" x="1461.691406"/>
     <use xlink:href="#DejaVuSans-6d" x="1501.054688"/>
     <use xlink:href="#DejaVuSans-61" x="1598.466797"/>
     <use xlink:href="#DejaVuSans-6c" x="1659.746094"/>
     <use xlink:href="#DejaVuSans-69" x="1687.529297"/>
     <use xlink:href="#DejaVuSans-7a" x="1715.3125"/>
     <use xlink:href="#DejaVuSans-65" x="1767.802734"/>
     <use xlink:href="#DejaVuSans-64" x="1829.326172"/>
     <use xlink:href="#DejaVuSans-20" x="1892.802734"/>
     <use xlink:href="#DejaVuSans-49" x="1924.589844"/>
     <use xlink:href="#DejaVuSans-6e" x="1954.082031"/>
     <use xlink:href="#DejaVuSans-74" x="2017.460938"/>
     <use xlink:href="#DejaVuSans-65" x="2056.669922"/>
     <use xlink:href="#DejaVuSans-72" x="2118.193359"/>
     <use xlink:href="#DejaVuSans-70" x="2159.306641"/>
     <use xlink:href="#DejaVuSans-6c" x="2222.783203"/>
     <use xlink:href="#DejaVuSans-61" x="2250.566406"/>
     <use xlink:href="#DejaVuSans-79" x="2311.845703"/>
     <use xlink:href="#DejaVuSans-20" x="2371.025391"/>
    </g>
    <!-- for H3.2 PTMs in liver across ages -->
    <g transform="translate(267.623438 45.84) scale(0.12 -0.12)">
     <defs>
      <path id="DejaVuSans-33" d="M 2597 2516 
Q 3050 2419 3304 2112 
Q 3559 1806 3559 1356 
Q 3559 666 3084 287 
Q 2609 -91 1734 -91 
Q 1441 -91 1130 -33 
Q 819 25 488 141 
L 488 750 
Q 750 597 1062 519 
Q 1375 441 1716 441 
Q 2309 441 2620 675 
Q 2931 909 2931 1356 
Q 2931 1769 2642 2001 
Q 2353 2234 1838 2234 
L 1294 2234 
L 1294 2753 
L 1863 2753 
Q 2328 2753 2575 2939 
Q 2822 3125 2822 3475 
Q 2822 3834 2567 4026 
Q 2313 4219 1838 4219 
Q 1578 4219 1281 4162 
Q 984 4106 628 3988 
L 628 4550 
Q 988 4650 1302 4700 
Q 1616 4750 1894 4750 
Q 2613 4750 3031 4423 
Q 3450 4097 3450 3541 
Q 3450 3153 3228 2886 
Q 3006 2619 2597 2516 
z
" transform="scale(0.015625)"/>
      <path id="DejaVuSans-50" d="M 1259 4147 
L 1259 2394 
L 2053 2394 
Q 2494 2394 2734 2622 
Q 2975 2850 2975 3272 
Q 2975 3691 2734 3919 
Q 2494 4147 2053 4147 
L 1259 4147 
z
M 628 4666 
L 2053 4666 
Q 2838 4666 3239 4311 
Q 3641 3956 3641 3272 
Q 3641 2581 3239 2228 
Q 2838 1875 2053 1875 
L 1259 1875 
L 1259 0 
L 628 0 
L 628 4666 
z
" transform="scale(0.015625)"/>
      <path id="DejaVuSans-54" d="M -19 4666 
L 3928 4666 
L 3928 4134 
L 2272 4134 
L 2272 0 
L 1638 0 
L 1638 4134 
L -19 4134 
L -19 4666 
z
" transform="scale(0.015625)"/>
      <path id="DejaVuSans-4d" d="M 628 4666 
L 1569 4666 
L 2759 1491 
L 3956 4666 
L 4897 4666 
L 4897 0 
L 4281 0 
L 4281 4097 
L 3078 897 
L 2444 897 
L 1241 4097 
L 1241 0 
L 628 0 
L 628 4666 
z
" transform="scale(0.015625)"/>
     </defs>
     <use xlink:href="#DejaVuSans-66"/>
     <use xlink:href="#DejaVuSans-6f" x="35.205078"/>
     <use xlink:href="#DejaVuSans-72" x="96.386719"/>
     <use xlink:href="#DejaVuSans-20" x="137.5"/>
     <use xlink:href="#DejaVuSans-48" x="169.287109"/>
     <use xlink:href="#DejaVuSans-33" x="244.482422"/>
     <use xlink:href="#DejaVuSans-2e" x="308.105469"/>
     <use xlink:href="#DejaVuSans-32" x="339.892578"/>
     <use xlink:href="#DejaVuSans-20" x="403.515625"/>
     <use xlink:href="#DejaVuSans-50" x="435.302734"/>
     <use xlink:href="#DejaVuSans-54" x="495.605469"/>
     <use xlink:href="#DejaVuSans-4d" x="556.689453"/>
     <use xlink:href="#DejaVuSans-73" x="642.96875"/>
     <use xlink:href="#DejaVuSans-20" x="695.068359"/>
     <use xlink:href="#DejaVuSans-69" x="726.855469"/>
     <use xlink:href="#DejaVuSans-6e" x="754.638672"/>
     <use xlink:href="#DejaVuSans-20" x="818.017578"/>
     <use xlink:href="#DejaVuSans-6c" x="849.804688"/>
     <use xlink:href="#DejaVuSans-69" x="877.587891"/>
     <use xlink:href="#DejaVuSans-76" x="905.371094"/>
     <use xlink:href="#DejaVuSans-65" x="964.550781"/>
     <use xlink:href="#DejaVuSans-72" x="1026.074219"/>
     <use xlink:href="#DejaVuSans-20" x="1067.1875"/>
     <use xlink:href="#DejaVuSans-61" x="1098.974609"/>
     <use xlink:href="#DejaVuSans-63" x="1160.253906"/>
     <use xlink:href="#DejaVuSans-72" x="1215.234375"/>
     <use xlink:href="#DejaVuSans-6f" x="1254.097656"/>
     <use xlink:href="#DejaVuSans-73" x="1315.279297"/>
     <use xlink:href="#DejaVuSans-73" x="1367.378906"/>
     <use xlink:href="#DejaVuSans-20" x="1419.478516"/>
     <use xlink:href="#DejaVuSans-61" x="1451.265625"/>
     <use xlink:href="#DejaVuSans-67" x="1512.544922"/>
     <use xlink:href="#DejaVuSans-65" x="1576.021484"/>
     <use xlink:href="#DejaVuSans-73" x="1637.544922"/>
    </g>
   </g>
   <g id="legend_1">
    <g id="patch_61">
     <path d="M 555.432812 147.90875 
L 641 147.90875 
Q 643 147.90875 643 145.90875 
L 643 58.84 
Q 643 56.84 641 56.84 
L 555.432812 56.84 
Q 553.432812 56.84 553.432812 58.84 
L 553.432812 145.90875 
Q 553.432812 147.90875 555.432812 147.90875 
z
" style="fill: #ffffff; opacity: 0.8; stroke: #cccccc; stroke-linejoin: miter"/>
    </g>
    <g id="text_18">
     <!-- Age -->
     <g transform="translate(588.545312 68.438437) scale(0.1 -0.1)">
      <use xlink:href="#DejaVuSans-41"/>
      <use xlink:href="#DejaVuSans-67" x="68.408203"/>
      <use xlink:href="#DejaVuSans-65" x="131.884766"/>
     </g>
    </g>
    <g id="patch_62">
     <path d="M 557.432812 83.116562 
L 577.432812 83.116562 
L 577.432812 76.116562 
L 557.432812 76.116562 
z
" style="fill: #fcf500; fill-opacity: 0.175; stroke: #000000; stroke-linejoin: miter"/>
    </g>
    <g id="text_19">
     <!-- 3 months -->
     <g transform="translate(585.432812 83.116562) scale(0.1 -0.1)">
      <defs>
       <path id="DejaVuSans-68" d="M 3513 2113 
L 3513 0 
L 2938 0 
L 2938 2094 
Q 2938 2591 2744 2837 
Q 2550 3084 2163 3084 
Q 1697 3084 1428 2787 
Q 1159 2491 1159 1978 
L 1159 0 
L 581 0 
L 581 4863 
L 1159 4863 
L 1159 2956 
Q 1366 3272 1645 3428 
Q 1925 3584 2291 3584 
Q 2894 3584 3203 3211 
Q 3513 2838 3513 2113 
z
" transform="scale(0.015625)"/>
      </defs>
      <use xlink:href="#DejaVuSans-33"/>
      <use xlink:href="#DejaVuSans-20" x="63.623047"/>
      <use xlink:href="#DejaVuSans-6d" x="95.410156"/>
      <use xlink:href="#DejaVuSans-6f" x="192.822266"/>
      <use xlink:href="#DejaVuSans-6e" x="254.003906"/>
      <use xlink:href="#DejaVuSans-74" x="317.382812"/>
      <use xlink:href="#DejaVuSans-68" x="356.591797"/>
      <use xlink:href="#DejaVuSans-73" x="419.970703"/>
     </g>
    </g>
    <g id="patch_63">
     <path d="M 557.432812 97.794688 
L 577.432812 97.794688 
L 577.432812 90.794688 
L 557.432812 90.794688 
z
" style="fill: #08ff00; fill-opacity: 0.175; stroke: #000000; stroke-linejoin: miter"/>
    </g>
    <g id="text_20">
     <!-- 5 months -->
     <g transform="translate(585.432812 97.794688) scale(0.1 -0.1)">
      <use xlink:href="#DejaVuSans-35"/>
      <use xlink:href="#DejaVuSans-20" x="63.623047"/>
      <use xlink:href="#DejaVuSans-6d" x="95.410156"/>
      <use xlink:href="#DejaVuSans-6f" x="192.822266"/>
      <use xlink:href="#DejaVuSans-6e" x="254.003906"/>
      <use xlink:href="#DejaVuSans-74" x="317.382812"/>
      <use xlink:href="#DejaVuSans-68" x="356.591797"/>
      <use xlink:href="#DejaVuSans-73" x="419.970703"/>
     </g>
    </g>
    <g id="patch_64">
     <path d="M 557.432812 112.472812 
L 577.432812 112.472812 
L 577.432812 105.472812 
L 557.432812 105.472812 
z
" style="fill: #00fff6; fill-opacity: 0.175; stroke: #000000; stroke-linejoin: miter"/>
    </g>
    <g id="text_21">
     <!-- 10 months -->
     <g transform="translate(585.432812 112.472812) scale(0.1 -0.1)">
      <use xlink:href="#DejaVuSans-31"/>
      <use xlink:href="#DejaVuSans-30" x="63.623047"/>
      <use xlink:href="#DejaVuSans-20" x="127.246094"/>
      <use xlink:href="#DejaVuSans-6d" x="159.033203"/>
      <use xlink:href="#DejaVuSans-6f" x="256.445312"/>
      <use xlink:href="#DejaVuSans-6e" x="317.626953"/>
      <use xlink:href="#DejaVuSans-74" x="381.005859"/>
      <use xlink:href="#DejaVuSans-68" x="420.214844"/>
      <use xlink:href="#DejaVuSans-73" x="483.59375"/>
     </g>
    </g>
    <g id="patch_65">
     <path d="M 557.432812 127.150937 
L 577.432812 127.150937 
L 577.432812 120.150937 
L 557.432812 120.150937 
z
" style="fill: #0010ff; fill-opacity: 0.175; stroke: #000000; stroke-linejoin: miter"/>
    </g>
    <g id="text_22">
     <!-- 18 months -->
     <g transform="translate(585.432812 127.150937) scale(0.1 -0.1)">
      <defs>
       <path id="DejaVuSans-38" d="M 2034 2216 
Q 1584 2216 1326 1975 
Q 1069 1734 1069 1313 
Q 1069 891 1326 650 
Q 1584 409 2034 409 
Q 2484 409 2743 651 
Q 3003 894 3003 1313 
Q 3003 1734 2745 1975 
Q 2488 2216 2034 2216 
z
M 1403 2484 
Q 997 2584 770 2862 
Q 544 3141 544 3541 
Q 544 4100 942 4425 
Q 1341 4750 2034 4750 
Q 2731 4750 3128 4425 
Q 3525 4100 3525 3541 
Q 3525 3141 3298 2862 
Q 3072 2584 2669 2484 
Q 3125 2378 3379 2068 
Q 3634 1759 3634 1313 
Q 3634 634 3220 271 
Q 2806 -91 2034 -91 
Q 1263 -91 848 271 
Q 434 634 434 1313 
Q 434 1759 690 2068 
Q 947 2378 1403 2484 
z
M 1172 3481 
Q 1172 3119 1398 2916 
Q 1625 2713 2034 2713 
Q 2441 2713 2670 2916 
Q 2900 3119 2900 3481 
Q 2900 3844 2670 4047 
Q 2441 4250 2034 4250 
Q 1625 4250 1398 4047 
Q 1172 3844 1172 3481 
z
" transform="scale(0.015625)"/>
      </defs>
      <use xlink:href="#DejaVuSans-31"/>
      <use xlink:href="#DejaVuSans-38" x="63.623047"/>
      <use xlink:href="#DejaVuSans-20" x="127.246094"/>
      <use xlink:href="#DejaVuSans-6d" x="159.033203"/>
      <use xlink:href="#DejaVuSans-6f" x="256.445312"/>
      <use xlink:href="#DejaVuSans-6e" x="317.626953"/>
      <use xlink:href="#DejaVuSans-74" x="381.005859"/>
      <use xlink:href="#DejaVuSans-68" x="420.214844"/>
      <use xlink:href="#DejaVuSans-73" x="483.59375"/>
     </g>
    </g>
    <g id="patch_66">
     <path d="M 557.432812 141.829062 
L 577.432812 141.829062 
L 577.432812 134.829062 
L 557.432812 134.829062 
z
" style="fill: #ee00ff; fill-opacity: 0.175; stroke: #000000; stroke-linejoin: miter"/>
    </g>
    <g id="text_23">
     <!-- 24 months -->
     <g transform="translate(585.432812 141.829062) scale(0.1 -0.1)">
      <defs>
       <path id="DejaVuSans-34" d="M 2419 4116 
L 825 1625 
L 2419 1625 
L 2419 4116 
z
M 2253 4666 
L 3047 4666 
L 3047 1625 
L 3713 1625 
L 3713 1100 
L 3047 1100 
L 3047 0 
L 2419 0 
L 2419 1100 
L 313 1100 
L 313 1709 
L 2253 4666 
z
" transform="scale(0.015625)"/>
      </defs>
      <use xlink:href="#DejaVuSans-32"/>
      <use xlink:href="#DejaVuSans-34" x="63.623047"/>
      <use xlink:href="#DejaVuSans-20" x="127.246094"/>
      <use xlink:href="#DejaVuSans-6d" x="159.033203"/>
      <use xlink:href="#DejaVuSans-6f" x="256.445312"/>
      <use xlink:href="#DejaVuSans-6e" x="317.626953"/>
      <use xlink:href="#DejaVuSans-74" x="381.005859"/>
      <use xlink:href="#DejaVuSans-68" x="420.214844"/>
      <use xlink:href="#DejaVuSans-73" x="483.59375"/>
     </g>
    </g>
   </g>
  </g>
 </g>
 <defs>
  <clipPath id="p804cbaaa66">
   <rect x="90" y="51.84" width="558" height="332.64"/>
  </clipPath>
 </defs>
</svg>
