<?xml version="1.0" encoding="utf-8" standalone="no"?>
<!DOCTYPE svg PUBLIC "-//W3C//DTD SVG 1.1//EN"
  "http://www.w3.org/Graphics/SVG/1.1/DTD/svg11.dtd">
<svg xmlns:xlink="http://www.w3.org/1999/xlink" width="248.16pt" height="122.16pt" viewBox="0 0 248.16 122.16" xmlns="http://www.w3.org/2000/svg" version="1.1">
 <metadata>
  <rdf:RDF xmlns:dc="http://purl.org/dc/elements/1.1/" xmlns:cc="http://creativecommons.org/ns#" xmlns:rdf="http://www.w3.org/1999/02/22-rdf-syntax-ns#">
   <cc:Work>
    <dc:type rdf:resource="http://purl.org/dc/dcmitype/StillImage"/>
    <dc:date>2025-02-05T20:18:19.224392</dc:date>
    <dc:format>image/svg+xml</dc:format>
    <dc:creator>
     <cc:Agent>
      <dc:title>Matplotlib v3.10.0, https://matplotlib.org/</dc:title>
     </cc:Agent>
    </dc:creator>
   </cc:Work>
  </rdf:RDF>
 </metadata>
 <defs>
  <style type="text/css">*{stroke-linejoin: round; stroke-linecap: butt}</style>
 </defs>
 <g id="figure_1">
  <g id="patch_1">
   <path d="M 0 122.16 
L 248.16 122.16 
L 248.16 0 
L 0 0 
L 0 122.16 
z
" style="fill: none"/>
  </g>
  <g id="axes_1">
   <g id="patch_2">
    <path d="M 47.780883 64.71274 
Q 124.080297 76.766315 199.551457 64.843492 
" clip-path="url(#pfafe439150)" style="fill: none; stroke: #0000ff; stroke-opacity: 0.85; stroke-width: 0.75; stroke-linecap: round"/>
    <path d="M 195.28837 63.492165 
L 199.551457 64.843492 
L 195.912543 67.443166 
z
" clip-path="url(#pfafe439150)" style="fill: #0000ff; fill-opacity: 0.85; stroke: #0000ff; stroke-opacity: 0.85; stroke-width: 0.75; stroke-linecap: round"/>
   </g>
   <g id="patch_3">
    <path d="M 200.379117 57.44726 
Q 124.079703 45.393685 48.608543 57.316508 
" clip-path="url(#pfafe439150)" style="fill: none; stroke: #0000ff; stroke-opacity: 0.85; stroke-width: 0.75; stroke-linecap: round"/>
    <path d="M 52.87163 58.667835 
L 48.608543 57.316508 
L 52.247457 54.716834 
z
" clip-path="url(#pfafe439150)" style="fill: #0000ff; fill-opacity: 0.85; stroke: #0000ff; stroke-opacity: 0.85; stroke-width: 0.75; stroke-linecap: round"/>
   </g>
   <g id="patch_4">
    <path d="M 35.989496 62.706031 
Q 124.07838 78.772682 211.342347 62.857074 
" clip-path="url(#pfafe439150)" style="fill: none; stroke: #0000ff; stroke-opacity: 0.35; stroke-width: 0.75; stroke-linecap: round"/>
    <path d="M 207.04841 61.60723 
L 211.342347 62.857074 
L 207.76611 65.542317 
z
" clip-path="url(#pfafe439150)" style="fill: #0000ff; fill-opacity: 0.35; stroke: #0000ff; stroke-opacity: 0.35; stroke-width: 0.75; stroke-linecap: round"/>
   </g>
   <g id="patch_5">
    <path d="M 212.170504 59.453969 
Q 124.08162 43.387318 36.817653 59.302926 
" clip-path="url(#pfafe439150)" style="fill: none; stroke: #0000ff; stroke-opacity: 0.35; stroke-width: 0.75; stroke-linecap: round"/>
    <path d="M 41.11159 60.55277 
L 36.817653 59.302926 
L 40.39389 56.617683 
z
" clip-path="url(#pfafe439150)" style="fill: #0000ff; fill-opacity: 0.35; stroke: #0000ff; stroke-opacity: 0.35; stroke-width: 0.75; stroke-linecap: round"/>
   </g>
   <g id="PathCollection_1">
    <defs>
     <path id="mf46e288e54" d="M 0 20.615528 
C 5.467302 20.615528 10.711413 18.443346 14.57738 14.57738 
C 18.443346 10.711413 20.615528 5.467302 20.615528 0 
C 20.615528 -5.467302 18.443346 -10.711413 14.57738 -14.57738 
C 10.711413 -18.443346 5.467302 -20.615528 0 -20.615528 
C -5.467302 -20.615528 -10.711413 -18.443346 -14.57738 -14.57738 
C -18.443346 -10.711413 -20.615528 -5.467302 -20.615528 0 
C -20.615528 5.467302 -18.443346 10.711413 -14.57738 14.57738 
C -10.711413 18.443346 -5.467302 20.615528 0 20.615528 
z
" style="stroke: #add8e6; stroke-opacity: 0.85"/>
    </defs>
    <g clip-path="url(#pfafe439150)">
     <use xlink:href="#mf46e288e54" x="27.484959" y="61.08" style="fill: #add8e6; fill-opacity: 0.85; stroke: #add8e6; stroke-opacity: 0.85"/>
     <use xlink:href="#mf46e288e54" x="220.675041" y="61.08" style="fill: #add8e6; fill-opacity: 0.85; stroke: #add8e6; stroke-opacity: 0.85"/>
    </g>
   </g>
   <g id="text_1">
    <g id="patch_6">
     <path d="M 13.308396 68.652656 
L 41.661521 68.652656 
Q 44.661521 68.652656 44.661521 65.652656 
L 44.661521 56.507344 
Q 44.661521 53.507344 41.661521 53.507344 
L 13.308396 53.507344 
Q 10.308396 53.507344 10.308396 56.507344 
L 10.308396 65.652656 
Q 10.308396 68.652656 13.308396 68.652656 
z
" clip-path="url(#pfafe439150)" style="fill: #ffffff"/>
    </g>
    <g clip-path="url(#pfafe439150)">
     <!-- K27ac -->
     <g style="fill: #1a1a1a; opacity: 0.85" transform="translate(13.308396 63.665156) scale(0.1 -0.1)">
      <defs>
       <path id="ArialMT-4b" d="M 469 0 
L 469 4581 
L 1075 4581 
L 1075 2309 
L 3350 4581 
L 4172 4581 
L 2250 2725 
L 4256 0 
L 3456 0 
L 1825 2319 
L 1075 1588 
L 1075 0 
L 469 0 
z
" transform="scale(0.015625)"/>
       <path id="ArialMT-32" d="M 3222 541 
L 3222 0 
L 194 0 
Q 188 203 259 391 
Q 375 700 629 1000 
Q 884 1300 1366 1694 
Q 2113 2306 2375 2664 
Q 2638 3022 2638 3341 
Q 2638 3675 2398 3904 
Q 2159 4134 1775 4134 
Q 1369 4134 1125 3890 
Q 881 3647 878 3216 
L 300 3275 
Q 359 3922 746 4261 
Q 1134 4600 1788 4600 
Q 2447 4600 2831 4234 
Q 3216 3869 3216 3328 
Q 3216 3053 3103 2787 
Q 2991 2522 2730 2228 
Q 2469 1934 1863 1422 
Q 1356 997 1212 845 
Q 1069 694 975 541 
L 3222 541 
z
" transform="scale(0.015625)"/>
       <path id="ArialMT-37" d="M 303 3981 
L 303 4522 
L 3269 4522 
L 3269 4084 
Q 2831 3619 2401 2847 
Q 1972 2075 1738 1259 
Q 1569 684 1522 0 
L 944 0 
Q 953 541 1156 1306 
Q 1359 2072 1739 2783 
Q 2119 3494 2547 3981 
L 303 3981 
z
" transform="scale(0.015625)"/>
       <path id="ArialMT-61" d="M 2588 409 
Q 2275 144 1986 34 
Q 1697 -75 1366 -75 
Q 819 -75 525 192 
Q 231 459 231 875 
Q 231 1119 342 1320 
Q 453 1522 633 1644 
Q 813 1766 1038 1828 
Q 1203 1872 1538 1913 
Q 2219 1994 2541 2106 
Q 2544 2222 2544 2253 
Q 2544 2597 2384 2738 
Q 2169 2928 1744 2928 
Q 1347 2928 1158 2789 
Q 969 2650 878 2297 
L 328 2372 
Q 403 2725 575 2942 
Q 747 3159 1072 3276 
Q 1397 3394 1825 3394 
Q 2250 3394 2515 3294 
Q 2781 3194 2906 3042 
Q 3031 2891 3081 2659 
Q 3109 2516 3109 2141 
L 3109 1391 
Q 3109 606 3145 398 
Q 3181 191 3288 0 
L 2700 0 
Q 2613 175 2588 409 
z
M 2541 1666 
Q 2234 1541 1622 1453 
Q 1275 1403 1131 1340 
Q 988 1278 909 1158 
Q 831 1038 831 891 
Q 831 666 1001 516 
Q 1172 366 1500 366 
Q 1825 366 2078 508 
Q 2331 650 2450 897 
Q 2541 1088 2541 1459 
L 2541 1666 
z
" transform="scale(0.015625)"/>
       <path id="ArialMT-63" d="M 2588 1216 
L 3141 1144 
Q 3050 572 2676 248 
Q 2303 -75 1759 -75 
Q 1078 -75 664 370 
Q 250 816 250 1647 
Q 250 2184 428 2587 
Q 606 2991 970 3192 
Q 1334 3394 1763 3394 
Q 2303 3394 2647 3120 
Q 2991 2847 3088 2344 
L 2541 2259 
Q 2463 2594 2264 2762 
Q 2066 2931 1784 2931 
Q 1359 2931 1093 2626 
Q 828 2322 828 1663 
Q 828 994 1084 691 
Q 1341 388 1753 388 
Q 2084 388 2306 591 
Q 2528 794 2588 1216 
z
" transform="scale(0.015625)"/>
      </defs>
      <use xlink:href="#ArialMT-4b"/>
      <use xlink:href="#ArialMT-32" transform="translate(66.699219 0)"/>
      <use xlink:href="#ArialMT-37" transform="translate(122.314453 0)"/>
      <use xlink:href="#ArialMT-61" transform="translate(177.929688 0)"/>
      <use xlink:href="#ArialMT-63" transform="translate(233.544922 0)"/>
     </g>
    </g>
   </g>
   <g id="text_2">
    <g id="patch_7">
     <path d="M 206.498479 68.652656 
L 234.851604 68.652656 
Q 237.851604 68.652656 237.851604 65.652656 
L 237.851604 56.507344 
Q 237.851604 53.507344 234.851604 53.507344 
L 206.498479 53.507344 
Q 203.498479 53.507344 203.498479 56.507344 
L 203.498479 65.652656 
Q 203.498479 68.652656 206.498479 68.652656 
z
" clip-path="url(#pfafe439150)" style="fill: #ffffff"/>
    </g>
    <g clip-path="url(#pfafe439150)">
     <!-- K18ac -->
     <g style="fill: #1a1a1a; opacity: 0.85" transform="translate(206.498479 63.665156) scale(0.1 -0.1)">
      <defs>
       <path id="ArialMT-31" d="M 2384 0 
L 1822 0 
L 1822 3584 
Q 1619 3391 1289 3197 
Q 959 3003 697 2906 
L 697 3450 
Q 1169 3672 1522 3987 
Q 1875 4303 2022 4600 
L 2384 4600 
L 2384 0 
z
" transform="scale(0.015625)"/>
       <path id="ArialMT-38" d="M 1131 2484 
Q 781 2613 612 2850 
Q 444 3088 444 3419 
Q 444 3919 803 4259 
Q 1163 4600 1759 4600 
Q 2359 4600 2725 4251 
Q 3091 3903 3091 3403 
Q 3091 3084 2923 2848 
Q 2756 2613 2416 2484 
Q 2838 2347 3058 2040 
Q 3278 1734 3278 1309 
Q 3278 722 2862 322 
Q 2447 -78 1769 -78 
Q 1091 -78 675 323 
Q 259 725 259 1325 
Q 259 1772 486 2073 
Q 713 2375 1131 2484 
z
M 1019 3438 
Q 1019 3113 1228 2906 
Q 1438 2700 1772 2700 
Q 2097 2700 2305 2904 
Q 2513 3109 2513 3406 
Q 2513 3716 2298 3927 
Q 2084 4138 1766 4138 
Q 1444 4138 1231 3931 
Q 1019 3725 1019 3438 
z
M 838 1322 
Q 838 1081 952 856 
Q 1066 631 1291 507 
Q 1516 384 1775 384 
Q 2178 384 2440 643 
Q 2703 903 2703 1303 
Q 2703 1709 2433 1975 
Q 2163 2241 1756 2241 
Q 1359 2241 1098 1978 
Q 838 1716 838 1322 
z
" transform="scale(0.015625)"/>
      </defs>
      <use xlink:href="#ArialMT-4b"/>
      <use xlink:href="#ArialMT-31" transform="translate(66.699219 0)"/>
      <use xlink:href="#ArialMT-38" transform="translate(122.314453 0)"/>
      <use xlink:href="#ArialMT-61" transform="translate(177.929688 0)"/>
      <use xlink:href="#ArialMT-63" transform="translate(233.544922 0)"/>
     </g>
    </g>
   </g>
  </g>
 </g>
 <defs>
  <clipPath id="pfafe439150">
   <rect x="7.2" y="7.2" width="233.76" height="107.76"/>
  </clipPath>
 </defs>
</svg>
