<?xml version="1.0" encoding="utf-8" standalone="no"?>
<!DOCTYPE svg PUBLIC "-//W3C//DTD SVG 1.1//EN"
  "http://www.w3.org/Graphics/SVG/1.1/DTD/svg11.dtd">
<svg xmlns:xlink="http://www.w3.org/1999/xlink" width="504pt" height="176.4pt" viewBox="0 0 504 176.4" xmlns="http://www.w3.org/2000/svg" version="1.1">
 <metadata>
  <rdf:RDF xmlns:dc="http://purl.org/dc/elements/1.1/" xmlns:cc="http://creativecommons.org/ns#" xmlns:rdf="http://www.w3.org/1999/02/22-rdf-syntax-ns#">
   <cc:Work>
    <dc:type rdf:resource="http://purl.org/dc/dcmitype/StillImage"/>
    <dc:date>2025-02-05T20:03:10.424880</dc:date>
    <dc:format>image/svg+xml</dc:format>
    <dc:creator>
     <cc:Agent>
      <dc:title>Matplotlib v3.10.0, https://matplotlib.org/</dc:title>
     </cc:Agent>
    </dc:creator>
   </cc:Work>
  </rdf:RDF>
 </metadata>
 <defs>
  <style type="text/css">*{stroke-linejoin: round; stroke-linecap: butt}</style>
 </defs>
 <g id="figure_1">
  <g id="patch_1">
   <path d="M 0 176.4 
L 504 176.4 
L 504 0 
L 0 0 
z
" style="fill: #ffffff"/>
  </g>
  <g id="axes_1">
   <g id="patch_2">
    <path d="M 104.36 102.55 
L 491.04 102.55 
L 491.04 12.96 
L 104.36 12.96 
z
" style="fill: #ffffff"/>
   </g>
   <g id="matplotlib.axis_1">
    <g id="xtick_1">
     <g id="text_1">
      <!-- brain 3mo -->
      <g style="fill: #262626" transform="translate(112.23825 152.067656) rotate(-90) scale(0.09 -0.09)">
       <defs>
        <path id="ArialMT-62" d="M 941 0 
L 419 0 
L 419 4581 
L 981 4581 
L 981 2947 
Q 1338 3394 1891 3394 
Q 2197 3394 2470 3270 
Q 2744 3147 2920 2923 
Q 3097 2700 3197 2384 
Q 3297 2069 3297 1709 
Q 3297 856 2875 390 
Q 2453 -75 1863 -75 
Q 1275 -75 941 416 
L 941 0 
z
M 934 1684 
Q 934 1088 1097 822 
Q 1363 388 1816 388 
Q 2184 388 2453 708 
Q 2722 1028 2722 1663 
Q 2722 2313 2464 2622 
Q 2206 2931 1841 2931 
Q 1472 2931 1203 2611 
Q 934 2291 934 1684 
z
" transform="scale(0.015625)"/>
        <path id="ArialMT-72" d="M 416 0 
L 416 3319 
L 922 3319 
L 922 2816 
Q 1116 3169 1280 3281 
Q 1444 3394 1641 3394 
Q 1925 3394 2219 3213 
L 2025 2691 
Q 1819 2813 1613 2813 
Q 1428 2813 1281 2702 
Q 1134 2591 1072 2394 
Q 978 2094 978 1738 
L 978 0 
L 416 0 
z
" transform="scale(0.015625)"/>
        <path id="ArialMT-61" d="M 2588 409 
Q 2275 144 1986 34 
Q 1697 -75 1366 -75 
Q 819 -75 525 192 
Q 231 459 231 875 
Q 231 1119 342 1320 
Q 453 1522 633 1644 
Q 813 1766 1038 1828 
Q 1203 1872 1538 1913 
Q 2219 1994 2541 2106 
Q 2544 2222 2544 2253 
Q 2544 2597 2384 2738 
Q 2169 2928 1744 2928 
Q 1347 2928 1158 2789 
Q 969 2650 878 2297 
L 328 2372 
Q 403 2725 575 2942 
Q 747 3159 1072 3276 
Q 1397 3394 1825 3394 
Q 2250 3394 2515 3294 
Q 2781 3194 2906 3042 
Q 3031 2891 3081 2659 
Q 3109 2516 3109 2141 
L 3109 1391 
Q 3109 606 3145 398 
Q 3181 191 3288 0 
L 2700 0 
Q 2613 175 2588 409 
z
M 2541 1666 
Q 2234 1541 1622 1453 
Q 1275 1403 1131 1340 
Q 988 1278 909 1158 
Q 831 1038 831 891 
Q 831 666 1001 516 
Q 1172 366 1500 366 
Q 1825 366 2078 508 
Q 2331 650 2450 897 
Q 2541 1088 2541 1459 
L 2541 1666 
z
" transform="scale(0.015625)"/>
        <path id="ArialMT-69" d="M 425 3934 
L 425 4581 
L 988 4581 
L 988 3934 
L 425 3934 
z
M 425 0 
L 425 3319 
L 988 3319 
L 988 0 
L 425 0 
z
" transform="scale(0.015625)"/>
        <path id="ArialMT-6e" d="M 422 0 
L 422 3319 
L 928 3319 
L 928 2847 
Q 1294 3394 1984 3394 
Q 2284 3394 2536 3286 
Q 2788 3178 2913 3003 
Q 3038 2828 3088 2588 
Q 3119 2431 3119 2041 
L 3119 0 
L 2556 0 
L 2556 2019 
Q 2556 2363 2490 2533 
Q 2425 2703 2258 2804 
Q 2091 2906 1866 2906 
Q 1506 2906 1245 2678 
Q 984 2450 984 1813 
L 984 0 
L 422 0 
z
" transform="scale(0.015625)"/>
        <path id="ArialMT-20" transform="scale(0.015625)"/>
        <path id="ArialMT-33" d="M 269 1209 
L 831 1284 
Q 928 806 1161 595 
Q 1394 384 1728 384 
Q 2125 384 2398 659 
Q 2672 934 2672 1341 
Q 2672 1728 2419 1979 
Q 2166 2231 1775 2231 
Q 1616 2231 1378 2169 
L 1441 2663 
Q 1497 2656 1531 2656 
Q 1891 2656 2178 2843 
Q 2466 3031 2466 3422 
Q 2466 3731 2256 3934 
Q 2047 4138 1716 4138 
Q 1388 4138 1169 3931 
Q 950 3725 888 3313 
L 325 3413 
Q 428 3978 793 4289 
Q 1159 4600 1703 4600 
Q 2078 4600 2393 4439 
Q 2709 4278 2876 4000 
Q 3044 3722 3044 3409 
Q 3044 3113 2884 2869 
Q 2725 2625 2413 2481 
Q 2819 2388 3044 2092 
Q 3269 1797 3269 1353 
Q 3269 753 2831 336 
Q 2394 -81 1725 -81 
Q 1122 -81 723 278 
Q 325 638 269 1209 
z
" transform="scale(0.015625)"/>
        <path id="ArialMT-6d" d="M 422 0 
L 422 3319 
L 925 3319 
L 925 2853 
Q 1081 3097 1340 3245 
Q 1600 3394 1931 3394 
Q 2300 3394 2536 3241 
Q 2772 3088 2869 2813 
Q 3263 3394 3894 3394 
Q 4388 3394 4653 3120 
Q 4919 2847 4919 2278 
L 4919 0 
L 4359 0 
L 4359 2091 
Q 4359 2428 4304 2576 
Q 4250 2725 4106 2815 
Q 3963 2906 3769 2906 
Q 3419 2906 3187 2673 
Q 2956 2441 2956 1928 
L 2956 0 
L 2394 0 
L 2394 2156 
Q 2394 2531 2256 2718 
Q 2119 2906 1806 2906 
Q 1569 2906 1367 2781 
Q 1166 2656 1075 2415 
Q 984 2175 984 1722 
L 984 0 
L 422 0 
z
" transform="scale(0.015625)"/>
        <path id="ArialMT-6f" d="M 213 1659 
Q 213 2581 725 3025 
Q 1153 3394 1769 3394 
Q 2453 3394 2887 2945 
Q 3322 2497 3322 1706 
Q 3322 1066 3130 698 
Q 2938 331 2570 128 
Q 2203 -75 1769 -75 
Q 1072 -75 642 372 
Q 213 819 213 1659 
z
M 791 1659 
Q 791 1022 1069 705 
Q 1347 388 1769 388 
Q 2188 388 2466 706 
Q 2744 1025 2744 1678 
Q 2744 2294 2464 2611 
Q 2184 2928 1769 2928 
Q 1347 2928 1069 2612 
Q 791 2297 791 1659 
z
" transform="scale(0.015625)"/>
       </defs>
       <use xlink:href="#ArialMT-62"/>
       <use xlink:href="#ArialMT-72" transform="translate(55.615234 0)"/>
       <use xlink:href="#ArialMT-61" transform="translate(88.916016 0)"/>
       <use xlink:href="#ArialMT-69" transform="translate(144.53125 0)"/>
       <use xlink:href="#ArialMT-6e" transform="translate(166.748047 0)"/>
       <use xlink:href="#ArialMT-20" transform="translate(222.363281 0)"/>
       <use xlink:href="#ArialMT-33" transform="translate(250.146484 0)"/>
       <use xlink:href="#ArialMT-6d" transform="translate(305.761719 0)"/>
       <use xlink:href="#ArialMT-6f" transform="translate(389.0625 0)"/>
      </g>
     </g>
    </g>
    <g id="xtick_2">
     <g id="text_2">
      <!-- brain 5mo -->
      <g style="fill: #262626" transform="translate(131.57225 152.067656) rotate(-90) scale(0.09 -0.09)">
       <defs>
        <path id="ArialMT-35" d="M 266 1200 
L 856 1250 
Q 922 819 1161 601 
Q 1400 384 1738 384 
Q 2144 384 2425 690 
Q 2706 997 2706 1503 
Q 2706 1984 2436 2262 
Q 2166 2541 1728 2541 
Q 1456 2541 1237 2417 
Q 1019 2294 894 2097 
L 366 2166 
L 809 4519 
L 3088 4519 
L 3088 3981 
L 1259 3981 
L 1013 2750 
Q 1425 3038 1878 3038 
Q 2478 3038 2890 2622 
Q 3303 2206 3303 1553 
Q 3303 931 2941 478 
Q 2500 -78 1738 -78 
Q 1113 -78 717 272 
Q 322 622 266 1200 
z
" transform="scale(0.015625)"/>
       </defs>
       <use xlink:href="#ArialMT-62"/>
       <use xlink:href="#ArialMT-72" transform="translate(55.615234 0)"/>
       <use xlink:href="#ArialMT-61" transform="translate(88.916016 0)"/>
       <use xlink:href="#ArialMT-69" transform="translate(144.53125 0)"/>
       <use xlink:href="#ArialMT-6e" transform="translate(166.748047 0)"/>
       <use xlink:href="#ArialMT-20" transform="translate(222.363281 0)"/>
       <use xlink:href="#ArialMT-35" transform="translate(250.146484 0)"/>
       <use xlink:href="#ArialMT-6d" transform="translate(305.761719 0)"/>
       <use xlink:href="#ArialMT-6f" transform="translate(389.0625 0)"/>
      </g>
     </g>
    </g>
    <g id="xtick_3">
     <g id="text_3">
      <!-- brain 10mo -->
      <g style="fill: #262626" transform="translate(150.90625 157.0725) rotate(-90) scale(0.09 -0.09)">
       <defs>
        <path id="ArialMT-31" d="M 2384 0 
L 1822 0 
L 1822 3584 
Q 1619 3391 1289 3197 
Q 959 3003 697 2906 
L 697 3450 
Q 1169 3672 1522 3987 
Q 1875 4303 2022 4600 
L 2384 4600 
L 2384 0 
z
" transform="scale(0.015625)"/>
        <path id="ArialMT-30" d="M 266 2259 
Q 266 3072 433 3567 
Q 600 4063 929 4331 
Q 1259 4600 1759 4600 
Q 2128 4600 2406 4451 
Q 2684 4303 2865 4023 
Q 3047 3744 3150 3342 
Q 3253 2941 3253 2259 
Q 3253 1453 3087 958 
Q 2922 463 2592 192 
Q 2263 -78 1759 -78 
Q 1097 -78 719 397 
Q 266 969 266 2259 
z
M 844 2259 
Q 844 1131 1108 757 
Q 1372 384 1759 384 
Q 2147 384 2411 759 
Q 2675 1134 2675 2259 
Q 2675 3391 2411 3762 
Q 2147 4134 1753 4134 
Q 1366 4134 1134 3806 
Q 844 3388 844 2259 
z
" transform="scale(0.015625)"/>
       </defs>
       <use xlink:href="#ArialMT-62"/>
       <use xlink:href="#ArialMT-72" transform="translate(55.615234 0)"/>
       <use xlink:href="#ArialMT-61" transform="translate(88.916016 0)"/>
       <use xlink:href="#ArialMT-69" transform="translate(144.53125 0)"/>
       <use xlink:href="#ArialMT-6e" transform="translate(166.748047 0)"/>
       <use xlink:href="#ArialMT-20" transform="translate(222.363281 0)"/>
       <use xlink:href="#ArialMT-31" transform="translate(250.146484 0)"/>
       <use xlink:href="#ArialMT-30" transform="translate(305.761719 0)"/>
       <use xlink:href="#ArialMT-6d" transform="translate(361.376953 0)"/>
       <use xlink:href="#ArialMT-6f" transform="translate(444.677734 0)"/>
      </g>
     </g>
    </g>
    <g id="xtick_4">
     <g id="text_4">
      <!-- brain 18mo -->
      <g style="fill: #262626" transform="translate(170.24025 157.0725) rotate(-90) scale(0.09 -0.09)">
       <defs>
        <path id="ArialMT-38" d="M 1131 2484 
Q 781 2613 612 2850 
Q 444 3088 444 3419 
Q 444 3919 803 4259 
Q 1163 4600 1759 4600 
Q 2359 4600 2725 4251 
Q 3091 3903 3091 3403 
Q 3091 3084 2923 2848 
Q 2756 2613 2416 2484 
Q 2838 2347 3058 2040 
Q 3278 1734 3278 1309 
Q 3278 722 2862 322 
Q 2447 -78 1769 -78 
Q 1091 -78 675 323 
Q 259 725 259 1325 
Q 259 1772 486 2073 
Q 713 2375 1131 2484 
z
M 1019 3438 
Q 1019 3113 1228 2906 
Q 1438 2700 1772 2700 
Q 2097 2700 2305 2904 
Q 2513 3109 2513 3406 
Q 2513 3716 2298 3927 
Q 2084 4138 1766 4138 
Q 1444 4138 1231 3931 
Q 1019 3725 1019 3438 
z
M 838 1322 
Q 838 1081 952 856 
Q 1066 631 1291 507 
Q 1516 384 1775 384 
Q 2178 384 2440 643 
Q 2703 903 2703 1303 
Q 2703 1709 2433 1975 
Q 2163 2241 1756 2241 
Q 1359 2241 1098 1978 
Q 838 1716 838 1322 
z
" transform="scale(0.015625)"/>
       </defs>
       <use xlink:href="#ArialMT-62"/>
       <use xlink:href="#ArialMT-72" transform="translate(55.615234 0)"/>
       <use xlink:href="#ArialMT-61" transform="translate(88.916016 0)"/>
       <use xlink:href="#ArialMT-69" transform="translate(144.53125 0)"/>
       <use xlink:href="#ArialMT-6e" transform="translate(166.748047 0)"/>
       <use xlink:href="#ArialMT-20" transform="translate(222.363281 0)"/>
       <use xlink:href="#ArialMT-31" transform="translate(250.146484 0)"/>
       <use xlink:href="#ArialMT-38" transform="translate(305.761719 0)"/>
       <use xlink:href="#ArialMT-6d" transform="translate(361.376953 0)"/>
       <use xlink:href="#ArialMT-6f" transform="translate(444.677734 0)"/>
      </g>
     </g>
    </g>
    <g id="xtick_5">
     <g id="text_5">
      <!-- brain 24mo -->
      <g style="fill: #262626" transform="translate(189.57425 157.0725) rotate(-90) scale(0.09 -0.09)">
       <defs>
        <path id="ArialMT-32" d="M 3222 541 
L 3222 0 
L 194 0 
Q 188 203 259 391 
Q 375 700 629 1000 
Q 884 1300 1366 1694 
Q 2113 2306 2375 2664 
Q 2638 3022 2638 3341 
Q 2638 3675 2398 3904 
Q 2159 4134 1775 4134 
Q 1369 4134 1125 3890 
Q 881 3647 878 3216 
L 300 3275 
Q 359 3922 746 4261 
Q 1134 4600 1788 4600 
Q 2447 4600 2831 4234 
Q 3216 3869 3216 3328 
Q 3216 3053 3103 2787 
Q 2991 2522 2730 2228 
Q 2469 1934 1863 1422 
Q 1356 997 1212 845 
Q 1069 694 975 541 
L 3222 541 
z
" transform="scale(0.015625)"/>
        <path id="ArialMT-34" d="M 2069 0 
L 2069 1097 
L 81 1097 
L 81 1613 
L 2172 4581 
L 2631 4581 
L 2631 1613 
L 3250 1613 
L 3250 1097 
L 2631 1097 
L 2631 0 
L 2069 0 
z
M 2069 1613 
L 2069 3678 
L 634 1613 
L 2069 1613 
z
" transform="scale(0.015625)"/>
       </defs>
       <use xlink:href="#ArialMT-62"/>
       <use xlink:href="#ArialMT-72" transform="translate(55.615234 0)"/>
       <use xlink:href="#ArialMT-61" transform="translate(88.916016 0)"/>
       <use xlink:href="#ArialMT-69" transform="translate(144.53125 0)"/>
       <use xlink:href="#ArialMT-6e" transform="translate(166.748047 0)"/>
       <use xlink:href="#ArialMT-20" transform="translate(222.363281 0)"/>
       <use xlink:href="#ArialMT-32" transform="translate(250.146484 0)"/>
       <use xlink:href="#ArialMT-34" transform="translate(305.761719 0)"/>
       <use xlink:href="#ArialMT-6d" transform="translate(361.376953 0)"/>
       <use xlink:href="#ArialMT-6f" transform="translate(444.677734 0)"/>
      </g>
     </g>
    </g>
    <g id="xtick_6">
     <g id="text_6">
      <!-- heart 3mo -->
      <g style="fill: #262626" transform="translate(208.90825 152.568281) rotate(-90) scale(0.09 -0.09)">
       <defs>
        <path id="ArialMT-68" d="M 422 0 
L 422 4581 
L 984 4581 
L 984 2938 
Q 1378 3394 1978 3394 
Q 2347 3394 2619 3248 
Q 2891 3103 3008 2847 
Q 3125 2591 3125 2103 
L 3125 0 
L 2563 0 
L 2563 2103 
Q 2563 2525 2380 2717 
Q 2197 2909 1863 2909 
Q 1613 2909 1392 2779 
Q 1172 2650 1078 2428 
Q 984 2206 984 1816 
L 984 0 
L 422 0 
z
" transform="scale(0.015625)"/>
        <path id="ArialMT-65" d="M 2694 1069 
L 3275 997 
Q 3138 488 2766 206 
Q 2394 -75 1816 -75 
Q 1088 -75 661 373 
Q 234 822 234 1631 
Q 234 2469 665 2931 
Q 1097 3394 1784 3394 
Q 2450 3394 2872 2941 
Q 3294 2488 3294 1666 
Q 3294 1616 3291 1516 
L 816 1516 
Q 847 969 1125 678 
Q 1403 388 1819 388 
Q 2128 388 2347 550 
Q 2566 713 2694 1069 
z
M 847 1978 
L 2700 1978 
Q 2663 2397 2488 2606 
Q 2219 2931 1791 2931 
Q 1403 2931 1139 2672 
Q 875 2413 847 1978 
z
" transform="scale(0.015625)"/>
        <path id="ArialMT-74" d="M 1650 503 
L 1731 6 
Q 1494 -44 1306 -44 
Q 1000 -44 831 53 
Q 663 150 594 308 
Q 525 466 525 972 
L 525 2881 
L 113 2881 
L 113 3319 
L 525 3319 
L 525 4141 
L 1084 4478 
L 1084 3319 
L 1650 3319 
L 1650 2881 
L 1084 2881 
L 1084 941 
Q 1084 700 1114 631 
Q 1144 563 1211 522 
Q 1278 481 1403 481 
Q 1497 481 1650 503 
z
" transform="scale(0.015625)"/>
       </defs>
       <use xlink:href="#ArialMT-68"/>
       <use xlink:href="#ArialMT-65" transform="translate(55.615234 0)"/>
       <use xlink:href="#ArialMT-61" transform="translate(111.230469 0)"/>
       <use xlink:href="#ArialMT-72" transform="translate(166.845703 0)"/>
       <use xlink:href="#ArialMT-74" transform="translate(200.146484 0)"/>
       <use xlink:href="#ArialMT-20" transform="translate(227.929688 0)"/>
       <use xlink:href="#ArialMT-33" transform="translate(255.712891 0)"/>
       <use xlink:href="#ArialMT-6d" transform="translate(311.328125 0)"/>
       <use xlink:href="#ArialMT-6f" transform="translate(394.628906 0)"/>
      </g>
     </g>
    </g>
    <g id="xtick_7">
     <g id="text_7">
      <!-- heart 5mo -->
      <g style="fill: #262626" transform="translate(228.24225 152.568281) rotate(-90) scale(0.09 -0.09)">
       <use xlink:href="#ArialMT-68"/>
       <use xlink:href="#ArialMT-65" transform="translate(55.615234 0)"/>
       <use xlink:href="#ArialMT-61" transform="translate(111.230469 0)"/>
       <use xlink:href="#ArialMT-72" transform="translate(166.845703 0)"/>
       <use xlink:href="#ArialMT-74" transform="translate(200.146484 0)"/>
       <use xlink:href="#ArialMT-20" transform="translate(227.929688 0)"/>
       <use xlink:href="#ArialMT-35" transform="translate(255.712891 0)"/>
       <use xlink:href="#ArialMT-6d" transform="translate(311.328125 0)"/>
       <use xlink:href="#ArialMT-6f" transform="translate(394.628906 0)"/>
      </g>
     </g>
    </g>
    <g id="xtick_8">
     <g id="text_8">
      <!-- heart 10mo -->
      <g style="fill: #262626" transform="translate(247.57625 157.573125) rotate(-90) scale(0.09 -0.09)">
       <use xlink:href="#ArialMT-68"/>
       <use xlink:href="#ArialMT-65" transform="translate(55.615234 0)"/>
       <use xlink:href="#ArialMT-61" transform="translate(111.230469 0)"/>
       <use xlink:href="#ArialMT-72" transform="translate(166.845703 0)"/>
       <use xlink:href="#ArialMT-74" transform="translate(200.146484 0)"/>
       <use xlink:href="#ArialMT-20" transform="translate(227.929688 0)"/>
       <use xlink:href="#ArialMT-31" transform="translate(255.712891 0)"/>
       <use xlink:href="#ArialMT-30" transform="translate(311.328125 0)"/>
       <use xlink:href="#ArialMT-6d" transform="translate(366.943359 0)"/>
       <use xlink:href="#ArialMT-6f" transform="translate(450.244141 0)"/>
      </g>
     </g>
    </g>
    <g id="xtick_9">
     <g id="text_9">
      <!-- heart 18mo -->
      <g style="fill: #262626" transform="translate(266.91025 157.573125) rotate(-90) scale(0.09 -0.09)">
       <use xlink:href="#ArialMT-68"/>
       <use xlink:href="#ArialMT-65" transform="translate(55.615234 0)"/>
       <use xlink:href="#ArialMT-61" transform="translate(111.230469 0)"/>
       <use xlink:href="#ArialMT-72" transform="translate(166.845703 0)"/>
       <use xlink:href="#ArialMT-74" transform="translate(200.146484 0)"/>
       <use xlink:href="#ArialMT-20" transform="translate(227.929688 0)"/>
       <use xlink:href="#ArialMT-31" transform="translate(255.712891 0)"/>
       <use xlink:href="#ArialMT-38" transform="translate(311.328125 0)"/>
       <use xlink:href="#ArialMT-6d" transform="translate(366.943359 0)"/>
       <use xlink:href="#ArialMT-6f" transform="translate(450.244141 0)"/>
      </g>
     </g>
    </g>
    <g id="xtick_10">
     <g id="text_10">
      <!-- heart 24mo -->
      <g style="fill: #262626" transform="translate(286.24425 157.573125) rotate(-90) scale(0.09 -0.09)">
       <use xlink:href="#ArialMT-68"/>
       <use xlink:href="#ArialMT-65" transform="translate(55.615234 0)"/>
       <use xlink:href="#ArialMT-61" transform="translate(111.230469 0)"/>
       <use xlink:href="#ArialMT-72" transform="translate(166.845703 0)"/>
       <use xlink:href="#ArialMT-74" transform="translate(200.146484 0)"/>
       <use xlink:href="#ArialMT-20" transform="translate(227.929688 0)"/>
       <use xlink:href="#ArialMT-32" transform="translate(255.712891 0)"/>
       <use xlink:href="#ArialMT-34" transform="translate(311.328125 0)"/>
       <use xlink:href="#ArialMT-6d" transform="translate(366.943359 0)"/>
       <use xlink:href="#ArialMT-6f" transform="translate(450.244141 0)"/>
      </g>
     </g>
    </g>
    <g id="xtick_11">
     <g id="text_11">
      <!-- kidney 3mo -->
      <g style="fill: #262626" transform="translate(305.472781 158.070938) rotate(-90) scale(0.09 -0.09)">
       <defs>
        <path id="ArialMT-6b" d="M 425 0 
L 425 4581 
L 988 4581 
L 988 1969 
L 2319 3319 
L 3047 3319 
L 1778 2088 
L 3175 0 
L 2481 0 
L 1384 1697 
L 988 1316 
L 988 0 
L 425 0 
z
" transform="scale(0.015625)"/>
        <path id="ArialMT-64" d="M 2575 0 
L 2575 419 
Q 2259 -75 1647 -75 
Q 1250 -75 917 144 
Q 584 363 401 755 
Q 219 1147 219 1656 
Q 219 2153 384 2558 
Q 550 2963 881 3178 
Q 1213 3394 1622 3394 
Q 1922 3394 2156 3267 
Q 2391 3141 2538 2938 
L 2538 4581 
L 3097 4581 
L 3097 0 
L 2575 0 
z
M 797 1656 
Q 797 1019 1065 703 
Q 1334 388 1700 388 
Q 2069 388 2326 689 
Q 2584 991 2584 1609 
Q 2584 2291 2321 2609 
Q 2059 2928 1675 2928 
Q 1300 2928 1048 2622 
Q 797 2316 797 1656 
z
" transform="scale(0.015625)"/>
        <path id="ArialMT-79" d="M 397 -1278 
L 334 -750 
Q 519 -800 656 -800 
Q 844 -800 956 -737 
Q 1069 -675 1141 -563 
Q 1194 -478 1313 -144 
Q 1328 -97 1363 -6 
L 103 3319 
L 709 3319 
L 1400 1397 
Q 1534 1031 1641 628 
Q 1738 1016 1872 1384 
L 2581 3319 
L 3144 3319 
L 1881 -56 
Q 1678 -603 1566 -809 
Q 1416 -1088 1222 -1217 
Q 1028 -1347 759 -1347 
Q 597 -1347 397 -1278 
z
" transform="scale(0.015625)"/>
       </defs>
       <use xlink:href="#ArialMT-6b"/>
       <use xlink:href="#ArialMT-69" transform="translate(50 0)"/>
       <use xlink:href="#ArialMT-64" transform="translate(72.216797 0)"/>
       <use xlink:href="#ArialMT-6e" transform="translate(127.832031 0)"/>
       <use xlink:href="#ArialMT-65" transform="translate(183.447266 0)"/>
       <use xlink:href="#ArialMT-79" transform="translate(239.0625 0)"/>
       <use xlink:href="#ArialMT-20" transform="translate(289.0625 0)"/>
       <use xlink:href="#ArialMT-33" transform="translate(316.845703 0)"/>
       <use xlink:href="#ArialMT-6d" transform="translate(372.460938 0)"/>
       <use xlink:href="#ArialMT-6f" transform="translate(455.761719 0)"/>
      </g>
     </g>
    </g>
    <g id="xtick_12">
     <g id="text_12">
      <!-- kidney 5mo -->
      <g style="fill: #262626" transform="translate(324.806781 158.070938) rotate(-90) scale(0.09 -0.09)">
       <use xlink:href="#ArialMT-6b"/>
       <use xlink:href="#ArialMT-69" transform="translate(50 0)"/>
       <use xlink:href="#ArialMT-64" transform="translate(72.216797 0)"/>
       <use xlink:href="#ArialMT-6e" transform="translate(127.832031 0)"/>
       <use xlink:href="#ArialMT-65" transform="translate(183.447266 0)"/>
       <use xlink:href="#ArialMT-79" transform="translate(239.0625 0)"/>
       <use xlink:href="#ArialMT-20" transform="translate(289.0625 0)"/>
       <use xlink:href="#ArialMT-35" transform="translate(316.845703 0)"/>
       <use xlink:href="#ArialMT-6d" transform="translate(372.460938 0)"/>
       <use xlink:href="#ArialMT-6f" transform="translate(455.761719 0)"/>
      </g>
     </g>
    </g>
    <g id="xtick_13">
     <g id="text_13">
      <!-- kidney 10mo -->
      <g style="fill: #262626" transform="translate(344.140781 163.075781) rotate(-90) scale(0.09 -0.09)">
       <use xlink:href="#ArialMT-6b"/>
       <use xlink:href="#ArialMT-69" transform="translate(50 0)"/>
       <use xlink:href="#ArialMT-64" transform="translate(72.216797 0)"/>
       <use xlink:href="#ArialMT-6e" transform="translate(127.832031 0)"/>
       <use xlink:href="#ArialMT-65" transform="translate(183.447266 0)"/>
       <use xlink:href="#ArialMT-79" transform="translate(239.0625 0)"/>
       <use xlink:href="#ArialMT-20" transform="translate(289.0625 0)"/>
       <use xlink:href="#ArialMT-31" transform="translate(316.845703 0)"/>
       <use xlink:href="#ArialMT-30" transform="translate(372.460938 0)"/>
       <use xlink:href="#ArialMT-6d" transform="translate(428.076172 0)"/>
       <use xlink:href="#ArialMT-6f" transform="translate(511.376953 0)"/>
      </g>
     </g>
    </g>
    <g id="xtick_14">
     <g id="text_14">
      <!-- kidney 18mo -->
      <g style="fill: #262626" transform="translate(363.474781 163.075781) rotate(-90) scale(0.09 -0.09)">
       <use xlink:href="#ArialMT-6b"/>
       <use xlink:href="#ArialMT-69" transform="translate(50 0)"/>
       <use xlink:href="#ArialMT-64" transform="translate(72.216797 0)"/>
       <use xlink:href="#ArialMT-6e" transform="translate(127.832031 0)"/>
       <use xlink:href="#ArialMT-65" transform="translate(183.447266 0)"/>
       <use xlink:href="#ArialMT-79" transform="translate(239.0625 0)"/>
       <use xlink:href="#ArialMT-20" transform="translate(289.0625 0)"/>
       <use xlink:href="#ArialMT-31" transform="translate(316.845703 0)"/>
       <use xlink:href="#ArialMT-38" transform="translate(372.460938 0)"/>
       <use xlink:href="#ArialMT-6d" transform="translate(428.076172 0)"/>
       <use xlink:href="#ArialMT-6f" transform="translate(511.376953 0)"/>
      </g>
     </g>
    </g>
    <g id="xtick_15">
     <g id="text_15">
      <!-- kidney 24mo -->
      <g style="fill: #262626" transform="translate(382.808781 163.075781) rotate(-90) scale(0.09 -0.09)">
       <use xlink:href="#ArialMT-6b"/>
       <use xlink:href="#ArialMT-69" transform="translate(50 0)"/>
       <use xlink:href="#ArialMT-64" transform="translate(72.216797 0)"/>
       <use xlink:href="#ArialMT-6e" transform="translate(127.832031 0)"/>
       <use xlink:href="#ArialMT-65" transform="translate(183.447266 0)"/>
       <use xlink:href="#ArialMT-79" transform="translate(239.0625 0)"/>
       <use xlink:href="#ArialMT-20" transform="translate(289.0625 0)"/>
       <use xlink:href="#ArialMT-32" transform="translate(316.845703 0)"/>
       <use xlink:href="#ArialMT-34" transform="translate(372.460938 0)"/>
       <use xlink:href="#ArialMT-6d" transform="translate(428.076172 0)"/>
       <use xlink:href="#ArialMT-6f" transform="translate(511.376953 0)"/>
      </g>
     </g>
    </g>
    <g id="xtick_16">
     <g id="text_16">
      <!-- liver 3mo -->
      <g style="fill: #262626" transform="translate(402.24825 148.557656) rotate(-90) scale(0.09 -0.09)">
       <defs>
        <path id="ArialMT-6c" d="M 409 0 
L 409 4581 
L 972 4581 
L 972 0 
L 409 0 
z
" transform="scale(0.015625)"/>
        <path id="ArialMT-76" d="M 1344 0 
L 81 3319 
L 675 3319 
L 1388 1331 
Q 1503 1009 1600 663 
Q 1675 925 1809 1294 
L 2547 3319 
L 3125 3319 
L 1869 0 
L 1344 0 
z
" transform="scale(0.015625)"/>
       </defs>
       <use xlink:href="#ArialMT-6c"/>
       <use xlink:href="#ArialMT-69" transform="translate(22.216797 0)"/>
       <use xlink:href="#ArialMT-76" transform="translate(44.433594 0)"/>
       <use xlink:href="#ArialMT-65" transform="translate(94.433594 0)"/>
       <use xlink:href="#ArialMT-72" transform="translate(150.048828 0)"/>
       <use xlink:href="#ArialMT-20" transform="translate(183.349609 0)"/>
       <use xlink:href="#ArialMT-33" transform="translate(211.132812 0)"/>
       <use xlink:href="#ArialMT-6d" transform="translate(266.748047 0)"/>
       <use xlink:href="#ArialMT-6f" transform="translate(350.048828 0)"/>
      </g>
     </g>
    </g>
    <g id="xtick_17">
     <g id="text_17">
      <!-- liver 5mo -->
      <g style="fill: #262626" transform="translate(421.58225 148.557656) rotate(-90) scale(0.09 -0.09)">
       <use xlink:href="#ArialMT-6c"/>
       <use xlink:href="#ArialMT-69" transform="translate(22.216797 0)"/>
       <use xlink:href="#ArialMT-76" transform="translate(44.433594 0)"/>
       <use xlink:href="#ArialMT-65" transform="translate(94.433594 0)"/>
       <use xlink:href="#ArialMT-72" transform="translate(150.048828 0)"/>
       <use xlink:href="#ArialMT-20" transform="translate(183.349609 0)"/>
       <use xlink:href="#ArialMT-35" transform="translate(211.132812 0)"/>
       <use xlink:href="#ArialMT-6d" transform="translate(266.748047 0)"/>
       <use xlink:href="#ArialMT-6f" transform="translate(350.048828 0)"/>
      </g>
     </g>
    </g>
    <g id="xtick_18">
     <g id="text_18">
      <!-- liver 10mo -->
      <g style="fill: #262626" transform="translate(440.91625 153.5625) rotate(-90) scale(0.09 -0.09)">
       <use xlink:href="#ArialMT-6c"/>
       <use xlink:href="#ArialMT-69" transform="translate(22.216797 0)"/>
       <use xlink:href="#ArialMT-76" transform="translate(44.433594 0)"/>
       <use xlink:href="#ArialMT-65" transform="translate(94.433594 0)"/>
       <use xlink:href="#ArialMT-72" transform="translate(150.048828 0)"/>
       <use xlink:href="#ArialMT-20" transform="translate(183.349609 0)"/>
       <use xlink:href="#ArialMT-31" transform="translate(211.132812 0)"/>
       <use xlink:href="#ArialMT-30" transform="translate(266.748047 0)"/>
       <use xlink:href="#ArialMT-6d" transform="translate(322.363281 0)"/>
       <use xlink:href="#ArialMT-6f" transform="translate(405.664062 0)"/>
      </g>
     </g>
    </g>
    <g id="xtick_19">
     <g id="text_19">
      <!-- liver 18mo -->
      <g style="fill: #262626" transform="translate(460.25025 153.5625) rotate(-90) scale(0.09 -0.09)">
       <use xlink:href="#ArialMT-6c"/>
       <use xlink:href="#ArialMT-69" transform="translate(22.216797 0)"/>
       <use xlink:href="#ArialMT-76" transform="translate(44.433594 0)"/>
       <use xlink:href="#ArialMT-65" transform="translate(94.433594 0)"/>
       <use xlink:href="#ArialMT-72" transform="translate(150.048828 0)"/>
       <use xlink:href="#ArialMT-20" transform="translate(183.349609 0)"/>
       <use xlink:href="#ArialMT-31" transform="translate(211.132812 0)"/>
       <use xlink:href="#ArialMT-38" transform="translate(266.748047 0)"/>
       <use xlink:href="#ArialMT-6d" transform="translate(322.363281 0)"/>
       <use xlink:href="#ArialMT-6f" transform="translate(405.664062 0)"/>
      </g>
     </g>
    </g>
    <g id="xtick_20">
     <g id="text_20">
      <!-- liver 24mo -->
      <g style="fill: #262626" transform="translate(479.58425 153.5625) rotate(-90) scale(0.09 -0.09)">
       <use xlink:href="#ArialMT-6c"/>
       <use xlink:href="#ArialMT-69" transform="translate(22.216797 0)"/>
       <use xlink:href="#ArialMT-76" transform="translate(44.433594 0)"/>
       <use xlink:href="#ArialMT-65" transform="translate(94.433594 0)"/>
       <use xlink:href="#ArialMT-72" transform="translate(150.048828 0)"/>
       <use xlink:href="#ArialMT-20" transform="translate(183.349609 0)"/>
       <use xlink:href="#ArialMT-32" transform="translate(211.132812 0)"/>
       <use xlink:href="#ArialMT-34" transform="translate(266.748047 0)"/>
       <use xlink:href="#ArialMT-6d" transform="translate(322.363281 0)"/>
       <use xlink:href="#ArialMT-6f" transform="translate(405.664062 0)"/>
      </g>
     </g>
    </g>
   </g>
   <g id="matplotlib.axis_2">
    <g id="ytick_1">
     <g id="text_21">
      <!-- K9me1K27me1 -->
      <g style="fill: #262626" transform="translate(19.040781 22.202958) scale(0.11 -0.11)">
       <defs>
        <path id="ArialMT-4b" d="M 469 0 
L 469 4581 
L 1075 4581 
L 1075 2309 
L 3350 4581 
L 4172 4581 
L 2250 2725 
L 4256 0 
L 3456 0 
L 1825 2319 
L 1075 1588 
L 1075 0 
L 469 0 
z
" transform="scale(0.015625)"/>
        <path id="ArialMT-39" d="M 350 1059 
L 891 1109 
Q 959 728 1153 556 
Q 1347 384 1650 384 
Q 1909 384 2104 503 
Q 2300 622 2425 820 
Q 2550 1019 2634 1356 
Q 2719 1694 2719 2044 
Q 2719 2081 2716 2156 
Q 2547 1888 2255 1720 
Q 1963 1553 1622 1553 
Q 1053 1553 659 1965 
Q 266 2378 266 3053 
Q 266 3750 677 4175 
Q 1088 4600 1706 4600 
Q 2153 4600 2523 4359 
Q 2894 4119 3086 3673 
Q 3278 3228 3278 2384 
Q 3278 1506 3087 986 
Q 2897 466 2520 194 
Q 2144 -78 1638 -78 
Q 1100 -78 759 220 
Q 419 519 350 1059 
z
M 2653 3081 
Q 2653 3566 2395 3850 
Q 2138 4134 1775 4134 
Q 1400 4134 1122 3828 
Q 844 3522 844 3034 
Q 844 2597 1108 2323 
Q 1372 2050 1759 2050 
Q 2150 2050 2401 2323 
Q 2653 2597 2653 3081 
z
" transform="scale(0.015625)"/>
        <path id="ArialMT-37" d="M 303 3981 
L 303 4522 
L 3269 4522 
L 3269 4084 
Q 2831 3619 2401 2847 
Q 1972 2075 1738 1259 
Q 1569 684 1522 0 
L 944 0 
Q 953 541 1156 1306 
Q 1359 2072 1739 2783 
Q 2119 3494 2547 3981 
L 303 3981 
z
" transform="scale(0.015625)"/>
       </defs>
       <use xlink:href="#ArialMT-4b"/>
       <use xlink:href="#ArialMT-39" transform="translate(66.699219 0)"/>
       <use xlink:href="#ArialMT-6d" transform="translate(122.314453 0)"/>
       <use xlink:href="#ArialMT-65" transform="translate(205.615234 0)"/>
       <use xlink:href="#ArialMT-31" transform="translate(261.230469 0)"/>
       <use xlink:href="#ArialMT-4b" transform="translate(316.845703 0)"/>
       <use xlink:href="#ArialMT-32" transform="translate(383.544922 0)"/>
       <use xlink:href="#ArialMT-37" transform="translate(439.160156 0)"/>
       <use xlink:href="#ArialMT-6d" transform="translate(494.775391 0)"/>
       <use xlink:href="#ArialMT-65" transform="translate(578.076172 0)"/>
       <use xlink:href="#ArialMT-31" transform="translate(633.691406 0)"/>
      </g>
     </g>
    </g>
    <g id="ytick_2">
     <g id="text_22">
      <!-- K9me1K27me2 -->
      <g style="fill: #262626" transform="translate(19.040781 35.001529) scale(0.11 -0.11)">
       <use xlink:href="#ArialMT-4b"/>
       <use xlink:href="#ArialMT-39" transform="translate(66.699219 0)"/>
       <use xlink:href="#ArialMT-6d" transform="translate(122.314453 0)"/>
       <use xlink:href="#ArialMT-65" transform="translate(205.615234 0)"/>
       <use xlink:href="#ArialMT-31" transform="translate(261.230469 0)"/>
       <use xlink:href="#ArialMT-4b" transform="translate(316.845703 0)"/>
       <use xlink:href="#ArialMT-32" transform="translate(383.544922 0)"/>
       <use xlink:href="#ArialMT-37" transform="translate(439.160156 0)"/>
       <use xlink:href="#ArialMT-6d" transform="translate(494.775391 0)"/>
       <use xlink:href="#ArialMT-65" transform="translate(578.076172 0)"/>
       <use xlink:href="#ArialMT-32" transform="translate(633.691406 0)"/>
      </g>
     </g>
    </g>
    <g id="ytick_3">
     <g id="text_23">
      <!-- K9me2K27me2 -->
      <g style="fill: #262626" transform="translate(19.040781 47.8001) scale(0.11 -0.11)">
       <use xlink:href="#ArialMT-4b"/>
       <use xlink:href="#ArialMT-39" transform="translate(66.699219 0)"/>
       <use xlink:href="#ArialMT-6d" transform="translate(122.314453 0)"/>
       <use xlink:href="#ArialMT-65" transform="translate(205.615234 0)"/>
       <use xlink:href="#ArialMT-32" transform="translate(261.230469 0)"/>
       <use xlink:href="#ArialMT-4b" transform="translate(316.845703 0)"/>
       <use xlink:href="#ArialMT-32" transform="translate(383.544922 0)"/>
       <use xlink:href="#ArialMT-37" transform="translate(439.160156 0)"/>
       <use xlink:href="#ArialMT-6d" transform="translate(494.775391 0)"/>
       <use xlink:href="#ArialMT-65" transform="translate(578.076172 0)"/>
       <use xlink:href="#ArialMT-32" transform="translate(633.691406 0)"/>
      </g>
     </g>
    </g>
    <g id="ytick_4">
     <g id="text_24">
      <!-- K9acK36me2 -->
      <g style="fill: #262626" transform="translate(28.820469 60.598672) scale(0.11 -0.11)">
       <defs>
        <path id="ArialMT-63" d="M 2588 1216 
L 3141 1144 
Q 3050 572 2676 248 
Q 2303 -75 1759 -75 
Q 1078 -75 664 370 
Q 250 816 250 1647 
Q 250 2184 428 2587 
Q 606 2991 970 3192 
Q 1334 3394 1763 3394 
Q 2303 3394 2647 3120 
Q 2991 2847 3088 2344 
L 2541 2259 
Q 2463 2594 2264 2762 
Q 2066 2931 1784 2931 
Q 1359 2931 1093 2626 
Q 828 2322 828 1663 
Q 828 994 1084 691 
Q 1341 388 1753 388 
Q 2084 388 2306 591 
Q 2528 794 2588 1216 
z
" transform="scale(0.015625)"/>
        <path id="ArialMT-36" d="M 3184 3459 
L 2625 3416 
Q 2550 3747 2413 3897 
Q 2184 4138 1850 4138 
Q 1581 4138 1378 3988 
Q 1113 3794 959 3422 
Q 806 3050 800 2363 
Q 1003 2672 1297 2822 
Q 1591 2972 1913 2972 
Q 2475 2972 2870 2558 
Q 3266 2144 3266 1488 
Q 3266 1056 3080 686 
Q 2894 316 2569 119 
Q 2244 -78 1831 -78 
Q 1128 -78 684 439 
Q 241 956 241 2144 
Q 241 3472 731 4075 
Q 1159 4600 1884 4600 
Q 2425 4600 2770 4297 
Q 3116 3994 3184 3459 
z
M 888 1484 
Q 888 1194 1011 928 
Q 1134 663 1356 523 
Q 1578 384 1822 384 
Q 2178 384 2434 671 
Q 2691 959 2691 1453 
Q 2691 1928 2437 2201 
Q 2184 2475 1800 2475 
Q 1419 2475 1153 2201 
Q 888 1928 888 1484 
z
" transform="scale(0.015625)"/>
       </defs>
       <use xlink:href="#ArialMT-4b"/>
       <use xlink:href="#ArialMT-39" transform="translate(66.699219 0)"/>
       <use xlink:href="#ArialMT-61" transform="translate(122.314453 0)"/>
       <use xlink:href="#ArialMT-63" transform="translate(177.929688 0)"/>
       <use xlink:href="#ArialMT-4b" transform="translate(227.929688 0)"/>
       <use xlink:href="#ArialMT-33" transform="translate(294.628906 0)"/>
       <use xlink:href="#ArialMT-36" transform="translate(350.244141 0)"/>
       <use xlink:href="#ArialMT-6d" transform="translate(405.859375 0)"/>
       <use xlink:href="#ArialMT-65" transform="translate(489.160156 0)"/>
       <use xlink:href="#ArialMT-32" transform="translate(544.775391 0)"/>
      </g>
     </g>
    </g>
    <g id="ytick_5">
     <g id="text_25">
      <!-- K14acK27me2 -->
      <g style="fill: #262626" transform="translate(22.703437 73.397243) scale(0.11 -0.11)">
       <use xlink:href="#ArialMT-4b"/>
       <use xlink:href="#ArialMT-31" transform="translate(66.699219 0)"/>
       <use xlink:href="#ArialMT-34" transform="translate(122.314453 0)"/>
       <use xlink:href="#ArialMT-61" transform="translate(177.929688 0)"/>
       <use xlink:href="#ArialMT-63" transform="translate(233.544922 0)"/>
       <use xlink:href="#ArialMT-4b" transform="translate(283.544922 0)"/>
       <use xlink:href="#ArialMT-32" transform="translate(350.244141 0)"/>
       <use xlink:href="#ArialMT-37" transform="translate(405.859375 0)"/>
       <use xlink:href="#ArialMT-6d" transform="translate(461.474609 0)"/>
       <use xlink:href="#ArialMT-65" transform="translate(544.775391 0)"/>
       <use xlink:href="#ArialMT-32" transform="translate(600.390625 0)"/>
      </g>
     </g>
    </g>
    <g id="ytick_6">
     <g id="text_26">
      <!-- K14acK36me2 -->
      <g style="fill: #262626" transform="translate(22.703437 86.195815) scale(0.11 -0.11)">
       <use xlink:href="#ArialMT-4b"/>
       <use xlink:href="#ArialMT-31" transform="translate(66.699219 0)"/>
       <use xlink:href="#ArialMT-34" transform="translate(122.314453 0)"/>
       <use xlink:href="#ArialMT-61" transform="translate(177.929688 0)"/>
       <use xlink:href="#ArialMT-63" transform="translate(233.544922 0)"/>
       <use xlink:href="#ArialMT-4b" transform="translate(283.544922 0)"/>
       <use xlink:href="#ArialMT-33" transform="translate(350.244141 0)"/>
       <use xlink:href="#ArialMT-36" transform="translate(405.859375 0)"/>
       <use xlink:href="#ArialMT-6d" transform="translate(461.474609 0)"/>
       <use xlink:href="#ArialMT-65" transform="translate(544.775391 0)"/>
       <use xlink:href="#ArialMT-32" transform="translate(600.390625 0)"/>
      </g>
     </g>
    </g>
    <g id="ytick_7">
     <g id="text_27">
      <!-- K27me2K36me2 -->
      <g style="fill: #262626" transform="translate(12.92375 98.994386) scale(0.11 -0.11)">
       <use xlink:href="#ArialMT-4b"/>
       <use xlink:href="#ArialMT-32" transform="translate(66.699219 0)"/>
       <use xlink:href="#ArialMT-37" transform="translate(122.314453 0)"/>
       <use xlink:href="#ArialMT-6d" transform="translate(177.929688 0)"/>
       <use xlink:href="#ArialMT-65" transform="translate(261.230469 0)"/>
       <use xlink:href="#ArialMT-32" transform="translate(316.845703 0)"/>
       <use xlink:href="#ArialMT-4b" transform="translate(372.460938 0)"/>
       <use xlink:href="#ArialMT-33" transform="translate(439.160156 0)"/>
       <use xlink:href="#ArialMT-36" transform="translate(494.775391 0)"/>
       <use xlink:href="#ArialMT-6d" transform="translate(550.390625 0)"/>
       <use xlink:href="#ArialMT-65" transform="translate(633.691406 0)"/>
       <use xlink:href="#ArialMT-32" transform="translate(689.306641 0)"/>
      </g>
     </g>
    </g>
   </g>
   <g id="QuadMesh_1">
    <path d="M 104.36 12.96 
L 123.694 12.96 
L 123.694 25.758571 
L 104.36 25.758571 
L 104.36 12.96 
" clip-path="url(#p7f86951b3b)" style="fill: #ffffd9; stroke: #808080; stroke-width: 0.5"/>
    <path d="M 123.694 12.96 
L 143.028 12.96 
L 143.028 25.758571 
L 123.694 25.758571 
L 123.694 12.96 
" clip-path="url(#p7f86951b3b)" style="fill: #f6fbc5; stroke: #808080; stroke-width: 0.5"/>
    <path d="M 143.028 12.96 
L 162.362 12.96 
L 162.362 25.758571 
L 143.028 25.758571 
L 143.028 12.96 
" clip-path="url(#p7f86951b3b)" style="fill: #ffffd9; stroke: #808080; stroke-width: 0.5"/>
    <path d="M 162.362 12.96 
L 181.696 12.96 
L 181.696 25.758571 
L 162.362 25.758571 
L 162.362 12.96 
" clip-path="url(#p7f86951b3b)" style="fill: none; stroke: #808080; stroke-width: 0.5"/>
    <path d="M 181.696 12.96 
L 201.03 12.96 
L 201.03 25.758571 
L 181.696 25.758571 
L 181.696 12.96 
" clip-path="url(#p7f86951b3b)" style="fill: none; stroke: #808080; stroke-width: 0.5"/>
    <path d="M 201.03 12.96 
L 220.364 12.96 
L 220.364 25.758571 
L 201.03 25.758571 
L 201.03 12.96 
" clip-path="url(#p7f86951b3b)" style="fill: #eff9b5; stroke: #808080; stroke-width: 0.5"/>
    <path d="M 220.364 12.96 
L 239.698 12.96 
L 239.698 25.758571 
L 220.364 25.758571 
L 220.364 12.96 
" clip-path="url(#p7f86951b3b)" style="fill: #f6fbc5; stroke: #808080; stroke-width: 0.5"/>
    <path d="M 239.698 12.96 
L 259.032 12.96 
L 259.032 25.758571 
L 239.698 25.758571 
L 239.698 12.96 
" clip-path="url(#p7f86951b3b)" style="fill: #e7f6b1; stroke: #808080; stroke-width: 0.5"/>
    <path d="M 259.032 12.96 
L 278.366 12.96 
L 278.366 25.758571 
L 259.032 25.758571 
L 259.032 12.96 
" clip-path="url(#p7f86951b3b)" style="fill: #ffffd9; stroke: #808080; stroke-width: 0.5"/>
    <path d="M 278.366 12.96 
L 297.7 12.96 
L 297.7 25.758571 
L 278.366 25.758571 
L 278.366 12.96 
" clip-path="url(#p7f86951b3b)" style="fill: #ffffd9; stroke: #808080; stroke-width: 0.5"/>
    <path d="M 297.7 12.96 
L 317.034 12.96 
L 317.034 25.758571 
L 297.7 25.758571 
L 297.7 12.96 
" clip-path="url(#p7f86951b3b)" style="fill: #c0e6b5; stroke: #808080; stroke-width: 0.5"/>
    <path d="M 317.034 12.96 
L 336.368 12.96 
L 336.368 25.758571 
L 317.034 25.758571 
L 317.034 12.96 
" clip-path="url(#p7f86951b3b)" style="fill: #f4fbc0; stroke: #808080; stroke-width: 0.5"/>
    <path d="M 336.368 12.96 
L 355.702 12.96 
L 355.702 25.758571 
L 336.368 25.758571 
L 336.368 12.96 
" clip-path="url(#p7f86951b3b)" style="fill: #ffffd9; stroke: #808080; stroke-width: 0.5"/>
    <path d="M 355.702 12.96 
L 375.036 12.96 
L 375.036 25.758571 
L 355.702 25.758571 
L 355.702 12.96 
" clip-path="url(#p7f86951b3b)" style="fill: #ffffd9; stroke: #808080; stroke-width: 0.5"/>
    <path d="M 375.036 12.96 
L 394.37 12.96 
L 394.37 25.758571 
L 375.036 25.758571 
L 375.036 12.96 
" clip-path="url(#p7f86951b3b)" style="fill: #ffffd9; stroke: #808080; stroke-width: 0.5"/>
    <path d="M 394.37 12.96 
L 413.704 12.96 
L 413.704 25.758571 
L 394.37 25.758571 
L 394.37 12.96 
" clip-path="url(#p7f86951b3b)" style="fill: #f7fcc6; stroke: #808080; stroke-width: 0.5"/>
    <path d="M 413.704 12.96 
L 433.038 12.96 
L 433.038 25.758571 
L 413.704 25.758571 
L 413.704 12.96 
" clip-path="url(#p7f86951b3b)" style="fill: #f5fbc2; stroke: #808080; stroke-width: 0.5"/>
    <path d="M 433.038 12.96 
L 452.372 12.96 
L 452.372 25.758571 
L 433.038 25.758571 
L 433.038 12.96 
" clip-path="url(#p7f86951b3b)" style="fill: #ffffd9; stroke: #808080; stroke-width: 0.5"/>
    <path d="M 452.372 12.96 
L 471.706 12.96 
L 471.706 25.758571 
L 452.372 25.758571 
L 452.372 12.96 
" clip-path="url(#p7f86951b3b)" style="fill: #ffffd9; stroke: #808080; stroke-width: 0.5"/>
    <path d="M 471.706 12.96 
L 491.04 12.96 
L 491.04 25.758571 
L 471.706 25.758571 
L 471.706 12.96 
" clip-path="url(#p7f86951b3b)" style="fill: #ffffd9; stroke: #808080; stroke-width: 0.5"/>
    <path d="M 104.36 25.758571 
L 123.694 25.758571 
L 123.694 38.557143 
L 104.36 38.557143 
L 104.36 25.758571 
" clip-path="url(#p7f86951b3b)" style="fill: #1e88bc; stroke: #808080; stroke-width: 0.5"/>
    <path d="M 123.694 25.758571 
L 143.028 25.758571 
L 143.028 38.557143 
L 123.694 38.557143 
L 123.694 25.758571 
" clip-path="url(#p7f86951b3b)" style="fill: #1e85ba; stroke: #808080; stroke-width: 0.5"/>
    <path d="M 143.028 25.758571 
L 162.362 25.758571 
L 162.362 38.557143 
L 143.028 38.557143 
L 143.028 25.758571 
" clip-path="url(#p7f86951b3b)" style="fill: #1e8bbd; stroke: #808080; stroke-width: 0.5"/>
    <path d="M 162.362 25.758571 
L 181.696 25.758571 
L 181.696 38.557143 
L 162.362 38.557143 
L 162.362 25.758571 
" clip-path="url(#p7f86951b3b)" style="fill: #40b5c4; stroke: #808080; stroke-width: 0.5"/>
    <path d="M 181.696 25.758571 
L 201.03 25.758571 
L 201.03 38.557143 
L 181.696 38.557143 
L 181.696 25.758571 
" clip-path="url(#p7f86951b3b)" style="fill: #2351a2; stroke: #808080; stroke-width: 0.5"/>
    <path d="M 201.03 25.758571 
L 220.364 25.758571 
L 220.364 38.557143 
L 201.03 38.557143 
L 201.03 25.758571 
" clip-path="url(#p7f86951b3b)" style="fill: #225aa6; stroke: #808080; stroke-width: 0.5"/>
    <path d="M 220.364 25.758571 
L 239.698 25.758571 
L 239.698 38.557143 
L 220.364 38.557143 
L 220.364 25.758571 
" clip-path="url(#p7f86951b3b)" style="fill: #225aa6; stroke: #808080; stroke-width: 0.5"/>
    <path d="M 239.698 25.758571 
L 259.032 25.758571 
L 259.032 38.557143 
L 239.698 38.557143 
L 239.698 25.758571 
" clip-path="url(#p7f86951b3b)" style="fill: #2258a5; stroke: #808080; stroke-width: 0.5"/>
    <path d="M 259.032 25.758571 
L 278.366 25.758571 
L 278.366 38.557143 
L 259.032 38.557143 
L 259.032 25.758571 
" clip-path="url(#p7f86951b3b)" style="fill: #2355a4; stroke: #808080; stroke-width: 0.5"/>
    <path d="M 278.366 25.758571 
L 297.7 25.758571 
L 297.7 38.557143 
L 278.366 38.557143 
L 278.366 25.758571 
" clip-path="url(#p7f86951b3b)" style="fill: #2354a3; stroke: #808080; stroke-width: 0.5"/>
    <path d="M 297.7 25.758571 
L 317.034 25.758571 
L 317.034 38.557143 
L 297.7 38.557143 
L 297.7 25.758571 
" clip-path="url(#p7f86951b3b)" style="fill: #1f7bb6; stroke: #808080; stroke-width: 0.5"/>
    <path d="M 317.034 25.758571 
L 336.368 25.758571 
L 336.368 38.557143 
L 317.034 38.557143 
L 317.034 25.758571 
" clip-path="url(#p7f86951b3b)" style="fill: #216bae; stroke: #808080; stroke-width: 0.5"/>
    <path d="M 336.368 25.758571 
L 355.702 25.758571 
L 355.702 38.557143 
L 336.368 38.557143 
L 336.368 25.758571 
" clip-path="url(#p7f86951b3b)" style="fill: #2163aa; stroke: #808080; stroke-width: 0.5"/>
    <path d="M 355.702 25.758571 
L 375.036 25.758571 
L 375.036 38.557143 
L 355.702 38.557143 
L 355.702 25.758571 
" clip-path="url(#p7f86951b3b)" style="fill: #24479d; stroke: #808080; stroke-width: 0.5"/>
    <path d="M 375.036 25.758571 
L 394.37 25.758571 
L 394.37 38.557143 
L 375.036 38.557143 
L 375.036 25.758571 
" clip-path="url(#p7f86951b3b)" style="fill: #2166ac; stroke: #808080; stroke-width: 0.5"/>
    <path d="M 394.37 25.758571 
L 413.704 25.758571 
L 413.704 38.557143 
L 394.37 38.557143 
L 394.37 25.758571 
" clip-path="url(#p7f86951b3b)" style="fill: #2165ab; stroke: #808080; stroke-width: 0.5"/>
    <path d="M 413.704 25.758571 
L 433.038 25.758571 
L 433.038 38.557143 
L 413.704 38.557143 
L 413.704 25.758571 
" clip-path="url(#p7f86951b3b)" style="fill: #225ea8; stroke: #808080; stroke-width: 0.5"/>
    <path d="M 433.038 25.758571 
L 452.372 25.758571 
L 452.372 38.557143 
L 433.038 38.557143 
L 433.038 25.758571 
" clip-path="url(#p7f86951b3b)" style="fill: #1f78b4; stroke: #808080; stroke-width: 0.5"/>
    <path d="M 452.372 25.758571 
L 471.706 25.758571 
L 471.706 38.557143 
L 452.372 38.557143 
L 452.372 25.758571 
" clip-path="url(#p7f86951b3b)" style="fill: #2165ab; stroke: #808080; stroke-width: 0.5"/>
    <path d="M 471.706 25.758571 
L 491.04 25.758571 
L 491.04 38.557143 
L 471.706 38.557143 
L 471.706 25.758571 
" clip-path="url(#p7f86951b3b)" style="fill: #2354a3; stroke: #808080; stroke-width: 0.5"/>
    <path d="M 104.36 38.557143 
L 123.694 38.557143 
L 123.694 51.355714 
L 104.36 51.355714 
L 104.36 38.557143 
" clip-path="url(#p7f86951b3b)" style="fill: #f0f9b8; stroke: #808080; stroke-width: 0.5"/>
    <path d="M 123.694 38.557143 
L 143.028 38.557143 
L 143.028 51.355714 
L 123.694 51.355714 
L 123.694 38.557143 
" clip-path="url(#p7f86951b3b)" style="fill: #f5fbc2; stroke: #808080; stroke-width: 0.5"/>
    <path d="M 143.028 38.557143 
L 162.362 38.557143 
L 162.362 51.355714 
L 143.028 51.355714 
L 143.028 38.557143 
" clip-path="url(#p7f86951b3b)" style="fill: #fbfdd0; stroke: #808080; stroke-width: 0.5"/>
    <path d="M 162.362 38.557143 
L 181.696 38.557143 
L 181.696 51.355714 
L 162.362 51.355714 
L 162.362 38.557143 
" clip-path="url(#p7f86951b3b)" style="fill: #ffffd9; stroke: #808080; stroke-width: 0.5"/>
    <path d="M 181.696 38.557143 
L 201.03 38.557143 
L 201.03 51.355714 
L 181.696 51.355714 
L 181.696 38.557143 
" clip-path="url(#p7f86951b3b)" style="fill: #ffffd9; stroke: #808080; stroke-width: 0.5"/>
    <path d="M 201.03 38.557143 
L 220.364 38.557143 
L 220.364 51.355714 
L 201.03 51.355714 
L 201.03 38.557143 
" clip-path="url(#p7f86951b3b)" style="fill: #fbfdd0; stroke: #808080; stroke-width: 0.5"/>
    <path d="M 220.364 38.557143 
L 239.698 38.557143 
L 239.698 51.355714 
L 220.364 51.355714 
L 220.364 38.557143 
" clip-path="url(#p7f86951b3b)" style="fill: #ffffd9; stroke: #808080; stroke-width: 0.5"/>
    <path d="M 239.698 38.557143 
L 259.032 38.557143 
L 259.032 51.355714 
L 239.698 51.355714 
L 239.698 38.557143 
" clip-path="url(#p7f86951b3b)" style="fill: #f6fbc5; stroke: #808080; stroke-width: 0.5"/>
    <path d="M 259.032 38.557143 
L 278.366 38.557143 
L 278.366 51.355714 
L 259.032 51.355714 
L 259.032 38.557143 
" clip-path="url(#p7f86951b3b)" style="fill: #e7f6b1; stroke: #808080; stroke-width: 0.5"/>
    <path d="M 278.366 38.557143 
L 297.7 38.557143 
L 297.7 51.355714 
L 278.366 51.355714 
L 278.366 38.557143 
" clip-path="url(#p7f86951b3b)" style="fill: #ffffd9; stroke: #808080; stroke-width: 0.5"/>
    <path d="M 297.7 38.557143 
L 317.034 38.557143 
L 317.034 51.355714 
L 297.7 51.355714 
L 297.7 38.557143 
" clip-path="url(#p7f86951b3b)" style="fill: #eef8b3; stroke: #808080; stroke-width: 0.5"/>
    <path d="M 317.034 38.557143 
L 336.368 38.557143 
L 336.368 51.355714 
L 317.034 51.355714 
L 317.034 38.557143 
" clip-path="url(#p7f86951b3b)" style="fill: #f3fabd; stroke: #808080; stroke-width: 0.5"/>
    <path d="M 336.368 38.557143 
L 355.702 38.557143 
L 355.702 51.355714 
L 336.368 51.355714 
L 336.368 38.557143 
" clip-path="url(#p7f86951b3b)" style="fill: #ffffd9; stroke: #808080; stroke-width: 0.5"/>
    <path d="M 355.702 38.557143 
L 375.036 38.557143 
L 375.036 51.355714 
L 355.702 51.355714 
L 355.702 38.557143 
" clip-path="url(#p7f86951b3b)" style="fill: #ffffd9; stroke: #808080; stroke-width: 0.5"/>
    <path d="M 375.036 38.557143 
L 394.37 38.557143 
L 394.37 51.355714 
L 375.036 51.355714 
L 375.036 38.557143 
" clip-path="url(#p7f86951b3b)" style="fill: #ffffd9; stroke: #808080; stroke-width: 0.5"/>
    <path d="M 394.37 38.557143 
L 413.704 38.557143 
L 413.704 51.355714 
L 394.37 51.355714 
L 394.37 38.557143 
" clip-path="url(#p7f86951b3b)" style="fill: #edf8b2; stroke: #808080; stroke-width: 0.5"/>
    <path d="M 413.704 38.557143 
L 433.038 38.557143 
L 433.038 51.355714 
L 413.704 51.355714 
L 413.704 38.557143 
" clip-path="url(#p7f86951b3b)" style="fill: #f5fbc2; stroke: #808080; stroke-width: 0.5"/>
    <path d="M 433.038 38.557143 
L 452.372 38.557143 
L 452.372 51.355714 
L 433.038 51.355714 
L 433.038 38.557143 
" clip-path="url(#p7f86951b3b)" style="fill: #fafdcf; stroke: #808080; stroke-width: 0.5"/>
    <path d="M 452.372 38.557143 
L 471.706 38.557143 
L 471.706 51.355714 
L 452.372 51.355714 
L 452.372 38.557143 
" clip-path="url(#p7f86951b3b)" style="fill: #ffffd9; stroke: #808080; stroke-width: 0.5"/>
    <path d="M 471.706 38.557143 
L 491.04 38.557143 
L 491.04 51.355714 
L 471.706 51.355714 
L 471.706 38.557143 
" clip-path="url(#p7f86951b3b)" style="fill: #ffffd9; stroke: #808080; stroke-width: 0.5"/>
    <path d="M 104.36 51.355714 
L 123.694 51.355714 
L 123.694 64.154286 
L 104.36 64.154286 
L 104.36 51.355714 
" clip-path="url(#p7f86951b3b)" style="fill: #2b9fc2; stroke: #808080; stroke-width: 0.5"/>
    <path d="M 123.694 51.355714 
L 143.028 51.355714 
L 143.028 64.154286 
L 123.694 64.154286 
L 123.694 51.355714 
" clip-path="url(#p7f86951b3b)" style="fill: #289cc1; stroke: #808080; stroke-width: 0.5"/>
    <path d="M 143.028 51.355714 
L 162.362 51.355714 
L 162.362 64.154286 
L 143.028 64.154286 
L 143.028 51.355714 
" clip-path="url(#p7f86951b3b)" style="fill: #35aac3; stroke: #808080; stroke-width: 0.5"/>
    <path d="M 162.362 51.355714 
L 181.696 51.355714 
L 181.696 64.154286 
L 162.362 64.154286 
L 162.362 51.355714 
" clip-path="url(#p7f86951b3b)" style="fill: #40b5c4; stroke: #808080; stroke-width: 0.5"/>
    <path d="M 181.696 51.355714 
L 201.03 51.355714 
L 201.03 64.154286 
L 181.696 64.154286 
L 181.696 51.355714 
" clip-path="url(#p7f86951b3b)" style="fill: none; stroke: #808080; stroke-width: 0.5"/>
    <path d="M 201.03 51.355714 
L 220.364 51.355714 
L 220.364 64.154286 
L 201.03 64.154286 
L 201.03 51.355714 
" clip-path="url(#p7f86951b3b)" style="fill: #1f7db6; stroke: #808080; stroke-width: 0.5"/>
    <path d="M 220.364 51.355714 
L 239.698 51.355714 
L 239.698 64.154286 
L 220.364 64.154286 
L 220.364 51.355714 
" clip-path="url(#p7f86951b3b)" style="fill: #1f7ab5; stroke: #808080; stroke-width: 0.5"/>
    <path d="M 239.698 51.355714 
L 259.032 51.355714 
L 259.032 64.154286 
L 239.698 64.154286 
L 239.698 51.355714 
" clip-path="url(#p7f86951b3b)" style="fill: #1f7ab5; stroke: #808080; stroke-width: 0.5"/>
    <path d="M 259.032 51.355714 
L 278.366 51.355714 
L 278.366 64.154286 
L 259.032 64.154286 
L 259.032 51.355714 
" clip-path="url(#p7f86951b3b)" style="fill: #1d8dbe; stroke: #808080; stroke-width: 0.5"/>
    <path d="M 278.366 51.355714 
L 297.7 51.355714 
L 297.7 64.154286 
L 278.366 64.154286 
L 278.366 51.355714 
" clip-path="url(#p7f86951b3b)" style="fill: #92d5b9; stroke: #808080; stroke-width: 0.5"/>
    <path d="M 297.7 51.355714 
L 317.034 51.355714 
L 317.034 64.154286 
L 297.7 64.154286 
L 297.7 51.355714 
" clip-path="url(#p7f86951b3b)" style="fill: #1d91c0; stroke: #808080; stroke-width: 0.5"/>
    <path d="M 317.034 51.355714 
L 336.368 51.355714 
L 336.368 64.154286 
L 317.034 64.154286 
L 317.034 51.355714 
" clip-path="url(#p7f86951b3b)" style="fill: #1d90c0; stroke: #808080; stroke-width: 0.5"/>
    <path d="M 336.368 51.355714 
L 355.702 51.355714 
L 355.702 64.154286 
L 336.368 64.154286 
L 336.368 51.355714 
" clip-path="url(#p7f86951b3b)" style="fill: #1e8abd; stroke: #808080; stroke-width: 0.5"/>
    <path d="M 355.702 51.355714 
L 375.036 51.355714 
L 375.036 64.154286 
L 355.702 64.154286 
L 355.702 51.355714 
" clip-path="url(#p7f86951b3b)" style="fill: #ffffd9; stroke: #808080; stroke-width: 0.5"/>
    <path d="M 375.036 51.355714 
L 394.37 51.355714 
L 394.37 64.154286 
L 375.036 64.154286 
L 375.036 51.355714 
" clip-path="url(#p7f86951b3b)" style="fill: #225aa6; stroke: #808080; stroke-width: 0.5"/>
    <path d="M 394.37 51.355714 
L 413.704 51.355714 
L 413.704 64.154286 
L 394.37 64.154286 
L 394.37 51.355714 
" clip-path="url(#p7f86951b3b)" style="fill: #216daf; stroke: #808080; stroke-width: 0.5"/>
    <path d="M 413.704 51.355714 
L 433.038 51.355714 
L 433.038 64.154286 
L 413.704 64.154286 
L 413.704 51.355714 
" clip-path="url(#p7f86951b3b)" style="fill: #1f7bb6; stroke: #808080; stroke-width: 0.5"/>
    <path d="M 433.038 51.355714 
L 452.372 51.355714 
L 452.372 64.154286 
L 433.038 64.154286 
L 433.038 51.355714 
" clip-path="url(#p7f86951b3b)" style="fill: #216daf; stroke: #808080; stroke-width: 0.5"/>
    <path d="M 452.372 51.355714 
L 471.706 51.355714 
L 471.706 64.154286 
L 452.372 64.154286 
L 452.372 51.355714 
" clip-path="url(#p7f86951b3b)" style="fill: none; stroke: #808080; stroke-width: 0.5"/>
    <path d="M 471.706 51.355714 
L 491.04 51.355714 
L 491.04 64.154286 
L 471.706 64.154286 
L 471.706 51.355714 
" clip-path="url(#p7f86951b3b)" style="fill: #259ac1; stroke: #808080; stroke-width: 0.5"/>
    <path d="M 104.36 64.154286 
L 123.694 64.154286 
L 123.694 76.952857 
L 104.36 76.952857 
L 104.36 64.154286 
" clip-path="url(#p7f86951b3b)" style="fill: #2a9ec1; stroke: #808080; stroke-width: 0.5"/>
    <path d="M 123.694 64.154286 
L 143.028 64.154286 
L 143.028 76.952857 
L 123.694 76.952857 
L 123.694 64.154286 
" clip-path="url(#p7f86951b3b)" style="fill: #2397c1; stroke: #808080; stroke-width: 0.5"/>
    <path d="M 143.028 64.154286 
L 162.362 64.154286 
L 162.362 76.952857 
L 143.028 76.952857 
L 143.028 64.154286 
" clip-path="url(#p7f86951b3b)" style="fill: #1f93c0; stroke: #808080; stroke-width: 0.5"/>
    <path d="M 162.362 64.154286 
L 181.696 64.154286 
L 181.696 76.952857 
L 162.362 76.952857 
L 162.362 64.154286 
" clip-path="url(#p7f86951b3b)" style="fill: #37acc3; stroke: #808080; stroke-width: 0.5"/>
    <path d="M 181.696 64.154286 
L 201.03 64.154286 
L 201.03 76.952857 
L 181.696 76.952857 
L 181.696 64.154286 
" clip-path="url(#p7f86951b3b)" style="fill: #ffffd9; stroke: #808080; stroke-width: 0.5"/>
    <path d="M 201.03 64.154286 
L 220.364 64.154286 
L 220.364 76.952857 
L 201.03 76.952857 
L 201.03 64.154286 
" clip-path="url(#p7f86951b3b)" style="fill: #48b9c3; stroke: #808080; stroke-width: 0.5"/>
    <path d="M 220.364 64.154286 
L 239.698 64.154286 
L 239.698 76.952857 
L 220.364 76.952857 
L 220.364 64.154286 
" clip-path="url(#p7f86951b3b)" style="fill: #55bec1; stroke: #808080; stroke-width: 0.5"/>
    <path d="M 239.698 64.154286 
L 259.032 64.154286 
L 259.032 76.952857 
L 239.698 76.952857 
L 239.698 64.154286 
" clip-path="url(#p7f86951b3b)" style="fill: #2ea3c2; stroke: #808080; stroke-width: 0.5"/>
    <path d="M 259.032 64.154286 
L 278.366 64.154286 
L 278.366 76.952857 
L 259.032 76.952857 
L 259.032 64.154286 
" clip-path="url(#p7f86951b3b)" style="fill: #1f93c0; stroke: #808080; stroke-width: 0.5"/>
    <path d="M 278.366 64.154286 
L 297.7 64.154286 
L 297.7 76.952857 
L 278.366 76.952857 
L 278.366 64.154286 
" clip-path="url(#p7f86951b3b)" style="fill: #2da2c2; stroke: #808080; stroke-width: 0.5"/>
    <path d="M 297.7 64.154286 
L 317.034 64.154286 
L 317.034 76.952857 
L 297.7 76.952857 
L 297.7 64.154286 
" clip-path="url(#p7f86951b3b)" style="fill: #2ca1c2; stroke: #808080; stroke-width: 0.5"/>
    <path d="M 317.034 64.154286 
L 336.368 64.154286 
L 336.368 76.952857 
L 317.034 76.952857 
L 317.034 64.154286 
" clip-path="url(#p7f86951b3b)" style="fill: #259ac1; stroke: #808080; stroke-width: 0.5"/>
    <path d="M 336.368 64.154286 
L 355.702 64.154286 
L 355.702 76.952857 
L 336.368 76.952857 
L 336.368 64.154286 
" clip-path="url(#p7f86951b3b)" style="fill: #2094c0; stroke: #808080; stroke-width: 0.5"/>
    <path d="M 355.702 64.154286 
L 375.036 64.154286 
L 375.036 76.952857 
L 355.702 76.952857 
L 355.702 64.154286 
" clip-path="url(#p7f86951b3b)" style="fill: #2498c1; stroke: #808080; stroke-width: 0.5"/>
    <path d="M 375.036 64.154286 
L 394.37 64.154286 
L 394.37 76.952857 
L 375.036 76.952857 
L 375.036 64.154286 
" clip-path="url(#p7f86951b3b)" style="fill: #1d8ebf; stroke: #808080; stroke-width: 0.5"/>
    <path d="M 394.37 64.154286 
L 413.704 64.154286 
L 413.704 76.952857 
L 394.37 76.952857 
L 394.37 64.154286 
" clip-path="url(#p7f86951b3b)" style="fill: #3db2c4; stroke: #808080; stroke-width: 0.5"/>
    <path d="M 413.704 64.154286 
L 433.038 64.154286 
L 433.038 76.952857 
L 413.704 76.952857 
L 413.704 64.154286 
" clip-path="url(#p7f86951b3b)" style="fill: #34a9c3; stroke: #808080; stroke-width: 0.5"/>
    <path d="M 433.038 64.154286 
L 452.372 64.154286 
L 452.372 76.952857 
L 433.038 76.952857 
L 433.038 64.154286 
" clip-path="url(#p7f86951b3b)" style="fill: #67c4be; stroke: #808080; stroke-width: 0.5"/>
    <path d="M 452.372 64.154286 
L 471.706 64.154286 
L 471.706 76.952857 
L 452.372 76.952857 
L 452.372 64.154286 
" clip-path="url(#p7f86951b3b)" style="fill: #c2e7b4; stroke: #808080; stroke-width: 0.5"/>
    <path d="M 471.706 64.154286 
L 491.04 64.154286 
L 491.04 76.952857 
L 471.706 76.952857 
L 471.706 64.154286 
" clip-path="url(#p7f86951b3b)" style="fill: #2296c1; stroke: #808080; stroke-width: 0.5"/>
    <path d="M 104.36 76.952857 
L 123.694 76.952857 
L 123.694 89.751429 
L 104.36 89.751429 
L 104.36 76.952857 
" clip-path="url(#p7f86951b3b)" style="fill: #1e88bc; stroke: #808080; stroke-width: 0.5"/>
    <path d="M 123.694 76.952857 
L 143.028 76.952857 
L 143.028 89.751429 
L 123.694 89.751429 
L 123.694 76.952857 
" clip-path="url(#p7f86951b3b)" style="fill: #1e8abd; stroke: #808080; stroke-width: 0.5"/>
    <path d="M 143.028 76.952857 
L 162.362 76.952857 
L 162.362 89.751429 
L 143.028 89.751429 
L 143.028 76.952857 
" clip-path="url(#p7f86951b3b)" style="fill: #1e8abd; stroke: #808080; stroke-width: 0.5"/>
    <path d="M 162.362 76.952857 
L 181.696 76.952857 
L 181.696 89.751429 
L 162.362 89.751429 
L 162.362 76.952857 
" clip-path="url(#p7f86951b3b)" style="fill: #37acc3; stroke: #808080; stroke-width: 0.5"/>
    <path d="M 181.696 76.952857 
L 201.03 76.952857 
L 201.03 89.751429 
L 181.696 89.751429 
L 181.696 76.952857 
" clip-path="url(#p7f86951b3b)" style="fill: #ffffd9; stroke: #808080; stroke-width: 0.5"/>
    <path d="M 201.03 76.952857 
L 220.364 76.952857 
L 220.364 89.751429 
L 201.03 89.751429 
L 201.03 76.952857 
" clip-path="url(#p7f86951b3b)" style="fill: #2a9ec1; stroke: #808080; stroke-width: 0.5"/>
    <path d="M 220.364 76.952857 
L 239.698 76.952857 
L 239.698 89.751429 
L 220.364 89.751429 
L 220.364 76.952857 
" clip-path="url(#p7f86951b3b)" style="fill: #33a7c2; stroke: #808080; stroke-width: 0.5"/>
    <path d="M 239.698 76.952857 
L 259.032 76.952857 
L 259.032 89.751429 
L 239.698 89.751429 
L 239.698 76.952857 
" clip-path="url(#p7f86951b3b)" style="fill: #1e8bbd; stroke: #808080; stroke-width: 0.5"/>
    <path d="M 259.032 76.952857 
L 278.366 76.952857 
L 278.366 89.751429 
L 259.032 89.751429 
L 259.032 76.952857 
" clip-path="url(#p7f86951b3b)" style="fill: #1f7eb7; stroke: #808080; stroke-width: 0.5"/>
    <path d="M 278.366 76.952857 
L 297.7 76.952857 
L 297.7 89.751429 
L 278.366 89.751429 
L 278.366 76.952857 
" clip-path="url(#p7f86951b3b)" style="fill: #269bc1; stroke: #808080; stroke-width: 0.5"/>
    <path d="M 297.7 76.952857 
L 317.034 76.952857 
L 317.034 89.751429 
L 297.7 89.751429 
L 297.7 76.952857 
" clip-path="url(#p7f86951b3b)" style="fill: #1f7ab5; stroke: #808080; stroke-width: 0.5"/>
    <path d="M 317.034 76.952857 
L 336.368 76.952857 
L 336.368 89.751429 
L 317.034 89.751429 
L 317.034 76.952857 
" clip-path="url(#p7f86951b3b)" style="fill: #2073b2; stroke: #808080; stroke-width: 0.5"/>
    <path d="M 336.368 76.952857 
L 355.702 76.952857 
L 355.702 89.751429 
L 336.368 89.751429 
L 336.368 76.952857 
" clip-path="url(#p7f86951b3b)" style="fill: #1d91c0; stroke: #808080; stroke-width: 0.5"/>
    <path d="M 355.702 76.952857 
L 375.036 76.952857 
L 375.036 89.751429 
L 355.702 89.751429 
L 355.702 76.952857 
" clip-path="url(#p7f86951b3b)" style="fill: #2498c1; stroke: #808080; stroke-width: 0.5"/>
    <path d="M 375.036 76.952857 
L 394.37 76.952857 
L 394.37 89.751429 
L 375.036 89.751429 
L 375.036 76.952857 
" clip-path="url(#p7f86951b3b)" style="fill: #1f7ab5; stroke: #808080; stroke-width: 0.5"/>
    <path d="M 394.37 76.952857 
L 413.704 76.952857 
L 413.704 89.751429 
L 394.37 89.751429 
L 394.37 76.952857 
" clip-path="url(#p7f86951b3b)" style="fill: #2fa4c2; stroke: #808080; stroke-width: 0.5"/>
    <path d="M 413.704 76.952857 
L 433.038 76.952857 
L 433.038 89.751429 
L 413.704 89.751429 
L 413.704 76.952857 
" clip-path="url(#p7f86951b3b)" style="fill: #1d91c0; stroke: #808080; stroke-width: 0.5"/>
    <path d="M 433.038 76.952857 
L 452.372 76.952857 
L 452.372 89.751429 
L 433.038 89.751429 
L 433.038 76.952857 
" clip-path="url(#p7f86951b3b)" style="fill: #5dc0c0; stroke: #808080; stroke-width: 0.5"/>
    <path d="M 452.372 76.952857 
L 471.706 76.952857 
L 471.706 89.751429 
L 452.372 89.751429 
L 452.372 76.952857 
" clip-path="url(#p7f86951b3b)" style="fill: #c6e9b4; stroke: #808080; stroke-width: 0.5"/>
    <path d="M 471.706 76.952857 
L 491.04 76.952857 
L 491.04 89.751429 
L 471.706 89.751429 
L 471.706 76.952857 
" clip-path="url(#p7f86951b3b)" style="fill: #225ca7; stroke: #808080; stroke-width: 0.5"/>
    <path d="M 104.36 89.751429 
L 123.694 89.751429 
L 123.694 102.55 
L 104.36 102.55 
L 104.36 89.751429 
" clip-path="url(#p7f86951b3b)" style="fill: #2165ab; stroke: #808080; stroke-width: 0.5"/>
    <path d="M 123.694 89.751429 
L 143.028 89.751429 
L 143.028 102.55 
L 123.694 102.55 
L 123.694 89.751429 
" clip-path="url(#p7f86951b3b)" style="fill: #234c9f; stroke: #808080; stroke-width: 0.5"/>
    <path d="M 143.028 89.751429 
L 162.362 89.751429 
L 162.362 102.55 
L 143.028 102.55 
L 143.028 89.751429 
" clip-path="url(#p7f86951b3b)" style="fill: #253494; stroke: #808080; stroke-width: 0.5"/>
    <path d="M 162.362 89.751429 
L 181.696 89.751429 
L 181.696 102.55 
L 162.362 102.55 
L 162.362 89.751429 
" clip-path="url(#p7f86951b3b)" style="fill: #081d58; stroke: #808080; stroke-width: 0.5"/>
    <path d="M 181.696 89.751429 
L 201.03 89.751429 
L 201.03 102.55 
L 181.696 102.55 
L 181.696 89.751429 
" clip-path="url(#p7f86951b3b)" style="fill: none; stroke: #808080; stroke-width: 0.5"/>
    <path d="M 201.03 89.751429 
L 220.364 89.751429 
L 220.364 102.55 
L 201.03 102.55 
L 201.03 89.751429 
" clip-path="url(#p7f86951b3b)" style="fill: #216aad; stroke: #808080; stroke-width: 0.5"/>
    <path d="M 220.364 89.751429 
L 239.698 89.751429 
L 239.698 102.55 
L 220.364 102.55 
L 220.364 89.751429 
" clip-path="url(#p7f86951b3b)" style="fill: #216bae; stroke: #808080; stroke-width: 0.5"/>
    <path d="M 239.698 89.751429 
L 259.032 89.751429 
L 259.032 102.55 
L 239.698 102.55 
L 239.698 89.751429 
" clip-path="url(#p7f86951b3b)" style="fill: #24459c; stroke: #808080; stroke-width: 0.5"/>
    <path d="M 259.032 89.751429 
L 278.366 89.751429 
L 278.366 102.55 
L 259.032 102.55 
L 259.032 89.751429 
" clip-path="url(#p7f86951b3b)" style="fill: #243d98; stroke: #808080; stroke-width: 0.5"/>
    <path d="M 278.366 89.751429 
L 297.7 89.751429 
L 297.7 102.55 
L 278.366 102.55 
L 278.366 89.751429 
" clip-path="url(#p7f86951b3b)" style="fill: #21308b; stroke: #808080; stroke-width: 0.5"/>
    <path d="M 297.7 89.751429 
L 317.034 89.751429 
L 317.034 102.55 
L 297.7 102.55 
L 297.7 89.751429 
" clip-path="url(#p7f86951b3b)" style="fill: #2070b0; stroke: #808080; stroke-width: 0.5"/>
    <path d="M 317.034 89.751429 
L 336.368 89.751429 
L 336.368 102.55 
L 317.034 102.55 
L 317.034 89.751429 
" clip-path="url(#p7f86951b3b)" style="fill: #225da8; stroke: #808080; stroke-width: 0.5"/>
    <path d="M 336.368 89.751429 
L 355.702 89.751429 
L 355.702 102.55 
L 336.368 102.55 
L 336.368 89.751429 
" clip-path="url(#p7f86951b3b)" style="fill: #243c98; stroke: #808080; stroke-width: 0.5"/>
    <path d="M 355.702 89.751429 
L 375.036 89.751429 
L 375.036 102.55 
L 355.702 102.55 
L 355.702 89.751429 
" clip-path="url(#p7f86951b3b)" style="fill: #2355a4; stroke: #808080; stroke-width: 0.5"/>
    <path d="M 375.036 89.751429 
L 394.37 89.751429 
L 394.37 102.55 
L 375.036 102.55 
L 375.036 89.751429 
" clip-path="url(#p7f86951b3b)" style="fill: #243f99; stroke: #808080; stroke-width: 0.5"/>
    <path d="M 394.37 89.751429 
L 413.704 89.751429 
L 413.704 102.55 
L 394.37 102.55 
L 394.37 89.751429 
" clip-path="url(#p7f86951b3b)" style="fill: #234c9f; stroke: #808080; stroke-width: 0.5"/>
    <path d="M 413.704 89.751429 
L 433.038 89.751429 
L 433.038 102.55 
L 413.704 102.55 
L 413.704 89.751429 
" clip-path="url(#p7f86951b3b)" style="fill: #24489d; stroke: #808080; stroke-width: 0.5"/>
    <path d="M 433.038 89.751429 
L 452.372 89.751429 
L 452.372 102.55 
L 433.038 102.55 
L 433.038 89.751429 
" clip-path="url(#p7f86951b3b)" style="fill: #2165ab; stroke: #808080; stroke-width: 0.5"/>
    <path d="M 452.372 89.751429 
L 471.706 89.751429 
L 471.706 102.55 
L 452.372 102.55 
L 452.372 89.751429 
" clip-path="url(#p7f86951b3b)" style="fill: #253997; stroke: #808080; stroke-width: 0.5"/>
    <path d="M 471.706 89.751429 
L 491.04 89.751429 
L 491.04 102.55 
L 471.706 102.55 
L 471.706 89.751429 
" clip-path="url(#p7f86951b3b)" style="fill: #2166ac; stroke: #808080; stroke-width: 0.5"/>
   </g>
  </g>
 </g>
 <defs>
  <clipPath id="p7f86951b3b">
   <rect x="104.36" y="12.96" width="386.68" height="89.59"/>
  </clipPath>
 </defs>
</svg>
