<?xml version="1.0" encoding="utf-8" standalone="no"?>
<!DOCTYPE svg PUBLIC "-//W3C//DTD SVG 1.1//EN"
  "http://www.w3.org/Graphics/SVG/1.1/DTD/svg11.dtd">
<svg xmlns:xlink="http://www.w3.org/1999/xlink" width="248.16pt" height="122.16pt" viewBox="0 0 248.16 122.16" xmlns="http://www.w3.org/2000/svg" version="1.1">
 <metadata>
  <rdf:RDF xmlns:dc="http://purl.org/dc/elements/1.1/" xmlns:cc="http://creativecommons.org/ns#" xmlns:rdf="http://www.w3.org/1999/02/22-rdf-syntax-ns#">
   <cc:Work>
    <dc:type rdf:resource="http://purl.org/dc/dcmitype/StillImage"/>
    <dc:date>2025-02-05T20:18:20.245473</dc:date>
    <dc:format>image/svg+xml</dc:format>
    <dc:creator>
     <cc:Agent>
      <dc:title>Matplotlib v3.10.0, https://matplotlib.org/</dc:title>
     </cc:Agent>
    </dc:creator>
   </cc:Work>
  </rdf:RDF>
 </metadata>
 <defs>
  <style type="text/css">*{stroke-linejoin: round; stroke-linecap: butt}</style>
 </defs>
 <g id="figure_1">
  <g id="patch_1">
   <path d="M 0 122.16 
L 248.16 122.16 
L 248.16 0 
L 0 0 
L 0 122.16 
z
" style="fill: none"/>
  </g>
  <g id="axes_1">
   <g id="patch_2">
    <path d="M 47.780883 63.354208 
Q 124.080297 75.407783 197.839733 63.755376 
" clip-path="url(#p1ed25868e9)" style="fill: none; stroke: #ff0000; stroke-opacity: 0.85; stroke-width: 2.3; stroke-linecap: round"/>
    <path d="M 193.576646 62.404049 
L 197.839733 63.755376 
L 194.200819 66.35505 
z
" clip-path="url(#p1ed25868e9)" style="fill: #ff0000; fill-opacity: 0.85; stroke: #ff0000; stroke-opacity: 0.85; stroke-width: 2.3; stroke-linecap: round"/>
   </g>
   <g id="patch_3">
    <path d="M 200.379117 56.088728 
Q 124.079703 44.035153 49.436796 55.827129 
" clip-path="url(#p1ed25868e9)" style="fill: none; stroke: #ff0000; stroke-opacity: 0.85; stroke-width: 1.5; stroke-linecap: round"/>
    <path d="M 53.699884 57.178456 
L 49.436796 55.827129 
L 53.075711 53.227455 
z
" clip-path="url(#p1ed25868e9)" style="fill: #ff0000; fill-opacity: 0.85; stroke: #ff0000; stroke-opacity: 0.85; stroke-width: 1.5; stroke-linecap: round"/>
   </g>
   <g id="patch_4">
    <path d="M 35.989496 61.347499 
Q 124.07838 77.41415 209.637517 61.809476 
" clip-path="url(#p1ed25868e9)" style="fill: none; stroke: #ff0000; stroke-opacity: 0.35; stroke-width: 2.3; stroke-linecap: round"/>
    <path d="M 205.343581 60.559632 
L 209.637517 61.809476 
L 206.06128 64.494719 
z
" clip-path="url(#p1ed25868e9)" style="fill: #ff0000; fill-opacity: 0.35; stroke: #ff0000; stroke-opacity: 0.35; stroke-width: 2.3; stroke-linecap: round"/>
   </g>
   <g id="patch_5">
    <path d="M 212.170504 58.095437 
Q 124.08162 42.028786 37.642571 57.793941 
" clip-path="url(#p1ed25868e9)" style="fill: none; stroke: #ff0000; stroke-opacity: 0.35; stroke-width: 1.5; stroke-linecap: round"/>
    <path d="M 41.936507 59.043785 
L 37.642571 57.793941 
L 41.218808 55.108699 
z
" clip-path="url(#p1ed25868e9)" style="fill: #ff0000; fill-opacity: 0.35; stroke: #ff0000; stroke-opacity: 0.35; stroke-width: 1.5; stroke-linecap: round"/>
   </g>
   <g id="PathCollection_1">
    <defs>
     <path id="mdaacf06832" d="M 0 20.615528 
C 5.467302 20.615528 10.711413 18.443346 14.57738 14.57738 
C 18.443346 10.711413 20.615528 5.467302 20.615528 0 
C 20.615528 -5.467302 18.443346 -10.711413 14.57738 -14.57738 
C 10.711413 -18.443346 5.467302 -20.615528 0 -20.615528 
C -5.467302 -20.615528 -10.711413 -18.443346 -14.57738 -14.57738 
C -18.443346 -10.711413 -20.615528 -5.467302 -20.615528 0 
C -20.615528 5.467302 -18.443346 10.711413 -14.57738 14.57738 
C -10.711413 18.443346 -5.467302 20.615528 0 20.615528 
z
" style="stroke: #add8e6; stroke-opacity: 0.85"/>
    </defs>
    <g clip-path="url(#p1ed25868e9)">
     <use xlink:href="#mdaacf06832" x="27.484959" y="59.721468" style="fill: #add8e6; fill-opacity: 0.85; stroke: #add8e6; stroke-opacity: 0.85"/>
     <use xlink:href="#mdaacf06832" x="220.675041" y="59.721468" style="fill: #add8e6; fill-opacity: 0.85; stroke: #add8e6; stroke-opacity: 0.85"/>
    </g>
   </g>
   <g id="text_1">
    <g id="patch_6">
     <path d="M 11.643552 67.294124 
L 43.326365 67.294124 
Q 46.326365 67.294124 46.326365 64.294124 
L 46.326365 55.148811 
Q 46.326365 52.148811 43.326365 52.148811 
L 11.643552 52.148811 
Q 8.643552 52.148811 8.643552 55.148811 
L 8.643552 64.294124 
Q 8.643552 67.294124 11.643552 67.294124 
z
" clip-path="url(#p1ed25868e9)" style="fill: #ffffff"/>
    </g>
    <g clip-path="url(#p1ed25868e9)">
     <!-- K9me1 -->
     <g style="fill: #1a1a1a; opacity: 0.85" transform="translate(11.643552 62.306624) scale(0.1 -0.1)">
      <defs>
       <path id="ArialMT-4b" d="M 469 0 
L 469 4581 
L 1075 4581 
L 1075 2309 
L 3350 4581 
L 4172 4581 
L 2250 2725 
L 4256 0 
L 3456 0 
L 1825 2319 
L 1075 1588 
L 1075 0 
L 469 0 
z
" transform="scale(0.015625)"/>
       <path id="ArialMT-39" d="M 350 1059 
L 891 1109 
Q 959 728 1153 556 
Q 1347 384 1650 384 
Q 1909 384 2104 503 
Q 2300 622 2425 820 
Q 2550 1019 2634 1356 
Q 2719 1694 2719 2044 
Q 2719 2081 2716 2156 
Q 2547 1888 2255 1720 
Q 1963 1553 1622 1553 
Q 1053 1553 659 1965 
Q 266 2378 266 3053 
Q 266 3750 677 4175 
Q 1088 4600 1706 4600 
Q 2153 4600 2523 4359 
Q 2894 4119 3086 3673 
Q 3278 3228 3278 2384 
Q 3278 1506 3087 986 
Q 2897 466 2520 194 
Q 2144 -78 1638 -78 
Q 1100 -78 759 220 
Q 419 519 350 1059 
z
M 2653 3081 
Q 2653 3566 2395 3850 
Q 2138 4134 1775 4134 
Q 1400 4134 1122 3828 
Q 844 3522 844 3034 
Q 844 2597 1108 2323 
Q 1372 2050 1759 2050 
Q 2150 2050 2401 2323 
Q 2653 2597 2653 3081 
z
" transform="scale(0.015625)"/>
       <path id="ArialMT-6d" d="M 422 0 
L 422 3319 
L 925 3319 
L 925 2853 
Q 1081 3097 1340 3245 
Q 1600 3394 1931 3394 
Q 2300 3394 2536 3241 
Q 2772 3088 2869 2813 
Q 3263 3394 3894 3394 
Q 4388 3394 4653 3120 
Q 4919 2847 4919 2278 
L 4919 0 
L 4359 0 
L 4359 2091 
Q 4359 2428 4304 2576 
Q 4250 2725 4106 2815 
Q 3963 2906 3769 2906 
Q 3419 2906 3187 2673 
Q 2956 2441 2956 1928 
L 2956 0 
L 2394 0 
L 2394 2156 
Q 2394 2531 2256 2718 
Q 2119 2906 1806 2906 
Q 1569 2906 1367 2781 
Q 1166 2656 1075 2415 
Q 984 2175 984 1722 
L 984 0 
L 422 0 
z
" transform="scale(0.015625)"/>
       <path id="ArialMT-65" d="M 2694 1069 
L 3275 997 
Q 3138 488 2766 206 
Q 2394 -75 1816 -75 
Q 1088 -75 661 373 
Q 234 822 234 1631 
Q 234 2469 665 2931 
Q 1097 3394 1784 3394 
Q 2450 3394 2872 2941 
Q 3294 2488 3294 1666 
Q 3294 1616 3291 1516 
L 816 1516 
Q 847 969 1125 678 
Q 1403 388 1819 388 
Q 2128 388 2347 550 
Q 2566 713 2694 1069 
z
M 847 1978 
L 2700 1978 
Q 2663 2397 2488 2606 
Q 2219 2931 1791 2931 
Q 1403 2931 1139 2672 
Q 875 2413 847 1978 
z
" transform="scale(0.015625)"/>
       <path id="ArialMT-31" d="M 2384 0 
L 1822 0 
L 1822 3584 
Q 1619 3391 1289 3197 
Q 959 3003 697 2906 
L 697 3450 
Q 1169 3672 1522 3987 
Q 1875 4303 2022 4600 
L 2384 4600 
L 2384 0 
z
" transform="scale(0.015625)"/>
      </defs>
      <use xlink:href="#ArialMT-4b"/>
      <use xlink:href="#ArialMT-39" transform="translate(66.699219 0)"/>
      <use xlink:href="#ArialMT-6d" transform="translate(122.314453 0)"/>
      <use xlink:href="#ArialMT-65" transform="translate(205.615234 0)"/>
      <use xlink:href="#ArialMT-31" transform="translate(261.230469 0)"/>
     </g>
    </g>
   </g>
   <g id="text_2">
    <g id="patch_7">
     <path d="M 202.053166 67.294124 
L 239.296916 67.294124 
Q 242.296916 67.294124 242.296916 64.294124 
L 242.296916 55.148811 
Q 242.296916 52.148811 239.296916 52.148811 
L 202.053166 52.148811 
Q 199.053166 52.148811 199.053166 55.148811 
L 199.053166 64.294124 
Q 199.053166 67.294124 202.053166 67.294124 
z
" clip-path="url(#p1ed25868e9)" style="fill: #ffffff"/>
    </g>
    <g clip-path="url(#p1ed25868e9)">
     <!-- K27me3 -->
     <g style="fill: #1a1a1a; opacity: 0.85" transform="translate(202.053166 62.306624) scale(0.1 -0.1)">
      <defs>
       <path id="ArialMT-32" d="M 3222 541 
L 3222 0 
L 194 0 
Q 188 203 259 391 
Q 375 700 629 1000 
Q 884 1300 1366 1694 
Q 2113 2306 2375 2664 
Q 2638 3022 2638 3341 
Q 2638 3675 2398 3904 
Q 2159 4134 1775 4134 
Q 1369 4134 1125 3890 
Q 881 3647 878 3216 
L 300 3275 
Q 359 3922 746 4261 
Q 1134 4600 1788 4600 
Q 2447 4600 2831 4234 
Q 3216 3869 3216 3328 
Q 3216 3053 3103 2787 
Q 2991 2522 2730 2228 
Q 2469 1934 1863 1422 
Q 1356 997 1212 845 
Q 1069 694 975 541 
L 3222 541 
z
" transform="scale(0.015625)"/>
       <path id="ArialMT-37" d="M 303 3981 
L 303 4522 
L 3269 4522 
L 3269 4084 
Q 2831 3619 2401 2847 
Q 1972 2075 1738 1259 
Q 1569 684 1522 0 
L 944 0 
Q 953 541 1156 1306 
Q 1359 2072 1739 2783 
Q 2119 3494 2547 3981 
L 303 3981 
z
" transform="scale(0.015625)"/>
       <path id="ArialMT-33" d="M 269 1209 
L 831 1284 
Q 928 806 1161 595 
Q 1394 384 1728 384 
Q 2125 384 2398 659 
Q 2672 934 2672 1341 
Q 2672 1728 2419 1979 
Q 2166 2231 1775 2231 
Q 1616 2231 1378 2169 
L 1441 2663 
Q 1497 2656 1531 2656 
Q 1891 2656 2178 2843 
Q 2466 3031 2466 3422 
Q 2466 3731 2256 3934 
Q 2047 4138 1716 4138 
Q 1388 4138 1169 3931 
Q 950 3725 888 3313 
L 325 3413 
Q 428 3978 793 4289 
Q 1159 4600 1703 4600 
Q 2078 4600 2393 4439 
Q 2709 4278 2876 4000 
Q 3044 3722 3044 3409 
Q 3044 3113 2884 2869 
Q 2725 2625 2413 2481 
Q 2819 2388 3044 2092 
Q 3269 1797 3269 1353 
Q 3269 753 2831 336 
Q 2394 -81 1725 -81 
Q 1122 -81 723 278 
Q 325 638 269 1209 
z
" transform="scale(0.015625)"/>
      </defs>
      <use xlink:href="#ArialMT-4b"/>
      <use xlink:href="#ArialMT-32" transform="translate(66.699219 0)"/>
      <use xlink:href="#ArialMT-37" transform="translate(122.314453 0)"/>
      <use xlink:href="#ArialMT-6d" transform="translate(177.929688 0)"/>
      <use xlink:href="#ArialMT-65" transform="translate(261.230469 0)"/>
      <use xlink:href="#ArialMT-33" transform="translate(316.845703 0)"/>
     </g>
    </g>
   </g>
  </g>
 </g>
 <defs>
  <clipPath id="p1ed25868e9">
   <rect x="7.2" y="7.2" width="233.76" height="107.76"/>
  </clipPath>
 </defs>
</svg>
